<svg width="16" height="16" viewBox="0 0 16 16" fill="none" xmlns="http://www.w3.org/2000/svg">
    <g clip-path="url(#clip0_106_4966)">
        <path
            d="M11.3333 1.5H4.66667C2.92 1.5 1.5 2.92 1.5 4.66667V11.3333C1.5 13.08 2.92 14.5 4.66667 14.5H7.33333C7.97333 14.5 8.5 13.9733 8.5 13.3333V8.5H13.3333C13.9733 8.5 14.5 7.97333 14.5 7.33333V4.66667C14.5 2.92 13.08 1.5 11.3333 1.5ZM7.5 13.3333C7.5 13.4267 7.42667 13.5 7.33333 13.5H4.66667C3.47333 13.5 2.5 12.5267 2.5 11.3333V8.5H7.5V13.3333ZM7.5 7.5H2.5V4.66667C2.5 3.47333 3.47333 2.5 4.66667 2.5H7.5V7.5ZM13.5 7.33333C13.5 7.42667 13.4267 7.5 13.3333 7.5H8.5V2.5H11.3333C12.5267 2.5 13.5 3.47333 13.5 4.66667V7.33333Z"
            fill="currentColor" />
        <path
            d="M14 11.5H12.5V10C12.5 9.72667 12.2733 9.5 12 9.5C11.7267 9.5 11.5 9.72667 11.5 10V11.5H10C9.72667 11.5 9.5 11.7267 9.5 12C9.5 12.2733 9.72667 12.5 10 12.5H11.5V14C11.5 14.2733 11.7267 14.5 12 14.5C12.2733 14.5 12.5 14.2733 12.5 14V12.5H14C14.2733 12.5 14.5 12.2733 14.5 12C14.5 11.7267 14.2733 11.5 14 11.5Z"
            fill="currentColor" />
    </g>
    <defs>
        <clipPath id="clip0_106_4966">
            <rect width="13" height="13" fill="white" transform="translate(1.5 1.5)" />
        </clipPath>
    </defs>
</svg>