<svg width="16" height="16" viewBox="0 0 16 16" fill="none" xmlns="http://www.w3.org/2000/svg">
    <g clip-path="url(#clip0_23_3500)">
        <path d="M5.5 9.5H8M8 9.5H10.5M8 9.5V12M8 9.5V7" stroke="currentColor" stroke-linecap="round" />
        <path
            d="M1.33325 4.63321C1.33325 4.04485 1.33325 3.75067 1.37949 3.50563C1.58301 2.42691 2.42679 1.58313 3.50551 1.37961C3.75055 1.33337 4.04473 1.33337 4.63308 1.33337C4.89087 1.33337 5.01976 1.33337 5.14363 1.34496C5.67769 1.3949 6.18427 1.60473 6.59721 1.94705C6.69299 2.02645 6.78414 2.11759 6.96642 2.29987L7.33325 2.66671C7.87711 3.21056 8.14903 3.48249 8.47466 3.66366C8.65355 3.76318 8.84329 3.84178 9.04015 3.89789C9.39852 4.00004 9.78308 4.00004 10.5522 4.00004H10.8013C12.5562 4.00004 13.4337 4.00004 14.004 4.51302C14.0565 4.5602 14.1064 4.61013 14.1536 4.66259C14.6666 5.23294 14.6666 6.1104 14.6666 7.86531V9.33337C14.6666 11.8475 14.6666 13.1046 13.8855 13.8857C13.1045 14.6667 11.8474 14.6667 9.33325 14.6667H6.66659C4.15243 14.6667 2.89535 14.6667 2.1143 13.8857C1.33325 13.1046 1.33325 11.8475 1.33325 9.33337V4.63321Z"
            stroke="currentColor" />
    </g>
    <defs>
        <clipPath id="clip0_23_3500">
            <rect width="16" height="16" fill="white" />
        </clipPath>
    </defs>
</svg>