<svg width="16" height="16" viewBox="0 0 16 16" fill="none" xmlns="http://www.w3.org/2000/svg">
    <path fill-rule="evenodd" clip-rule="evenodd"
        d="M6.29973 3.1921C5.72798 2.38344 4.5839 2.24701 3.89223 2.97521L3.00684 3.90735C2.70458 4.22558 2.47484 4.66765 2.5025 5.18304C2.55849 6.22615 3.0014 8.36115 5.33285 10.8157C7.83139 13.4462 10.2147 13.5785 11.2435 13.4769C11.6649 13.4354 12.006 13.2106 12.256 12.9473L13.0574 12.1037C13.7935 11.3287 13.5791 10.0317 12.658 9.50157L11.5803 8.88126C10.9607 8.52461 10.1922 8.62684 9.69931 9.14575L9.4688 9.38843C9.45247 9.39418 9.40123 9.40801 9.30327 9.3921C9.0762 9.35522 8.5862 9.15477 7.77835 8.30425C6.97303 7.4564 6.77467 6.93424 6.73702 6.67728C6.71886 6.55332 6.73731 6.48801 6.74461 6.4675L6.74582 6.46423L6.88394 6.31882C7.42973 5.7442 7.46836 4.84495 7.01104 4.19814L6.29973 3.1921ZM4.50572 3.55793C4.80064 3.24743 5.31984 3.27182 5.60885 3.68058L6.32015 4.68662C6.55828 5.02341 6.52176 5.47151 6.27044 5.7361L6.10866 5.90643L6.40856 6.19129C6.10865 5.90644 6.10787 5.90726 6.10787 5.90726L6.10708 5.9081L6.10544 5.90986L6.102 5.9136L6.09448 5.92205C6.08921 5.92812 6.08341 5.93506 6.07721 5.94289C6.06481 5.95856 6.05078 5.97782 6.03607 6.00082C6.00656 6.04694 5.97455 6.10767 5.94745 6.18383C5.89234 6.33871 5.8623 6.54381 5.89983 6.79994C5.97357 7.30317 6.3033 7.97992 7.16486 8.88697C8.02388 9.79135 8.67264 10.1469 9.16763 10.2273C9.42163 10.2685 9.62722 10.2356 9.78291 10.1742C9.85902 10.1442 9.91921 10.1089 9.9644 10.0769C9.98694 10.0609 10.0057 10.0457 10.0209 10.0324C10.0284 10.0258 10.0351 10.0196 10.041 10.014L10.0491 10.006L10.0526 10.0023L10.0543 10.0006L10.0551 9.99977C10.0551 9.99977 10.0559 9.99896 9.75851 9.71649L10.0559 9.99895L10.3128 9.72847C10.5302 9.49956 10.869 9.44813 11.1582 9.61459L12.2359 10.2349C12.6989 10.5014 12.7895 11.157 12.4439 11.521L11.6426 12.3646C11.4852 12.5303 11.3205 12.6191 11.1604 12.6349C10.351 12.7148 8.23888 12.6466 5.94634 10.233C3.75988 7.93108 3.39312 5.98935 3.34741 5.13769C3.33532 4.91245 3.4334 4.68687 3.62033 4.49007L4.50572 3.55793Z"
        fill="currentColor" />
    <path
        d="M11.8075 3.02004C11.8075 2.78639 11.6181 2.59698 11.3844 2.59698C11.1508 2.59698 10.9614 2.78639 10.9614 3.02004V4.19245L9.78898 4.19246C9.55533 4.19246 9.36592 4.38187 9.36592 4.61552C9.36592 4.84917 9.55533 5.03858 9.78898 5.03858H10.9614V6.21097C10.9614 6.44462 11.1508 6.63403 11.3844 6.63403C11.6181 6.63403 11.8075 6.44462 11.8075 6.21097V5.03858L12.9799 5.03858C13.2136 5.03858 13.403 4.84917 13.403 4.61552C13.403 4.38187 13.2136 4.19246 12.9799 4.19245H11.8075V3.02004Z"
        fill="currentColor" />
</svg>