<svg width="16" height="16" viewBox="0 0 16 16" fill="none" xmlns="http://www.w3.org/2000/svg">
    <path
        d="M6.44104 7.98808C7.09254 7.98808 7.7294 7.79489 8.2711 7.43293C8.8128 7.07098 9.235 6.55653 9.48432 5.95462C9.73364 5.35272 9.79887 4.6904 9.67177 4.05142C9.54467 3.41244 9.23094 2.8255 8.77027 2.36482C8.30959 1.90415 7.72265 1.59042 7.08367 1.46332C6.44469 1.33622 5.78237 1.40145 5.18047 1.65077C4.57856 1.90009 4.06411 2.32229 3.70216 2.86399C3.3402 3.40569 3.14701 4.04255 3.14701 4.69405C3.14788 5.56741 3.49521 6.40476 4.11277 7.02232C4.73033 7.63988 5.56768 7.9872 6.44104 7.98808ZM6.44104 2.49803C6.87537 2.49803 7.29995 2.62683 7.66108 2.86813C8.02221 3.10943 8.30368 3.4524 8.46989 3.85367C8.63611 4.25494 8.67959 4.69649 8.59486 5.12247C8.51013 5.54846 8.30098 5.93975 7.99386 6.24687C7.68674 6.55399 7.29545 6.76314 6.86946 6.84787C6.44347 6.93261 6.00193 6.88912 5.60066 6.72291C5.19939 6.5567 4.85642 6.27523 4.61512 5.91409C4.37382 5.55296 4.24502 5.12838 4.24502 4.69405C4.24502 4.11163 4.47639 3.55307 4.88822 3.14123C5.30005 2.7294 5.85862 2.49803 6.44104 2.49803Z"
        fill="currentColor" />
    <path
        d="M6.44104 9.08645C5.13104 9.08791 3.87511 9.60894 2.9488 10.5353C2.02249 11.4616 1.50145 12.7175 1.5 14.0275C1.5 14.1731 1.55784 14.3127 1.6608 14.4157C1.76376 14.5187 1.9034 14.5765 2.049 14.5765C2.19461 14.5765 2.33425 14.5187 2.43721 14.4157C2.54017 14.3127 2.59801 14.1731 2.59801 14.0275C2.59801 13.0083 3.0029 12.0308 3.72361 11.3101C4.44431 10.5894 5.4218 10.1845 6.44104 10.1845C7.46027 10.1845 8.43776 10.5894 9.15847 11.3101C9.87918 12.0308 10.2841 13.0083 10.2841 14.0275C10.2841 14.1731 10.3419 14.3127 10.4449 14.4157C10.5478 14.5187 10.6875 14.5765 10.8331 14.5765C10.9787 14.5765 11.1183 14.5187 11.2213 14.4157C11.3242 14.3127 11.3821 14.1731 11.3821 14.0275C11.3806 12.7175 10.8596 11.4616 9.93328 10.5353C9.00697 9.60894 7.75104 9.08791 6.44104 9.08645Z"
        fill="currentColor" />
    <path d="M13.1765 5.27759V9.04229M15.0588 7.15994L11.2941 7.15994" stroke="currentColor" stroke-width="0.941176"
        stroke-linecap="round" />
</svg>