<svg width="16" height="16" viewBox="0 0 16 16" fill="none" xmlns="http://www.w3.org/2000/svg">
    <path
        d="M11.5644 2.19796L11.2535 2.50583V2.50583L11.5644 2.19796ZM13.6229 4.27631L13.3121 4.58419L13.6229 4.27631ZM14.8201 5.75655L14.4135 5.91798V5.91798L14.8201 5.75655ZM5.20931 11.9832L5.53589 11.6921H5.53589L5.20931 11.9832ZM14.3908 11.9832L14.0642 11.6921L14.3908 11.9832ZM2.60921 14.3166L2.93579 14.0255H2.93579L2.60921 14.3166ZM11.7907 14.3166L11.4641 14.0255L11.7907 14.3166ZM2.60921 4.01677L2.93579 4.30789L2.93579 4.30789L2.60921 4.01677ZM10.84 12.2292H8.76006V13.1042H10.84V12.2292ZM5.0376 7.99999V5.66666H4.1626V7.99999H5.0376ZM14.5625 7.74502V7.99999H15.4375V7.74502H14.5625ZM11.2535 2.50583L13.3121 4.58419L13.9337 3.96844L11.8752 1.89009L11.2535 2.50583ZM15.4375 7.74502C15.4375 6.7569 15.4448 6.14441 15.2267 5.59512L14.4135 5.91798C14.5552 6.27506 14.5625 6.6861 14.5625 7.74502H15.4375ZM13.3121 4.58419C14.0144 5.29329 14.2739 5.56655 14.4135 5.91798L15.2267 5.59512C15.0064 5.04017 14.5877 4.62873 13.9337 3.96844L13.3121 4.58419ZM8.77555 1.4375C9.60474 1.4375 9.89393 1.4457 10.1519 1.55673L10.4978 0.753038C10.0361 0.554295 9.53235 0.562501 8.77555 0.562501V1.4375ZM11.8752 1.89009C11.3146 1.32408 10.9543 0.94952 10.4978 0.753038L10.1519 1.55673C10.415 1.67002 10.6412 1.88759 11.2535 2.50583L11.8752 1.89009ZM8.76006 12.2292C7.76572 12.2292 7.06926 12.228 6.543 12.1486C6.03498 12.072 5.74857 11.9307 5.53589 11.6921L4.88273 12.2744C5.27927 12.7192 5.78772 12.9196 6.41251 13.0138C7.01907 13.1053 7.79337 13.1042 8.76006 13.1042V12.2292ZM4.1626 7.99999C4.1626 9.08888 4.16186 9.94483 4.24186 10.6124C4.32281 11.2878 4.49263 11.8367 4.88273 12.2744L5.53589 11.6921C5.31679 11.4463 5.182 11.1036 5.11064 10.5082C5.03834 9.90495 5.0376 9.11099 5.0376 7.99999H4.1626ZM10.84 13.1042C11.8067 13.1042 12.581 13.1053 13.1876 13.0138C13.8124 12.9196 14.3208 12.7192 14.7174 12.2744L14.0642 11.6921C13.8515 11.9307 13.5651 12.072 13.0571 12.1486C12.5308 12.228 11.8344 12.2292 10.84 12.2292V13.1042ZM14.5625 7.99999C14.5625 9.11099 14.5618 9.90495 14.4895 10.5082C14.4181 11.1036 14.2833 11.4463 14.0642 11.6921L14.7174 12.2744C15.1075 11.8367 15.2773 11.2878 15.3582 10.6124C15.4382 9.94483 15.4375 9.08888 15.4375 7.99999H14.5625ZM5.0376 5.66666C5.0376 4.55566 5.03834 3.7617 5.11064 3.15842C5.182 2.56307 5.31679 2.22033 5.53589 1.97454L4.88273 1.3923C4.49263 1.82992 4.32281 2.37886 4.24186 3.0543C4.16186 3.72182 4.1626 4.57777 4.1626 5.66666H5.0376ZM8.77555 0.562501C7.80366 0.562501 7.02565 0.561347 6.41667 0.652777C5.78981 0.746894 5.27962 0.947062 4.88273 1.3923L5.53589 1.97454C5.74821 1.73636 6.03548 1.59481 6.54659 1.51808C7.07559 1.43865 7.77609 1.4375 8.77555 1.4375V0.562501ZM9.88255 1.29167V2.75H10.7575V1.29167H9.88255ZM12.92 6.10416H15V5.22916H12.92V6.10416ZM9.88255 2.75C9.88255 3.42641 9.8818 3.973 9.93325 4.40225C9.98564 4.83941 10.0983 5.22117 10.3742 5.53065L11.0274 4.94841C10.9225 4.83075 10.8448 4.65521 10.802 4.29812C10.7583 3.93312 10.7575 3.44852 10.7575 2.75H9.88255ZM12.92 5.22916C12.2934 5.22916 11.8727 5.228 11.5588 5.18066C11.2632 5.13608 11.1258 5.05885 11.0274 4.94841L10.3742 5.53065C10.6565 5.84734 11.0159 5.98368 11.4283 6.04588C11.8225 6.10532 12.321 6.10416 12.92 6.10416V5.22916ZM8.23994 14.5625H6.15996V15.4375H8.23994V14.5625ZM2.4375 10.3333V8.00001H1.5625V10.3333H2.4375ZM6.15996 14.5625C5.16562 14.5625 4.46915 14.5613 3.9429 14.482C3.43488 14.4053 3.14847 14.264 2.93579 14.0255L2.28263 14.6077C2.67917 15.0525 3.18762 15.2529 3.81241 15.3472C4.41897 15.4387 5.19327 15.4375 6.15996 15.4375V14.5625ZM1.5625 10.3333C1.5625 11.4222 1.56176 12.2782 1.64176 12.9457C1.72271 13.6211 1.89253 14.1701 2.28263 14.6077L2.93579 14.0255C2.71668 13.7797 2.5819 13.4369 2.51054 12.8416C2.43824 12.2383 2.4375 11.4443 2.4375 10.3333H1.5625ZM8.23994 15.4375C9.20662 15.4375 9.98093 15.4387 10.5875 15.3472C11.2123 15.2529 11.7207 15.0525 12.1173 14.6077L11.4641 14.0255C11.2514 14.264 10.965 14.4053 10.457 14.482C9.93074 14.5613 9.23428 14.5625 8.23994 14.5625V15.4375ZM2.4375 8.00001C2.4375 6.88901 2.43824 6.09505 2.51054 5.49177C2.5819 4.89641 2.71668 4.55368 2.93579 4.30789L2.28263 3.72564C1.89253 4.16327 1.72271 4.71221 1.64176 5.38765C1.56176 6.05517 1.5625 6.91112 1.5625 8.00001H2.4375ZM4.63784 2.91446C3.6213 2.95761 2.83969 3.10073 2.28263 3.72564L2.93579 4.30789C3.23318 3.97428 3.67629 3.83106 4.67495 3.78867L4.63784 2.91446ZM11.9173 12.5564C11.8563 13.3304 11.7171 13.7416 11.4641 14.0255L12.1173 14.6077C12.5659 14.1044 12.7244 13.452 12.7896 12.6251L11.9173 12.5564Z"
        fill="currentColor" />
</svg>