<svg width="16" height="16" viewBox="0 0 16 16" fill="none" xmlns="http://www.w3.org/2000/svg">
    <path
        d="M10.871 1.01496C10.9996 1.04708 11.1102 1.12897 11.1785 1.2426C11.2467 1.35624 11.2671 1.49233 11.235 1.62096L10.985 2.62096C10.9704 2.68597 10.9429 2.7474 10.9042 2.80164C10.8655 2.85588 10.8163 2.90183 10.7596 2.93681C10.7029 2.97178 10.6397 2.99506 10.5739 3.00528C10.508 3.0155 10.4408 3.01245 10.3762 2.99632C10.3115 2.98019 10.2507 2.9513 10.1974 2.91135C10.1441 2.8714 10.0993 2.82119 10.0656 2.76367C10.032 2.70615 10.0102 2.64249 10.0015 2.57643C9.99278 2.51036 9.99738 2.44322 10.015 2.37896L10.265 1.37896C10.2971 1.25035 10.379 1.13976 10.4926 1.0715C10.6063 1.00324 10.7424 0.982907 10.871 1.01496ZM13.854 2.14696C13.9477 2.24073 14.0004 2.36788 14.0004 2.50046C14.0004 2.63304 13.9477 2.7602 13.854 2.85396L12.854 3.85396C12.8079 3.90172 12.7527 3.93981 12.6917 3.96601C12.6307 3.99222 12.5651 4.00601 12.4987 4.00659C12.4323 4.00716 12.3665 3.99451 12.305 3.96937C12.2436 3.94423 12.1877 3.9071 12.1408 3.86016C12.0939 3.81321 12.0567 3.75739 12.0316 3.69594C12.0064 3.63449 11.9938 3.56865 11.9944 3.50226C11.995 3.43587 12.0087 3.37026 12.035 3.30926C12.0612 3.24826 12.0992 3.19308 12.147 3.14696L13.147 2.14696C13.2408 2.05323 13.3679 2.00057 13.5005 2.00057C13.6331 2.00057 13.7602 2.05323 13.854 2.14696ZM6.284 13.033C6.53496 13.4508 6.92985 13.7626 7.39448 13.9098C7.85911 14.057 8.36151 14.0294 8.80727 13.8323C9.25303 13.6352 9.61148 13.2822 9.81527 12.8394C10.0191 12.3967 10.0542 11.8948 9.914 11.428L6.284 13.033ZM5.364 13.439L4.366 13.881C4.10779 13.995 3.82112 14.0284 3.54362 13.9766C3.26612 13.9249 3.01074 13.7904 2.811 13.591L2.411 13.192C2.21126 12.9939 2.07632 12.7399 2.02401 12.4635C1.97169 12.1871 2.00447 11.9013 2.118 11.644L5.989 2.83596C6.08072 2.62796 6.22171 2.44543 6.39979 2.30414C6.57786 2.16284 6.78766 2.06703 7.01106 2.02499C7.23446 1.98295 7.46474 1.99594 7.682 2.06284C7.89925 2.12974 8.09695 2.24853 8.258 2.40896L13.59 7.72496C13.7506 7.88517 13.8698 8.08214 13.9371 8.2988C14.0044 8.51546 14.0178 8.74526 13.9763 8.96829C13.9347 9.19132 13.8394 9.40084 13.6985 9.5787C13.5577 9.75656 13.3756 9.89738 13.168 9.98896L10.833 11.021C11.0798 11.7323 11.0501 12.5105 10.7498 13.2009C10.4495 13.8914 9.90053 14.4437 9.21188 14.7482C8.52323 15.0526 7.74526 15.087 7.03244 14.8445C6.31962 14.602 5.72406 14.1002 5.364 13.439ZM14.5 4.99996H13.5C13.3674 4.99996 13.2402 5.05264 13.1464 5.14641C13.0527 5.24018 13 5.36735 13 5.49996C13 5.63257 13.0527 5.75975 13.1464 5.85351C13.2402 5.94728 13.3674 5.99996 13.5 5.99996H14.5C14.6326 5.99996 14.7598 5.94728 14.8536 5.85351C14.9473 5.75975 15 5.63257 15 5.49996C15 5.36735 14.9473 5.24018 14.8536 5.14641C14.7598 5.05264 14.6326 4.99996 14.5 4.99996ZM6.905 3.23796L3.033 12.046C3.00042 12.1187 2.99091 12.1997 3.00575 12.278C3.02059 12.3563 3.05907 12.4282 3.116 12.484L3.517 12.884C3.57414 12.9408 3.6471 12.979 3.72633 12.9936C3.80555 13.0082 3.88734 12.9986 3.961 12.966L12.763 9.07396C12.8216 9.04803 12.873 9.00821 12.9128 8.95796C12.9526 8.90771 12.9796 8.84854 12.9914 8.78554C13.0032 8.72254 12.9995 8.65761 12.9806 8.59636C12.9617 8.53511 12.9282 8.47937 12.883 8.43396L7.553 3.11596C7.50711 3.07034 7.45084 3.03653 7.38902 3.01744C7.3272 2.99835 7.26166 2.99454 7.19804 3.00634C7.13442 3.01814 7.07461 3.04519 7.02375 3.08519C6.97288 3.12518 6.93248 3.17692 6.906 3.23596"
        fill="currentColor" />
</svg>