<svg width="16" height="16" viewBox="0 0 16 16" fill="none" xmlns="http://www.w3.org/2000/svg">
    <path
        d="M6 8C6 7.68937 6 7.53406 6.05075 7.41154C6.11841 7.24819 6.24819 7.11841 6.41154 7.05075C6.53406 7 6.68937 7 7 7H9C9.31063 7 9.46594 7 9.58846 7.05075C9.75181 7.11841 9.88159 7.24819 9.94925 7.41154C10 7.53406 10 7.68937 10 8C10 8.31063 10 8.46594 9.94925 8.58846C9.88159 8.75181 9.75181 8.88159 9.58846 8.94925C9.46594 9 9.31063 9 9 9H7C6.68937 9 6.53406 9 6.41154 8.94925C6.24819 8.88159 6.11841 8.75181 6.05075 8.58846C6 8.46594 6 8.31063 6 8Z"
        stroke="currentColor" />
    <path
        d="M13.6666 4.66663V8.66663C13.6666 11.1808 13.6666 12.4379 12.8855 13.2189C12.1045 14 10.8474 14 8.33325 14H7.66658C5.15243 14 3.89535 14 3.1143 13.2189C2.33325 12.4379 2.33325 11.1808 2.33325 8.66663V4.66663"
        stroke="currentColor" stroke-linecap="round" />
    <path
        d="M1.33325 3.33333C1.33325 2.70479 1.33325 2.39052 1.52851 2.19526C1.72378 2 2.03805 2 2.66659 2H13.3333C13.9618 2 14.2761 2 14.4713 2.19526C14.6666 2.39052 14.6666 2.70479 14.6666 3.33333C14.6666 3.96187 14.6666 4.27614 14.4713 4.4714C14.2761 4.66667 13.9618 4.66667 13.3333 4.66667H2.66659C2.03805 4.66667 1.72378 4.66667 1.52851 4.4714C1.33325 4.27614 1.33325 3.96187 1.33325 3.33333Z"
        stroke="currentColor" />
</svg>