<svg width="16" height="16" viewBox="0 0 16 16" fill="none" xmlns="http://www.w3.org/2000/svg">
    <path
        d="M7.99992 12.6651L5.35325 14.2518C5.14588 14.3764 4.90851 14.4422 4.66659 14.4422C4.42466 14.4422 4.18729 14.3764 3.97992 14.2518L1.97992 13.0518C1.78309 12.9335 1.62014 12.7664 1.50684 12.5667C1.39355 12.367 1.33376 12.1414 1.33325 11.9118V9.75177C1.33376 9.52215 1.39355 9.29655 1.50684 9.09683C1.62014 8.8971 1.78309 8.73002 1.97992 8.61177L4.66659 6.99843M7.99992 12.6651V8.99843M7.99992 12.6651L10.6466 14.2518C10.854 14.3764 11.0913 14.4422 11.3333 14.4422C11.5752 14.4422 11.8125 14.3764 12.0199 14.2518L14.0199 13.0518C14.2167 12.9335 14.3797 12.7664 14.493 12.5667C14.6063 12.367 14.6661 12.1414 14.6666 11.9118V9.75177C14.6661 9.52215 14.6063 9.29655 14.493 9.09683C14.3797 8.8971 14.2167 8.73002 14.0199 8.61177L11.3333 6.99843M7.99992 8.99843L4.66659 6.99843M7.99992 8.99843L4.66659 10.9984M7.99992 8.99843L11.3333 6.99843M7.99992 8.99843L11.3333 10.9984M7.99992 8.99843V5.33177M4.66659 6.99843V4.0851C4.66709 3.85548 4.72688 3.62988 4.84018 3.43016C4.95347 3.23044 5.11642 3.06335 5.31325 2.9451L7.31325 1.7451C7.52063 1.62051 7.75799 1.55469 7.99992 1.55469C8.24184 1.55469 8.47921 1.62051 8.68659 1.7451L10.6866 2.9451C10.8834 3.06335 11.0464 3.23044 11.1597 3.43016C11.273 3.62988 11.3327 3.85548 11.3333 4.0851V6.99843M4.66659 10.9984L1.50659 9.09843M4.66659 10.9984V14.4451M11.3333 10.9984L14.4933 9.09843M11.3333 10.9984V14.4451M7.99992 5.33177L4.83992 3.43177M7.99992 5.33177L11.1599 3.43177"
        stroke="currentColor" stroke-linecap="round" stroke-linejoin="round" />
</svg>