<svg width="16" height="16" viewBox="0 0 16 16" fill="none" xmlns="http://www.w3.org/2000/svg">
    <path
        d="M14.9994 14.4163C14.9994 14.571 14.9379 14.7194 14.8286 14.8288C14.7192 14.9381 14.5708 14.9996 14.4161 14.9996H1.58398C1.42928 14.9996 1.28092 14.9381 1.17153 14.8288C1.06215 14.7194 1.0007 14.571 1.0007 14.4163C1.0007 14.2616 1.06215 14.1133 1.17153 14.0039C1.28092 13.8945 1.42928 13.833 1.58398 13.833H14.4161C14.5708 13.833 14.7192 13.8945 14.8286 14.0039C14.9379 14.1133 14.9994 14.2616 14.9994 14.4163ZM1.17043 5.98909C1.04475 5.75597 0.986519 5.49243 1.00228 5.22806C1.01805 4.96368 1.10718 4.70893 1.25967 4.4924C1.50888 4.12675 1.84263 3.82662 2.23258 3.61748L6.60776 1.34036C7.03779 1.11674 7.51535 1 8.00005 1C8.48474 1 8.96231 1.11674 9.39234 1.34036L13.7669 3.61923C14.1569 3.82837 14.4906 4.1285 14.7398 4.49415C14.8923 4.71068 14.9815 4.96543 14.9972 5.22981C15.013 5.49418 14.9548 5.75772 14.8291 5.99084C14.6938 6.2468 14.4908 6.46073 14.2424 6.60934C13.9939 6.75795 13.7094 6.83555 13.4199 6.83368H13.2496V11.4999H13.8328C13.9875 11.4999 14.1359 11.5614 14.2453 11.6708C14.3547 11.7801 14.4161 11.9285 14.4161 12.0832C14.4161 12.2379 14.3547 12.3862 14.2453 12.4956C14.1359 12.605 13.9875 12.6665 13.8328 12.6665H2.16725C2.01256 12.6665 1.8642 12.605 1.75481 12.4956C1.64543 12.3862 1.58398 12.2379 1.58398 12.0832C1.58398 11.9285 1.64543 11.7801 1.75481 11.6708C1.8642 11.5614 2.01256 11.4999 2.16725 11.4999H2.75053V6.83368H2.58022C2.29042 6.83549 2.00569 6.75768 1.75709 6.60875C1.50848 6.45981 1.30555 6.24547 1.17043 5.98909ZM3.91709 11.4999H5.66693V6.83368H3.91709V11.4999ZM6.83349 6.83368V11.4999H9.16661V6.83368H6.83349ZM12.083 6.83368H10.3332V11.4999H12.083V6.83368ZM2.204 5.44839C2.2406 5.51586 2.29506 5.57196 2.36142 5.61055C2.42778 5.64913 2.50347 5.6687 2.58022 5.66712H13.4199C13.4966 5.6687 13.5723 5.64913 13.6387 5.61055C13.705 5.57196 13.7595 5.51586 13.7961 5.44839C13.8228 5.40381 13.8356 5.35234 13.8332 5.30046C13.8307 5.24857 13.8129 5.19858 13.7821 5.15675C13.6408 4.94672 13.4509 4.77385 13.2286 4.6528L8.85397 2.37393C8.59033 2.2371 8.29766 2.16568 8.00063 2.16568C7.7036 2.16568 7.41093 2.2371 7.14729 2.37393L2.7727 4.6528C2.55046 4.77424 2.36063 4.94727 2.21917 5.15733C2.1883 5.19899 2.17041 5.24881 2.16771 5.30058C2.16501 5.35234 2.17763 5.40376 2.204 5.44839Z"
        fill="currentColor" />
</svg>