<svg width="16" height="16" viewBox="0 0 16 16" fill="none" xmlns="http://www.w3.org/2000/svg">
<path d="M5.2998 6H6.32253C6.70244 6 7.06653 6.14812 7.33517 6.41187C7.6038 6.67562 7.75435 7.03344 7.75435 7.40625C7.75435 7.77906 7.60353 8.13688 7.33517 8.40063C7.06653 8.66438 6.70244 8.8125 6.3228 8.8125H5.2998L7.53617 11M5.2998 7.40625H8.2998M6.39071 6H8.2998" stroke="#333333" stroke-width="0.666667" stroke-miterlimit="10" stroke-linecap="round" stroke-linejoin="round"/>
<path fill-rule="evenodd" clip-rule="evenodd" d="M4 14.5H12.6667C13.1529 14.5 13.6192 14.3069 13.963 13.9631C14.3068 13.6193 14.5 13.1529 14.5 12.6667V9.00004C14.5 8.86743 14.4473 8.74025 14.3536 8.64649C14.2598 8.55272 14.1326 8.50004 14 8.50004H11.8333V3.29537C11.8333 2.34671 10.7607 1.79471 9.98867 2.34604L9.872 2.42937C9.61653 2.61072 9.31087 2.70792 8.99757 2.70745C8.68428 2.70697 8.37892 2.60884 8.124 2.42671C7.69841 2.12382 7.18903 1.96106 6.66667 1.96106C6.1443 1.96106 5.63492 2.12382 5.20933 2.42671C4.95441 2.60884 4.64906 2.70697 4.33576 2.70745C4.02246 2.70792 3.71681 2.61072 3.46133 2.42937L3.34467 2.34604C2.57267 1.79471 1.5 2.34604 1.5 3.29537V12C1.5 12.6631 1.76339 13.299 2.23223 13.7678C2.70107 14.2366 3.33696 14.5 4 14.5ZM5.79067 3.24004C6.04663 3.05834 6.35277 2.96072 6.66667 2.96072C6.98057 2.96072 7.2867 3.05834 7.54267 3.24004C7.96714 3.54345 8.47571 3.70685 8.99747 3.70745C9.51923 3.70804 10.0282 3.54581 10.4533 3.24337L10.57 3.16004C10.5949 3.14231 10.6242 3.13177 10.6547 3.12957C10.6852 3.12737 10.7157 3.1336 10.7429 3.14757C10.77 3.16154 10.7929 3.18272 10.8088 3.20879C10.8248 3.23485 10.8333 3.26481 10.8333 3.29537V12.6667C10.8333 12.9667 10.9053 13.25 11.0333 13.5H4C3.60218 13.5 3.22064 13.342 2.93934 13.0607C2.65804 12.7794 2.5 12.3979 2.5 12V3.29537C2.50008 3.26481 2.50856 3.23485 2.52452 3.20879C2.54048 3.18272 2.5633 3.16154 2.59048 3.14757C2.61767 3.1336 2.64817 3.12737 2.67866 3.12957C2.70914 3.13177 2.73844 3.14231 2.76333 3.16004L2.88 3.24337C3.30516 3.54581 3.81411 3.70804 4.33587 3.70745C4.85763 3.70685 5.3662 3.54345 5.79067 3.24004ZM11.8333 12.6667V9.50004H13.5V12.6667C13.5 12.8877 13.4122 13.0997 13.2559 13.256C13.0996 13.4122 12.8877 13.5 12.6667 13.5C12.4457 13.5 12.2337 13.4122 12.0774 13.256C11.9211 13.0997 11.8333 12.8877 11.8333 12.6667Z" fill="#333333"/>
</svg>
