<svg width="16" height="16" viewBox="0 0 16 16" fill="none" xmlns="http://www.w3.org/2000/svg">
    <path fill-rule="evenodd" clip-rule="evenodd"
        d="M15 7.24155V8.75845C15 10.0779 15 11.1229 14.9003 11.9408C14.7976 12.7826 14.5814 13.4639 14.0941 14.0012C13.6068 14.5384 12.9888 14.7769 12.2254 14.8901C11.4836 15 10.5357 15 9.33906 15H6.66094C5.46426 15 4.5164 15 3.77459 14.8901C3.01115 14.7769 2.39323 14.5384 1.90593 14.0012C1.41862 13.4639 1.20236 12.7826 1.09972 11.9408C0.999981 11.1229 0.99999 10.0779 1 8.75845L1 7.24155C0.99999 5.92213 0.999982 4.87706 1.09972 4.05916C1.20236 3.21742 1.41862 2.53613 1.90593 1.99884C2.39323 1.46155 3.01115 1.22311 3.77459 1.10994C4.5164 0.99998 5.46426 0.999989 6.66094 1L9.33906 1C10.5357 0.999989 11.4836 0.99998 12.2254 1.10994C12.9888 1.22311 13.6068 1.46156 14.0941 1.99884C14.5814 2.53613 14.7976 3.21743 14.9003 4.05916C15 4.87706 15 5.92213 15 7.24155ZM13.9323 4.20266C13.8442 3.48034 13.679 3.06418 13.4034 2.76034C13.1278 2.4565 12.7504 2.27438 12.0953 2.17726C11.4261 2.07807 10.544 2.07692 9.30233 2.07692L6.69767 2.07692C5.45602 2.07692 4.57392 2.07807 3.90474 2.17726C3.24961 2.27438 2.87217 2.4565 2.59659 2.76034C2.32101 3.06418 2.15583 3.48034 2.06775 4.20266C1.97778 4.94047 1.97674 5.91305 1.97674 7.28205L1.97674 8.71795C1.97674 10.0869 1.97778 11.0595 2.06775 11.7973C2.15583 12.5197 2.32101 12.9358 2.59659 13.2397C2.87217 13.5435 3.24961 13.7256 3.90474 13.8227C4.57392 13.9219 5.45602 13.9231 6.69767 13.9231H9.30233C10.544 13.9231 11.4261 13.9219 12.0953 13.8227C12.7504 13.7256 13.1278 13.5435 13.4034 13.2397C13.679 12.9358 13.8442 12.5197 13.9323 11.7973C14.0222 11.0595 14.0233 10.0869 14.0233 8.71795V7.28205C14.0233 5.91305 14.0222 4.94047 13.9323 4.20266ZM10.6047 4.58974C10.8744 4.58974 11.093 4.83082 11.093 5.12821L11.093 10.8718C11.093 11.1692 10.8744 11.4103 10.6047 11.4103C10.3349 11.4103 10.1163 11.1692 10.1163 10.8718V5.12821C10.1163 4.83082 10.3349 4.58974 10.6047 4.58974ZM8 4.58974C8.26972 4.58974 8.48837 4.83082 8.48837 5.12821L8.48837 10.8718C8.48837 11.1692 8.26972 11.4103 8 11.4103C7.73028 11.4103 7.51163 11.1692 7.51163 10.8718L7.51163 5.12821C7.51163 4.83082 7.73028 4.58974 8 4.58974ZM5.39535 4.58974C5.66507 4.58974 5.88372 4.83082 5.88372 5.12821L5.88372 8.71795C5.88372 9.01533 5.66507 9.25641 5.39535 9.25641C5.12563 9.25641 4.90698 9.01533 4.90698 8.71795L4.90698 5.12821C4.90698 4.83082 5.12563 4.58974 5.39535 4.58974Z"
        fill="currentColor" />
</svg>