<svg width="16" height="16" viewBox="0 0 16 16" fill="none" xmlns="http://www.w3.org/2000/svg">
    <g clip-path="url(#clip0_23_3459)">
        <path fill-rule="evenodd" clip-rule="evenodd"
            d="M7.05392 0.833452H7.04059C6.96458 0.833452 6.90592 0.833452 6.84992 0.836786C6.50354 0.857842 6.17025 0.976774 5.88879 1.17976C5.60733 1.38274 5.38925 1.66144 5.25992 1.98345C5.23925 2.03479 5.22058 2.09012 5.19659 2.16279L5.19258 2.17545L5.17525 2.22679L5.15592 2.28345C5.04925 2.57812 4.69525 2.82412 4.32059 2.83345L3.10725 2.89345C2.58325 2.95479 2.13459 3.08545 1.75525 3.39412C1.62352 3.50272 1.50252 3.62372 1.39392 3.75545C1.08525 4.13545 0.953919 4.58345 0.892585 5.10812C0.833252 5.61479 0.833252 6.25145 0.833252 7.04145V7.09345C0.833252 7.28279 0.833252 7.46012 0.848585 7.60945C0.865252 7.77479 0.903919 7.95079 1.00859 8.12012C1.04325 8.17523 1.08214 8.22723 1.12525 8.27612C1.23792 8.40345 1.36859 8.48612 1.49992 8.54679C1.50192 9.62412 1.51592 10.7121 1.61259 11.6441C1.66925 12.1908 1.75592 12.7035 1.89392 13.1408C2.02925 13.5708 2.22925 13.9781 2.54659 14.2595C3.09525 14.7475 3.78659 14.9628 4.64859 15.0661C5.49525 15.1668 6.58059 15.1668 7.96592 15.1668H8.03392C9.41925 15.1668 10.5046 15.1668 11.3513 15.0655C12.2133 14.9628 12.9046 14.7475 13.4533 14.2595C13.7706 13.9781 13.9706 13.5708 14.1066 13.1408C14.2439 12.7035 14.3306 12.1908 14.3873 11.6441C14.4839 10.7121 14.4979 9.62412 14.4999 8.54679C14.7025 8.45691 14.8734 8.30827 14.9906 8.12012C15.0959 7.95079 15.1346 7.77479 15.1513 7.60945C15.1666 7.46012 15.1666 7.28279 15.1666 7.09345V7.04145C15.1666 6.25145 15.1666 5.61479 15.1066 5.10812C15.0453 4.58345 14.9146 4.13479 14.6059 3.75545C14.4973 3.62372 14.3763 3.50272 14.2446 3.39412C13.8646 3.08545 13.4166 2.95412 12.8919 2.89279L11.6799 2.83345C11.3053 2.82412 10.9513 2.57812 10.8446 2.28345L10.8253 2.22679L10.8039 2.16212C10.7799 2.09079 10.7619 2.03479 10.7406 1.98279C10.6111 1.66089 10.393 1.38234 10.1116 1.17948C9.83013 0.976618 9.49689 0.857785 9.15058 0.836786C9.0873 0.833869 9.02394 0.832758 8.96058 0.833452H7.05392ZM5.04725 3.83345H10.9533C11.7679 3.83345 12.3386 3.83479 12.7753 3.88612C13.2059 3.93679 13.4413 4.03012 13.6133 4.17012C13.6933 4.23501 13.7655 4.30723 13.8299 4.38679C13.9699 4.55879 14.0633 4.79412 14.1139 5.22479C14.1659 5.66612 14.1666 6.24412 14.1666 7.07279C14.1666 7.29012 14.1666 7.41612 14.1566 7.50879C14.155 7.5371 14.1499 7.56511 14.1413 7.59212L14.1253 7.61412C14.1017 7.63021 14.0761 7.6432 14.0493 7.65279C13.9633 7.68879 13.8426 7.72545 13.6346 7.78745L10.1666 8.82812V8.66679C10.1666 8.20679 9.79325 7.83345 9.33325 7.83345H6.66658C6.20658 7.83345 5.83325 8.20679 5.83325 8.66679V8.82812L2.36525 7.78812C2.225 7.7495 2.08662 7.70434 1.95059 7.65279C1.9237 7.6432 1.89816 7.63021 1.87459 7.61412L5.83325 8.82812L1.85859 7.59212C1.84995 7.56511 1.8448 7.5371 1.84325 7.50879C1.83313 7.36369 1.82979 7.2182 1.83325 7.07279C1.83325 6.24412 1.83392 5.66612 1.88592 5.22479C1.93659 4.79412 2.02992 4.55879 2.16992 4.38679C2.23473 4.30751 2.30731 4.23493 2.38659 4.17012C2.55859 4.03012 2.79392 3.93679 3.22459 3.88612C3.66125 3.83479 4.23192 3.83345 5.04725 3.83345ZM7.05325 1.83345C6.95792 1.83345 6.93125 1.83345 6.90992 1.83479C6.75247 1.84438 6.60098 1.89846 6.47305 1.99075C6.34512 2.08303 6.24602 2.20973 6.18725 2.35612C6.17049 2.4008 6.15493 2.44593 6.14059 2.49145L6.12125 2.54812L6.09592 2.62345C6.06925 2.69634 6.03814 2.76634 6.00258 2.83345H9.99592C9.94761 2.74222 9.90788 2.6467 9.87725 2.54812L9.85858 2.49145C9.84424 2.44593 9.82868 2.4008 9.81192 2.35612C9.7531 2.20964 9.65389 2.08287 9.52584 1.99058C9.39778 1.89828 9.24615 1.84426 9.08858 1.83479C9.04083 1.83306 8.99303 1.83261 8.94525 1.83345H7.05325ZM2.50125 8.87279C2.50592 9.83079 2.52525 10.7508 2.60725 11.5415C2.66059 12.0548 2.73792 12.4928 2.84725 12.8401C2.95925 13.1935 3.08859 13.4035 3.21059 13.5121C3.54059 13.8055 3.99592 13.9808 4.76725 14.0721C5.54725 14.1655 6.57325 14.1668 7.99992 14.1668C9.42659 14.1668 10.4519 14.1661 11.2326 14.0728C12.0039 13.9808 12.4593 13.8048 12.7893 13.5121C12.9113 13.4035 13.0406 13.1935 13.1526 12.8401C13.2619 12.4935 13.3393 12.0548 13.3926 11.5415C13.4746 10.7508 13.4939 9.83012 13.4986 8.87279L10.1666 9.87212V10.1081C10.1666 10.4481 9.95925 10.7548 9.64258 10.8815L9.17592 11.0681C8.42099 11.3701 7.57885 11.3701 6.82392 11.0681L6.35725 10.8815C6.20265 10.8196 6.0701 10.7129 5.97671 10.5751C5.88331 10.4373 5.83334 10.2746 5.83325 10.1081V9.87212L2.50125 8.87279ZM6.83325 8.83345V9.99479L7.19525 10.1395C7.71192 10.3461 8.28858 10.3461 8.80458 10.1395L9.16658 9.99479V8.83345H6.83325Z"
            fill="currentColor" />
    </g>
    <defs>
        <clipPath id="clip0_23_3459">
            <rect width="16" height="16" fill="white" />
        </clipPath>
    </defs>
</svg>