<svg width="16" height="16" viewBox="0 0 16 16" fill="none" xmlns="http://www.w3.org/2000/svg">
    <path fill-rule="evenodd" clip-rule="evenodd"
        d="M2.84375 3.3125H13.1562C13.2806 3.3125 13.3998 3.26311 13.4877 3.17521C13.5756 3.0873 13.625 2.96807 13.625 2.84375C13.625 2.71943 13.5756 2.6002 13.4877 2.51229C13.3998 2.42439 13.2806 2.375 13.1562 2.375H2.84375C2.71943 2.375 2.6002 2.42439 2.51229 2.51229C2.42439 2.6002 2.375 2.71943 2.375 2.84375C2.375 2.96807 2.42439 3.0873 2.51229 3.17521C2.6002 3.26311 2.71943 3.3125 2.84375 3.3125ZM14.0938 4.25H1.90625C1.53329 4.25 1.1756 4.39816 0.911881 4.66188C0.648158 4.9256 0.5 5.28329 0.5 5.65625V14.0938C0.5 14.4667 0.648158 14.8244 0.911881 15.0881C1.1756 15.3518 1.53329 15.5 1.90625 15.5H14.0938C14.4667 15.5 14.8244 15.3518 15.0881 15.0881C15.3518 14.8244 15.5 14.4667 15.5 14.0938V5.65625C15.5 5.28329 15.3518 4.9256 15.0881 4.66188C14.8244 4.39816 14.4667 4.25 14.0938 4.25ZM14.5625 13.625C14.5625 13.8736 14.4637 14.1121 14.2879 14.2879C14.1121 14.4637 13.8736 14.5625 13.625 14.5625H2.375C2.12636 14.5625 1.8879 14.4637 1.71209 14.2879C1.53627 14.1121 1.4375 13.8736 1.4375 13.625V6.125C1.4375 5.87636 1.53627 5.6379 1.71209 5.46209C1.8879 5.28627 2.12636 5.1875 2.375 5.1875H13.625C13.8736 5.1875 14.1121 5.28627 14.2879 5.46209C14.4637 5.6379 14.5625 5.87636 14.5625 6.125V13.625ZM4.25 1.4375H11.75C11.8743 1.4375 11.9935 1.38811 12.0815 1.30021C12.1694 1.2123 12.2188 1.09307 12.2188 0.96875C12.2188 0.84443 12.1694 0.725201 12.0815 0.637294C11.9935 0.549386 11.8743 0.5 11.75 0.5H4.25C4.12568 0.5 4.00645 0.549386 3.91854 0.637294C3.83064 0.725201 3.78125 0.84443 3.78125 0.96875C3.78125 1.09307 3.83064 1.2123 3.91854 1.30021C4.00645 1.38811 4.12568 1.4375 4.25 1.4375Z"
        fill="currentColor" />
    <path d="M6.05566 9.94444L9.94455 9.94444M8.00011 8L8.00011 11.8889" stroke="currentColor" stroke-linecap="round" />
</svg>