<svg width="16" height="16" viewBox="0 0 16 16" fill="none" xmlns="http://www.w3.org/2000/svg">
    <path
        d="M2.87868 13.6904C3.75736 14.6667 5.17157 14.6667 8 14.6667C10.8284 14.6667 12.2426 14.6667 13.1213 13.6904C14 12.7141 14 11.1427 14 8.00004C14 4.85734 14 3.286 13.1213 2.30968C12.2426 1.33337 10.8284 1.33337 8 1.33337C5.17157 1.33337 3.75736 1.33337 2.87868 2.30968C2 3.286 2 4.85734 2 8.00004C2 11.1427 2 12.7141 2.87868 13.6904Z"
        stroke="currentColor" />
    <path
        d="M4.66675 5.33333C4.66675 5.02334 4.66675 4.86835 4.70082 4.74118C4.79329 4.39609 5.06284 4.12654 5.40793 4.03407C5.5351 4 5.69009 4 6.00008 4H10.0001C10.3101 4 10.4651 4 10.5922 4.03407C10.9373 4.12654 11.2069 4.39609 11.2993 4.74118C11.3334 4.86835 11.3334 5.02334 11.3334 5.33333C11.3334 5.64332 11.3334 5.79832 11.2993 5.92549C11.2069 6.27058 10.9373 6.54013 10.5922 6.63259C10.4651 6.66667 10.3101 6.66667 10.0001 6.66667H6.00008C5.69009 6.66667 5.5351 6.66667 5.40793 6.63259C5.06284 6.54013 4.79329 6.27058 4.70082 5.92549C4.66675 5.79832 4.66675 5.64332 4.66675 5.33333Z"
        stroke="currentColor" />
    <circle cx="5.33341" cy="8.66667" r="0.666667" fill="currentColor" />
    <circle cx="5.33341" cy="11.3333" r="0.666667" fill="currentColor" />
    <circle cx="7.99992" cy="8.66667" r="0.666667" fill="currentColor" />
    <circle cx="7.99992" cy="11.3333" r="0.666667" fill="currentColor" />
    <circle cx="10.6667" cy="8.66667" r="0.666667" fill="currentColor" />
    <circle cx="10.6667" cy="11.3333" r="0.666667" fill="currentColor" />
</svg>