<svg width="16" height="16" viewBox="0 0 16 16" fill="none" xmlns="http://www.w3.org/2000/svg">
    <path
        d="M11.0233 9.22485C11.3572 9.22485 11.6279 8.95414 11.6279 8.6202C11.6279 8.28626 11.3572 8.01555 11.0233 8.01555C10.6893 8.01555 10.4186 8.28626 10.4186 8.6202C10.4186 8.95414 10.6893 9.22485 11.0233 9.22485Z"
        fill="currentColor" />
    <path
        d="M11.0233 11.6435C11.3572 11.6435 11.6279 11.3727 11.6279 11.0388C11.6279 10.7049 11.3572 10.4341 11.0233 10.4341C10.6893 10.4341 10.4186 10.7049 10.4186 11.0388C10.4186 11.3727 10.6893 11.6435 11.0233 11.6435Z"
        fill="currentColor" />
    <path
        d="M8.60465 8.6202C8.60465 8.95414 8.33394 9.22485 8 9.22485C7.66606 9.22485 7.39535 8.95414 7.39535 8.6202C7.39535 8.28626 7.66606 8.01555 8 8.01555C8.33394 8.01555 8.60465 8.28626 8.60465 8.6202Z"
        fill="currentColor" />
    <path
        d="M8.60465 11.0388C8.60465 11.3727 8.33394 11.6435 8 11.6435C7.66606 11.6435 7.39535 11.3727 7.39535 11.0388C7.39535 10.7049 7.66606 10.4341 8 10.4341C8.33394 10.4341 8.60465 10.7049 8.60465 11.0388Z"
        fill="currentColor" />
    <path
        d="M4.97674 9.22485C5.31068 9.22485 5.5814 8.95414 5.5814 8.6202C5.5814 8.28626 5.31068 8.01555 4.97674 8.01555C4.6428 8.01555 4.37209 8.28626 4.37209 8.6202C4.37209 8.95414 4.6428 9.22485 4.97674 9.22485Z"
        fill="currentColor" />
    <path
        d="M4.97674 11.6435C5.31068 11.6435 5.5814 11.3727 5.5814 11.0388C5.5814 10.7049 5.31068 10.4341 4.97674 10.4341C4.6428 10.4341 4.37209 10.7049 4.37209 11.0388C4.37209 11.3727 4.6428 11.6435 4.97674 11.6435Z"
        fill="currentColor" />
    <path fill-rule="evenodd" clip-rule="evenodd"
        d="M4.97674 1.81787C5.2272 1.81787 5.43023 2.0209 5.43023 2.27136V2.73254C5.83051 2.72484 6.2715 2.72484 6.75651 2.72485H9.24341C9.72844 2.72484 10.1695 2.72484 10.5698 2.73254V2.27136C10.5698 2.0209 10.7728 1.81787 11.0233 1.81787C11.2737 1.81787 11.4767 2.0209 11.4767 2.27136V2.77146C11.6339 2.78344 11.7828 2.79851 11.9236 2.81744C12.6325 2.91275 13.2063 3.11357 13.6588 3.56606C14.1113 4.01856 14.3121 4.59235 14.4074 5.30125C14.5 5.99007 14.5 6.87022 14.5 7.98141V9.25896C14.5 10.3701 14.5 11.2503 14.4074 11.9391C14.3121 12.648 14.1113 13.2218 13.6588 13.6743C13.2063 14.1268 12.6325 14.3276 11.9236 14.423C11.2348 14.5156 10.3546 14.5156 9.24344 14.5155H6.75659C5.6454 14.5156 4.76523 14.5156 4.0764 14.423C3.3675 14.3276 2.79372 14.1268 2.34122 13.6743C1.88872 13.2218 1.6879 12.648 1.59259 11.9391C1.49998 11.2503 1.49999 10.3702 1.5 9.25896V7.98143C1.49999 6.87023 1.49998 5.99008 1.59259 5.30125C1.6879 4.59235 1.88872 4.01856 2.34122 3.56606C2.79372 3.11357 3.3675 2.91275 4.0764 2.81744C4.21724 2.79851 4.36608 2.78344 4.52326 2.77146V2.27136C4.52326 2.0209 4.72629 1.81787 4.97674 1.81787ZM4.19726 3.71633C3.58892 3.79812 3.23844 3.9515 2.98255 4.20739C2.72665 4.46329 2.57327 4.81377 2.49148 5.4221C2.47763 5.52513 2.46605 5.63359 2.45637 5.7481H13.5436C13.5339 5.63359 13.5224 5.52513 13.5085 5.42211C13.4267 4.81377 13.2733 4.46329 13.0175 4.20739C12.7616 3.9515 12.4111 3.79812 11.8027 3.71633C11.1814 3.63279 10.3623 3.63182 9.2093 3.63182H6.7907C5.63774 3.63182 4.81864 3.63279 4.19726 3.71633ZM2.40698 8.01555C2.40698 7.49916 2.40717 7.04975 2.41489 6.65508H13.5851C13.5928 7.04975 13.593 7.49916 13.593 8.01555V9.22485C13.593 10.3778 13.5921 11.1969 13.5085 11.8183C13.4267 12.4266 13.2733 12.7771 13.0175 13.033C12.7616 13.2889 12.4111 13.4423 11.8027 13.5241C11.1814 13.6076 10.3623 13.6086 9.2093 13.6086H6.7907C5.63774 13.6086 4.81864 13.6076 4.19726 13.5241C3.58892 13.4423 3.23844 13.2889 2.98255 13.033C2.72665 12.7771 2.57327 12.4266 2.49148 11.8183C2.40794 11.1969 2.40698 10.3778 2.40698 9.22485V8.01555Z"
        fill="currentColor" />
</svg>