<svg width="16" height="16" viewBox="0 0 16 16" fill="none" xmlns="http://www.w3.org/2000/svg">
    <path
        d="M11.3334 9.33329C11.7016 9.33329 12 9.03482 12 8.66663C12 8.29844 11.7016 7.99996 11.3334 7.99996C10.9652 7.99996 10.6667 8.29844 10.6667 8.66663C10.6667 9.03482 10.9652 9.33329 11.3334 9.33329Z"
        fill="currentColor" />
    <path
        d="M11.3334 12C11.7016 12 12 11.7015 12 11.3333C12 10.9651 11.7016 10.6666 11.3334 10.6666C10.9652 10.6666 10.6667 10.9651 10.6667 11.3333C10.6667 11.7015 10.9652 12 11.3334 12Z"
        fill="currentColor" />
    <path
        d="M8.66671 8.66663C8.66671 9.03482 8.36823 9.33329 8.00004 9.33329C7.63185 9.33329 7.33337 9.03482 7.33337 8.66663C7.33337 8.29844 7.63185 7.99996 8.00004 7.99996C8.36823 7.99996 8.66671 8.29844 8.66671 8.66663Z"
        fill="currentColor" />
    <path
        d="M8.66671 11.3333C8.66671 11.7015 8.36823 12 8.00004 12C7.63185 12 7.33337 11.7015 7.33337 11.3333C7.33337 10.9651 7.63185 10.6666 8.00004 10.6666C8.36823 10.6666 8.66671 10.9651 8.66671 11.3333Z"
        fill="currentColor" />
    <path
        d="M4.66671 9.33329C5.0349 9.33329 5.33337 9.03482 5.33337 8.66663C5.33337 8.29844 5.0349 7.99996 4.66671 7.99996C4.29852 7.99996 4.00004 8.29844 4.00004 8.66663C4.00004 9.03482 4.29852 9.33329 4.66671 9.33329Z"
        fill="currentColor" />
    <path
        d="M4.66671 12C5.0349 12 5.33337 11.7015 5.33337 11.3333C5.33337 10.9651 5.0349 10.6666 4.66671 10.6666C4.29852 10.6666 4.00004 10.9651 4.00004 11.3333C4.00004 11.7015 4.29852 12 4.66671 12Z"
        fill="currentColor" />
    <path fill-rule="evenodd" clip-rule="evenodd"
        d="M4.66671 1.16663C4.94285 1.16663 5.16671 1.39048 5.16671 1.66663V2.17511C5.60804 2.16662 6.09426 2.16662 6.62901 2.16663H9.37099C9.90575 2.16662 10.392 2.16662 10.8334 2.17511V1.66663C10.8334 1.39048 11.0572 1.16663 11.3334 1.16663C11.6095 1.16663 11.8334 1.39048 11.8334 1.66663V2.21802C12.0067 2.23123 12.1708 2.24784 12.3261 2.26872C13.1077 2.3738 13.7403 2.59521 14.2392 3.09412C14.7381 3.59303 14.9595 4.22566 15.0646 5.00728C15.1667 5.76675 15.1667 6.73716 15.1667 7.96232V9.3709C15.1667 10.5961 15.1667 11.5665 15.0646 12.326C14.9595 13.1076 14.7381 13.7402 14.2392 14.2391C13.7403 14.738 13.1077 14.9595 12.3261 15.0645C11.5666 15.1666 10.5962 15.1666 9.37101 15.1666H6.6291C5.40394 15.1666 4.4335 15.1666 3.67403 15.0645C2.89241 14.9595 2.25978 14.738 1.76087 14.2391C1.26196 13.7402 1.04055 13.1076 0.935464 12.326C0.833355 11.5665 0.833364 10.5961 0.833374 9.3709V7.96235C0.833364 6.73717 0.833355 5.76675 0.935464 5.00728C1.04055 4.22566 1.26196 3.59303 1.76087 3.09412C2.25978 2.59521 2.89241 2.3738 3.67403 2.26872C3.82931 2.24784 3.99341 2.23123 4.16671 2.21802V1.66663C4.16671 1.39048 4.39057 1.16663 4.66671 1.16663ZM3.80727 3.2598C3.13655 3.34998 2.75012 3.51909 2.46798 3.80123C2.18584 4.08337 2.01672 4.4698 1.92655 5.14052C1.91128 5.25412 1.89851 5.3737 1.88783 5.49996H14.1123C14.1016 5.3737 14.0888 5.25412 14.0735 5.14053C13.9834 4.4698 13.8142 4.08337 13.5321 3.80123C13.25 3.51909 12.8635 3.34998 12.1928 3.2598C11.5077 3.16769 10.6046 3.16663 9.33337 3.16663H6.66671C5.39549 3.16663 4.49238 3.16769 3.80727 3.2598ZM1.83337 7.99996C1.83337 7.43062 1.83359 6.93511 1.8421 6.49996H14.158C14.1665 6.93511 14.1667 7.43062 14.1667 7.99996V9.33329C14.1667 10.6045 14.1656 11.5076 14.0735 12.1927C13.9834 12.8635 13.8142 13.2499 13.5321 13.532C13.25 13.8142 12.8635 13.9833 12.1928 14.0735C11.5077 14.1656 10.6046 14.1666 9.33337 14.1666H6.66671C5.39549 14.1666 4.49238 14.1656 3.80727 14.0735C3.13655 13.9833 2.75012 13.8142 2.46798 13.532C2.18584 13.2499 2.01672 12.8635 1.92655 12.1927C1.83444 11.5076 1.83337 10.6045 1.83337 9.33329V7.99996Z"
        fill="currentColor" />
</svg>