<svg width="16" height="16" fill="none" xmlns="http://www.w3.org/2000/svg">
  <path d="M5 12a1 1 0 110 2 1 1 0 010-2zM11 12a1 1 0 110 2 1 1 0 010-2z" stroke="currentColor" />
  <path
    d="M1.507 2.061l.166-.471-.166.471zM1.5 1.528a.5.5 0 00-.332.944l.332-.944zm1.558 1.354L3.47 2.6l-.413.282zm.868 6.842l-.363.344.363-.344zm9.847-3.136l.49.101v-.003l-.49-.098zm-.333 1.617l.49.1-.49-.1zm.384-3.74l-.396.305.396-.305zm-1.067 5.569l-.316-.388.316.388zm-9.45-3.527h.5V4.692h-1v1.815h.5zM1.506 2.06l.166-.471-.174-.062L1.333 2l-.166.472.175.06.165-.47zm5.785 8.272v.5h3.535v-1H7.292v.5zm-3.987-5.64h.5c0-.472.001-.866-.034-1.185-.035-.331-.113-.633-.301-.908l-.413.282-.413.282c.06.088.107.21.133.451.028.254.028.584.028 1.077h.5zM1.507 2.06l-.165.472c.445.156.737.26.952.366.203.099.292.18.35.265l.413-.282.413-.282c-.19-.277-.441-.455-.735-.6-.28-.137-.64-.262-1.062-.41l-.166.471zm1.798 4.446h-.5c0 .968.01 1.666.1 2.2.098.57.293.977.657 1.361l.363-.344.363-.344c-.214-.225-.329-.445-.397-.842-.074-.433-.086-1.039-.086-2.031h-.5zm3.987 3.826v-.5c-.945 0-1.6 0-2.094-.07-.477-.068-.728-.191-.91-.383l-.363.344-.363.344c.396.418.898.6 1.495.684.58.082 1.32.081 2.235.081v-.5zM3.305 4.08v.5h8.087v-1H3.306v.5zm10.467 2.508l-.49-.1-.333 1.616.49.101.49.1.332-1.616-.49-.1zm-2.38-2.508v.5c.571 0 1.074 0 1.47.045.197.022.345.053.448.089.108.038.125.067.117.056l.396-.305.396-.305a1.22 1.22 0 00-.577-.39 3.076 3.076 0 00-.668-.139c-.464-.052-1.03-.051-1.582-.051v.5zm2.38 2.508l.49.098c.113-.565.209-1.04.232-1.42.024-.39-.02-.775-.275-1.106l-.396.305-.396.305c.041.053.087.15.07.435-.02.296-.097.692-.216 1.286l.49.098zm-2.945 3.745v.5c.508 0 .934.001 1.277-.04.357-.044.683-.14.968-.372l-.316-.387-.316-.388c-.084.068-.202.122-.457.154-.269.032-.623.033-1.156.033v.5zm2.612-2.128l-.49-.101c-.108.522-.18.869-.267 1.125-.082.244-.159.349-.242.417l.316.388.316.387c.284-.231.443-.531.558-.872.11-.328.196-.746.298-1.243l-.49-.101z"
    fill="currentColor" />
</svg>