<svg width="16" height="16" viewBox="0 0 16 16" fill="none" xmlns="http://www.w3.org/2000/svg">
    <g clip-path="url(#clip0_23_3493)">
        <path
            d="M1.33301 7.99992C1.33301 4.85722 1.33301 3.28587 2.30932 2.30956C3.28563 1.33325 4.85698 1.33325 7.99967 1.33325C11.1424 1.33325 12.7137 1.33325 13.69 2.30956C14.6663 3.28587 14.6663 4.85722 14.6663 7.99992C14.6663 11.1426 14.6663 12.714 13.69 13.6903C12.7137 14.6666 11.1424 14.6666 7.99967 14.6666C4.85698 14.6666 3.28563 14.6666 2.30932 13.6903C1.33301 12.714 1.33301 11.1426 1.33301 7.99992Z"
            stroke="currentColor" />
        <path d="M5.66626 8.33325L6.99959 9.66659L10.3329 6.33325" stroke="currentColor" stroke-linecap="round"
            stroke-linejoin="round" />
    </g>
    <defs>
        <clipPath id="clip0_23_3493">
            <rect width="16" height="16" fill="white" />
        </clipPath>
    </defs>
</svg>