<svg width="16" height="16" viewBox="0 0 16 16" fill="none" xmlns="http://www.w3.org/2000/svg">
<path d="M4.49467 12.3749C4.4936 11.9879 4.36415 11.6123 4.12663 11.3068C3.88911 11.0014 3.55694 10.7834 3.1822 10.687V8.87494C3.18255 8.52695 3.32094 8.19332 3.567 7.94726C3.81306 7.7012 4.14669 7.56281 4.49467 7.56246H6.24464C6.7195 7.56076 7.18065 7.40305 7.55711 7.1136V10.687C7.1447 10.7935 6.78529 11.0467 6.54624 11.3993C6.30719 11.7518 6.20491 12.1794 6.25858 12.6019C6.31225 13.0245 6.51818 13.4129 6.83777 13.6945C7.15736 13.976 7.56867 14.1314 7.9946 14.1314C8.42053 14.1314 8.83184 13.976 9.15142 13.6945C9.47101 13.4129 9.67694 13.0245 9.73061 12.6019C9.78428 12.1794 9.682 11.7518 9.44296 11.3993C9.20391 11.0467 8.84449 10.7935 8.43209 10.687L8.43209 5.31289C8.84449 5.2064 9.20391 4.95317 9.44296 4.60065C9.682 4.24813 9.78428 3.82052 9.73061 3.39799C9.67694 2.97546 9.47101 2.587 9.15143 2.30544C8.83184 2.02387 8.42053 1.86853 7.9946 1.86853C7.56867 1.86853 7.15736 2.02387 6.83777 2.30544C6.51818 2.587 6.31225 2.97546 6.25858 3.39799C6.20491 3.82052 6.30719 4.24813 6.54624 4.60065C6.78529 4.95317 7.1447 5.2064 7.55711 5.31289V5.37501C7.55676 5.72299 7.41837 6.05662 7.17231 6.30268C6.92625 6.54875 6.59262 6.68714 6.24464 6.68748L4.49467 6.68748C3.91474 6.68818 3.35875 6.91886 2.94868 7.32894C2.5386 7.73902 2.30791 8.295 2.30722 8.87494V10.687C1.99095 10.7693 1.70411 10.9387 1.47927 11.1759C1.25444 11.413 1.10061 11.7085 1.03528 12.0287C0.969941 12.3489 0.995712 12.681 1.10966 12.9873C1.22361 13.2936 1.42118 13.5618 1.67991 13.7614C1.93864 13.9611 2.24818 14.0841 2.57336 14.1167C2.89853 14.1492 3.22632 14.0899 3.51948 13.9455C3.81264 13.8011 4.05943 13.5774 4.23181 13.2997C4.4042 13.0221 4.49526 12.7017 4.49467 12.3749ZM8.86958 12.3749C8.86958 12.5479 8.81826 12.7171 8.72212 12.861C8.62597 13.0049 8.48932 13.117 8.32944 13.1832C8.16956 13.2495 7.99363 13.2668 7.8239 13.233C7.65417 13.1993 7.49826 13.1159 7.37589 12.9936C7.25352 12.8712 7.17019 12.7153 7.13643 12.5456C7.10267 12.3758 7.12 12.1999 7.18622 12.04C7.25245 11.8801 7.36459 11.7435 7.50848 11.6473C7.65237 11.5512 7.82154 11.4999 7.9946 11.4999C8.22659 11.5001 8.44901 11.5924 8.61305 11.7564C8.77709 11.9205 8.86935 12.1429 8.86958 12.3749ZM7.11962 3.62505C7.11962 3.45199 7.17093 3.28282 7.26708 3.13893C7.36322 2.99504 7.49988 2.8829 7.65976 2.81667C7.81964 2.75045 7.99557 2.73312 8.1653 2.76688C8.33503 2.80064 8.49094 2.88397 8.6133 3.00634C8.73567 3.12871 8.81901 3.28462 8.85277 3.45435C8.88653 3.62408 8.8692 3.80001 8.80298 3.95989C8.73675 4.11977 8.6246 4.25642 8.48071 4.35257C8.33682 4.44871 8.16765 4.50003 7.9946 4.50003C7.76261 4.4998 7.54019 4.40754 7.37615 4.2435C7.21211 4.07946 7.11985 3.85704 7.11962 3.62505ZM1.86973 12.3749C1.86973 12.2018 1.92105 12.0326 2.01719 11.8887C2.11333 11.7449 2.24999 11.6327 2.40987 11.5665C2.56975 11.5003 2.74568 11.4829 2.91541 11.5167C3.08514 11.5505 3.24105 11.6338 3.36342 11.7562C3.48578 11.8785 3.56912 12.0344 3.60288 12.2042C3.63664 12.3739 3.61931 12.5498 3.55309 12.7097C3.48686 12.8696 3.37471 13.0062 3.23082 13.1024C3.08693 13.1985 2.91777 13.2498 2.74471 13.2498C2.51276 13.2495 2.2904 13.1572 2.12639 12.9932C1.96237 12.8292 1.87008 12.6068 1.86973 12.3749Z" fill="#333333"/>
<path d="M11.5053 12.3749C11.5064 11.9879 11.6358 11.6123 11.8734 11.3068C12.1109 11.0014 12.4431 10.7834 12.8178 10.687V8.87494C12.8175 8.52695 12.6791 8.19332 12.433 7.94726C12.1869 7.7012 11.8533 7.56281 11.5053 7.56246H9.75536C9.2805 7.56076 8.81935 7.40305 8.44289 7.1136V10.687C8.8553 10.7935 9.21471 11.0467 9.45376 11.3993C9.69281 11.7518 9.79509 12.1794 9.74142 12.6019C9.68775 13.0245 9.48182 13.4129 9.16223 13.6945C8.84264 13.976 8.43133 14.1314 8.0054 14.1314C7.57947 14.1314 7.16817 13.976 6.84858 13.6945C6.52899 13.4129 6.32306 13.0245 6.26939 12.6019C6.21572 12.1794 6.318 11.7518 6.55705 11.3993C6.7961 11.0467 7.15551 10.7935 7.56791 10.687L7.56791 5.31289C7.15551 5.2064 6.7961 4.95317 6.55704 4.60065C6.31799 4.24813 6.21572 3.82052 6.26939 3.39799C6.32306 2.97546 6.52899 2.587 6.84858 2.30544C7.16816 2.02387 7.57947 1.86853 8.0054 1.86853C8.43133 1.86853 8.84264 2.02387 9.16223 2.30544C9.48182 2.587 9.68775 2.97546 9.74142 3.39799C9.79509 3.82052 9.69281 4.24813 9.45376 4.60065C9.21471 4.95317 8.8553 5.2064 8.44289 5.31289V5.37501C8.44324 5.72299 8.58163 6.05662 8.82769 6.30268C9.07375 6.54875 9.40738 6.68714 9.75536 6.68748L11.5053 6.68748C12.0853 6.68818 12.6412 6.91886 13.0513 7.32894C13.4614 7.73902 13.6921 8.295 13.6928 8.87494L13.6928 10.687C14.009 10.7693 14.2959 10.9387 14.5207 11.1759C14.7456 11.413 14.8994 11.7085 14.9647 12.0287C15.0301 12.3489 15.0043 12.681 14.8903 12.9873C14.7764 13.2936 14.5788 13.5618 14.3201 13.7614C14.0614 13.9611 13.7518 14.0841 13.4266 14.1167C13.1015 14.1492 12.7737 14.0899 12.4805 13.9455C12.1874 13.8011 11.9406 13.5774 11.7682 13.2997C11.5958 13.0221 11.5047 12.7017 11.5053 12.3749ZM7.13042 12.3749C7.13042 12.5479 7.18174 12.7171 7.27788 12.861C7.37403 13.0049 7.51068 13.117 7.67056 13.1832C7.83044 13.2495 8.00637 13.2668 8.1761 13.233C8.34583 13.1993 8.50174 13.1159 8.62411 12.9936C8.74648 12.8712 8.82981 12.7153 8.86357 12.5456C8.89733 12.3758 8.88001 12.1999 8.81378 12.04C8.74755 11.8801 8.63541 11.7435 8.49152 11.6473C8.34763 11.5512 8.17846 11.4999 8.0054 11.4999C7.77341 11.5001 7.55099 11.5924 7.38695 11.7564C7.22291 11.9205 7.13065 12.1429 7.13042 12.3749ZM8.88038 3.62505C8.88038 3.45199 8.82907 3.28282 8.73292 3.13893C8.63678 2.99504 8.50013 2.8829 8.34024 2.81667C8.18036 2.75045 8.00443 2.73312 7.8347 2.76688C7.66497 2.80064 7.50907 2.88397 7.3867 3.00634C7.26433 3.12871 7.18099 3.28462 7.14723 3.45435C7.11347 3.62408 7.1308 3.80001 7.19703 3.95989C7.26325 4.11977 7.3754 4.25642 7.51929 4.35257C7.66318 4.44871 7.83235 4.50003 8.0054 4.50003C8.23739 4.4998 8.45981 4.40754 8.62385 4.2435C8.78789 4.07946 8.88015 3.85704 8.88038 3.62505ZM14.1303 12.3749C14.1303 12.2018 14.079 12.0326 13.9828 11.8887C13.8867 11.7449 13.75 11.6327 13.5901 11.5665C13.4302 11.5003 13.2543 11.4829 13.0846 11.5167C12.9149 11.5505 12.759 11.6338 12.6366 11.7562C12.5142 11.8785 12.4309 12.0344 12.3971 12.2042C12.3634 12.3739 12.3807 12.5498 12.4469 12.7097C12.5131 12.8696 12.6253 13.0062 12.7692 13.1024C12.9131 13.1985 13.0822 13.2498 13.2553 13.2498C13.4872 13.2495 13.7096 13.1572 13.8736 12.9932C14.0376 12.8292 14.1299 12.6068 14.1303 12.3749Z" fill="#333333"/>
</svg>
