<svg width="20" height="20" viewBox="0 0 20 20" fill="none" xmlns="http://www.w3.org/2000/svg">
    <path
        d="M2.39013 4.74476H10.1143C10.3471 5.80439 11.2933 6.5999 12.4219 6.5999C13.5504 6.5999 14.4967 5.80442 14.7295 4.74476H17.6098C17.8899 4.74476 18.1171 4.5176 18.1171 4.23744C18.1171 3.95727 17.8899 3.73011 17.6098 3.73011H14.7292C14.496 2.67102 13.5484 1.875 12.4219 1.875C11.2947 1.875 10.3476 2.67089 10.1144 3.73011H2.39013C2.10997 3.73011 1.88281 3.95727 1.88281 4.23744C1.88281 4.5176 2.10997 4.74476 2.39013 4.74476ZM11.0741 4.23877C11.0741 4.23696 11.0741 4.23512 11.0741 4.23331C11.0764 3.4924 11.6809 2.88967 12.4219 2.88967C13.1618 2.88967 13.7664 3.49158 13.7696 4.23214L13.7697 4.23959C13.7685 4.98177 13.1643 5.58529 12.4219 5.58529C11.6797 5.58529 11.0758 4.98237 11.0741 4.24064L11.0741 4.23877ZM17.6098 15.2552H14.7292C14.496 14.1961 13.5484 13.4001 12.4219 13.4001C11.2947 13.4001 10.3476 14.196 10.1144 15.2552H2.39013C2.10997 15.2552 1.88281 15.4823 1.88281 15.7625C1.88281 16.0427 2.10997 16.2699 2.39013 16.2699H10.1143C10.3471 17.3295 11.2933 18.125 12.4219 18.125C13.5504 18.125 14.4967 17.3295 14.7295 16.2699H17.6098C17.8899 16.2699 18.1171 16.0427 18.1171 15.7625C18.1171 15.4823 17.8899 15.2552 17.6098 15.2552ZM12.4219 17.1104C11.6797 17.1104 11.0758 16.5074 11.0741 15.7657L11.0741 15.7639C11.0741 15.762 11.0741 15.7602 11.0741 15.7584C11.0764 15.0175 11.6809 14.4147 12.4219 14.4147C13.1618 14.4147 13.7664 15.0166 13.7696 15.7572L13.7697 15.7646C13.7686 16.5069 13.1644 17.1104 12.4219 17.1104ZM17.6098 9.49268H9.88564C9.65285 8.43304 8.70657 7.63756 7.57803 7.63756C6.44949 7.63756 5.50321 8.43304 5.27042 9.49268H2.39013C2.10997 9.49268 1.88281 9.71983 1.88281 10C1.88281 10.2802 2.10997 10.5073 2.39013 10.5073H5.27067C5.50394 11.5664 6.45149 12.3624 7.57803 12.3624C8.70517 12.3624 9.65231 11.5665 9.88545 10.5073H17.6098C17.8899 10.5073 18.1171 10.2802 18.1171 10C18.1171 9.71983 17.8899 9.49268 17.6098 9.49268ZM8.92579 9.99867C8.92579 10.0005 8.92576 10.0023 8.92576 10.0041C8.92354 10.745 8.31897 11.3478 7.57803 11.3478C6.83813 11.3478 6.23353 10.7459 6.23033 10.0053L6.23024 9.99791C6.23135 9.25563 6.83553 8.65221 7.57803 8.65221C8.32018 8.65221 8.92414 9.25509 8.92582 9.99686L8.92579 9.99867Z"
        fill="currentColor" stroke="currentColor" stroke-width="0.25" />
</svg>