<svg width="16" height="16" viewBox="0 0 16 16" fill="none" xmlns="http://www.w3.org/2000/svg">
    <path
        d="M3.8 9.8H3.2C2.88174 9.8 2.57652 9.67357 2.35147 9.44853C2.12643 9.22348 2 8.91826 2 8.6V3.2C2 2.88174 2.12643 2.57652 2.35147 2.35147C2.57652 2.12643 2.88174 2 3.2 2H8.6C8.91826 2 9.22348 2.12643 9.44853 2.35147C9.67357 2.57652 9.8 2.88174 9.8 3.2V3.8M7.4 6.2H12.8C13.4627 6.2 14 6.73726 14 7.4V12.8C14 13.4627 13.4627 14 12.8 14H7.4C6.73726 14 6.2 13.4627 6.2 12.8V7.4C6.2 6.73726 6.73726 6.2 7.4 6.2Z"
        stroke="currentColor" stroke-width="1.02857" stroke-linecap="round" stroke-linejoin="round" />
</svg>