<svg width="16" height="16" viewBox="0 0 16 16" fill="none" xmlns="http://www.w3.org/2000/svg">
    <path
        d="M10 6.00004C10.5304 6.00004 11.0391 5.78933 11.4142 5.41425C11.7893 5.03918 12 4.53047 12 4.00004C12 3.46961 11.7893 2.9609 11.4142 2.58583C11.0391 2.21075 10.5304 2.00004 10 2.00004M12 9.33337C13.1693 9.59004 14 10.2394 14 11C14 11.6867 13.324 12.282 12.3333 12.58M8.66666 4.00004C8.66666 5.4728 7.47275 6.66671 6 6.66671C4.52724 6.66671 3.33333 5.4728 3.33333 4.00004C3.33333 2.52728 4.52724 1.33337 6 1.33337C7.47275 1.33337 8.66666 2.52728 8.66666 4.00004ZM10.6667 11.3334C10.6667 12.8061 8.57732 14 6 14C3.42267 14 1.33333 12.8061 1.33333 11.3334C1.33333 9.86062 3.42267 8.66671 6 8.66671C8.57732 8.66671 10.6667 9.86062 10.6667 11.3334Z"
        stroke="currentColor" stroke-linecap="round" />
</svg>