<svg width="16" height="16" viewBox="0 0 16 16" fill="none" xmlns="http://www.w3.org/2000/svg">
    <path
        d="M9.75 5H14V15.25C14 15.6656 13.6656 16 13.25 16H2.75C2.33437 16 2 15.6656 2 15.25V0.75C2 0.334375 2.33437 0 2.75 0H9V4.25C9 4.6625 9.3375 5 9.75 5ZM13.7812 3.28125L10.7188 0.21875C10.5781 0.078125 10.3875 0 10.1875 0H10V4H14V3.80938C14 3.6125 13.9219 3.42188 13.7812 3.28125Z"
        fill="#4A90E2" />
    <path
        d="M5.06245 13H4.34615C4.04152 13 3.80481 12.9156 3.63603 12.7468C3.47136 12.578 3.38902 12.3434 3.38902 12.0429V9.9866C3.38902 9.68197 3.47136 9.44732 3.63603 9.28265C3.80481 9.11387 4.04152 9.02948 4.34615 9.02948H5.06245C5.36297 9.02948 5.59762 9.11387 5.7664 9.28265C5.93518 9.44732 6.01957 9.68197 6.01957 9.9866V10.283C6.01957 10.3571 5.98252 10.3941 5.90842 10.3941H5.5194C5.44942 10.3941 5.41443 10.3571 5.41443 10.283V10.0113C5.41443 9.70667 5.26623 9.55435 4.96982 9.55435H4.4326C4.1362 9.55435 3.988 9.70667 3.988 10.0113V12.0182C3.988 12.3228 4.1362 12.4751 4.4326 12.4751H4.96982C5.26623 12.4751 5.41443 12.3228 5.41443 12.0182V11.7465C5.41443 11.6724 5.44942 11.6353 5.5194 11.6353H5.90842C5.98252 11.6353 6.01957 11.6724 6.01957 11.7465V12.0429C6.01957 12.3434 5.93518 12.578 5.7664 12.7468C5.59762 12.9156 5.36297 13 5.06245 13ZM6.71142 12.0367V11.8761C6.71142 11.8062 6.74641 11.7712 6.81639 11.7712H7.21159C7.28157 11.7712 7.31657 11.8062 7.31657 11.8761V11.9873C7.31657 12.1602 7.35362 12.2858 7.42772 12.364C7.50593 12.4381 7.63355 12.4751 7.81057 12.4751H8.23664C8.41366 12.4751 8.54127 12.436 8.61949 12.3578C8.69771 12.2755 8.73682 12.1437 8.73682 11.9626V11.8206C8.73682 11.6888 8.68536 11.5859 8.58244 11.5118C8.48364 11.4336 8.36014 11.3842 8.21194 11.3636C8.06374 11.3389 7.90113 11.306 7.72412 11.2648C7.5471 11.2237 7.38449 11.1763 7.23629 11.1228C7.08809 11.0693 6.96253 10.9684 6.85962 10.8202C6.76082 10.672 6.71142 10.4827 6.71142 10.2521V9.99278C6.71142 9.69226 6.79581 9.45761 6.96459 9.28883C7.13749 9.11593 7.3742 9.02948 7.67472 9.02948H8.32927C8.6339 9.02948 8.87061 9.11593 9.03939 9.28883C9.21229 9.45761 9.29874 9.69226 9.29874 9.99278V10.1286C9.29874 10.1986 9.26375 10.2336 9.19377 10.2336H8.79857C8.72858 10.2336 8.69359 10.1986 8.69359 10.1286V10.0484C8.69359 9.87133 8.65448 9.74577 8.57627 9.67167C8.50217 9.59346 8.37661 9.55435 8.19959 9.55435H7.81057C7.63355 9.55435 7.50593 9.59552 7.42772 9.67785C7.35362 9.75607 7.31657 9.89192 7.31657 10.0854V10.2768C7.31657 10.4621 7.45036 10.5876 7.71794 10.6535C7.83732 10.6823 7.967 10.707 8.10697 10.7276C8.25105 10.7482 8.39513 10.7791 8.53922 10.8202C8.6833 10.8614 8.81503 10.917 8.93442 10.987C9.0538 11.0528 9.15054 11.1557 9.22464 11.2957C9.29874 11.4315 9.33579 11.5983 9.33579 11.7959V12.0367C9.33579 12.3372 9.24934 12.5739 9.07644 12.7468C8.90766 12.9156 8.67301 13 8.37249 13H7.68089C7.38037 13 7.14367 12.9156 6.97077 12.7468C6.79787 12.5739 6.71142 12.3372 6.71142 12.0367ZM11.6134 13H11.0021C10.9321 13 10.8889 12.965 10.8724 12.895L9.8474 9.1468C9.8227 9.06858 9.85357 9.02948 9.94002 9.02948H10.3784C10.4443 9.02948 10.4834 9.06447 10.4958 9.13445L11.2923 12.3578H11.317L12.1074 9.13445C12.1239 9.06447 12.1651 9.02948 12.2309 9.02948H12.6632C12.7496 9.02948 12.7826 9.06858 12.762 9.1468L11.7308 12.895C11.7143 12.965 11.6752 13 11.6134 13Z"
        fill="white" />
</svg>