<svg width="16" height="16" viewBox="0 0 16 16" fill="none" xmlns="http://www.w3.org/2000/svg">
    <path
        d="M8.99935 13.2666V2.73325C8.99935 1.73325 9.42602 1.33325 10.486 1.33325H13.1793C14.2393 1.33325 14.666 1.73325 14.666 2.73325V13.2666C14.666 14.2666 14.2393 14.6666 13.1793 14.6666H10.486C9.42602 14.6666 8.99935 14.2666 8.99935 13.2666Z"
        stroke="currentColor" stroke-linecap="round" stroke-linejoin="round" />
    <path
        d="M1.33309 8.60004V2.73337C1.33309 1.73337 1.75976 1.33337 2.81976 1.33337H5.51309C6.57309 1.33337 6.99976 1.73337 6.99976 2.73337V8.60004C6.99976 9.60004 6.57309 10 5.51309 10H2.81976C1.75976 10 1.33309 9.60004 1.33309 8.60004Z"
        stroke="currentColor" stroke-linecap="round" stroke-linejoin="round" />
</svg>