<svg width="16" height="16" viewBox="0 0 16 16" fill="none" xmlns="http://www.w3.org/2000/svg">
<path d="M12.12 5.36004L12.4287 5.05071C12.6744 4.80485 13.0078 4.6667 13.3554 4.66663C13.7031 4.66657 14.0365 4.80461 14.2823 5.05037C14.5282 5.29614 14.6663 5.62951 14.6664 5.97714C14.6665 6.32477 14.5284 6.65819 14.2827 6.90404L13.974 7.21337M12.12 5.36004C12.12 5.36004 12.1587 6.01604 12.738 6.59537C13.3173 7.17471 13.974 7.21337 13.974 7.21337M12.12 5.36004L9.28 8.20004C9.08667 8.39204 8.99067 8.48871 8.908 8.59471C8.81022 8.72004 8.72711 8.85471 8.65867 8.99871C8.60067 9.12004 8.558 9.24871 8.472 9.50671L8.10733 10.6007M13.974 7.21337L11.134 10.0534C10.9407 10.2467 10.8447 10.3427 10.7387 10.4254C10.6133 10.5232 10.4787 10.6063 10.3347 10.6747C10.2133 10.7327 10.0847 10.7754 9.82667 10.8614L8.73267 11.226M8.10733 10.6007L8.01867 10.8687C7.99801 10.9309 7.99507 10.9976 8.01017 11.0614C8.02527 11.1252 8.05781 11.1835 8.10416 11.2299C8.15051 11.2762 8.20883 11.3088 8.27262 11.3239C8.3364 11.339 8.40313 11.336 8.46533 11.3154L8.73267 11.226M8.10733 10.6007L8.73267 11.226M5.33333 8.66671H7M5.33333 6.00004H9.66667M5.33333 11.3334H6.33333M13.2187 2.11471C12.438 1.33337 11.1807 1.33337 8.66667 1.33337H7.33333C4.81933 1.33337 3.562 1.33337 2.78133 2.11471C2.00067 2.89604 2 4.15271 2 6.66671V9.33337C2 11.8474 2 13.1047 2.78133 13.8854C3.56267 14.666 4.81933 14.6667 7.33333 14.6667H8.66667C11.1807 14.6667 12.438 14.6667 13.2187 13.8854C13.848 13.2567 13.97 12.32 13.994 10.6667" stroke="#333333" stroke-linecap="round"/>
</svg>
