<svg width="16" height="16" viewBox="0 0 16 16" fill="none" xmlns="http://www.w3.org/2000/svg">
    <g clip-path="url(#clip0_18_5647)">
        <path
            d="M5.40386 1.85964L5.59857 2.32017L5.40386 1.85964ZM4.29621 2.45691L4.01843 2.04117L4.01843 2.04117L4.29621 2.45691ZM1.84082 5.44882L1.37888 5.25747H1.37888L1.84082 5.44882ZM1.46144 9.30064L1.95184 9.20309L1.46144 9.30064ZM3.28597 12.7141L3.63952 12.3605L3.28597 12.7141ZM13.5431 11.7038L13.9589 11.9816L13.5431 11.7038ZM14.1404 10.5962L13.6799 10.4015H13.6799L14.1404 10.5962ZM12 8.00004V8.50004V8.00004ZM10.6667 8.00004V7.50004V8.00004ZM8.00001 5.33337H7.50001V5.33337L8.00001 5.33337ZM8.00001 4.00004H8.50001H8.00001ZM8.39054 7.60951L8.74409 7.25596L8.74409 7.25596L8.39054 7.60951ZM14.338 8.59666L13.9213 8.87293V8.87293L14.338 8.59666ZM7.40339 1.66202L7.12712 2.07876L7.12712 2.07876L7.40339 1.66202ZM9.79131 1.05918C9.52388 0.990352 9.25129 1.15135 9.18246 1.41877C9.11363 1.6862 9.27462 1.95879 9.54205 2.02762L9.79131 1.05918ZM13.9724 6.458C14.0413 6.72543 14.3139 6.88642 14.5813 6.81759C14.8487 6.74876 15.0097 6.47617 14.9409 6.20874L13.9724 6.458ZM5.20915 1.39911C4.79483 1.57428 4.396 1.78889 4.01843 2.04117L4.574 2.87264C4.89889 2.65556 5.24207 2.4709 5.59857 2.32017L5.20915 1.39911ZM4.01843 2.04117C2.83987 2.82866 1.9213 3.94794 1.37888 5.25747L2.30276 5.64016C2.7695 4.51335 3.55989 3.55025 4.574 2.87264L4.01843 2.04117ZM1.37888 5.25747C0.836448 6.56701 0.694525 8.00799 0.971052 9.39818L1.95184 9.20309C1.7139 8.00688 1.83602 6.76697 2.30276 5.64016L1.37888 5.25747ZM0.971052 9.39818C1.24758 10.7884 1.93014 12.0654 2.93241 13.0676L3.63952 12.3605C2.7771 11.4981 2.18978 10.3993 1.95184 9.20309L0.971052 9.39818ZM2.93241 13.0676C3.93469 14.0699 5.21167 14.7525 6.60187 15.029L6.79696 14.0482C5.60074 13.8103 4.50194 13.223 3.63952 12.3605L2.93241 13.0676ZM6.60187 15.029C7.99206 15.3055 9.43304 15.1636 10.7426 14.6212L10.3599 13.6973C9.23308 14.164 7.99317 14.2862 6.79696 14.0482L6.60187 15.029ZM10.7426 14.6212C12.0521 14.0787 13.1714 13.1602 13.9589 11.9816L13.1274 11.4261C12.4498 12.4402 11.4867 13.2306 10.3599 13.6973L10.7426 14.6212ZM13.9589 11.9816C14.2112 11.6041 14.4258 11.2052 14.6009 10.7909L13.6799 10.4015C13.5292 10.758 13.3445 11.1012 13.1274 11.4261L13.9589 11.9816ZM12 7.50004H10.6667V8.50004H12V7.50004ZM8.50001 5.33337V4.00004H7.50001V5.33337H8.50001ZM10.6667 7.50004C10.024 7.50004 9.5923 7.49898 9.27027 7.45568C8.96263 7.41432 8.83097 7.34284 8.74409 7.25596L8.03698 7.96307C8.34063 8.26671 8.7185 8.39049 9.13703 8.44676C9.54117 8.5011 10.0523 8.50004 10.6667 8.50004V7.50004ZM7.50001 5.33337C7.50001 5.94778 7.49895 6.45888 7.55329 6.86302C7.60956 7.28155 7.73334 7.65942 8.03698 7.96307L8.74409 7.25596C8.65721 7.16908 8.58573 7.03742 8.54437 6.72978C8.50107 6.40775 8.50001 5.97605 8.50001 5.33337L7.50001 5.33337ZM14.6009 10.7909C14.7894 10.3451 14.9683 9.93049 15.0295 9.54854C15.0989 9.11586 15.0217 8.723 14.7548 8.3204L13.9213 8.87293C14.0499 9.06695 14.0716 9.20622 14.0421 9.39032C14.0045 9.62516 13.8868 9.91203 13.6799 10.4015L14.6009 10.7909ZM12 8.50004C12.6683 8.50004 13.0952 8.50234 13.4084 8.56492C13.681 8.61941 13.8124 8.70866 13.9213 8.87293L14.7548 8.3204C14.4682 7.88804 14.078 7.67898 13.6043 7.58431C13.1711 7.49774 12.6268 7.50004 12 7.50004V8.50004ZM5.59857 2.32017C6.08802 2.11324 6.37489 1.99556 6.60973 1.95793C6.79383 1.92843 6.9331 1.95014 7.12712 2.07876L7.67965 1.24527C7.27705 0.97838 6.88419 0.901194 6.4515 0.970528C6.06955 1.03173 5.65497 1.21062 5.20915 1.39911L5.59857 2.32017ZM8.50001 4.00004C8.50001 3.37328 8.50231 2.82893 8.41574 2.39573C8.32107 1.922 8.112 1.53188 7.67965 1.24527L7.12712 2.07876C7.29139 2.18766 7.38064 2.31904 7.43513 2.5917C7.49771 2.90488 7.50001 3.33179 7.50001 4.00004H8.50001ZM9.54205 2.02762C11.7083 2.58518 13.4149 4.29174 13.9724 6.458L14.9409 6.20874C14.2925 3.68965 12.3104 1.70755 9.79131 1.05918L9.54205 2.02762Z"
            fill="currentColor" />
    </g>
    <defs>
        <clipPath id="clip0_18_5647">
            <rect width="16" height="16" fill="white" />
        </clipPath>
    </defs>
</svg>