<svg width="20" height="20" viewBox="0 0 20 20" fill="none" xmlns="http://www.w3.org/2000/svg">
    <path
        d="M5.85412 9.56589C5.768 10.3854 5.92683 11.2121 6.31052 11.9414C6.69422 12.6707 7.28554 13.2698 8.00973 13.663C8.73392 14.0562 9.55844 14.2259 10.379 14.1505C11.1997 14.0752 11.9795 13.7582 12.6199 13.2396C13.2604 12.721 13.7327 12.0242 13.9771 11.2373C14.2215 10.4503 14.2271 9.60851 13.9932 8.81836C13.7592 8.02821 13.2962 7.32518 12.6627 6.79817C12.0292 6.27115 11.2536 5.94382 10.4341 5.85756C9.53736 5.76028 8.63344 5.95962 7.86078 6.42506"
        stroke="currentColor" stroke-width="1.25" stroke-linecap="round" stroke-linejoin="round" />
    <path
        d="M4.6948 4.69861C3.39596 5.99838 2.61948 7.72973 2.51269 9.56412C2.40589 11.3985 2.97623 13.2083 4.11547 14.65C5.25471 16.0917 6.88356 17.065 8.69293 17.3852C10.5023 17.7054 12.3663 17.3503 13.9311 16.3872C15.496 15.4241 16.6528 13.92 17.1821 12.1604C17.7114 10.4008 17.5763 8.50808 16.8025 6.84148C16.0286 5.17488 14.6699 3.85035 12.9841 3.11924C11.2984 2.38813 9.40284 2.30132 7.65729 2.87528"
        stroke="currentColor" stroke-width="1.25" stroke-linecap="round" stroke-linejoin="round" />
    <path
        d="M14.1648 4.16854C14.1648 4.38955 14.2526 4.60151 14.4089 4.75779C14.5651 4.91407 14.7771 5.00187 14.9981 5.00187C15.2191 5.00187 15.4311 4.91407 15.5874 4.75779C15.7437 4.60151 15.8315 4.38955 15.8315 4.16854C15.8315 3.94752 15.7437 3.73556 15.5874 3.57928C15.4311 3.423 15.2191 3.33521 14.9981 3.33521C14.7771 3.33521 14.5651 3.423 14.4089 3.57928C14.2526 3.73556 14.1648 3.94752 14.1648 4.16854ZM9.16479 10.0019C9.16479 10.2229 9.25259 10.4348 9.40887 10.5911C9.56515 10.7474 9.77711 10.8352 9.99813 10.8352C10.2191 10.8352 10.4311 10.7474 10.5874 10.5911C10.7437 10.4348 10.8315 10.2229 10.8315 10.0019C10.8315 9.78085 10.7437 9.56889 10.5874 9.41261C10.4311 9.25633 10.2191 9.16853 9.99813 9.16853C9.77711 9.16853 9.56515 9.25633 9.40887 9.41261C9.25259 9.56889 9.16479 9.78085 9.16479 10.0019ZM6.66479 13.3352C6.66479 13.5562 6.75259 13.7682 6.90887 13.9245C7.06515 14.0807 7.27711 14.1685 7.49813 14.1685C7.71914 14.1685 7.9311 14.0807 8.08738 13.9245C8.24366 13.7682 8.33146 13.5562 8.33146 13.3352C8.33146 13.1142 8.24366 12.9022 8.08738 12.7459C7.9311 12.5897 7.71914 12.5019 7.49813 12.5019C7.27711 12.5019 7.06515 12.5897 6.90887 12.7459C6.75259 12.9022 6.66479 13.1142 6.66479 13.3352Z"
        stroke="currentColor" stroke-width="1.25" stroke-linecap="round" stroke-linejoin="round" />
</svg>