<svg width="16" height="16" viewBox="0 0 16 16" fill="none" xmlns="http://www.w3.org/2000/svg">
    <path
        d="M13.9834 8.37662L13.4907 8.46182V8.46182L13.9834 8.37662ZM13.5131 5.65678L13.0204 5.74198V5.74198L13.5131 5.65678ZM4.62517 2.8487L4.12703 2.80563H4.12703L4.62517 2.8487ZM4.08373 9.11048L4.58187 9.15355L4.08373 9.11048ZM9.32996 13.0191L9.82338 12.9383V12.9383L9.32996 13.0191ZM8.88818 10.3228L9.3816 10.2419V10.2419L8.88818 10.3228ZM4.46542 10.0484L4.13903 10.4272L4.13903 10.4272L4.46542 10.0484ZM5.42458 10.875L5.75097 10.4962L5.75097 10.4962L5.42458 10.875ZM7.01203 13.3109L6.52805 13.4365L6.52805 13.4365L7.01203 13.3109ZM7.32917 14.5335L7.81315 14.4079L7.81315 14.4079L7.32917 14.5335ZM8.44506 15.1238L8.29213 14.6478L8.29213 14.6478L8.44506 15.1238ZM8.5417 15.0928L8.69463 15.5688L8.69463 15.5688L8.5417 15.0928ZM6.57463 12.1917L7.01565 11.9561L6.57463 12.1917ZM9.26978 14.3351L8.7858 14.2095V14.2095L9.26978 14.3351ZM7.78279 15.0785L7.56574 15.5289V15.5289L7.78279 15.0785ZM13.4907 8.46182L13.0204 5.74198L14.0058 5.57158L14.4761 8.29142L13.4907 8.46182ZM8.82997 2.33342H5.73089V1.33342H8.82997V2.33342ZM5.12332 2.89177L4.58187 9.15355L3.58559 9.06741L4.12703 2.80563L5.12332 2.89177ZM13.0204 5.74198C12.6825 3.78826 10.9208 2.33342 8.82997 2.33342V1.33342C11.3808 1.33342 13.5805 3.11272 14.0058 5.57158L13.0204 5.74198ZM8.83654 13.1L8.39476 10.4036L9.3816 10.2419L9.82338 12.9383L8.83654 13.1ZM4.79182 9.66965L5.75097 10.4962L5.09819 11.2537L4.13903 10.4272L4.79182 9.66965ZM7.49601 13.1854L7.81315 14.4079L6.84519 14.659L6.52805 13.4365L7.49601 13.1854ZM8.29213 14.6478L8.38878 14.6168L8.69463 15.5688L8.59798 15.5999L8.29213 14.6478ZM7.01565 11.9561C7.22363 12.3454 7.3851 12.7578 7.49601 13.1854L6.52805 13.4365C6.43714 13.086 6.30465 12.7475 6.1336 12.4273L7.01565 11.9561ZM8.38878 14.6168C8.59305 14.5511 8.73811 14.3934 8.7858 14.2095L9.75376 14.4606C9.6168 14.9886 9.21264 15.4024 8.69463 15.5688L8.38878 14.6168ZM7.81315 14.4079C7.8365 14.4979 7.9015 14.5807 7.99985 14.6281L7.56574 15.5289C7.21109 15.358 6.94468 15.0426 6.84519 14.659L7.81315 14.4079ZM7.99985 14.6281C8.08968 14.6713 8.19543 14.6789 8.29213 14.6478L8.59798 15.5999C8.25817 15.7091 7.88747 15.6839 7.56574 15.5289L7.99985 14.6281ZM9.43579 9.17728H12.8898V10.1773H9.43579V9.17728ZM9.82338 12.9383C9.90641 13.445 9.8827 13.9636 9.75376 14.4606L8.7858 14.2095C8.87977 13.8473 8.89706 13.4693 8.83654 13.1L9.82338 12.9383ZM5.73089 2.33342C5.41495 2.33342 5.15067 2.57543 5.12332 2.89177L4.12703 2.80563C4.19901 1.97325 4.89512 1.33342 5.73089 1.33342V2.33342ZM5.75097 10.4962C6.20421 10.8867 6.69276 11.3516 7.01565 11.9561L6.1336 12.4273C5.90269 11.995 5.53499 11.6301 5.09819 11.2537L5.75097 10.4962ZM14.4761 8.29142C14.6463 9.27574 13.8894 10.1773 12.8898 10.1773V9.17728C13.2676 9.17728 13.5555 8.83615 13.4907 8.46182L14.4761 8.29142ZM8.39476 10.4036C8.28959 9.76171 8.78437 9.17728 9.43579 9.17728V10.1773C9.40253 10.1773 9.37595 10.2074 9.3816 10.2419L8.39476 10.4036ZM4.58187 9.15355C4.56493 9.34953 4.64316 9.54155 4.79182 9.66965L4.13903 10.4272C3.74681 10.0892 3.54099 9.58322 3.58559 9.06741L4.58187 9.15355Z"
        fill="currentColor" />
    <path fill-rule="evenodd" clip-rule="evenodd"
        d="M1.97844 10.1768C2.24595 10.1883 2.47507 9.98707 2.49814 9.72031L3.14587 2.2293C3.18748 1.7481 2.80846 1.33337 2.32447 1.33337C1.86859 1.33337 1.5 1.7032 1.5 2.15821V9.67724C1.5 9.945 1.71093 10.1652 1.97844 10.1768Z"
        fill="currentColor" />
</svg>