<svg width="16" height="16" viewBox="0 0 16 16" fill="none" xmlns="http://www.w3.org/2000/svg">
<g clip-path="url(#clip0_2105_66642)">
<path d="M10.2621 2.70247L9.92764 3.07412V3.07412L10.2621 2.70247ZM12.9013 5.07774L12.5668 5.44938L12.9013 5.07774ZM14.4362 6.76944L13.9794 6.97286V6.97286L14.4362 6.76944ZM2.11454 13.8857L2.4681 13.5321L2.4681 13.5321L2.11454 13.8857ZM13.8858 13.8857L13.5322 13.5321L13.5322 13.5321L13.8858 13.8857ZM4.00016 9.16671C3.72402 9.16671 3.50016 9.39057 3.50016 9.66671C3.50016 9.94285 3.72402 10.1667 4.00016 10.1667V9.16671ZM9.3335 10.1667C9.60964 10.1667 9.8335 9.94285 9.8335 9.66671C9.8335 9.39057 9.60964 9.16671 9.3335 9.16671V10.1667ZM4.00016 11.5C3.72402 11.5 3.50016 11.7239 3.50016 12C3.50016 12.2762 3.72402 12.5 4.00016 12.5V11.5ZM7.66683 12.5C7.94297 12.5 8.16683 12.2762 8.16683 12C8.16683 11.7239 7.94297 11.5 7.66683 11.5V12.5ZM9.3335 14.6667V14.1667H6.66683V14.6667V15.1667H9.3335V14.6667ZM1.3335 9.33337H1.8335V6.66671H1.3335H0.833496V9.33337H1.3335ZM14.6668 9.04197H14.1668V9.33337H14.6668H15.1668V9.04197H14.6668ZM10.2621 2.70247L9.92764 3.07412L12.5668 5.44938L12.9013 5.07774L13.2358 4.70609L10.5966 2.33082L10.2621 2.70247ZM14.6668 9.04197H15.1668C15.1668 7.9164 15.1769 7.20372 14.8929 6.56602L14.4362 6.76944L13.9794 6.97286C14.1567 7.37101 14.1668 7.82807 14.1668 9.04197H14.6668ZM12.9013 5.07774L12.5668 5.44938C13.4691 6.26144 13.8021 6.5747 13.9794 6.97286L14.4362 6.76944L14.8929 6.56602C14.6089 5.92831 14.0724 5.45906 13.2358 4.70609L12.9013 5.07774ZM6.68669 1.33337V1.83337C7.74122 1.83337 8.13917 1.84109 8.49385 1.9772L8.67298 1.51039L8.85211 1.04358C8.28422 0.825655 7.66549 0.833374 6.68669 0.833374V1.33337ZM10.2621 2.70247L10.5966 2.33082C9.87261 1.67923 9.41993 1.26147 8.85211 1.04358L8.67298 1.51039L8.49385 1.9772C8.8486 2.11333 9.14782 2.37228 9.92764 3.07412L10.2621 2.70247ZM6.66683 14.6667V14.1667C5.39562 14.1667 4.4925 14.1656 3.80739 14.0735C3.13667 13.9834 2.75024 13.8142 2.4681 13.5321L2.11454 13.8857L1.76099 14.2392C2.2599 14.7381 2.89253 14.9595 3.67415 15.0646C4.44138 15.1678 5.42388 15.1667 6.66683 15.1667V14.6667ZM1.3335 9.33337H0.833496C0.833496 10.5763 0.832434 11.5588 0.935586 12.3261C1.04067 13.1077 1.26208 13.7403 1.76099 14.2392L2.11454 13.8857L2.4681 13.5321C2.18596 13.25 2.01685 12.8635 1.92667 12.1928C1.83456 11.5077 1.8335 10.6046 1.8335 9.33337H1.3335ZM9.3335 14.6667V15.1667C10.5764 15.1667 11.5589 15.1678 12.3262 15.0646C13.1078 14.9595 13.7404 14.7381 14.2393 14.2392L13.8858 13.8857L13.5322 13.5321C13.2501 13.8142 12.8637 13.9834 12.1929 14.0735C11.5078 14.1656 10.6047 14.1667 9.3335 14.1667V14.6667ZM14.6668 9.33337H14.1668C14.1668 10.6046 14.1658 11.5077 14.0737 12.1928C13.9835 12.8635 13.8144 13.25 13.5322 13.5321L13.8858 13.8857L14.2393 14.2392C14.7382 13.7403 14.9597 13.1077 15.0647 12.3261C15.1679 11.5588 15.1668 10.5763 15.1668 9.33337H14.6668ZM1.3335 6.66671H1.8335C1.8335 5.39549 1.83456 4.49238 1.92667 3.80727C2.01685 3.13655 2.18596 2.75012 2.4681 2.46798L2.11454 2.11442L1.76099 1.76087C1.26208 2.25978 1.04067 2.89241 0.935586 3.67403C0.832434 4.44126 0.833496 5.42376 0.833496 6.66671H1.3335ZM6.68669 1.33337V0.833374C5.43708 0.833374 4.44977 0.832321 3.67941 0.935424C2.89504 1.0404 2.26029 1.26157 1.76099 1.76087L2.11454 2.11442L2.4681 2.46798C2.74985 2.18623 3.13747 2.01687 3.81206 1.92659C4.50066 1.83443 5.4089 1.83337 6.68669 1.83337V1.33337ZM4.00016 9.66671V10.1667H9.3335V9.66671V9.16671H4.00016V9.66671ZM4.00016 12V12.5H7.66683V12V11.5H4.00016V12ZM8.66683 1.66671H8.16683V3.33337H8.66683H9.16683V1.66671H8.66683ZM12.0002 6.66671V7.16671H14.6668V6.66671V6.16671H12.0002V6.66671ZM8.66683 3.33337H8.16683C8.16683 4.10491 8.16577 4.73387 8.23231 5.22878C8.30078 5.73808 8.44897 6.17964 8.80143 6.5321L9.15498 6.17855L9.50854 5.825C9.37284 5.6893 9.27696 5.49395 9.22339 5.09554C9.16789 4.68274 9.16683 4.13318 9.16683 3.33337H8.66683ZM12.0002 6.66671V6.16671C11.2004 6.16671 10.6508 6.16565 10.238 6.11015C9.83959 6.05658 9.64423 5.96069 9.50854 5.825L9.15498 6.17855L8.80143 6.5321C9.15389 6.88457 9.59545 7.03276 10.1048 7.10123C10.5997 7.16777 11.2286 7.16671 12.0002 7.16671V6.66671Z" fill="#333333"/>
</g>
<defs>
<clipPath id="clip0_2105_66642">
<rect width="16" height="16" fill="white"/>
</clipPath>
</defs>
</svg>
