<svg width="16" height="16" viewBox="0 0 16 16" fill="none" xmlns="http://www.w3.org/2000/svg">
    <g clip-path="url(#clip0_23_2238)">
        <path
            d="M10.2619 2.70247L9.92746 3.07412V3.07412L10.2619 2.70247ZM12.9011 5.07774L12.5666 5.44938L12.9011 5.07774ZM14.436 6.76944L13.9792 6.97286V6.97286L14.436 6.76944ZM2.11436 13.8857L2.46792 13.5321L2.46791 13.5321L2.11436 13.8857ZM13.8856 13.8857L13.532 13.5321L13.532 13.5321L13.8856 13.8857ZM3.99998 9.16671C3.72384 9.16671 3.49998 9.39057 3.49998 9.66671C3.49998 9.94285 3.72384 10.1667 3.99998 10.1667V9.16671ZM9.33331 10.1667C9.60946 10.1667 9.83331 9.94285 9.83331 9.66671C9.83331 9.39057 9.60946 9.16671 9.33331 9.16671V10.1667ZM3.99998 11.5C3.72384 11.5 3.49998 11.7239 3.49998 12C3.49998 12.2762 3.72384 12.5 3.99998 12.5V11.5ZM7.66665 12.5C7.94279 12.5 8.16665 12.2762 8.16665 12C8.16665 11.7239 7.94279 11.5 7.66665 11.5V12.5ZM9.33331 14.1667H6.66665V15.1667H9.33331V14.1667ZM1.83331 9.33337V6.66671H0.833313V9.33337H1.83331ZM14.1666 9.04197V9.33337H15.1666V9.04197H14.1666ZM9.92746 3.07412L12.5666 5.44938L13.2356 4.70609L10.5964 2.33082L9.92746 3.07412ZM15.1666 9.04197C15.1666 7.9164 15.1767 7.20372 14.8927 6.56602L13.9792 6.97286C14.1566 7.37101 14.1666 7.82807 14.1666 9.04197H15.1666ZM12.5666 5.44938C13.4689 6.26144 13.8019 6.5747 13.9792 6.97286L14.8927 6.56602C14.6087 5.92831 14.0722 5.45906 13.2356 4.70609L12.5666 5.44938ZM6.68651 1.83337C7.74104 1.83337 8.13898 1.84109 8.49366 1.9772L8.85193 1.04358C8.28403 0.825655 7.66531 0.833374 6.68651 0.833374V1.83337ZM10.5964 2.33082C9.87243 1.67923 9.41975 1.26147 8.85193 1.04358L8.49366 1.9772C8.84841 2.11333 9.14764 2.37228 9.92746 3.07412L10.5964 2.33082ZM6.66665 14.1667C5.39543 14.1667 4.49232 14.1656 3.80721 14.0735C3.13649 13.9834 2.75005 13.8142 2.46792 13.5321L1.76081 14.2392C2.25972 14.7381 2.89235 14.9595 3.67396 15.0646C4.4412 15.1678 5.4237 15.1667 6.66665 15.1667V14.1667ZM0.833313 9.33337C0.833313 10.5763 0.832251 11.5588 0.935403 12.3261C1.04049 13.1077 1.2619 13.7403 1.76081 14.2392L2.46791 13.5321C2.18578 13.25 2.01666 12.8635 1.92649 12.1928C1.83437 11.5077 1.83331 10.6046 1.83331 9.33337H0.833313ZM9.33331 15.1667C10.5763 15.1667 11.5588 15.1678 12.326 15.0646C13.1076 14.9595 13.7402 14.7381 14.2392 14.2392L13.532 13.5321C13.2499 13.8142 12.8635 13.9834 12.1927 14.0735C11.5076 14.1656 10.6045 14.1667 9.33331 14.1667V15.1667ZM14.1666 9.33337C14.1666 10.6046 14.1656 11.5077 14.0735 12.1928C13.9833 12.8635 13.8142 13.25 13.532 13.5321L14.2391 14.2392C14.7381 13.7403 14.9595 13.1077 15.0646 12.3261C15.1677 11.5588 15.1666 10.5763 15.1666 9.33337H14.1666ZM1.83331 6.66671C1.83331 5.39549 1.83437 4.49238 1.92649 3.80727C2.01666 3.13655 2.18578 2.75012 2.46791 2.46798L1.76081 1.76087C1.2619 2.25978 1.04049 2.89241 0.935403 3.67403C0.832251 4.44126 0.833313 5.42376 0.833313 6.66671H1.83331ZM6.68651 0.833374C5.4369 0.833374 4.44959 0.832321 3.67923 0.935424C2.89486 1.0404 2.26011 1.26157 1.76081 1.76087L2.46791 2.46798C2.74967 2.18623 3.13729 2.01687 3.81188 1.92659C4.50048 1.83443 5.40872 1.83337 6.68651 1.83337V0.833374ZM3.99998 10.1667H9.33331V9.16671H3.99998V10.1667ZM3.99998 12.5H7.66665V11.5H3.99998V12.5ZM8.16665 1.66671V3.33337H9.16665V1.66671H8.16665ZM12 7.16671H14.6666V6.16671H12V7.16671ZM8.16665 3.33337C8.16665 4.10491 8.16558 4.73387 8.23212 5.22878C8.3006 5.73808 8.44879 6.17964 8.80125 6.5321L9.50836 5.825C9.37266 5.6893 9.27677 5.49395 9.22321 5.09554C9.16771 4.68274 9.16665 4.13318 9.16665 3.33337H8.16665ZM12 6.16671C11.2002 6.16671 10.6506 6.16565 10.2378 6.11015C9.83941 6.05658 9.64405 5.96069 9.50836 5.825L8.80125 6.5321C9.15371 6.88457 9.59527 7.03276 10.1046 7.10123C10.5995 7.16777 11.2284 7.16671 12 7.16671V6.16671Z"
            fill="currentColor" />
    </g>
    <defs>
        <clipPath id="clip0_23_2238">
            <rect width="16" height="16" fill="white" />
        </clipPath>
    </defs>
</svg>