<svg width="16" height="16" viewBox="0 0 16 16" fill="none" xmlns="http://www.w3.org/2000/svg">
    <path fill-rule="evenodd" clip-rule="evenodd"
        d="M7.31302 1H8.68698C9.57712 1 10.2953 1 10.8599 1.07619C11.446 1.15433 11.9395 1.32363 12.3315 1.71498C12.5256 1.90967 12.6649 2.12912 12.7659 2.37265C13.3727 2.44819 13.8826 2.61488 14.285 3.0173C14.677 3.4093 14.845 3.90288 14.9245 4.48893C15 5.05349 15 5.77172 15 6.66186V9.33814C15 10.2283 15 10.9465 14.9245 11.5111C14.845 12.0971 14.677 12.5907 14.285 12.9827C13.8826 13.3851 13.3734 13.5518 12.7659 13.628C12.6649 13.8709 12.5256 14.0903 12.3315 14.285C11.9395 14.677 11.446 14.845 10.8599 14.9245C10.2953 15 9.57712 15 8.68698 15H7.31302C6.42288 15 5.70465 15 5.14009 14.9245C4.55405 14.845 4.06047 14.677 3.66847 14.285C3.48195 14.0967 3.33437 13.8734 3.23414 13.628C2.62726 13.5518 2.1174 13.3851 1.71498 12.9827C1.32298 12.5907 1.15498 12.0971 1.07619 11.5111C1 10.9465 1 10.2283 1 9.33814V6.66186C1 5.77172 1 5.05349 1.07619 4.48893C1.15433 3.90288 1.32363 3.4093 1.71498 3.0173C2.1174 2.61488 2.6266 2.44819 3.23414 2.37265C3.3343 2.12702 3.48188 1.90353 3.66847 1.71498C4.06047 1.32298 4.55405 1.15498 5.14009 1.07619C5.70465 1 6.42288 1 7.31302 1ZM3.00428 3.40279C2.71972 3.47181 2.54195 3.57209 2.40586 3.70884C2.22549 3.88856 2.10828 4.14121 2.04381 4.61916C1.97805 5.11144 1.97674 5.76326 1.97674 6.69767V9.30233C1.97674 10.2367 1.97805 10.8892 2.04381 11.3808C2.10828 11.8588 2.22614 12.1114 2.40586 12.2918C2.54195 12.4279 2.71972 12.5282 3.00493 12.5972C2.95349 12.0685 2.95349 11.4212 2.95349 10.6405V5.35954C2.95349 4.57944 2.95349 3.93154 3.00428 3.40279ZM12.9957 12.5972C13.2803 12.5282 13.458 12.4279 13.5941 12.2918C13.7745 12.1114 13.8917 11.8588 13.9562 11.3802C14.022 10.8892 14.0233 10.2374 14.0233 9.30298V6.69833C14.0233 5.76326 14.022 5.11144 13.9562 4.61916C13.8917 4.14121 13.7739 3.88856 13.5941 3.70819C13.458 3.57209 13.2803 3.47181 12.9951 3.40279C13.0465 3.93154 13.0465 4.57944 13.0465 5.35954V10.6405C13.0465 11.4206 13.0465 12.0685 12.9957 12.5972ZM5.27033 2.04381C4.79237 2.10828 4.53972 2.22614 4.35935 2.40586C4.17898 2.58623 4.06177 2.83888 3.9973 3.31749C3.93154 3.80781 3.93023 4.46028 3.93023 5.39535V10.6047C3.93023 11.5391 3.93154 12.1909 3.9973 12.6832C4.06177 13.1611 4.17963 13.4138 4.35935 13.5941C4.53972 13.7745 4.79237 13.8917 5.27098 13.9562C5.76195 14.022 6.41442 14.0233 7.34884 14.0233H8.65116C9.58558 14.0233 10.238 14.022 10.7297 13.9562C11.2076 13.8917 11.4603 13.7739 11.6407 13.5941C11.821 13.4138 11.9382 13.1611 12.0027 12.6825C12.0685 12.1909 12.0698 11.5391 12.0698 10.6047V5.39535C12.0698 4.46093 12.0685 3.80847 12.0027 3.31684C11.9382 2.83888 11.8204 2.58623 11.6407 2.40586C11.4603 2.22549 11.2076 2.10828 10.729 2.04381C10.238 1.97805 9.58558 1.97674 8.65116 1.97674H7.34884C6.41442 1.97674 5.76195 1.97805 5.27033 2.04381ZM5.55814 6.04651C5.55814 5.91699 5.60959 5.79277 5.70118 5.70118C5.79277 5.60959 5.91699 5.55814 6.04651 5.55814H9.95349C10.083 5.55814 10.2072 5.60959 10.2988 5.70118C10.3904 5.79277 10.4419 5.91699 10.4419 6.04651C10.4419 6.17604 10.3904 6.30026 10.2988 6.39184C10.2072 6.48343 10.083 6.53488 9.95349 6.53488H6.04651C5.91699 6.53488 5.79277 6.48343 5.70118 6.39184C5.60959 6.30026 5.55814 6.17604 5.55814 6.04651ZM5.55814 8.65116C5.55814 8.52164 5.60959 8.39742 5.70118 8.30583C5.79277 8.21424 5.91699 8.16279 6.04651 8.16279H9.95349C10.083 8.16279 10.2072 8.21424 10.2988 8.30583C10.3904 8.39742 10.4419 8.52164 10.4419 8.65116C10.4419 8.78069 10.3904 8.90491 10.2988 8.99649C10.2072 9.08808 10.083 9.13953 9.95349 9.13953H6.04651C5.91699 9.13953 5.79277 9.08808 5.70118 8.99649C5.60959 8.90491 5.55814 8.78069 5.55814 8.65116ZM5.55814 11.2558C5.55814 11.1263 5.60959 11.0021 5.70118 10.9105C5.79277 10.8189 5.91699 10.7674 6.04651 10.7674H8C8.12952 10.7674 8.25374 10.8189 8.34533 10.9105C8.43692 11.0021 8.48837 11.1263 8.48837 11.2558C8.48837 11.3853 8.43692 11.5096 8.34533 11.6011C8.25374 11.6927 8.12952 11.7442 8 11.7442H6.04651C5.91699 11.7442 5.79277 11.6927 5.70118 11.6011C5.60959 11.5096 5.55814 11.3853 5.55814 11.2558Z"
        fill="currentColor" />
</svg>