<svg width="16" height="16" viewBox="0 0 16 16" fill="none" xmlns="http://www.w3.org/2000/svg">
    <path
        d="M6.8367 15C6.68107 15 6.5322 14.9323 6.4307 14.797L5.74729 13.8835C5.60519 13.694 5.41573 13.5857 5.21273 13.5722C5.00297 13.5587 4.80674 13.6534 4.64434 13.8226C3.66319 14.8714 2.91887 14.7834 2.56025 14.6481C2.19486 14.506 1.5791 14.0391 1.5791 12.5369V4.91782C1.5791 1.91348 2.44522 1 5.28039 1H10.3891C13.2243 1 14.0904 1.91348 14.0904 4.91782V7.80036C14.0904 8.07779 13.8604 8.30785 13.5829 8.30785C13.3055 8.30785 13.0754 8.07779 13.0754 7.80036V4.91782C13.0754 2.4751 12.6491 2.01498 10.3891 2.01498H5.28039C3.02037 2.01498 2.59408 2.4751 2.59408 4.91782V12.5369C2.59408 13.2474 2.77001 13.6399 2.93241 13.7008C3.05421 13.7481 3.38577 13.6805 3.90002 13.1324C4.27218 12.7399 4.75937 12.5302 5.26686 12.5572C5.76758 12.5843 6.24124 12.8482 6.55927 13.2745L7.24945 14.188C7.30636 14.2638 7.34088 14.3541 7.34908 14.4486C7.35729 14.5431 7.33886 14.6379 7.29589 14.7225C7.25292 14.807 7.18712 14.8778 7.10596 14.9269C7.0248 14.9759 6.93152 15.0012 6.8367 15Z"
        fill="currentColor" />
    <path
        d="M10.5312 5.39825H5.118C4.84057 5.39825 4.61051 5.16818 4.61051 4.89076C4.61051 4.61333 4.84057 4.38327 5.118 4.38327H10.5312C10.8087 4.38327 11.0387 4.61333 11.0387 4.89076C11.0387 5.16818 10.8087 5.39825 10.5312 5.39825ZM9.85457 8.10486H5.79465C5.51722 8.10486 5.28716 7.8748 5.28716 7.59737C5.28716 7.31994 5.51722 7.08988 5.79465 7.08988H9.85457C10.132 7.08988 10.3621 7.31994 10.3621 7.59737C10.3621 7.8748 10.132 8.10486 9.85457 8.10486ZM9.73277 14.8917C9.47564 14.8917 9.23205 14.797 9.05612 14.621C8.84636 14.4113 8.75162 14.1068 8.79899 13.7887L8.92756 12.8753C8.96139 12.6384 9.10349 12.3542 9.27265 12.1851L11.668 9.78972C11.9928 9.46493 12.3108 9.29577 12.6559 9.26194C13.0754 9.22134 13.495 9.39727 13.8874 9.78972C14.2799 10.1822 14.4558 10.5949 14.4152 11.0212C14.3814 11.3596 14.2054 11.6844 13.8874 12.0091L11.4921 14.4045C11.3229 14.5737 11.0387 14.7158 10.8019 14.7496L9.8884 14.8782C9.83427 14.8849 9.7869 14.8917 9.73277 14.8917ZM12.7709 10.2701H12.7506C12.6559 10.2769 12.5273 10.3649 12.3853 10.507L9.9899 12.9023C9.96251 12.9355 9.9439 12.9751 9.93577 13.0174L9.81397 13.8632L10.6598 13.7414C10.6869 13.7346 10.7545 13.7008 10.7748 13.6805L13.1702 11.2851C13.3123 11.1363 13.4002 11.0145 13.407 10.9197C13.4205 10.7844 13.2852 10.622 13.1702 10.507C13.0619 10.3987 12.9063 10.2701 12.7709 10.2701Z"
        fill="currentColor" />
    <path
        d="M13.1837 12.5031C13.1363 12.5031 13.089 12.4963 13.0484 12.4828C12.6069 12.3575 12.2048 12.1214 11.8803 11.7969C11.5558 11.4724 11.3196 11.0703 11.1943 10.6288C11.1588 10.4987 11.1757 10.3598 11.2415 10.2421C11.3073 10.1244 11.4168 10.0373 11.5462 9.99949C11.8169 9.92506 12.0943 10.0807 12.1687 10.3513C12.3244 10.9062 12.7642 11.346 13.319 11.5017C13.4366 11.5358 13.538 11.611 13.6048 11.7136C13.6716 11.8162 13.6993 11.9394 13.6829 12.0607C13.6665 12.182 13.6071 12.2934 13.5155 12.3746C13.4238 12.4558 13.3061 12.5014 13.1837 12.5031Z"
        fill="currentColor" />
</svg>