<svg width="16" height="16" viewBox="0 0 16 16" fill="none" xmlns="http://www.w3.org/2000/svg">
    <g clip-path="url(#clip0_23_2427)">
        <path
            d="M2.66658 4C2.40375 4.00069 2.14339 3.94925 1.90056 3.84866C1.65774 3.74808 1.43727 3.60034 1.25191 3.414L0.222579 2.498C0.090501 2.38024 0.0106112 2.21484 0.000484195 2.03818C-0.00964277 1.86152 0.0508227 1.68807 0.168579 1.556C0.286335 1.42392 0.451736 1.34403 0.628395 1.3339C0.805054 1.32377 0.978501 1.38424 1.11058 1.502L2.16725 2.44466C2.22774 2.51259 2.30149 2.56743 2.38396 2.60579C2.46644 2.64415 2.55589 2.66523 2.64682 2.66773C2.73774 2.67022 2.82822 2.65409 2.91267 2.62031C2.99713 2.58654 3.07378 2.53584 3.13791 2.47133L5.54058 0.183996C5.66978 0.068976 5.83862 0.00867518 6.01145 0.0158298C6.18428 0.0229845 6.34756 0.0970345 6.46681 0.222339C6.58605 0.347644 6.65193 0.514392 6.65052 0.687363C6.64911 0.860335 6.58052 1.02599 6.45925 1.14933L4.06658 3.42533C3.88243 3.60841 3.664 3.75339 3.42377 3.852C3.18355 3.95061 2.92625 4.0009 2.66658 4ZM15.9999 2.66666C15.9999 2.48985 15.9297 2.32028 15.8047 2.19526C15.6796 2.07023 15.5101 2 15.3332 2H8.66658C8.48977 2 8.3202 2.07023 8.19518 2.19526C8.07015 2.32028 7.99991 2.48985 7.99991 2.66666C7.99991 2.84347 8.07015 3.01304 8.19518 3.13807C8.3202 3.26309 8.48977 3.33333 8.66658 3.33333H15.3332C15.5101 3.33333 15.6796 3.26309 15.8047 3.13807C15.9297 3.01304 15.9999 2.84347 15.9999 2.66666ZM4.06658 8.75866L6.45925 6.48266C6.52603 6.42321 6.58017 6.35093 6.61844 6.27013C6.65672 6.18932 6.67835 6.10164 6.68205 6.01231C6.68575 5.92297 6.67144 5.83381 6.63997 5.75011C6.6085 5.66642 6.56052 5.58992 6.49888 5.52515C6.43725 5.46038 6.36321 5.40867 6.28118 5.3731C6.19915 5.33752 6.1108 5.31882 6.02139 5.31809C5.93198 5.31736 5.84334 5.33462 5.76074 5.36885C5.67814 5.40308 5.60327 5.45357 5.54058 5.51733L3.14058 7.80466C3.01367 7.92602 2.84484 7.99374 2.66925 7.99374C2.49365 7.99374 2.32482 7.92602 2.19791 7.80466L1.13791 6.748C1.01218 6.62656 0.843776 6.55936 0.668978 6.56088C0.49418 6.5624 0.326972 6.63251 0.203366 6.75612C0.079761 6.87972 0.00964837 7.04693 0.00812942 7.22173C0.00661048 7.39653 0.0738068 7.56493 0.195245 7.69066L1.25191 8.74733C1.62503 9.12053 2.13052 9.33114 2.65824 9.33326C3.18597 9.33539 3.69314 9.12885 4.06925 8.75866H4.06658ZM15.9999 8C15.9999 7.82319 15.9297 7.65362 15.8047 7.52859C15.6796 7.40357 15.5101 7.33333 15.3332 7.33333H8.66658C8.48977 7.33333 8.3202 7.40357 8.19518 7.52859C8.07015 7.65362 7.99991 7.82319 7.99991 8C7.99991 8.17681 8.07015 8.34638 8.19518 8.4714C8.3202 8.59643 8.48977 8.66666 8.66658 8.66666H15.3332C15.5101 8.66666 15.6796 8.59643 15.8047 8.4714C15.9297 8.34638 15.9999 8.17681 15.9999 8ZM4.06658 14.092L6.45658 11.816C6.52336 11.7565 6.5775 11.6843 6.61578 11.6035C6.65405 11.5227 6.67568 11.435 6.67938 11.3456C6.68308 11.2563 6.66877 11.1671 6.6373 11.0834C6.60584 10.9998 6.55786 10.9232 6.49622 10.8585C6.43458 10.7937 6.36054 10.742 6.27851 10.7064C6.19648 10.6709 6.10813 10.6522 6.01872 10.6514C5.92931 10.6507 5.84067 10.668 5.75807 10.7022C5.67547 10.7364 5.6006 10.7869 5.53791 10.8507L3.13791 13.138C3.07378 13.2025 2.99713 13.2532 2.91267 13.287C2.82822 13.3208 2.73774 13.3369 2.64682 13.3344C2.55589 13.3319 2.46644 13.3108 2.38396 13.2725C2.30149 13.2341 2.22774 13.1793 2.16725 13.1113L1.11058 12.1687C0.978501 12.0509 0.805054 11.9904 0.628395 12.0006C0.451736 12.0107 0.286335 12.0906 0.168579 12.2227C0.0508227 12.3547 -0.00964277 12.5282 0.000484195 12.7048C0.0106112 12.8815 0.090501 13.0469 0.222579 13.1647L1.25191 14.0807C1.62503 14.4539 2.13052 14.6645 2.65824 14.6666C3.18597 14.6687 3.69314 14.4622 4.06925 14.092H4.06658ZM15.9999 13.3333C15.9999 13.1565 15.9297 12.9869 15.8047 12.8619C15.6796 12.7369 15.5101 12.6667 15.3332 12.6667H8.66658C8.48977 12.6667 8.3202 12.7369 8.19518 12.8619C8.07015 12.9869 7.99991 13.1565 7.99991 13.3333C7.99991 13.5101 8.07015 13.6797 8.19518 13.8047C8.3202 13.9298 8.48977 14 8.66658 14H15.3332C15.5101 14 15.6796 13.9298 15.8047 13.8047C15.9297 13.6797 15.9999 13.5101 15.9999 13.3333Z"
            fill="currentColor" />
    </g>
    <defs>
        <clipPath id="clip0_23_2427">
            <rect width="16" height="16" fill="white" />
        </clipPath>
    </defs>
</svg>