<svg width="16" height="16" viewBox="0 0 16 16" fill="none" xmlns="http://www.w3.org/2000/svg">
    <g clip-path="url(#clip0_23_3508)">
        <path
            d="M9.6401 12.4969L9.99366 12.8504L9.99366 12.8504L9.6401 12.4969ZM10.1515 11.9854L9.79797 11.6319L9.79797 11.6319L10.1515 11.9854ZM12.3213 8.91691L12.8213 8.91691L12.3213 8.91691ZM4.01446 5.84837L4.36801 6.20192L4.36801 6.20192L4.01446 5.84837ZM7.08299 3.67859L7.08299 4.17859L7.08299 3.67859ZM3.50303 6.35979L3.14948 6.00624L3.50303 6.35979ZM1.33325 9.42833L0.833252 9.42833L1.33325 9.42833ZM3.85659 9.07478C3.66133 8.87951 3.34474 8.87951 3.14948 9.07478C2.95422 9.27004 2.95422 9.58662 3.14948 9.78188L3.85659 9.07478ZM6.21802 12.8504C6.41328 13.0457 6.72986 13.0457 6.92512 12.8504C7.12038 12.6552 7.12038 12.3386 6.92512 12.1433L6.21802 12.8504ZM3.85659 6.71335L4.36801 6.20192L3.6609 5.49482L3.14948 6.00624L3.85659 6.71335ZM9.79797 11.6319L9.28655 12.1433L9.99366 12.8504L10.5051 12.339L9.79797 11.6319ZM9.28655 12.1433C8.55329 12.8766 8.03817 13.3902 7.59713 13.7267C7.16763 14.0544 6.86767 14.1666 6.57157 14.1666L6.57157 15.1666C7.17422 15.1666 7.68526 14.9173 8.20371 14.5217C8.71063 14.135 9.28039 13.5637 9.99366 12.8504L9.28655 12.1433ZM3.14948 12.8504C3.86275 13.5637 4.43251 14.135 4.93942 14.5217C5.45787 14.9173 5.96891 15.1666 6.57157 15.1666L6.57157 14.1666C6.27547 14.1666 5.9755 14.0544 5.54601 13.7267C5.10497 13.3902 4.58984 12.8766 3.85659 12.1433L3.14948 12.8504ZM9.79797 6.20192C10.5312 6.93518 11.0449 7.45031 11.3814 7.89134C11.709 8.32084 11.8213 8.62081 11.8213 8.91691L12.8213 8.91691C12.8213 8.31425 12.5719 7.80321 12.1764 7.28476C11.7896 6.77785 11.2183 6.20808 10.5051 5.49482L9.79797 6.20192ZM10.5051 12.339C11.2183 11.6257 11.7896 11.056 12.1764 10.5491C12.5719 10.0306 12.8213 9.51956 12.8213 8.91691L11.8213 8.91691C11.8213 9.213 11.709 9.51297 11.3814 9.94247C11.0449 10.3835 10.5312 10.8986 9.79797 11.6319L10.5051 12.339ZM4.36801 6.20192C5.10127 5.46867 5.61639 4.95504 6.05743 4.61855C6.48693 4.29085 6.78689 4.17859 7.08299 4.17859L7.08299 3.17859C6.48034 3.17859 5.9693 3.42796 5.45085 3.82352C4.94393 4.21029 4.37417 4.78155 3.6609 5.49482L4.36801 6.20192ZM10.5051 5.49482C9.79181 4.78155 9.22205 4.21029 8.71514 3.82352C8.19669 3.42796 7.68565 3.17859 7.08299 3.17859L7.08299 4.17859C7.37909 4.17859 7.67906 4.29085 8.10856 4.61855C8.54959 4.95505 9.06472 5.46867 9.79797 6.20192L10.5051 5.49482ZM3.14948 6.00624C2.43621 6.71951 1.86495 7.28927 1.47819 7.79618C1.08262 8.31463 0.833252 8.82567 0.833252 9.42833L1.83325 9.42833C1.83325 9.13223 1.94551 8.83226 2.27321 8.40277C2.60971 7.96173 3.12333 7.4466 3.85659 6.71335L3.14948 6.00624ZM3.85659 12.1433C3.12333 11.4101 2.60971 10.8949 2.27321 10.4539C1.94551 10.0244 1.83325 9.72443 1.83325 9.42833L0.833252 9.42833C0.833252 10.031 1.08262 10.542 1.47819 11.0605C1.86495 11.5674 2.43621 12.1372 3.14948 12.8504L3.85659 12.1433ZM3.14948 9.78188L6.21802 12.8504L6.92512 12.1433L3.85659 9.07478L3.14948 9.78188Z"
            fill="currentColor" />
        <path
            d="M13.2201 6.96068L13.5765 7.31139L13.2201 6.96068ZM11.8409 7.64933C11.6472 7.84615 11.6498 8.16272 11.8466 8.35641C12.0434 8.55011 12.36 8.54757 12.5537 8.35075L11.8409 7.64933ZM13.2201 2.80325L12.8638 3.15396L13.2201 2.80325ZM9.12875 2.80325L9.48512 3.15396L9.12875 2.80325ZM11.1744 1.33337V1.83337V1.33337ZM7.64363 3.5995C7.44993 3.79632 7.45247 4.11289 7.64929 4.30659C7.84611 4.50028 8.16268 4.49775 8.35637 4.30093L7.64363 3.5995ZM12.8638 6.60997L11.8409 7.64933L12.5537 8.35075L13.5765 7.31139L12.8638 6.60997ZM12.8638 3.15396C13.3558 3.65394 13.6889 3.99394 13.9052 4.28198C14.1126 4.55816 14.1667 4.72838 14.1667 4.88197H15.1667C15.1667 4.42671 14.9797 4.04753 14.7049 3.68154C14.439 3.32741 14.0488 2.93248 13.5765 2.45254L12.8638 3.15396ZM13.5765 7.31139C14.0488 6.83145 14.439 6.43652 14.7049 6.08239C14.9797 5.7164 15.1667 5.33722 15.1667 4.88197H14.1667C14.1667 5.03555 14.1126 5.20577 13.9052 5.48195C13.6889 5.76999 13.3558 6.10999 12.8638 6.60997L13.5765 7.31139ZM9.48512 3.15396C9.97726 2.65388 10.3117 2.31553 10.5949 2.096C10.8669 1.88514 11.0306 1.83337 11.1744 1.83337V0.833374C10.7191 0.833374 10.3422 1.02659 9.98218 1.30569C9.63338 1.57611 9.24458 1.97271 8.77237 2.45254L9.48512 3.15396ZM13.5765 2.45254C13.1043 1.97271 12.7155 1.57611 12.3667 1.30569C12.0067 1.02659 11.6298 0.833374 11.1744 0.833374V1.83337C11.3183 1.83337 11.482 1.88514 11.754 2.09599C12.0372 2.31553 12.3716 2.65387 12.8638 3.15396L13.5765 2.45254ZM8.77237 2.45254L7.64363 3.5995L8.35637 4.30093L9.48512 3.15396L8.77237 2.45254Z"
            fill="currentColor" />
        <path
            d="M9.6401 12.497L9.99366 12.8505L9.6401 12.497ZM10.1515 11.9856L9.79797 11.632L10.1515 11.9856ZM12.3213 8.91703H12.8213H12.3213ZM4.01446 5.84849L4.36801 6.20205L4.01446 5.84849ZM3.50303 6.35992L3.14948 6.00636L3.50303 6.35992ZM3.85659 9.0749C3.66133 8.87964 3.34474 8.87964 3.14948 9.0749C2.95422 9.27016 2.95422 9.58674 3.14948 9.782L3.85659 9.0749ZM6.21802 12.8505C6.41328 13.0458 6.72986 13.0458 6.92512 12.8505C7.12039 12.6553 7.12039 12.3387 6.92512 12.1434L6.21802 12.8505ZM3.85659 6.71347L4.36801 6.20205L3.6609 5.49494L3.14948 6.00636L3.85659 6.71347ZM9.79797 11.632L9.28655 12.1434L9.99366 12.8505L10.5051 12.3391L9.79797 11.632ZM9.28655 12.1434C8.55329 12.8767 8.03817 13.3903 7.59713 13.7268C7.16763 14.0545 6.86767 14.1668 6.57157 14.1668V15.1668C7.17422 15.1668 7.68526 14.9174 8.20371 14.5218C8.71063 14.1351 9.28039 13.5638 9.99366 12.8505L9.28655 12.1434ZM3.14948 12.8505C3.86275 13.5638 4.43251 14.1351 4.93942 14.5218C5.45787 14.9174 5.96891 15.1668 6.57157 15.1668V14.1668C6.27547 14.1668 5.9755 14.0545 5.54601 13.7268C5.10497 13.3903 4.58984 12.8767 3.85659 12.1434L3.14948 12.8505ZM9.79797 6.20205C10.5312 6.9353 11.0449 7.45043 11.3814 7.89147C11.709 8.32096 11.8213 8.62093 11.8213 8.91703H12.8213C12.8213 8.31437 12.5719 7.80333 12.1764 7.28488C11.7896 6.77797 11.2183 6.20821 10.5051 5.49494L9.79797 6.20205ZM10.5051 12.3391C11.2183 11.6259 11.7896 11.0561 12.1764 10.5492C12.5719 10.0307 12.8213 9.51968 12.8213 8.91703H11.8213C11.8213 9.21313 11.709 9.51309 11.3814 9.94259C11.0449 10.3836 10.5312 10.8988 9.79797 11.632L10.5051 12.3391ZM4.36801 6.20205C5.10127 5.46879 5.61639 4.95517 6.05743 4.61867C6.48693 4.29097 6.78689 4.17871 7.08299 4.17871V3.17871C6.48034 3.17871 5.9693 3.42808 5.45085 3.82365C4.94393 4.21041 4.37417 4.78167 3.6609 5.49494L4.36801 6.20205ZM10.5051 5.49494C9.79181 4.78167 9.22205 4.21041 8.71514 3.82365C8.19669 3.42808 7.68565 3.17871 7.08299 3.17871V4.17871C7.37909 4.17871 7.67906 4.29097 8.10856 4.61867C8.54959 4.95517 9.06472 5.46879 9.79797 6.20205L10.5051 5.49494ZM3.14948 6.00636C2.43621 6.71963 1.86495 7.28939 1.47819 7.79631C1.08262 8.31476 0.833252 8.8258 0.833252 9.42845H1.83325C1.83325 9.13235 1.94551 8.83239 2.27321 8.40289C2.60971 7.96185 3.12333 7.44673 3.85659 6.71347L3.14948 6.00636ZM3.85659 12.1434C3.12333 11.4102 2.60971 10.8951 2.27321 10.454C1.94551 10.0245 1.83325 9.72455 1.83325 9.42845H0.833252C0.833252 10.0311 1.08262 10.5421 1.47819 11.0606C1.86495 11.5675 2.43621 12.1373 3.14948 12.8505L3.85659 12.1434ZM3.14948 9.782L6.21802 12.8505L6.92512 12.1434L3.85659 9.0749L3.14948 9.782Z"
            fill="currentColor" />
        <path d="M12.4783 4.93591L12.0069 5.40732" stroke="currentColor" stroke-linecap="round" />
        <path d="M11.0642 3.52161L10.5928 3.99301" stroke="currentColor" stroke-linecap="round" />
    </g>
    <defs>
        <clipPath id="clip0_23_3508">
            <rect width="16" height="16" fill="white" />
        </clipPath>
    </defs>
</svg>