<svg width="16" height="16" viewBox="0 0 16 16" fill="none" xmlns="http://www.w3.org/2000/svg">
    <path fill-rule="evenodd" clip-rule="evenodd"
        d="M4.66671 1.16663C4.94285 1.16663 5.16671 1.39048 5.16671 1.66663V2.17511C5.60806 2.16662 6.09431 2.16662 6.6291 2.16663H9.37099C9.90577 2.16662 10.392 2.16662 10.8334 2.17511V1.66663C10.8334 1.39048 11.0572 1.16663 11.3334 1.16663C11.6095 1.16663 11.8334 1.39048 11.8334 1.66663V2.21802C12.0067 2.23123 12.1708 2.24784 12.3261 2.26872C13.1077 2.3738 13.7403 2.59521 14.2392 3.09412C14.7381 3.59303 14.9595 4.22566 15.0646 5.00728C15.0982 5.25707 15.1207 5.52968 15.1359 5.82667C15.1558 5.88067 15.1667 5.93904 15.1667 5.99996C15.1667 6.04617 15.1604 6.09092 15.1487 6.1334C15.1667 6.66805 15.1667 7.27513 15.1667 7.96235V9.3709C15.1667 10.5961 15.1667 11.5665 15.0646 12.326C14.9595 13.1076 14.7381 13.7402 14.2392 14.2391C13.7403 14.738 13.1077 14.9595 12.3261 15.0645C11.5666 15.1666 10.5962 15.1666 9.37098 15.1666H6.6291C5.40393 15.1666 4.4335 15.1666 3.67403 15.0645C2.89241 14.9595 2.25978 14.738 1.76087 14.2391C1.26196 13.7402 1.04055 13.1076 0.935464 12.326C0.833355 11.5665 0.833364 10.5961 0.833374 9.3709V7.96235C0.833368 7.27512 0.833363 6.66805 0.85138 6.13341C0.839644 6.09092 0.833374 6.04617 0.833374 5.99996C0.833374 5.93904 0.84427 5.88066 0.86422 5.82667C0.879343 5.52968 0.901881 5.25707 0.935464 5.00728C1.04055 4.22566 1.26196 3.59303 1.76087 3.09412C2.25978 2.59521 2.89241 2.3738 3.67403 2.26872C3.82931 2.24784 3.99341 2.23123 4.16671 2.21802V1.66663C4.16671 1.39048 4.39057 1.16663 4.66671 1.16663ZM1.8421 6.49996C1.83359 6.93511 1.83337 7.43062 1.83337 7.99996V9.33329C1.83337 10.6045 1.83444 11.5076 1.92655 12.1927C2.01672 12.8635 2.18584 13.2499 2.46798 13.532C2.75012 13.8142 3.13655 13.9833 3.80727 14.0735C4.49238 14.1656 5.39549 14.1666 6.66671 14.1666H9.33338C10.6046 14.1666 11.5077 14.1656 12.1928 14.0735C12.8635 13.9833 13.25 13.8142 13.5321 13.532C13.8142 13.2499 13.9834 12.8635 14.0735 12.1927C14.1656 11.5076 14.1667 10.6045 14.1667 9.33329V7.99996C14.1667 7.43062 14.1665 6.93511 14.158 6.49996H1.8421ZM14.1123 5.49996H1.88783C1.89851 5.3737 1.91128 5.25412 1.92655 5.14052C2.01672 4.4698 2.18584 4.08337 2.46798 3.80123C2.75012 3.51909 3.13655 3.34998 3.80727 3.2598C4.49238 3.16769 5.39549 3.16663 6.66671 3.16663H9.33338C10.6046 3.16663 11.5077 3.16769 12.1928 3.2598C12.8635 3.34998 13.25 3.51909 13.5321 3.80123C13.8142 4.08337 13.9834 4.4698 14.0735 5.14053C14.0888 5.25412 14.1016 5.3737 14.1123 5.49996Z"
        fill="currentColor" />
    <path
        d="M9.37021 9.37026C9.56548 9.175 9.88206 9.175 10.0773 9.37026L10.6666 9.95953L11.2558 9.37027C11.4511 9.17501 11.7677 9.17501 11.9629 9.37027C12.1582 9.56553 12.1582 9.88212 11.9629 10.0774L11.3737 10.6666L11.9629 11.2559C12.1582 11.4511 12.1582 11.7677 11.9629 11.963C11.7677 12.1583 11.4511 12.1583 11.2558 11.963L10.6666 11.3737L10.0773 11.963C9.88207 12.1583 9.56549 12.1583 9.37022 11.963C9.17496 11.7677 9.17496 11.4512 9.37022 11.2559L9.95948 10.6666L9.37021 10.0774C9.17495 9.88211 9.17495 9.56553 9.37021 9.37026Z"
        fill="currentColor" />
</svg>