<svg width="16" height="16" viewBox="0 0 16 16" fill="none" xmlns="http://www.w3.org/2000/svg">
    <path
        d="M12.5 12.5C12.2239 12.5 12 12.7239 12 13C12 13.2761 12.2239 13.5 12.5 13.5V12.5ZM3.5 3.5C3.5 3.77614 3.72386 4 4 4C4.27614 4 4.5 3.77614 4.5 3.5H3.5ZM8.5 10.5C8.77614 10.5 9 10.2762 9 10C9 9.72387 8.77614 9.50002 8.5 9.50002V10.5ZM4.5 9.50002C4.22386 9.50002 4 9.72388 4 10C4 10.2762 4.22386 10.5 4.5 10.5L4.5 9.50002ZM7 8C7 7.72386 6.77614 7.5 6.5 7.5C6.22386 7.5 6 7.72386 6 8H7ZM6 12C6 12.2761 6.22386 12.5 6.5 12.5C6.77614 12.5 7 12.2761 7 12H6ZM7.4 4.5H5.6V5.5H7.4V4.5ZM1.5 8.52941V11.4706H2.5V8.52941H1.5ZM5.6 15.5H7.4V14.5H5.6V15.5ZM11.5 11.4706V8.52941H10.5V11.4706H11.5ZM7.4 15.5C8.23466 15.5 8.90999 15.501 9.44043 15.4311C9.98426 15.3594 10.4505 15.2052 10.8228 14.8402L10.1228 14.1261C9.9679 14.2779 9.74625 14.3821 9.30975 14.4397C8.85986 14.499 8.26239 14.5 7.4 14.5V15.5ZM10.5 11.4706C10.5 12.3169 10.4989 12.9003 10.4387 13.339C10.3807 13.7623 10.2762 13.9756 10.1228 14.1261L10.8228 14.8402C11.1966 14.4738 11.3557 14.0127 11.4295 13.4749C11.5011 12.9525 11.5 12.2881 11.5 11.4706H10.5ZM1.5 11.4706C1.5 12.2881 1.4989 12.9525 1.57054 13.4749C1.64429 14.0127 1.80345 14.4738 2.17717 14.8402L2.87724 14.1261C2.72376 13.9756 2.61931 13.7623 2.56126 13.339C2.5011 12.9003 2.5 12.3169 2.5 11.4706H1.5ZM5.6 14.5C4.73761 14.5 4.14014 14.499 3.69025 14.4397C3.25375 14.3821 3.0321 14.2779 2.87724 14.1261L2.17717 14.8402C2.54952 15.2052 3.01574 15.3594 3.55957 15.4311C4.09001 15.501 4.76534 15.5 5.6 15.5V14.5ZM5.6 4.5C4.76534 4.5 4.09001 4.49898 3.55957 4.5689C3.01574 4.64058 2.54952 4.79479 2.17717 5.15983L2.87724 5.87391C3.0321 5.72208 3.25375 5.61786 3.69025 5.56032C4.14014 5.50102 4.73761 5.5 5.6 5.5V4.5ZM2.5 8.52941C2.5 7.68311 2.5011 7.09968 2.56126 6.66098C2.61931 6.2377 2.72376 6.02438 2.87724 5.87391L2.17717 5.15983C1.80345 5.52623 1.64429 5.98729 1.57054 6.52512C1.4989 7.04753 1.5 7.71193 1.5 8.52941H2.5ZM7.4 5.5C8.26239 5.5 8.85986 5.50102 9.30975 5.56032C9.74625 5.61786 9.9679 5.72208 10.1228 5.87391L10.8228 5.15983C10.4505 4.79479 9.98426 4.64058 9.44043 4.5689C8.90999 4.49898 8.23466 4.5 7.4 4.5V5.5ZM11.5 8.52941C11.5 7.71193 11.5011 7.04753 11.4295 6.52512C11.3557 5.98729 11.1966 5.52623 10.8228 5.15983L10.1228 5.87391C10.2762 6.02438 10.3807 6.2377 10.4387 6.66098C10.4989 7.09968 10.5 7.68311 10.5 8.52941H11.5ZM8.66667 1.5H6V2.5H8.66667V1.5ZM14.5 11.0588V7.17647H13.5V11.0588H14.5ZM13.5 11.0588C13.5 11.5469 13.4077 11.9176 13.2497 12.1519C13.1126 12.3551 12.8988 12.5 12.5 12.5V13.5C13.2057 13.5 13.7419 13.2104 14.0787 12.711C14.3946 12.2427 14.5 11.6428 14.5 11.0588H13.5ZM6 1.5C5.39532 1.5 4.78418 1.61517 4.30867 1.93179C3.8049 2.26722 3.5 2.79984 3.5 3.5H4.5C4.5 3.12808 4.64282 2.9107 4.8629 2.76415C5.11126 2.59878 5.50011 2.5 6 2.5V1.5ZM8.66667 2.5C9.93748 2.5 10.8417 2.501 11.528 2.59056C12.2014 2.67843 12.5891 2.84353 12.8707 3.11687L13.5672 2.39929C13.0678 1.91455 12.4364 1.70061 11.6574 1.59896C10.8914 1.499 9.91002 1.5 8.66667 1.5V2.5ZM14.5 7.17647C14.5 5.97092 14.5011 5.01495 14.3976 4.26787C14.2919 3.50484 14.0687 2.88605 13.5672 2.39929L12.8707 3.11687C13.1502 3.38818 13.3175 3.75849 13.4071 4.40508C13.4989 5.06762 13.5 5.94181 13.5 7.17647H14.5ZM8.5 9.50002H6.5V10.5H8.5V9.50002ZM6.5 9.50002L4.5 9.50002L4.5 10.5L6.5 10.5L6.5 9.50002ZM6 8L6 10H7L7 8H6ZM6 10V12H7V10H6Z"
        fill="currentColor" />
</svg>