<svg width="16" height="16" viewBox="0 0 16 16" fill="none" xmlns="http://www.w3.org/2000/svg">
    <path
        d="M11.6053 2.00389L5.00134 8.60788C4.74911 8.85875 4.54915 9.15716 4.41303 9.48584C4.27691 9.81452 4.20734 10.1669 4.20834 10.5227V11.2501C4.20834 11.3938 4.26541 11.5316 4.36699 11.6331C4.46857 11.7347 4.60635 11.7918 4.75001 11.7918H5.47747C5.83321 11.7928 6.18562 11.7232 6.5143 11.5871C6.84298 11.451 7.14139 11.251 7.39226 10.9988L13.9963 4.3948C14.3128 4.07748 14.4906 3.64756 14.4906 3.19935C14.4906 2.75113 14.3128 2.32121 13.9963 2.00389C13.6743 1.69616 13.2461 1.52443 12.8008 1.52443C12.3555 1.52443 11.9273 1.69616 11.6053 2.00389ZM13.2303 3.62889L6.62634 10.2329C6.32091 10.5365 5.90809 10.7073 5.47747 10.7085H5.29167V10.5227C5.2928 10.092 5.46369 9.67923 5.76726 9.3738L12.3713 2.7698C12.4869 2.65928 12.6408 2.5976 12.8008 2.5976C12.9608 2.5976 13.1146 2.65928 13.2303 2.7698C13.3441 2.88383 13.4079 3.0383 13.4079 3.19935C13.4079 3.36039 13.3441 3.51486 13.2303 3.62889Z"
        fill="currentColor" />
    <path
        d="M13.9583 6.36362C13.8147 6.36362 13.6769 6.42069 13.5753 6.52227C13.4737 6.62385 13.4167 6.76163 13.4167 6.90529V9.625H11.25C10.819 9.625 10.4057 9.7962 10.1009 10.1009C9.7962 10.4057 9.625 10.819 9.625 11.25V13.4167H4.20833C3.77736 13.4167 3.36403 13.2455 3.05928 12.9407C2.75454 12.636 2.58333 12.2226 2.58333 11.7917V4.20833C2.58333 3.77736 2.75454 3.36403 3.05928 3.05928C3.36403 2.75454 3.77736 2.58333 4.20833 2.58333H9.10608C9.24974 2.58333 9.38751 2.52626 9.48909 2.42468C9.59068 2.3231 9.64775 2.18533 9.64775 2.04167C9.64775 1.89801 9.59068 1.76023 9.48909 1.65865C9.38751 1.55707 9.24974 1.5 9.10608 1.5H4.20833C3.4903 1.50086 2.80193 1.78648 2.2942 2.2942C1.78648 2.80193 1.50086 3.4903 1.5 4.20833V11.7917C1.50086 12.5097 1.78648 13.1981 2.2942 13.7058C2.80193 14.2135 3.4903 14.4991 4.20833 14.5H10.3525C10.7083 14.501 11.0608 14.4314 11.3895 14.2953C11.7183 14.1592 12.0168 13.9592 12.2678 13.707L13.7065 12.2672C13.9587 12.0164 14.1588 11.718 14.295 11.3893C14.4312 11.0606 14.5009 10.7082 14.5 10.3525V6.90529C14.5 6.76163 14.4429 6.62385 14.3413 6.52227C14.2398 6.42069 14.102 6.36362 13.9583 6.36362ZM11.5019 12.9411C11.2841 13.1583 11.0088 13.3087 10.7083 13.3744V11.25C10.7083 11.1063 10.7654 10.9686 10.867 10.867C10.9686 10.7654 11.1063 10.7083 11.25 10.7083H13.376C13.309 11.0081 13.1588 11.283 12.9427 11.5013L11.5019 12.9411Z"
        fill="currentColor" />
</svg>