<svg width="16" height="16" viewBox="0 0 16 16" fill="none" xmlns="http://www.w3.org/2000/svg">
    <rect width="16" height="16" fill="white" />
    <path
        d="M1.33337 7.99996C1.33337 5.4858 1.33337 4.22872 2.11442 3.44767C2.89547 2.66663 4.15255 2.66663 6.66671 2.66663H9.33337C11.8475 2.66663 13.1046 2.66663 13.8857 3.44767C14.6667 4.22872 14.6667 5.4858 14.6667 7.99996C14.6667 10.5141 14.6667 11.7712 13.8857 12.5522C13.1046 13.3333 11.8475 13.3333 9.33337 13.3333H6.66671C4.15255 13.3333 2.89547 13.3333 2.11442 12.5522C1.33337 11.7712 1.33337 10.5141 1.33337 7.99996Z"
        stroke="currentColor" />
    <path
        d="M4 5.33337L5.43926 6.53276C6.66369 7.55311 7.2759 8.06329 8 8.06329C8.7241 8.06329 9.33631 7.55311 10.5607 6.53276L12 5.33337"
        stroke="currentColor" stroke-linecap="round" />
</svg>