<svg width="16" height="16" viewBox="0 0 16 16" fill="none" xmlns="http://www.w3.org/2000/svg">
<g clip-path="url(#clip0_23_3459)">
<path fill-rule="evenodd" clip-rule="evenodd" d="M7.05416 0.833452H7.04083C6.96483 0.833452 6.90616 0.833452 6.85016 0.836786C6.50378 0.857842 6.17049 0.976774 5.88903 1.17976C5.60757 1.38274 5.3895 1.66144 5.26016 1.98345C5.2395 2.03479 5.22083 2.09012 5.19683 2.16279L5.19283 2.17545L5.1755 2.22679L5.15616 2.28345C5.0495 2.57812 4.6955 2.82412 4.32083 2.83345L3.1075 2.89345C2.5835 2.95479 2.13483 3.08545 1.7555 3.39412C1.62376 3.50272 1.50276 3.62372 1.39416 3.75545C1.0855 4.13545 0.954163 4.58345 0.892829 5.10812C0.833496 5.61479 0.833496 6.25145 0.833496 7.04145V7.09345C0.833496 7.28279 0.833496 7.46012 0.848829 7.60945C0.865496 7.77479 0.904163 7.95079 1.00883 8.12012C1.0435 8.17523 1.08238 8.22723 1.1255 8.27612C1.23816 8.40345 1.36883 8.48612 1.50016 8.54679C1.50216 9.62412 1.51616 10.7121 1.61283 11.6441C1.6695 12.1908 1.75616 12.7035 1.89416 13.1408C2.0295 13.5708 2.2295 13.9781 2.54683 14.2595C3.0955 14.7475 3.78683 14.9628 4.64883 15.0661C5.4955 15.1668 6.58083 15.1668 7.96616 15.1668H8.03416C9.4195 15.1668 10.5048 15.1668 11.3515 15.0655C12.2135 14.9628 12.9048 14.7475 13.4535 14.2595C13.7708 13.9781 13.9708 13.5708 14.1068 13.1408C14.2442 12.7035 14.3308 12.1908 14.3875 11.6441C14.4842 10.7121 14.4982 9.62412 14.5002 8.54679C14.7028 8.45691 14.8737 8.30827 14.9908 8.12012C15.0962 7.95079 15.1348 7.77479 15.1515 7.60945C15.1668 7.46012 15.1668 7.28279 15.1668 7.09345V7.04145C15.1668 6.25145 15.1668 5.61479 15.1068 5.10812C15.0455 4.58345 14.9148 4.13479 14.6062 3.75545C14.4976 3.62372 14.3766 3.50272 14.2448 3.39412C13.8648 3.08545 13.4168 2.95412 12.8922 2.89279L11.6802 2.83345C11.3055 2.82412 10.9515 2.57812 10.8448 2.28345L10.8255 2.22679L10.8042 2.16212C10.7802 2.09079 10.7622 2.03479 10.7408 1.98279C10.6114 1.66089 10.3933 1.38234 10.1118 1.17948C9.83037 0.976618 9.49713 0.857785 9.15083 0.836786C9.08754 0.833869 9.02418 0.832758 8.96083 0.833452H7.05416ZM5.0475 3.83345H10.9535C11.7682 3.83345 12.3388 3.83479 12.7755 3.88612C13.2062 3.93679 13.4415 4.03012 13.6135 4.17012C13.6935 4.23501 13.7657 4.30723 13.8302 4.38679C13.9702 4.55879 14.0635 4.79412 14.1142 5.22479C14.1662 5.66612 14.1668 6.24412 14.1668 7.07279C14.1668 7.29012 14.1668 7.41612 14.1568 7.50879C14.1553 7.5371 14.1501 7.56511 14.1415 7.59212L14.1255 7.61412C14.1019 7.63021 14.0764 7.6432 14.0495 7.65279C13.9635 7.68879 13.8428 7.72545 13.6348 7.78745L10.1668 8.82812V8.66679C10.1668 8.20679 9.7935 7.83345 9.3335 7.83345H6.66683C6.20683 7.83345 5.8335 8.20679 5.8335 8.66679V8.82812L2.3655 7.78812C2.22524 7.7495 2.08687 7.70434 1.95083 7.65279C1.92395 7.6432 1.8984 7.63021 1.87483 7.61412L5.8335 8.82812L1.85883 7.59212C1.85019 7.56511 1.84504 7.5371 1.8435 7.50879C1.83337 7.36369 1.83003 7.2182 1.8335 7.07279C1.8335 6.24412 1.83416 5.66612 1.88616 5.22479C1.93683 4.79412 2.03016 4.55879 2.17016 4.38679C2.23497 4.30751 2.30755 4.23493 2.38683 4.17012C2.55883 4.03012 2.79416 3.93679 3.22483 3.88612C3.6615 3.83479 4.23216 3.83345 5.0475 3.83345ZM7.0535 1.83345C6.95816 1.83345 6.9315 1.83345 6.91016 1.83479C6.75271 1.84438 6.60122 1.89846 6.47329 1.99075C6.34537 2.08303 6.24626 2.20973 6.1875 2.35612C6.17073 2.4008 6.15517 2.44593 6.14083 2.49145L6.1215 2.54812L6.09616 2.62345C6.0695 2.69634 6.03838 2.76634 6.00283 2.83345H9.99616C9.94786 2.74222 9.90813 2.6467 9.8775 2.54812L9.85883 2.49145C9.84449 2.44593 9.82893 2.4008 9.81216 2.35612C9.75335 2.20964 9.65414 2.08287 9.52608 1.99058C9.39803 1.89828 9.24639 1.84426 9.08883 1.83479C9.04107 1.83306 8.99328 1.83261 8.9455 1.83345H7.0535ZM2.5015 8.87279C2.50616 9.83079 2.5255 10.7508 2.6075 11.5415C2.66083 12.0548 2.73816 12.4928 2.8475 12.8401C2.9595 13.1935 3.08883 13.4035 3.21083 13.5121C3.54083 13.8055 3.99616 13.9808 4.7675 14.0721C5.5475 14.1655 6.5735 14.1668 8.00016 14.1668C9.42683 14.1668 10.4522 14.1661 11.2328 14.0728C12.0042 13.9808 12.4595 13.8048 12.7895 13.5121C12.9115 13.4035 13.0408 13.1935 13.1528 12.8401C13.2622 12.4935 13.3395 12.0548 13.3928 11.5415C13.4748 10.7508 13.4942 9.83012 13.4988 8.87279L10.1668 9.87212V10.1081C10.1668 10.4481 9.9595 10.7548 9.64283 10.8815L9.17616 11.0681C8.42124 11.3701 7.57909 11.3701 6.82416 11.0681L6.3575 10.8815C6.20289 10.8196 6.07035 10.7129 5.97695 10.5751C5.88355 10.4373 5.83359 10.2746 5.8335 10.1081V9.87212L2.5015 8.87279ZM6.8335 8.83345V9.99479L7.1955 10.1395C7.71216 10.3461 8.28883 10.3461 8.80483 10.1395L9.16683 9.99479V8.83345H6.8335Z" fill="#333333"/>
</g>
<defs>
<clipPath id="clip0_23_3459">
<rect width="16" height="16" fill="white"/>
</clipPath>
</defs>
</svg>
