<svg width="16" height="16" viewBox="0 0 16 16" fill="none" xmlns="http://www.w3.org/2000/svg">
    <path
        d="M9.75 5H14V15.25C14 15.6656 13.6656 16 13.25 16H2.75C2.33437 16 2 15.6656 2 15.25V0.75C2 0.334375 2.33437 0 2.75 0H9V4.25C9 4.6625 9.3375 5 9.75 5ZM13.7812 3.28125L10.7188 0.21875C10.5781 0.078125 10.3875 0 10.1875 0H10V4H14V3.80938C14 3.6125 13.9219 3.42188 13.7812 3.28125Z"
        fill="#23A566" />
    <path
        d="M4.26885 13H3.83475C3.80346 13 3.78 12.9902 3.76435 12.9707C3.75262 12.9511 3.75458 12.9257 3.77022 12.8944L4.73815 11.0465L3.81128 9.33359C3.79564 9.30622 3.79368 9.28275 3.80542 9.2632C3.82106 9.23973 3.84452 9.228 3.87581 9.228H4.29232C4.37053 9.228 4.42528 9.26124 4.45657 9.32773L5.13119 10.6887H5.15465L5.82927 9.32773C5.86447 9.26124 5.91531 9.228 5.9818 9.228H6.4159C6.44718 9.228 6.46869 9.23973 6.48043 9.2632C6.49607 9.28666 6.49803 9.31208 6.48629 9.33946L5.54769 11.0465L6.51562 12.8885C6.53127 12.9198 6.53322 12.9472 6.52149 12.9707C6.50976 12.9902 6.48629 13 6.4511 13H6.01113C5.94855 13 5.90358 12.9687 5.8762 12.9061L5.15465 11.4748H5.13119L4.40964 12.9061C4.38226 12.9687 4.33533 13 4.26885 13ZM9.11653 13H7.21586C7.14938 13 7.11614 12.9668 7.11614 12.9003V9.32773C7.11614 9.26124 7.14938 9.228 7.21586 9.228H7.58544C7.65192 9.228 7.68516 9.26124 7.68516 9.32773V12.431C7.68516 12.4701 7.70863 12.4896 7.75556 12.4896H9.11653C9.18301 12.4896 9.21625 12.5248 9.21625 12.5952V12.9003C9.21625 12.9668 9.18301 13 9.11653 13ZM9.6867 12.0849V11.9323C9.6867 11.8659 9.71994 11.8326 9.78642 11.8326H10.1619C10.2283 11.8326 10.2616 11.8659 10.2616 11.9323V12.0379C10.2616 12.2022 10.2968 12.3215 10.3672 12.3958C10.4415 12.4662 10.5627 12.5014 10.7309 12.5014H11.1357C11.3038 12.5014 11.4251 12.4642 11.4994 12.3899C11.5737 12.3117 11.6108 12.1865 11.6108 12.0145V11.8795C11.6108 11.7544 11.5619 11.6566 11.4642 11.5862C11.3703 11.5119 11.253 11.465 11.1122 11.4454C10.9714 11.422 10.8169 11.3907 10.6488 11.3516C10.4806 11.3125 10.3261 11.2675 10.1853 11.2167C10.0445 11.1658 9.92526 11.07 9.82749 10.9292C9.73363 10.7884 9.6867 10.6085 9.6867 10.3895V10.1431C9.6867 9.85765 9.76687 9.63473 9.92721 9.47438C10.0915 9.31013 10.3163 9.228 10.6018 9.228H11.2237C11.5131 9.228 11.7379 9.31013 11.8983 9.47438C12.0625 9.63473 12.1447 9.85765 12.1447 10.1431V10.2722C12.1447 10.3387 12.1114 10.3719 12.0449 10.3719H11.6695C11.603 10.3719 11.5698 10.3387 11.5698 10.2722V10.1959C11.5698 10.0278 11.5326 9.90849 11.4583 9.83809C11.3879 9.76379 11.2686 9.72663 11.1005 9.72663H10.7309C10.5627 9.72663 10.4415 9.76574 10.3672 9.84396C10.2968 9.91826 10.2616 10.0473 10.2616 10.2311V10.413C10.2616 10.589 10.3887 10.7083 10.6429 10.7708C10.7563 10.7982 10.8795 10.8217 11.0125 10.8412C11.1493 10.8608 11.2862 10.8901 11.4231 10.9292C11.56 10.9683 11.6851 11.0211 11.7985 11.0876C11.912 11.1502 12.0039 11.2479 12.0743 11.3809C12.1447 11.51 12.1799 11.6684 12.1799 11.8561V12.0849C12.1799 12.3704 12.0977 12.5952 11.9335 12.7595C11.7731 12.9198 11.5502 13 11.2647 13H10.6077C10.3222 13 10.0973 12.9198 9.93308 12.7595C9.76883 12.5952 9.6867 12.3704 9.6867 12.0849Z"
        fill="white" />
</svg>