<svg width="16" height="16" viewBox="0 0 16 16" fill="none" xmlns="http://www.w3.org/2000/svg">
    <path
        d="M2.18318 10.1971C1.61656 9.46094 1.33325 9.09288 1.33325 7.99996C1.33325 6.90704 1.61656 6.53898 2.18318 5.80285C3.31456 4.333 5.21199 2.66663 7.99992 2.66663C10.7878 2.66663 12.6853 4.333 13.8167 5.80285C14.3833 6.53898 14.6666 6.90704 14.6666 7.99996C14.6666 9.09288 14.3833 9.46094 13.8167 10.1971C12.6853 11.6669 10.7878 13.3333 7.99992 13.3333C5.21199 13.3333 3.31456 11.6669 2.18318 10.1971Z"
        stroke="currentColor" />
    <path
        d="M9.99976 8C9.99976 9.10457 9.10433 10 7.99976 10C6.89519 10 5.99976 9.10457 5.99976 8C5.99976 6.89543 6.89519 6 7.99976 6C9.10433 6 9.99976 6.89543 9.99976 8Z"
        stroke="currentColor" />
</svg>