<svg width="16" height="16" viewBox="0 0 16 16" fill="none" xmlns="http://www.w3.org/2000/svg">
    <path
        d="M1.79307 4.46967C1.68429 4.21585 1.39035 4.09828 1.13654 4.20705C0.882722 4.31583 0.765146 4.60977 0.873924 4.86359L1.79307 4.46967ZM10.3916 8.88576L10.2085 8.4205L10.3916 8.88576ZM6.0278 9.15845C6.1784 8.92699 6.11285 8.61727 5.8814 8.46667C5.64994 8.31606 5.34022 8.38161 5.18961 8.61307L6.0278 9.15845ZM4.24774 10.0606C4.09713 10.2921 4.16268 10.6018 4.39414 10.7524C4.62559 10.903 4.93532 10.8374 5.08592 10.606L4.24774 10.0606ZM15.1264 4.86359C15.2352 4.60977 15.1176 4.31583 14.8638 4.20705C14.61 4.09828 14.316 4.21585 14.2073 4.46967L15.1264 4.86359ZM12.6668 7.41919L12.3246 7.05462L12.6668 7.41919ZM13.3133 8.77274C13.5085 8.968 13.8251 8.968 14.0204 8.77274C14.2156 8.57748 14.2156 8.26089 14.0204 8.06563L13.3133 8.77274ZM7.50016 11C7.50016 11.2761 7.72402 11.5 8.00016 11.5C8.2763 11.5 8.50016 11.2761 8.50016 11H7.50016ZM10.9144 10.606C11.065 10.8374 11.3747 10.903 11.6062 10.7524C11.8376 10.6018 11.9032 10.2921 11.7526 10.0606L10.9144 10.606ZM3.68705 7.77274C3.88231 7.57748 3.88231 7.26089 3.68705 7.06563C3.49179 6.87037 3.1752 6.87037 2.97994 7.06563L3.68705 7.77274ZM1.97994 8.06563C1.78468 8.26089 1.78468 8.57748 1.97994 8.77274C2.1752 8.968 2.49179 8.968 2.68705 8.77274L1.97994 8.06563ZM8.00016 8.83329C5.8509 8.83329 4.30771 7.76303 3.28323 6.65973C2.77113 6.10825 2.39566 5.55518 2.14856 5.14005C2.02529 4.93296 1.93474 4.7615 1.87576 4.64354C1.84629 4.5846 1.82476 4.53912 1.81101 4.50937C1.80414 4.49449 1.79922 4.48356 1.79624 4.47685C1.79475 4.47349 1.79374 4.47119 1.79321 4.46998C1.79295 4.46938 1.7928 4.46904 1.79278 4.46899C1.79277 4.46896 1.79279 4.46901 1.79283 4.46912C1.79286 4.46917 1.79292 4.46931 1.79293 4.46934C1.79299 4.46949 1.79307 4.46967 1.3335 4.66663C0.873924 4.86359 0.874013 4.86379 0.874109 4.86402C0.874152 4.86412 0.874257 4.86436 0.874342 4.86456C0.874512 4.86496 0.874714 4.86542 0.874947 4.86596C0.875412 4.86704 0.876003 4.8684 0.876718 4.87004C0.878149 4.87331 0.88008 4.87771 0.882513 4.88318C0.887381 4.89413 0.894263 4.9094 0.90318 4.9287C0.921011 4.96731 0.947004 5.02209 0.981335 5.09075C1.04996 5.228 1.15212 5.42113 1.28927 5.65153C1.563 6.1114 1.97919 6.72501 2.55043 7.34018C3.69261 8.57022 5.48276 9.83329 8.00016 9.83329V8.83329ZM10.2085 8.4205C9.56158 8.67513 8.82797 8.83329 8.00016 8.83329V9.83329C8.95897 9.83329 9.81655 9.64945 10.5748 9.35102L10.2085 8.4205ZM5.18961 8.61307L4.24774 10.0606L5.08592 10.606L6.0278 9.15845L5.18961 8.61307ZM14.6668 4.66663C14.2073 4.46967 14.2073 4.46957 14.2073 4.46947C14.2074 4.46945 14.2074 4.46936 14.2074 4.46931C14.2075 4.46921 14.2075 4.46914 14.2075 4.46908C14.2076 4.46897 14.2076 4.46896 14.2075 4.46902C14.2075 4.46916 14.2073 4.46964 14.2069 4.47046C14.2062 4.47211 14.2049 4.47513 14.2029 4.47945C14.1991 4.48811 14.1928 4.50202 14.184 4.52079C14.1665 4.55834 14.1392 4.61526 14.1019 4.68841C14.0272 4.8348 13.9128 5.0455 13.7571 5.29543C13.4448 5.79673 12.971 6.44794 12.3246 7.05462L13.009 7.78375C13.7351 7.10228 14.2613 6.37721 14.6058 5.82427C14.7786 5.54708 14.9068 5.31116 14.9927 5.14273C15.0357 5.05846 15.0682 4.99091 15.0904 4.94334C15.1014 4.91955 15.11 4.90074 15.116 4.88732C15.119 4.88061 15.1213 4.87524 15.1231 4.87127C15.1239 4.86928 15.1246 4.86764 15.1252 4.86636C15.1255 4.86572 15.1257 4.86517 15.1259 4.86471C15.126 4.86447 15.1261 4.86426 15.1262 4.86408C15.1262 4.86398 15.1263 4.86386 15.1263 4.86381C15.1264 4.8637 15.1264 4.86359 14.6668 4.66663ZM12.3246 7.05462C11.752 7.59213 11.0494 8.08951 10.2085 8.4205L10.5748 9.35102C11.5572 8.96433 12.3646 8.38864 13.009 7.78375L12.3246 7.05462ZM12.3133 7.77274L13.3133 8.77274L14.0204 8.06563L13.0204 7.06563L12.3133 7.77274ZM7.50016 9.33329V11H8.50016V9.33329H7.50016ZM9.97253 9.15845L10.9144 10.606L11.7526 10.0606L10.8107 8.61307L9.97253 9.15845ZM2.97994 7.06563L1.97994 8.06563L2.68705 8.77274L3.68705 7.77274L2.97994 7.06563Z"
        fill="currentColor" />
</svg>