<svg width="16" height="16" viewBox="0 0 16 16" fill="none" xmlns="http://www.w3.org/2000/svg">
    <g clip-path="url(#clip0_23_3505)">
        <path
            d="M10.2619 2.70247L9.9274 3.07412L10.2619 2.70247ZM12.9011 5.07774L12.5666 5.44938L12.9011 5.07774ZM14.4359 6.76944L13.9792 6.97286L13.9792 6.97286L14.4359 6.76944ZM2.1143 13.8857L2.46785 13.5321L2.46785 13.5321L2.1143 13.8857ZM13.8855 13.8857L13.532 13.5321L13.532 13.5321L13.8855 13.8857ZM9.33325 14.1667H6.66658V15.1667H9.33325V14.1667ZM1.83325 9.33337V6.66671H0.833252V9.33337H1.83325ZM14.1666 9.04197V9.33337H15.1666V9.04197H14.1666ZM9.9274 3.07412L12.5666 5.44938L13.2355 4.70609L10.5964 2.33082L9.9274 3.07412ZM15.1666 9.04197C15.1666 7.9164 15.1767 7.20372 14.8927 6.56602L13.9792 6.97286C14.1565 7.37101 14.1666 7.82807 14.1666 9.04197H15.1666ZM12.5666 5.44938C13.4689 6.26144 13.8018 6.5747 13.9792 6.97286L14.8927 6.56602C14.6087 5.92831 14.0722 5.45906 13.2355 4.70609L12.5666 5.44938ZM6.68645 1.83337C7.74098 1.83337 8.13892 1.84109 8.4936 1.9772L8.85187 1.04358C8.28397 0.825655 7.66525 0.833374 6.68645 0.833374V1.83337ZM10.5964 2.33082C9.87237 1.67923 9.41969 1.26147 8.85187 1.04358L8.4936 1.9772C8.84835 2.11333 9.14758 2.37228 9.9274 3.07412L10.5964 2.33082ZM6.66658 14.1667C5.39537 14.1667 4.49226 14.1656 3.80715 14.0735C3.13642 13.9834 2.74999 13.8142 2.46785 13.5321L1.76075 14.2392C2.25966 14.7381 2.89229 14.9595 3.6739 15.0646C4.44113 15.1678 5.42364 15.1667 6.66658 15.1667V14.1667ZM0.833252 9.33337C0.833252 10.5763 0.83219 11.5588 0.935342 12.3261C1.04043 13.1077 1.26184 13.7403 1.76075 14.2392L2.46785 13.5321C2.18571 13.25 2.0166 12.8635 1.92642 12.1928C1.83431 11.5077 1.83325 10.6046 1.83325 9.33337H0.833252ZM9.33325 15.1667C10.5762 15.1667 11.5587 15.1678 12.3259 15.0646C13.1075 14.9595 13.7402 14.7381 14.2391 14.2392L13.532 13.5321C13.2498 13.8142 12.8634 13.9834 12.1927 14.0735C11.5076 14.1656 10.6045 14.1667 9.33325 14.1667V15.1667ZM14.1666 9.33337C14.1666 10.6046 14.1655 11.5077 14.0734 12.1928C13.9832 12.8635 13.8141 13.25 13.532 13.5321L14.2391 14.2392C14.738 13.7403 14.9594 13.1077 15.0645 12.3261C15.1676 11.5588 15.1666 10.5763 15.1666 9.33337H14.1666ZM1.83325 6.66671C1.83325 5.39549 1.83431 4.49238 1.92642 3.80727C2.0166 3.13655 2.18571 2.75012 2.46785 2.46798L1.76075 1.76087C1.26184 2.25978 1.04043 2.89241 0.935342 3.67403C0.83219 4.44126 0.833252 5.42376 0.833252 6.66671H1.83325ZM6.68645 0.833374C5.43684 0.833374 4.44953 0.832321 3.67917 0.935424C2.8948 1.0404 2.26005 1.26157 1.76075 1.76087L2.46785 2.46798C2.7496 2.18623 3.13723 2.01687 3.81182 1.92659C4.50042 1.83443 5.40866 1.83337 6.68645 1.83337V0.833374Z"
            fill="currentColor" />
        <path
            d="M8.66675 1.66663V3.33329C8.66675 4.90464 8.66675 5.69032 9.1549 6.17847C9.64306 6.66663 10.4287 6.66663 12.0001 6.66663H14.6667"
            stroke="currentColor" />
        <path d="M5.55545 8L4.44434 12" stroke="currentColor" stroke-width="0.8" stroke-linecap="round"
            stroke-linejoin="round" />
        <path d="M7.55545 8L6.44434 12" stroke="currentColor" stroke-width="0.8" stroke-linecap="round"
            stroke-linejoin="round" />
        <path d="M8.22217 9.33337H4.22217" stroke="currentColor" stroke-width="0.8" stroke-linecap="round"
            stroke-linejoin="round" />
        <path d="M7.77759 10.8887H3.77759" stroke="currentColor" stroke-width="0.8" stroke-linecap="round"
            stroke-linejoin="round" />
    </g>
    <defs>
        <clipPath id="clip0_23_3505">
            <rect width="16" height="16" fill="white" />
        </clipPath>
    </defs>
</svg>