<svg width="16" height="16" viewBox="0 0 16 16" fill="none" xmlns="http://www.w3.org/2000/svg">
    <g clip-path="url(#clip0_23_3515)">
        <path d="M14.6666 14.6666L1.33325 14.6666" stroke="currentColor" stroke-linecap="round" />
        <path
            d="M11.3334 14.6667V4.00004C11.3334 2.74296 11.3334 2.11442 10.9429 1.7239C10.5524 1.33337 9.92383 1.33337 8.66675 1.33337H7.33341C6.07634 1.33337 5.4478 1.33337 5.05727 1.7239C4.66675 2.11442 4.66675 2.74296 4.66675 4.00004V14.6667"
            stroke="currentColor" />
        <path
            d="M14.0001 14.6667V5.66671C14.0001 4.7304 14.0001 4.26225 13.7754 3.92595C13.6781 3.78036 13.5531 3.65536 13.4075 3.55808C13.0712 3.33337 12.6031 3.33337 11.6667 3.33337"
            stroke="currentColor" />
        <path
            d="M2 14.6667V5.66671C2 4.7304 2 4.26225 2.22471 3.92595C2.32199 3.78036 2.44699 3.65536 2.59257 3.55808C2.92887 3.33337 3.39703 3.33337 4.33333 3.33337"
            stroke="currentColor" />
        <path d="M8 14.6666V12.6666" stroke="currentColor" stroke-linecap="round" />
        <path d="M6.66675 8H9.33341" stroke="currentColor" stroke-linecap="round" />
        <path d="M3.66675 7.33337H4.66675" stroke="currentColor" stroke-linecap="round" />
        <path d="M3.66675 9.33337H4.66675" stroke="currentColor" stroke-linecap="round" />
        <path d="M11.3333 7.33337H12.3333" stroke="currentColor" stroke-linecap="round" />
        <path d="M11.3333 9.33337H12.3333" stroke="currentColor" stroke-linecap="round" />
        <path d="M3.66675 5.33337H4.66675" stroke="currentColor" stroke-linecap="round" />
        <path d="M11.3333 5.33337H12.3333" stroke="currentColor" stroke-linecap="round" />
        <path d="M6.66675 10H9.33341" stroke="currentColor" stroke-linecap="round" />
        <circle cx="8.00008" cy="4.66671" r="1.33333" stroke="currentColor" />
    </g>
    <defs>
        <clipPath id="clip0_23_3515">
            <rect width="16" height="16" rx="2" fill="white" />
        </clipPath>
    </defs>
</svg>