<svg width="16" height="16" viewBox="0 0 16 16" fill="none" xmlns="http://www.w3.org/2000/svg">
<path d="M12.9947 9.00189C12.5529 9.00312 12.1241 9.1509 11.7753 9.42207C11.4266 9.69324 11.1777 10.0725 11.0677 10.5003H8.99893C8.60165 10.4999 8.22076 10.3419 7.93984 10.061C7.65892 9.78006 7.50093 9.39917 7.50053 9.00189V7.00403C7.49859 6.46189 7.31853 5.93542 6.98808 5.50563H11.0677C11.1893 5.97646 11.4784 6.38678 11.8809 6.6597C12.2833 6.93261 12.7715 7.04938 13.2539 6.98811C13.7363 6.92683 14.1798 6.69173 14.5012 6.32687C14.8227 5.96201 15 5.49243 15 5.00617C15 4.5199 14.8227 4.05033 14.5012 3.68546C14.1798 3.3206 13.7363 3.0855 13.2539 3.02423C12.7715 2.96296 12.2833 3.07972 11.8809 3.35264C11.4784 3.62555 11.1893 4.03588 11.0677 4.5067H4.93228C4.81072 4.03588 4.52161 3.62555 4.11915 3.35264C3.71669 3.07972 3.22851 2.96296 2.74612 3.02423C2.26373 3.0855 1.82025 3.3206 1.4988 3.68546C1.17735 4.05033 1 4.5199 1 5.00617C1 5.49243 1.17735 5.96201 1.4988 6.32687C1.82025 6.69173 2.26373 6.92683 2.74612 6.98811C3.22851 7.04938 3.71669 6.93261 4.11915 6.6597C4.52161 6.38678 4.81072 5.97646 4.93228 5.50563H5.00321C5.40048 5.50603 5.78138 5.66402 6.0623 5.94494C6.34321 6.22586 6.50121 6.60675 6.5016 7.00403V9.00189C6.5024 9.66398 6.76576 10.2987 7.23393 10.7669C7.7021 11.2351 8.33684 11.4984 8.99893 11.4992H11.0677C11.1617 11.8603 11.355 12.1878 11.6258 12.4445C11.8966 12.7011 12.2339 12.8768 12.5994 12.9513C12.965 13.0259 13.3442 12.9965 13.6938 12.8664C14.0435 12.7363 14.3497 12.5108 14.5776 12.2154C14.8056 11.92 14.9461 11.5666 14.9832 11.1954C15.0204 10.8241 14.9527 10.4499 14.7878 10.1152C14.6229 9.78054 14.3675 9.49879 14.0505 9.30199C13.7336 9.10518 13.3678 9.00122 12.9947 9.00189ZM12.9947 4.00724C13.1922 4.00724 13.3854 4.06582 13.5496 4.17559C13.7139 4.28535 13.8419 4.44136 13.9175 4.62389C13.9932 4.80642 14.0129 5.00728 13.9744 5.20105C13.9358 5.39482 13.8407 5.57281 13.701 5.71252C13.5613 5.85222 13.3833 5.94736 13.1895 5.9859C12.9958 6.02445 12.7949 6.00467 12.6124 5.92906C12.4298 5.85345 12.2738 5.72542 12.1641 5.56114C12.0543 5.39687 11.9957 5.20374 11.9957 5.00617C11.996 4.74132 12.1013 4.48739 12.2886 4.30011C12.4759 4.11283 12.7298 4.0075 12.9947 4.00724ZM3.00535 6.0051C2.80778 6.0051 2.61464 5.94651 2.45037 5.83675C2.2861 5.72698 2.15806 5.57097 2.08245 5.38844C2.00685 5.20591 1.98706 5.00506 2.02561 4.81129C2.06415 4.61751 2.15929 4.43952 2.29899 4.29982C2.4387 4.16011 2.61669 4.06497 2.81046 4.02643C3.00424 3.98789 3.20509 4.00767 3.38762 4.08328C3.57015 4.15888 3.72616 4.28692 3.83593 4.45119C3.94569 4.61546 4.00428 4.8086 4.00428 5.00617C4.00401 5.27102 3.89868 5.52495 3.7114 5.71223C3.52413 5.8995 3.2702 6.00483 3.00535 6.0051ZM12.9947 11.9987C12.7971 11.9987 12.604 11.9401 12.4397 11.8303C12.2754 11.7206 12.1474 11.5646 12.0718 11.382C11.9962 11.1995 11.9764 10.9986 12.0149 10.8049C12.0535 10.6111 12.1486 10.4331 12.2883 10.2934C12.428 10.1537 12.606 10.0586 12.7998 10.02C12.9935 9.98147 13.1944 10.0013 13.3769 10.0769C13.5595 10.1525 13.7155 10.2805 13.8252 10.4448C13.935 10.609 13.9936 10.8022 13.9936 10.9998C13.9932 11.2646 13.8878 11.5184 13.7006 11.7057C13.5133 11.8929 13.2595 11.9983 12.9947 11.9987Z" fill="#333333"/>
</svg>
