<svg width="16" height="16" viewBox="0 0 16 16" fill="none" xmlns="http://www.w3.org/2000/svg">
    <g clip-path="url(#clip0_23_2228)">
        <path
            d="M14.6666 7.83337C14.9428 7.83337 15.1666 7.60952 15.1666 7.33337C15.1666 7.05723 14.9428 6.83337 14.6666 6.83337V7.83337ZM1.33331 6.83337C1.05717 6.83337 0.833313 7.05723 0.833313 7.33337C0.833313 7.60952 1.05717 7.83337 1.33331 7.83337V6.83337ZM7.33331 2.66671L7.68687 2.31315V2.31315L7.33331 2.66671ZM8.47472 3.66366L8.71782 3.22673L8.47472 3.66366ZM9.04021 3.89789L9.17728 3.41704L9.04021 3.89789ZM5.14369 1.34496L5.09714 1.84279L5.14369 1.34496ZM6.96648 2.29987L6.61293 2.65343V2.65343L6.96648 2.29987ZM6.59727 1.94705L6.91637 1.56212V1.56212L6.59727 1.94705ZM14.1537 4.66259L14.5254 4.32823L14.1537 4.66259ZM14.0041 4.51302L14.3385 4.14126L14.0041 4.51302ZM1.37955 3.50563L1.87088 3.59833L1.37955 3.50563ZM3.50557 1.37961L3.59827 1.87094L3.50557 1.37961ZM14.6666 6.83337H1.33331V7.83337H14.6666V6.83337ZM14.1666 7.86531V9.33337H15.1666V7.86531H14.1666ZM9.33331 14.1667H6.66665V15.1667H9.33331V14.1667ZM1.83331 9.33337V4.63321H0.833313V9.33337H1.83331ZM6.61293 2.65343L6.97976 3.02026L7.68687 2.31315L7.32003 1.94632L6.61293 2.65343ZM10.5523 4.50004H10.8014V3.50004H10.5523V4.50004ZM6.97976 3.02026C7.50366 3.54416 7.83074 3.87754 8.23163 4.10059L8.71782 3.22673C8.46744 3.08743 8.25068 2.87696 7.68687 2.31315L6.97976 3.02026ZM10.5523 3.50004C9.75492 3.50004 9.45282 3.49559 9.17728 3.41704L8.90315 4.37874C9.34434 4.5045 9.81136 4.50004 10.5523 4.50004V3.50004ZM8.23163 4.10059C8.44405 4.21877 8.66938 4.3121 8.90315 4.37874L9.17728 3.41704C9.01733 3.37145 8.86316 3.30759 8.71782 3.22673L8.23163 4.10059ZM4.63314 1.83337C4.90022 1.83337 5.0019 1.83388 5.09714 1.84279L5.19025 0.847129C5.03775 0.832869 4.88164 0.833374 4.63314 0.833374V1.83337ZM7.32003 1.94632C7.14432 1.77061 7.03429 1.65987 6.91637 1.56212L6.27818 2.33199C6.35182 2.39304 6.42407 2.46457 6.61293 2.65343L7.32003 1.94632ZM5.09714 1.84279C5.53106 1.88336 5.94266 2.05385 6.27818 2.33199L6.91637 1.56212C6.426 1.15561 5.82444 0.906434 5.19025 0.847129L5.09714 1.84279ZM6.66665 14.1667C5.39543 14.1667 4.49232 14.1656 3.80721 14.0735C3.13649 13.9834 2.75005 13.8142 2.46792 13.5321L1.76081 14.2392C2.25972 14.7381 2.89235 14.9595 3.67396 15.0646C4.4412 15.1678 5.4237 15.1667 6.66665 15.1667V14.1667ZM0.833313 9.33337C0.833313 10.5763 0.832251 11.5588 0.935403 12.3261C1.04049 13.1077 1.2619 13.7403 1.76081 14.2392L2.46792 13.5321C2.18578 13.25 2.01666 12.8635 1.92649 12.1928C1.83437 11.5077 1.83331 10.6046 1.83331 9.33337H0.833313ZM14.1666 9.33337C14.1666 10.6046 14.1656 11.5077 14.0735 12.1928C13.9833 12.8635 13.8142 13.25 13.532 13.5321L14.2392 14.2392C14.7381 13.7403 14.9595 13.1077 15.0646 12.3261C15.1677 11.5588 15.1666 10.5763 15.1666 9.33337H14.1666ZM9.33331 15.1667C10.5763 15.1667 11.5588 15.1678 12.326 15.0646C13.1076 14.9595 13.7402 14.7381 14.2392 14.2392L13.532 13.5321C13.2499 13.8142 12.8635 13.9834 12.1927 14.0735C11.5076 14.1656 10.6045 14.1667 9.33331 14.1667V15.1667ZM15.1666 7.86531C15.1666 7.00097 15.1676 6.30583 15.0986 5.75737C15.0281 5.19642 14.8776 4.7198 14.5254 4.32823L13.7819 4.99696C13.9427 5.17574 14.0487 5.42302 14.1064 5.88211C14.1657 6.3537 14.1666 6.97474 14.1666 7.86531H15.1666ZM10.8014 4.50004C11.6919 4.50004 12.313 4.50097 12.7846 4.56026C13.2437 4.61798 13.4909 4.72397 13.6697 4.88477L14.3385 4.14126C13.9469 3.78908 13.4703 3.63859 12.9093 3.56807C12.3609 3.49911 11.6657 3.50004 10.8014 3.50004V4.50004ZM14.5254 4.32823C14.4664 4.26265 14.404 4.20024 14.3385 4.14126L13.6697 4.88477C13.7091 4.92016 13.7465 4.95761 13.7819 4.99696L14.5254 4.32823ZM1.83331 4.63321C1.83331 4.02211 1.8355 3.78585 1.87088 3.59833L0.888215 3.41293C0.831128 3.7155 0.833313 4.06759 0.833313 4.63321H1.83331ZM4.63314 0.833374C4.06753 0.833374 3.71544 0.831189 3.41287 0.888276L3.59827 1.87094C3.78579 1.83556 4.02205 1.83337 4.63314 1.83337V0.833374ZM1.87088 3.59833C2.03624 2.72187 2.72181 2.0363 3.59827 1.87094L3.41287 0.888276C2.13189 1.12996 1.1299 2.13195 0.888215 3.41293L1.87088 3.59833Z"
            fill="currentColor" />
    </g>
    <defs>
        <clipPath id="clip0_23_2228">
            <rect width="16" height="16" fill="white" />
        </clipPath>
    </defs>
</svg>