<svg width="16" height="16" viewBox="0 0 16 16" fill="none" xmlns="http://www.w3.org/2000/svg">
    <path fill-rule="evenodd" clip-rule="evenodd"
        d="M9.19429 7.57659C8.61874 7.96117 7.94207 8.16643 7.24985 8.16643C6.32191 8.1655 5.43223 7.79647 4.77607 7.14031C4.11991 6.48415 3.75088 5.59448 3.74995 4.66653C3.74995 3.97431 3.95522 3.29764 4.33979 2.72209C4.72436 2.14653 5.27097 1.69794 5.9105 1.43304C6.55002 1.16814 7.25374 1.09883 7.93265 1.23388C8.61156 1.36892 9.23519 1.70226 9.72466 2.19173C10.2141 2.6812 10.5475 3.30482 10.6825 3.98373C10.8176 4.66265 10.7482 5.36636 10.4833 6.00588C10.2184 6.64541 9.76985 7.19202 9.19429 7.57659ZM8.54615 2.72649C8.16244 2.47011 7.71133 2.33326 7.24985 2.33326C6.63103 2.33326 6.03756 2.57909 5.59998 3.01666C5.16241 3.45423 4.91658 4.04771 4.91658 4.66653C4.91658 5.12801 5.05343 5.57912 5.30981 5.96282C5.56619 6.34653 5.9306 6.64559 6.35695 6.82219C6.7833 6.99879 7.25244 7.04499 7.70505 6.95497C8.15766 6.86494 8.57341 6.64271 8.89972 6.3164C9.22604 5.99009 9.44826 5.57434 9.53829 5.12173C9.62832 4.66912 9.58211 4.19998 9.40551 3.77363C9.22891 3.34728 8.92985 2.98287 8.54615 2.72649ZM3.53935 10.8728C4.52356 9.8886 5.85798 9.335 7.24985 9.33346C7.31368 9.33353 7.37738 9.33476 7.44093 9.33714C7.17483 9.51683 6.99985 9.82123 6.99985 10.1665V10.5077C6.00813 10.5685 5.0692 10.9894 4.36258 11.696C3.59683 12.4618 3.16663 13.5004 3.16663 14.5833C3.16663 14.738 3.10518 14.8864 2.99578 14.9958C2.88639 15.1052 2.73802 15.1666 2.58332 15.1666C2.42861 15.1666 2.28024 15.1052 2.17085 14.9958C2.06146 14.8864 2 14.738 2 14.5833C2.00154 13.1914 2.55515 11.857 3.53935 10.8728ZM11.9035 15.1665C11.9078 15.1666 11.9121 15.1666 11.9164 15.1666C11.9207 15.1666 11.925 15.1666 11.9292 15.1665H11.9035Z"
        fill="currentColor" />
    <path
        d="M13.6175 10.9779L14.0137 10.673L13.6175 10.9779ZM13.6175 12.9554L13.2213 12.6504L13.6175 12.9554ZM14 11.9667H13.5H14ZM8.38247 10.9779L8.77868 11.2829L8.38247 10.9779ZM8.38247 12.9554L7.98625 13.2603L8.38247 12.9554ZM8.77868 11.2829C9.2427 10.6801 9.96693 10.0667 11 10.0667V9.06665C9.52394 9.06665 8.54047 9.95294 7.98625 10.673L8.77868 11.2829ZM11 10.0667C12.0331 10.0667 12.7573 10.6801 13.2213 11.2829L14.0137 10.673C13.4595 9.95294 12.4761 9.06665 11 9.06665V10.0667ZM13.2213 12.6504C12.7573 13.2532 12.0331 13.8667 11 13.8667V14.8667C12.4761 14.8667 13.4595 13.9804 14.0137 13.2603L13.2213 12.6504ZM11 13.8667C9.96693 13.8667 9.2427 13.2532 8.77868 12.6504L7.98625 13.2603C8.54047 13.9804 9.52394 14.8667 11 14.8667V13.8667ZM13.2213 11.2829C13.3579 11.4604 13.4123 11.5355 13.447 11.6141C13.4744 11.6761 13.5 11.7665 13.5 11.9667H14.5C14.5 11.675 14.4619 11.4367 14.3617 11.21C14.269 11.0001 14.1322 10.8268 14.0137 10.673L13.2213 11.2829ZM14.0137 13.2603C14.1322 13.1065 14.269 12.9332 14.3617 12.7233C14.4619 12.4966 14.5 12.2583 14.5 11.9667H13.5C13.5 12.1668 13.4744 12.2572 13.447 12.3192C13.4123 12.3978 13.3579 12.4729 13.2213 12.6504L14.0137 13.2603ZM7.98625 10.673C7.86784 10.8268 7.73101 11.0001 7.63826 11.21C7.53814 11.4367 7.5 11.675 7.5 11.9667H8.5C8.5 11.7665 8.5256 11.6761 8.55297 11.6141C8.58771 11.5355 8.64212 11.4604 8.77868 11.2829L7.98625 10.673ZM8.77868 12.6504C8.64212 12.4729 8.58771 12.3978 8.55297 12.3192C8.5256 12.2572 8.5 12.1668 8.5 11.9667H7.5C7.5 12.2583 7.53814 12.4966 7.63826 12.7233C7.73101 12.9332 7.86784 13.1065 7.98625 13.2603L8.77868 12.6504ZM11.4 11.9667C11.4 12.1876 11.2209 12.3667 11 12.3667V13.3667C11.7732 13.3667 12.4 12.7398 12.4 11.9667H11.4ZM11 12.3667C10.7791 12.3667 10.6 12.1876 10.6 11.9667H9.6C9.6 12.7398 10.2268 13.3667 11 13.3667V12.3667ZM10.6 11.9667C10.6 11.7457 10.7791 11.5667 11 11.5667V10.5667C10.2268 10.5667 9.6 11.1935 9.6 11.9667H10.6ZM11 11.5667C11.2209 11.5667 11.4 11.7457 11.4 11.9667H12.4C12.4 11.1935 11.7732 10.5667 11 10.5667V11.5667Z"
        fill="currentColor" />
</svg>