<svg width="16" height="16" viewBox="0 0 16 16" fill="none" xmlns="http://www.w3.org/2000/svg">
<path fill-rule="evenodd" clip-rule="evenodd" d="M4.2985 1.16663C3.69984 1.16663 3.19984 1.16663 2.80384 1.21996C2.38517 1.27596 2.00717 1.39996 1.70384 1.70329C1.39984 2.00729 1.27584 2.38529 1.21984 2.80329C1.1665 3.19996 1.1665 3.69996 1.1665 4.29863V4.36796C1.1665 4.96663 1.1665 5.46663 1.21984 5.86263C1.27584 6.28129 1.39984 6.65929 1.70317 6.96263C2.00717 7.26663 2.38517 7.39063 2.80317 7.44663C3.19984 7.49996 3.69984 7.49996 4.2985 7.49996H4.36784C4.9665 7.49996 5.4665 7.49996 5.8625 7.44663C6.28117 7.39063 6.65917 7.26663 6.9625 6.96263C7.2665 6.65929 7.3905 6.28129 7.4465 5.86263C7.49984 5.46663 7.49984 4.96663 7.49984 4.36796V4.29863C7.49984 3.69996 7.49984 3.19996 7.4465 2.80396C7.3905 2.38529 7.2665 2.00729 6.9625 1.70396C6.65917 1.39996 6.28117 1.27596 5.8625 1.21996C5.4665 1.16663 4.9665 1.16663 4.36784 1.16663H4.2985ZM2.4105 2.41063C2.49717 2.32396 2.62917 2.25263 2.93717 2.21063C3.2585 2.16796 3.6905 2.16663 4.33317 2.16663C4.97584 2.16663 5.40784 2.16796 5.72984 2.21129C6.03717 2.25263 6.16917 2.32396 6.25584 2.41129C6.3425 2.49863 6.41384 2.62929 6.45584 2.93663C6.4985 3.25863 6.49984 3.69063 6.49984 4.33329C6.49984 4.97596 6.4985 5.40796 6.45517 5.72996C6.41384 6.03729 6.3425 6.16929 6.25517 6.25596C6.16784 6.34263 6.03717 6.41396 5.72984 6.45596C5.40784 6.49863 4.97584 6.49996 4.33317 6.49996C3.6905 6.49996 3.2585 6.49863 2.9365 6.45529C2.62917 6.41396 2.49717 6.34263 2.4105 6.25529C2.32384 6.16796 2.2525 6.03729 2.2105 5.72996C2.1685 5.40796 2.1665 4.97596 2.1665 4.33329C2.1665 3.69063 2.16784 3.25863 2.21117 2.93663C2.2525 2.62929 2.32384 2.49729 2.41117 2.41063" fill="#333333"/>
<path d="M12.1665 2.33337C12.1665 2.20077 12.1138 2.07359 12.0201 1.97982C11.9263 1.88605 11.7991 1.83337 11.6665 1.83337C11.5339 1.83337 11.4067 1.88605 11.313 1.97982C11.2192 2.07359 11.1665 2.20077 11.1665 2.33337V3.83337H9.6665C9.5339 3.83337 9.40672 3.88605 9.31295 3.97982C9.21918 4.07359 9.1665 4.20077 9.1665 4.33337C9.1665 4.46598 9.21918 4.59316 9.31295 4.68693C9.40672 4.7807 9.5339 4.83337 9.6665 4.83337H11.1665V6.33337C11.1665 6.46598 11.2192 6.59316 11.313 6.68693C11.4067 6.7807 11.5339 6.83337 11.6665 6.83337C11.7991 6.83337 11.9263 6.7807 12.0201 6.68693C12.1138 6.59316 12.1665 6.46598 12.1665 6.33337V4.83337H13.6665C13.7991 4.83337 13.9263 4.7807 14.0201 4.68693C14.1138 4.59316 14.1665 4.46598 14.1665 4.33337C14.1665 4.20077 14.1138 4.07359 14.0201 3.97982C13.9263 3.88605 13.7991 3.83337 13.6665 3.83337H12.1665V2.33337Z" fill="#333333"/>
<path fill-rule="evenodd" clip-rule="evenodd" d="M11.6318 8.5H11.7012C12.3005 8.5 12.7998 8.5 13.1958 8.55333C13.6145 8.60933 13.9925 8.73333 14.2958 9.03733C14.5998 9.34067 14.7238 9.71867 14.7798 10.1373C14.8332 10.5333 14.8332 11.0327 14.8332 11.632V11.7013C14.8332 12.3007 14.8332 12.8 14.7798 13.196C14.7238 13.6147 14.5998 13.9927 14.2958 14.296C13.9925 14.6 13.6145 14.724 13.1958 14.78C12.7998 14.8333 12.3005 14.8333 11.7012 14.8333H11.6318C11.0332 14.8333 10.5332 14.8333 10.1372 14.78C9.7185 14.724 9.3405 14.6 9.03717 14.296C8.73317 13.9927 8.60917 13.6147 8.55317 13.196C8.49984 12.8 8.49984 12.3007 8.49984 11.7013V11.632C8.49984 11.0327 8.49984 10.5333 8.55317 10.1373C8.60917 9.71867 8.73317 9.34067 9.03717 9.03733C9.3405 8.73333 9.7185 8.60933 10.1372 8.55333C10.5332 8.5 11.0325 8.5 11.6318 8.5ZM10.2698 9.544C9.9625 9.586 9.8305 9.65733 9.74384 9.744C9.65717 9.83067 9.58584 9.96267 9.54384 10.2707C9.50117 10.592 9.49984 11.024 9.49984 11.6667C9.49984 12.3093 9.50117 12.7413 9.54384 13.0633C9.58584 13.3707 9.65717 13.5027 9.74384 13.5893C9.8305 13.676 9.9625 13.7473 10.2705 13.7893C10.5918 13.832 11.0238 13.8333 11.6665 13.8333C12.3092 13.8333 12.7412 13.832 13.0632 13.7887C13.3705 13.7473 13.5025 13.676 13.5892 13.5887C13.6758 13.5013 13.7472 13.3707 13.7892 13.0633C13.8318 12.7413 13.8332 12.3093 13.8332 11.6667C13.8332 11.024 13.8318 10.592 13.7885 10.27C13.7472 9.96267 13.6758 9.83067 13.5885 9.744C13.5012 9.65733 13.3705 9.586 13.0632 9.544C12.7412 9.50133 12.3092 9.5 11.6665 9.5C11.0238 9.5 10.5918 9.50133 10.2698 9.544ZM4.2985 8.5C3.69984 8.5 3.19984 8.5 2.80384 8.55333C2.38517 8.60933 2.00717 8.73333 1.70384 9.03733C1.39984 9.34067 1.27584 9.71867 1.21984 10.1373C1.1665 10.5333 1.1665 11.0327 1.1665 11.632V11.7013C1.1665 12.3007 1.1665 12.8 1.21984 13.196C1.27584 13.6147 1.39984 13.9927 1.70317 14.296C2.00717 14.6 2.38517 14.724 2.80317 14.78C3.19984 14.8333 3.69984 14.8333 4.2985 14.8333H4.36784C4.9665 14.8333 5.4665 14.8333 5.8625 14.78C6.28117 14.724 6.65917 14.6 6.9625 14.296C7.2665 13.9927 7.3905 13.6147 7.4465 13.196C7.49984 12.8 7.49984 12.3007 7.49984 11.7013V11.632C7.49984 11.0327 7.49984 10.5333 7.4465 10.1373C7.3905 9.71867 7.2665 9.34067 6.9625 9.03733C6.65917 8.73333 6.28117 8.60933 5.8625 8.55333C5.4665 8.5 4.9665 8.5 4.36784 8.5H4.2985ZM2.4105 9.744C2.49717 9.65733 2.62917 9.586 2.93717 9.544C3.2585 9.50133 3.6905 9.5 4.33317 9.5C4.97584 9.5 5.40784 9.50133 5.72984 9.544C6.03717 9.586 6.16917 9.65733 6.25584 9.744C6.3425 9.83067 6.41384 9.96267 6.45584 10.2707C6.4985 10.592 6.49984 11.024 6.49984 11.6667C6.49984 12.3093 6.4985 12.7413 6.45517 13.0633C6.41384 13.3707 6.3425 13.5027 6.25517 13.5893C6.16784 13.676 6.03717 13.7473 5.72984 13.7893C5.40784 13.832 4.97584 13.8333 4.33317 13.8333C3.6905 13.8333 3.2585 13.832 2.9365 13.7887C2.62917 13.7473 2.49717 13.676 2.4105 13.5887C2.32384 13.5013 2.2525 13.3707 2.2105 13.0633C2.16784 12.7413 2.1665 12.3093 2.1665 11.6667C2.1665 11.024 2.16784 10.592 2.21117 10.27C2.2525 9.96267 2.32384 9.83067 2.41117 9.744" fill="#333333"/>
</svg>
