<svg width="17" height="17" viewBox="0 0 17 17" fill="none" xmlns="http://www.w3.org/2000/svg">
    <path
        d="M15.235 5.195C13.9625 2.605 11.385 1 8.5 1C7.94 1 7.3975 1.0625 6.8725 1.18H6.865C6.84 1.1825 6.8175 1.1875 6.7975 1.1975C4.05 1.835 1.875 3.9925 1.2125 6.7325C1.205 6.75 1.2 6.7675 1.2 6.785C1.07 7.335 1 7.91 1 8.5C1 12.635 4.365 16 8.5 16C10.3025 16 12.045 15.35 13.4075 14.1725C13.5775 14.025 13.7275 13.88 13.8675 13.735C15.2425 12.3275 16 10.47 16 8.5C16 7.3575 15.75 6.26 15.255 5.2375C15.2499 5.22266 15.2432 5.20842 15.235 5.195ZM8.5 15.5C4.64 15.5 1.5 12.36 1.5 8.5C1.5 7.9725 1.56 7.4575 1.6725 6.9625C1.8725 6.835 2.05 6.7725 2.2325 6.7625C2.43 6.755 2.6 6.825 2.6975 6.9525C2.82 7.1175 2.785 7.3025 2.7225 7.595C2.7025 7.685 2.6825 7.7775 2.6675 7.8675C2.595 8.39 2.755 8.9375 3.0975 9.3375C3.2025 9.4575 3.325 9.5675 3.4625 9.66C3.79 9.8825 3.98 10.2475 3.965 10.635C3.955 10.8825 3.985 11.1425 4.0525 11.4025C4.1825 11.925 4.44 12.39 4.7125 12.86C4.78034 12.9782 4.88301 13.0726 5.0065 13.1304C5.12999 13.1881 5.26828 13.2063 5.4025 13.1825C5.6775 13.1375 5.89 12.93 5.945 12.655C6.085 11.9575 6.2475 11.465 6.425 11.1875C6.59389 10.9254 6.80411 10.6924 7.0475 10.4975C7.2625 10.32 7.505 10.17 7.77 10.0475C7.81 10.03 7.8525 10.0125 7.8925 9.9925C8.055 9.9225 8.2375 9.8425 8.3925 9.7125C8.6125 9.5325 8.79 9.205 8.6925 8.88C8.605 8.585 8.3375 8.3875 7.9025 8.29L7.8425 8.2775C7.6375 8.2325 7.445 8.1875 7.3575 8.0725C7.2775 7.965 7.28 7.7925 7.2825 7.595C7.2875 7.2625 7.2975 6.7575 6.7275 6.5175C6.5175 6.43 6.275 6.425 6.0225 6.5075C5.8725 6.555 5.7075 6.5525 5.53 6.5525C5.385 6.55 5.235 6.55 5.0775 6.5725C4.5675 6.6525 4.3325 6.3275 4.225 6.045C4.125 5.7775 4.2 5.46 4.415 5.235C5.055 4.57 5.3375 4.65 5.73 4.76C5.9725 4.83 6.275 4.915 6.665 4.8275C7 4.7575 7.3025 4.595 7.5675 4.4525L8.645 3.88C8.6625 3.87 8.68 3.86 8.695 3.845C8.82 3.7325 8.8875 3.5725 8.8925 3.3925C8.895 3.1825 8.805 2.9675 8.655 2.82C8.4125 2.5875 8.085 2.5225 7.8275 2.495C7.7375 2.4825 7.6375 2.41 7.53 2.335C7.45 2.2775 7.37 2.22 7.2775 2.1725C7.25 2.125 7.2075 1.995 7.1625 1.63C7.595 1.545 8.0425 1.5 8.5 1.5C11.055 1.5 13.355 2.85 14.595 5.055C14.33 5.0275 14.095 4.98 13.88 4.91C13.645 4.835 13.42 4.7325 13.18 4.6225C12.905 4.4975 12.62 4.3675 12.3125 4.2825C11.385 4.03 10.825 3.9325 10.52 4.135C10.3875 4.2225 10.2325 4.3225 10.0675 4.425C9.3175 4.895 8.9525 5.145 8.8475 5.3775C8.755 5.5825 8.5575 6.42 8.68 6.75C8.7625 6.965 8.9275 7.11 9.0625 7.2275L9.615 7.715C9.82 7.8975 10.075 8.12 10.3975 8.2275C10.67 8.32 10.945 8.31 11.2075 8.3025C11.3025 8.3 11.4 8.2975 11.4925 8.3C11.6175 8.3025 12.03 8.335 12.155 8.59C12.245 8.775 12.16 9.015 12.0625 9.2925C11.95 9.615 11.8225 9.98 11.9675 10.3425C12.0525 10.555 12.2075 10.705 12.345 10.8375C12.4225 10.91 12.4975 10.98 12.5475 11.0525C12.635 11.2 12.805 12.145 12.9825 13.875C11.7275 14.925 10.14 15.5 8.5 15.5Z"
        fill="currentColor" />
</svg>