<svg width="16" height="16" viewBox="0 0 16 16" fill="none" xmlns="http://www.w3.org/2000/svg">
  <path
    d="M9.71428 7.14398H8.85713V8.85826H9.71428V7.14398ZM14 8.00112L14.8571 8.00128L14.8573 7.14398H14V8.00112ZM11.637 4.36394L12.243 4.97011L13.4554 3.75808L12.8494 3.15191L11.637 4.36394ZM9.71428 8.00112V8.85826H14V8.00112V7.14398H9.71428V8.00112ZM14 8.00112L13.1428 8.00096C13.1426 9.19077 12.7299 10.3437 11.9749 11.2633L12.6374 11.8072L13.2998 12.3511C14.3065 11.1249 14.8568 9.5877 14.8571 8.00128L14 8.00112ZM12.6374 11.8072L11.9749 11.2633C11.2199 12.1829 10.1694 12.8123 9.00244 13.0442L9.16952 13.8849L9.33659 14.7256C10.8926 14.4164 12.2932 13.5772 13.2998 12.3511L12.6374 11.8072ZM9.16952 13.8849L9.00244 13.0442C7.83545 13.2761 6.62415 13.0962 5.57492 12.5352L5.17074 13.2911L4.76656 14.0469C6.16553 14.795 7.7806 15.0348 9.33659 14.7256L9.16952 13.8849ZM5.17074 13.2911L5.57492 12.5352C4.52569 11.9741 3.70345 11.0666 3.24831 9.96733L2.45636 10.2952L1.66441 10.6231C2.27127 12.0889 3.36759 13.2989 4.76656 14.0469L5.17074 13.2911ZM2.45636 10.2952L3.24831 9.96733C2.79316 8.86801 2.73326 7.64489 3.07882 6.50636L2.25862 6.25742L1.43843 6.00848C0.977684 7.52652 1.05755 9.15735 1.66441 10.6231L2.45636 10.2952ZM2.25862 6.25742L3.07882 6.50636C3.42438 5.36783 4.15401 4.38434 5.1434 3.72346L4.6673 3.01071L4.1912 2.29795C2.87202 3.17912 1.89917 4.49044 1.43843 6.00848L2.25862 6.25742ZM4.6673 3.01071L5.1434 3.72346C6.13279 3.06258 7.32072 2.7652 8.50479 2.88199L8.58892 2.02898L8.67306 1.17598C7.0943 1.02026 5.51039 1.41677 4.1912 2.29795L4.6673 3.01071ZM8.58892 2.02898L8.50479 2.88199C9.68886 2.99877 10.7958 3.5225 11.637 4.36394L12.2432 3.75792L12.8494 3.15191C11.7277 2.03 10.2518 1.33169 8.67306 1.17598L8.58892 2.02898Z"
    fill="currentColor" />
</svg>