<svg width="16" height="16" viewBox="0 0 16 16" fill="none" xmlns="http://www.w3.org/2000/svg">
  <g clip-path="url(#clip0_2107_67100)">
    <path
      d="M12.2001 3.44999C11.6431 3.44999 11.109 3.22874 10.7151 2.83491C10.3213 2.44108 10.1001 1.90693 10.1001 1.34998M12.2001 4.85C11.6431 4.85 11.109 5.07125 10.7151 5.46508C10.3213 5.85891 10.1001 6.39306 10.1001 6.95002M3.80002 3.44999C4.35698 3.44999 4.89113 3.22874 5.28496 2.83491C5.67878 2.44108 5.90004 1.90693 5.90004 1.34998M3.80002 4.85C4.35698 4.85 4.89113 5.07125 5.28496 5.46508C5.67878 5.85891 5.90004 6.39306 5.90004 6.95002M3.10002 13.5217H4.68203C5.38903 13.5217 6.10514 13.5959 6.79324 13.7373C8.02184 13.9889 9.28574 14.0169 10.5243 13.8199C11.1319 13.7219 11.7283 13.5714 12.2687 13.311C12.7559 13.0751 13.353 12.744 13.7541 12.3723C14.1545 12.0013 14.5717 11.3943 14.8671 10.9197C15.1219 10.5123 14.9987 10.0132 14.5969 9.71014C14.371 9.54621 14.099 9.45793 13.8199 9.45793C13.5408 9.45793 13.2688 9.54621 13.0429 9.71014L11.778 10.6656C11.288 11.0366 10.7525 11.3775 10.1148 11.479C10.0378 11.4912 9.95726 11.5021 9.87326 11.5119M9.87326 11.5119L9.79626 11.5203M9.87326 11.5119C9.98528 11.4816 10.088 11.4239 10.1722 11.3439C10.2778 11.2528 10.3641 11.1414 10.4259 11.0163C10.4877 10.8912 10.5238 10.755 10.5321 10.6157C10.5403 10.4764 10.5205 10.3369 10.4738 10.2054C10.4271 10.0739 10.3546 9.95308 10.2604 9.85014C10.1691 9.74887 10.0629 9.66222 9.94536 9.59324C7.98745 8.42493 4.94033 9.31463 3.10002 10.6201M9.87326 11.5119C9.84799 11.5176 9.82216 11.5204 9.79626 11.5203M9.79626 11.5203C9.3741 11.5627 8.9488 11.5636 8.52645 11.5231M11.7899 6.53981C12.2001 6.12961 12.2001 5.47021 12.2001 4.15C12.2001 2.82979 12.2001 2.17038 11.7899 1.76018C11.3797 1.34998 10.7203 1.34998 9.40006 1.34998H6.60004C5.27983 1.34998 4.62043 1.34998 4.21022 1.76018C3.80002 2.17038 3.80002 2.82979 3.80002 4.15C3.80002 5.47021 3.80002 6.12961 4.21022 6.53981C4.62043 6.95002 5.27983 6.95002 6.60004 6.95002H9.40006C10.7203 6.95002 11.3797 6.95002 11.7899 6.53981ZM8.70006 4.15C8.70006 4.33565 8.62631 4.5137 8.49503 4.64497C8.36375 4.77625 8.1857 4.85 8.00005 4.85C7.8144 4.85 7.63635 4.77625 7.50507 4.64497C7.3738 4.5137 7.30005 4.33565 7.30005 4.15C7.30005 3.96434 7.3738 3.78629 7.50507 3.65502C7.63635 3.52374 7.8144 3.44999 8.00005 3.44999C8.1857 3.44999 8.36375 3.52374 8.49503 3.65502C8.62631 3.78629 8.70006 3.96434 8.70006 4.15ZM2.05001 9.05003C2.62991 9.05003 3.10002 9.52014 3.10002 10.1V13.6001C3.10002 14.18 2.62991 14.6501 2.05001 14.6501C1.4701 14.6501 1 14.18 1 13.6001V10.1C1 9.52014 1.4701 9.05003 2.05001 9.05003Z"
      stroke="currentColor" stroke-linecap="round" />
  </g>
  <defs>
    <clipPath id="clip0_2107_67100">
      <rect width="16" height="16" fill="white" />
    </clipPath>
  </defs>
</svg>