<svg width="16" height="16" viewBox="0 0 16 16" fill="none" xmlns="http://www.w3.org/2000/svg">
    <path
        d="M1.57599 8.63871C1.32265 6.88071 1.19599 6.00137 1.55665 5.25004C1.91732 4.49871 2.68399 4.04137 4.21799 3.12804L5.14132 2.57804C6.53332 1.74804 7.23065 1.33337 7.99998 1.33337C8.76932 1.33337 9.46599 1.74804 10.8587 2.57804L11.782 3.12804C13.3153 4.04137 14.0827 4.49871 14.4433 5.25004C14.804 6.00137 14.6767 6.88071 14.4233 8.63871L14.238 9.93004C13.9133 12.1887 13.7507 13.3174 12.9673 13.992C12.184 14.6667 11.0353 14.6667 8.73732 14.6667H7.26265C4.96465 14.6667 3.81598 14.6667 3.03265 13.992C2.24932 13.3174 2.08665 12.1887 1.76198 9.93004L1.57599 8.63871Z"
        stroke="currentColor" />
    <path d="M10 12H6" stroke="currentColor" stroke-linecap="round" />
</svg>