<svg width="16" height="16" viewBox="0 0 16 16" fill="none" xmlns="http://www.w3.org/2000/svg">
    <g clip-path="url(#clip0_23_2716)">
        <path
            d="M6.29778 10.265C6.07594 10.1006 5.7628 10.1471 5.59836 10.369C5.43392 10.5908 5.48046 10.904 5.7023 11.0684C6.35057 11.5489 7.14339 11.8334 8.00004 11.8334C8.85669 11.8334 9.64951 11.5489 10.2978 11.0684C10.5196 10.904 10.5662 10.5908 10.4017 10.369C10.2373 10.1471 9.92414 10.1006 9.7023 10.265C9.21674 10.6249 8.63064 10.8334 8.00004 10.8334C7.36944 10.8334 6.78334 10.6249 6.29778 10.265Z"
            fill="currentColor" />
        <path fill-rule="evenodd" clip-rule="evenodd"
            d="M8.00004 0.833374C7.52796 0.833374 7.09906 0.968587 6.63374 1.19487C6.18394 1.4136 5.66432 1.7361 5.01528 2.13892L3.63756 2.99397C3.02343 3.37511 2.53167 3.68031 2.15264 3.97058C1.76014 4.27117 1.45867 4.5773 1.24091 4.97513C1.02361 5.37212 0.925752 5.79453 0.878834 6.29384C0.833365 6.77774 0.833369 7.36945 0.833374 8.11153V9.18661C0.833365 10.4559 0.833358 11.4578 0.935176 12.2411C1.03962 13.0447 1.25908 13.6934 1.75495 14.2063C2.2531 14.7216 2.88701 14.9518 3.67178 15.061C4.43237 15.1667 5.40375 15.1667 6.62794 15.1667H9.3721C10.5963 15.1667 11.5677 15.1667 12.3283 15.061C13.1131 14.9518 13.747 14.7216 14.2451 14.2063C14.741 13.6934 14.9605 13.0447 15.0649 12.2411C15.1667 11.4578 15.1667 10.4559 15.1667 9.18661V8.11151C15.1667 7.36947 15.1667 6.77772 15.1212 6.29384C15.0743 5.79453 14.9765 5.37212 14.7592 4.97513C14.5414 4.5773 14.2399 4.27117 13.8474 3.97058C13.4684 3.68031 12.9767 3.37512 12.3625 2.99398L10.9848 2.13892C10.3358 1.7361 9.81614 1.4136 9.36634 1.19487C8.90102 0.968587 8.47212 0.833374 8.00004 0.833374ZM5.51972 3.00279C6.1969 2.58251 6.67304 2.28773 7.07107 2.09417C7.45886 1.90559 7.73349 1.83337 8.00004 1.83337C8.26659 1.83337 8.54122 1.90559 8.92901 2.09417C9.32704 2.28773 9.80318 2.58251 10.4804 3.00278L11.8137 3.83029C12.4542 4.22784 12.904 4.50761 13.2394 4.76451C13.5658 5.01447 13.7536 5.22075 13.882 5.45528C14.0108 5.69064 14.086 5.96581 14.1256 6.3874C14.1662 6.8191 14.1667 7.36392 14.1667 8.13599V9.15001C14.1667 10.464 14.1657 11.4008 14.0732 12.1122C13.9824 12.8109 13.8114 13.2163 13.5262 13.5113C13.2433 13.8039 12.8581 13.9776 12.1906 14.0705C11.5068 14.1656 10.6051 14.1667 9.33337 14.1667H6.66671C5.39502 14.1667 4.49326 14.1656 3.80952 14.0705C3.14195 13.9776 2.7568 13.8039 2.4739 13.5113C2.18871 13.2163 2.01765 12.8109 1.92683 12.1122C1.83437 11.4008 1.83337 10.464 1.83337 9.15001V8.13599C1.83337 7.36392 1.83388 6.8191 1.87445 6.3874C1.91406 5.96581 1.98927 5.69064 2.1181 5.45528C2.24648 5.22075 2.43426 5.01447 2.76065 4.76451C3.09611 4.50761 3.54584 4.22784 4.18639 3.83029L5.51972 3.00279Z"
            fill="currentColor" />
    </g>
    <defs>
        <clipPath id="clip0_23_2716">
            <rect width="16" height="16" fill="white" />
        </clipPath>
    </defs>
</svg>