<svg width="20" height="20" viewBox="0 0 20 20" fill="none" xmlns="http://www.w3.org/2000/svg">
    <path
        d="M15.3514 11.0736C14.8781 11.0749 14.4186 11.2332 14.045 11.5238C13.6714 11.8143 13.4047 12.2206 13.2868 12.679H11.0703C10.6446 12.6786 10.2365 12.5093 9.93555 12.2083C9.63456 11.9073 9.46528 11.4992 9.46486 11.0736V8.93299C9.46277 8.35213 9.26986 7.78806 8.9158 7.32757H13.2868C13.4171 7.83202 13.7268 8.27166 14.1581 8.56407C14.5893 8.85648 15.1123 8.98158 15.6292 8.91593C16.146 8.85028 16.6212 8.59839 16.9656 8.20747C17.31 7.81654 17.5 7.31343 17.5 6.79243C17.5 6.27143 17.31 5.76831 16.9656 5.37739C16.6212 4.98646 16.146 4.73457 15.6292 4.66892C15.1123 4.60327 14.5893 4.72838 14.1581 5.02079C13.7268 5.31319 13.4171 5.75283 13.2868 6.25729H6.71316C6.58291 5.75283 6.27315 5.31319 5.84195 5.02079C5.41074 4.72838 4.88769 4.60327 4.37085 4.66892C3.854 4.73457 3.37884 4.98646 3.03443 5.37739C2.69001 5.76831 2.5 6.27143 2.5 6.79243C2.5 7.31343 2.69001 7.81654 3.03443 8.20747C3.37884 8.59839 3.854 8.85028 4.37085 8.91593C4.88769 8.98158 5.41074 8.85648 5.84195 8.56407C6.27315 8.27166 6.58291 7.83202 6.71316 7.32757H6.78915C7.2148 7.32799 7.6229 7.49727 7.92389 7.79826C8.22487 8.09924 8.39415 8.50734 8.39458 8.93299V11.0736C8.39542 11.7829 8.6776 12.463 9.17921 12.9646C9.68082 13.4662 10.3609 13.7484 11.0703 13.7493H13.2868C13.3875 14.1361 13.5947 14.487 13.8848 14.762C14.1749 15.037 14.5363 15.2252 14.928 15.3051C15.3197 15.385 15.7259 15.3535 16.1005 15.2141C16.4752 15.0747 16.8033 14.8331 17.0475 14.5166C17.2917 14.2001 17.4422 13.8215 17.482 13.4237C17.5218 13.026 17.4493 12.625 17.2726 12.2664C17.096 11.9078 16.8223 11.6059 16.4827 11.3951C16.1431 11.1842 15.7512 11.0728 15.3514 11.0736ZM15.3514 5.72214C15.5631 5.72214 15.77 5.78491 15.946 5.90252C16.122 6.02012 16.2592 6.18728 16.3402 6.38285C16.4212 6.57842 16.4424 6.79361 16.4011 7.00123C16.3598 7.20884 16.2579 7.39955 16.1082 7.54923C15.9585 7.69891 15.7678 7.80085 15.5602 7.84214C15.3526 7.88344 15.1374 7.86225 14.9418 7.78124C14.7463 7.70023 14.5791 7.56305 14.4615 7.38704C14.3439 7.21104 14.2811 7.00411 14.2811 6.79243C14.2814 6.50866 14.3943 6.23659 14.5949 6.03594C14.7956 5.83528 15.0676 5.72243 15.3514 5.72214ZM4.64858 7.86271C4.4369 7.86271 4.22997 7.79994 4.05397 7.68233C3.87796 7.56473 3.74078 7.39757 3.65977 7.20201C3.57876 7.00644 3.55757 6.79124 3.59887 6.58362C3.64016 6.37601 3.7421 6.1853 3.89178 6.03562C4.04146 5.88594 4.23217 5.78401 4.43978 5.74271C4.6474 5.70141 4.8626 5.72261 5.05816 5.80361C5.25373 5.88462 5.42089 6.0218 5.53849 6.19781C5.6561 6.37382 5.71887 6.58074 5.71887 6.79243C5.71858 7.0762 5.60573 7.34826 5.40508 7.54892C5.20442 7.74957 4.93235 7.86243 4.64858 7.86271ZM15.3514 14.2844C15.1397 14.2844 14.9328 14.2216 14.7568 14.104C14.5808 13.9864 14.4436 13.8193 14.3626 13.6237C14.2816 13.4281 14.2604 13.2129 14.3017 13.0053C14.343 12.7977 14.4449 12.607 14.5946 12.4573C14.7443 12.3076 14.935 12.2057 15.1426 12.1644C15.3502 12.1231 15.5654 12.1443 15.761 12.2253C15.9566 12.3063 16.1237 12.4435 16.2413 12.6195C16.3589 12.7955 16.4217 13.0024 16.4217 13.2141C16.4213 13.4979 16.3084 13.7698 16.1078 13.9705C15.9071 14.1711 15.6351 14.284 15.3514 14.2844Z"
        fill="currentColor" />
</svg>