<svg width="16" height="16" viewBox="0 0 16 16" fill="none" xmlns="http://www.w3.org/2000/svg">
    <g clip-path="url(#clip0_23_3527)">
        <path
            d="M1.33325 7.99992C1.33325 4.85722 1.33325 3.28587 2.30956 2.30956C3.28587 1.33325 4.85722 1.33325 7.99992 1.33325C11.1426 1.33325 12.714 1.33325 13.6903 2.30956C14.6666 3.28587 14.6666 4.85722 14.6666 7.99992C14.6666 11.1426 14.6666 12.714 13.6903 13.6903C12.714 14.6666 11.1426 14.6666 7.99992 14.6666C4.85722 14.6666 3.28587 14.6666 2.30956 13.6903C1.33325 12.714 1.33325 11.1426 1.33325 7.99992Z"
            stroke="currentColor" />
        <circle cx="10.6666" cy="5.33321" r="1.33333" stroke="currentColor" />
        <path
            d="M1.33325 8.33338L2.50098 7.31163C3.10849 6.78006 4.0241 6.81055 4.59491 7.38136L7.45473 10.2412C7.91288 10.6993 8.63408 10.7618 9.16419 10.3892L9.36299 10.2495C10.1258 9.71343 11.1579 9.77554 11.8509 10.3993L13.9999 12.3334"
            stroke="currentColor" stroke-linecap="round" />
    </g>
    <defs>
        <clipPath id="clip0_23_3527">
            <rect width="16" height="16" fill="white" />
        </clipPath>
    </defs>
</svg>