<svg width="16" height="16" viewBox="0 0 16 16" fill="none" xmlns="http://www.w3.org/2000/svg">
    <path
        d="M2.00003 7.99999C2.00003 7.72385 1.77617 7.49999 1.50003 7.49999C1.22389 7.49999 1.00003 7.72385 1.00003 7.99999H2.00003ZM8.00003 14.5V15V14.5ZM15 7.99999C15 7.72385 14.7762 7.49999 14.5 7.49999C14.2239 7.49999 14 7.72385 14 7.99999H15ZM8.50001 1.5C8.50001 1.22386 8.27615 1 8.00001 1C7.72386 1 7.50001 1.22386 7.50001 1.5H8.50001ZM8.00001 9.625L7.64645 9.97855C7.84171 10.1738 8.1583 10.1738 8.35356 9.97855L8.00001 9.625ZM10.7911 7.54105C10.9863 7.34579 10.9863 7.02921 10.7911 6.83395C10.5958 6.63868 10.2792 6.63868 10.084 6.83395L10.7911 7.54105ZM5.91606 6.83395C5.7208 6.63868 5.40421 6.63868 5.20895 6.83395C5.01369 7.02921 5.01369 7.34579 5.20895 7.54105L5.91606 6.83395ZM1.00003 7.99999C1.00003 9.85651 1.73753 11.637 3.05028 12.9497L3.75739 12.2426C2.63217 11.1174 2.00003 9.59129 2.00003 7.99999H1.00003ZM3.05028 12.9497C4.36304 14.2625 6.14352 15 8.00003 15V14C6.40873 14 4.88261 13.3679 3.75739 12.2426L3.05028 12.9497ZM8.00003 15C9.85655 15 11.637 14.2625 12.9498 12.9497L12.2427 12.2426C11.1175 13.3679 9.59133 14 8.00003 14V15ZM12.9498 12.9497C14.2625 11.637 15 9.85651 15 7.99999H14C14 9.59129 13.3679 11.1174 12.2427 12.2426L12.9498 12.9497ZM7.50001 1.5V9.625H8.50001V1.5H7.50001ZM8.35356 9.97855L10.7911 7.54105L10.084 6.83395L7.64645 9.27145L8.35356 9.97855ZM8.35356 9.27145L5.91606 6.83395L5.20895 7.54105L7.64645 9.97855L8.35356 9.27145Z"
        fill="currentColor" />
</svg>