<svg width="16" height="16" viewBox="0 0 16 16" fill="none" xmlns="http://www.w3.org/2000/svg">
    <path
        d="M14 6H14.5H14ZM14 10H13.5H14ZM13.4142 13.4142L13.7678 13.7678L13.4142 13.4142ZM13.4142 2.58579L13.7678 2.23223V2.23223L13.4142 2.58579ZM2 7.5C1.72386 7.5 1.5 7.72386 1.5 8C1.5 8.27614 1.72386 8.5 2 8.5L2 7.5ZM10.6667 8L11.0041 8.36901C11.1077 8.27429 11.1667 8.14038 11.1667 8C11.1667 7.85962 11.1077 7.72571 11.0041 7.63099L10.6667 8ZM8.08739 4.96432C7.88358 4.77799 7.56732 4.79215 7.38099 4.99595C7.19465 5.19975 7.20881 5.51602 7.41262 5.70235L8.08739 4.96432ZM7.41262 10.2977C7.20881 10.484 7.19465 10.8003 7.38099 11.0041C7.56732 11.2079 7.88358 11.222 8.08738 11.0357L7.41262 10.2977ZM13.5 6V10H14.5V6H13.5ZM13.5 10C13.5 10.9569 13.4989 11.6244 13.4312 12.1279C13.3655 12.6171 13.2452 12.8762 13.0607 13.0607L13.7678 13.7678C14.169 13.3665 14.3416 12.8612 14.4223 12.2612C14.5011 11.6755 14.5 10.9287 14.5 10H13.5ZM10 14.5C10.9287 14.5 11.6755 14.5011 12.2612 14.4223C12.8612 14.3416 13.3665 14.169 13.7678 13.7678L13.0607 13.0607C12.8762 13.2452 12.6171 13.3655 12.1279 13.4312C11.6244 13.4989 10.9569 13.5 10 13.5V14.5ZM10 2.5C10.9569 2.5 11.6244 2.50106 12.1279 2.56876C12.6171 2.63453 12.8762 2.75483 13.0607 2.93934L13.7678 2.23223C13.3665 1.83095 12.8612 1.65836 12.2612 1.57768C11.6755 1.49894 10.9287 1.5 10 1.5V2.5ZM14.5 6C14.5 5.07133 14.5011 4.32452 14.4223 3.73883C14.3416 3.13876 14.169 2.63351 13.7678 2.23223L13.0607 2.93934C13.2452 3.12385 13.3655 3.3829 13.4312 3.87208C13.4989 4.37565 13.5 5.04306 13.5 6H14.5ZM2 8.5L10.6667 8.5V7.5L2 7.5L2 8.5ZM11.0041 7.63099L8.08739 4.96432L7.41262 5.70235L10.3293 8.36901L11.0041 7.63099ZM10.3293 7.63099L7.41262 10.2977L8.08738 11.0357L11.0041 8.36901L10.3293 7.63099Z"
        fill="currentColor" />
</svg>