<svg width="16" height="16" viewBox="0 0 16 16" fill="none" xmlns="http://www.w3.org/2000/svg">
    <path
        d="M5.19992 1.33337H10.7999C12.9333 1.33337 14.6666 3.06671 14.6666 5.20004V10.8C14.6666 11.8255 14.2592 12.809 13.5341 13.5342C12.8089 14.2593 11.8254 14.6667 10.7999 14.6667H5.19992C3.06659 14.6667 1.33325 12.9334 1.33325 10.8V5.20004C1.33325 4.17454 1.74063 3.19104 2.46577 2.46589C3.19091 1.74075 4.17442 1.33337 5.19992 1.33337ZM5.06659 2.66671C4.43007 2.66671 3.81962 2.91956 3.36953 3.36965C2.91944 3.81974 2.66659 4.43019 2.66659 5.06671V10.9334C2.66659 12.26 3.73992 13.3334 5.06659 13.3334H10.9333C11.5698 13.3334 12.1802 13.0805 12.6303 12.6304C13.0804 12.1803 13.3333 11.5699 13.3333 10.9334V5.06671C13.3333 3.74004 12.2599 2.66671 10.9333 2.66671H5.06659ZM11.4999 3.66671C11.7209 3.66671 11.9329 3.7545 12.0892 3.91079C12.2455 4.06707 12.3333 4.27903 12.3333 4.50004C12.3333 4.72105 12.2455 4.93302 12.0892 5.0893C11.9329 5.24558 11.7209 5.33337 11.4999 5.33337C11.2789 5.33337 11.0669 5.24558 10.9107 5.0893C10.7544 4.93302 10.6666 4.72105 10.6666 4.50004C10.6666 4.27903 10.7544 4.06707 10.9107 3.91079C11.0669 3.7545 11.2789 3.66671 11.4999 3.66671ZM7.99992 4.66671C8.88397 4.66671 9.73182 5.0179 10.3569 5.64302C10.9821 6.26814 11.3333 7.11599 11.3333 8.00004C11.3333 8.8841 10.9821 9.73194 10.3569 10.3571C9.73182 10.9822 8.88397 11.3334 7.99992 11.3334C7.11586 11.3334 6.26802 10.9822 5.6429 10.3571C5.01777 9.73194 4.66659 8.8841 4.66659 8.00004C4.66659 7.11599 5.01777 6.26814 5.6429 5.64302C6.26802 5.0179 7.11586 4.66671 7.99992 4.66671ZM7.99992 6.00004C7.46949 6.00004 6.96078 6.21075 6.5857 6.58583C6.21063 6.9609 5.99992 7.46961 5.99992 8.00004C5.99992 8.53047 6.21063 9.03918 6.5857 9.41426C6.96078 9.78933 7.46949 10 7.99992 10C8.53035 10 9.03906 9.78933 9.41413 9.41426C9.78921 9.03918 9.99992 8.53047 9.99992 8.00004C9.99992 7.46961 9.78921 6.9609 9.41413 6.58583C9.03906 6.21075 8.53035 6.00004 7.99992 6.00004Z"
        fill="currentColor" />
</svg>