<svg width="16" height="16" viewBox="0 0 16 16" fill="none" xmlns="http://www.w3.org/2000/svg">
<path fill-rule="evenodd" clip-rule="evenodd" d="M4.73285 0.833374H11.2668C11.9448 0.833374 12.4115 0.833374 12.8042 0.969374C13.1711 1.09916 13.5031 1.31173 13.7746 1.59059C14.0461 1.86946 14.2496 2.20712 14.3695 2.57737C14.5002 2.97537 14.4995 3.44871 14.4995 4.15071V13.5827C14.4995 14.56 13.3482 15.1414 12.5902 14.4474C12.5659 14.4241 12.5335 14.4111 12.4998 14.4111C12.4662 14.4111 12.4338 14.4241 12.4095 14.4474L12.0868 14.742C11.4682 15.3087 10.5308 15.3087 9.91218 14.742C9.8002 14.6375 9.65271 14.5793 9.49951 14.5793C9.34631 14.5793 9.19882 14.6375 9.08685 14.742C8.46818 15.3087 7.53084 15.3087 6.91218 14.742C6.8002 14.6375 6.65271 14.5793 6.49951 14.5793C6.34631 14.5793 6.19882 14.6375 6.08685 14.742C5.46818 15.3087 4.53085 15.3087 3.91218 14.742L3.59018 14.4474C3.56583 14.4239 3.53333 14.4108 3.49951 14.4108C3.4657 14.4108 3.4332 14.4239 3.40884 14.4474C2.65084 15.1407 1.49951 14.56 1.49951 13.5827V4.15137C1.49951 3.44871 1.49951 2.97537 1.62951 2.57737C1.74939 2.20712 1.95295 1.86946 2.22442 1.59059C2.49588 1.31173 2.82795 1.09916 3.19484 0.969374C3.58818 0.832707 4.05485 0.833374 4.73285 0.833374ZM4.82951 1.83337C4.01551 1.83337 3.73484 1.84004 3.52285 1.91404C3.30144 1.99342 3.10126 2.12268 2.9378 2.2918C2.77434 2.46093 2.65197 2.66539 2.58018 2.88937C2.50618 3.11471 2.50018 3.41204 2.50018 4.24671V13.5827C2.50018 13.6627 2.53951 13.7107 2.58951 13.734C2.61233 13.7449 2.63776 13.7491 2.66285 13.746C2.68982 13.7414 2.71473 13.7286 2.73418 13.7094C2.94279 13.5173 3.21597 13.4107 3.49951 13.4107C3.78306 13.4107 4.05624 13.5173 4.26484 13.7094L4.58685 14.004C4.69882 14.1086 4.84631 14.1667 4.99951 14.1667C5.15271 14.1667 5.3002 14.1086 5.41218 14.004C5.70847 13.731 6.09662 13.5795 6.49951 13.5795C6.9024 13.5795 7.29055 13.731 7.58685 14.004C7.69882 14.1086 7.84631 14.1667 7.99951 14.1667C8.15271 14.1667 8.3002 14.1086 8.41218 14.004C8.70847 13.731 9.09662 13.5795 9.49951 13.5795C9.9024 13.5795 10.2906 13.731 10.5868 14.004C10.6988 14.1086 10.8463 14.1667 10.9995 14.1667C11.1527 14.1667 11.3002 14.1086 11.4122 14.004L11.7342 13.7094C11.9428 13.5173 12.216 13.4107 12.4995 13.4107C12.7831 13.4107 13.0562 13.5173 13.2648 13.7094C13.2935 13.736 13.3182 13.744 13.3368 13.746C13.3617 13.7489 13.3869 13.7448 13.4095 13.734C13.4595 13.7107 13.4995 13.662 13.4995 13.5827V4.24671C13.4995 3.41204 13.4928 3.11471 13.4195 2.88871C13.3475 2.66471 13.2249 2.46029 13.0612 2.29127C12.8975 2.12226 12.6971 1.99318 12.4755 1.91404C12.2642 1.84071 11.9835 1.83404 11.1695 1.83404L4.82951 1.83337Z" fill="#333333"/>
<path d="M6.26415 8.5L6.26415 11.5M9.76415 7.5L9.76415 4.5M6.26415 4.5L6.26415 5.5M9.76415 11.5L9.76415 10M7.2998 7.125C7.2998 7.40348 7.18918 7.67055 6.99227 7.86746C6.79535 8.06438 6.52828 8.175 6.2498 8.175C5.97133 8.175 5.70426 8.06438 5.50734 7.86746C5.31043 7.67055 5.1998 7.40348 5.1998 7.125C5.1998 6.84652 5.31043 6.57945 5.50734 6.38254C5.70426 6.18562 5.97133 6.075 6.2498 6.075C6.52828 6.075 6.79535 6.18562 6.99227 6.38254C7.18918 6.57945 7.2998 6.84652 7.2998 7.125ZM10.7998 8.875C10.7998 8.73711 10.7726 8.60057 10.7199 8.47318C10.6671 8.34579 10.5898 8.23004 10.4923 8.13254C10.3948 8.03504 10.279 7.95769 10.1516 7.90493C10.0242 7.85216 9.88769 7.825 9.7498 7.825C9.61192 7.825 9.47538 7.85216 9.34799 7.90493C9.2206 7.95769 9.10484 8.03504 9.00734 8.13254C8.90984 8.23004 8.8325 8.34579 8.77973 8.47318C8.72696 8.60057 8.6998 8.73711 8.6998 8.875C8.6998 9.15348 8.81043 9.42055 9.00734 9.61746C9.20426 9.81438 9.47133 9.925 9.7498 9.925C10.0283 9.925 10.2954 9.81438 10.4923 9.61746C10.6892 9.42055 10.7998 9.15348 10.7998 8.875Z" stroke="#333333" stroke-linecap="round"/>
</svg>
