<svg width="16" height="16" viewBox="0 0 16 16" fill="none" xmlns="http://www.w3.org/2000/svg">
    <path fill-rule="evenodd" clip-rule="evenodd"
        d="M5.41782 2.37358C5.17954 2.16177 4.82046 2.16177 4.58218 2.37358C3.99184 2.89833 3.11523 2.92113 2.5 2.44199V13.5579C3.11523 13.0787 3.99184 13.1015 4.58218 13.6263C4.82046 13.8381 5.17954 13.8381 5.41782 13.6263C6.03499 13.0777 6.96501 13.0777 7.58218 13.6263C7.82046 13.8381 8.17954 13.8381 8.41782 13.6263C9.03499 13.0777 9.96502 13.0777 10.5822 13.6263C10.8205 13.8381 11.1795 13.8381 11.4178 13.6263C12.0082 13.1015 12.8848 13.0787 13.5 13.5579V2.44199C12.8848 2.92113 12.0082 2.89833 11.4178 2.37358C11.1795 2.16177 10.8205 2.16177 10.5822 2.37358C9.96502 2.92217 9.03499 2.92217 8.41782 2.37358C8.17954 2.16177 7.82046 2.16177 7.58218 2.37358C6.96501 2.92217 6.03499 2.92217 5.41782 2.37358ZM3.91782 1.62617C4.53499 1.07757 5.46501 1.07757 6.08218 1.62617C6.32046 1.83797 6.67954 1.83797 6.91782 1.62617C7.53499 1.07757 8.46501 1.07757 9.08218 1.62617C9.32046 1.83797 9.67954 1.83797 9.91782 1.62617C10.535 1.07757 11.465 1.07757 12.0822 1.62617C12.3205 1.83797 12.6795 1.83797 12.9178 1.62617C13.5309 1.08123 14.5 1.51643 14.5 2.33667V13.6632C14.5 14.4834 13.5309 14.9186 12.9178 14.3737C12.6795 14.1619 12.3205 14.1619 12.0822 14.3737C11.465 14.9223 10.535 14.9223 9.91782 14.3737C9.67954 14.1619 9.32046 14.1619 9.08218 14.3737C8.46501 14.9223 7.53499 14.9223 6.91782 14.3737C6.67954 14.1619 6.32046 14.1619 6.08218 14.3737C5.46501 14.9223 4.53499 14.9223 3.91782 14.3737C3.67954 14.1619 3.32046 14.1619 3.08218 14.3737C2.46912 14.9186 1.5 14.4834 1.5 13.6632V2.33667C1.5 1.51643 2.46912 1.08123 3.08218 1.62617C3.32046 1.83797 3.67954 1.83797 3.91782 1.62617ZM4.5 5.66666C4.5 5.39051 4.72386 5.16666 5 5.16666H11C11.2761 5.16666 11.5 5.39051 11.5 5.66666C11.5 5.9428 11.2761 6.16666 11 6.16666H5C4.72386 6.16666 4.5 5.9428 4.5 5.66666ZM4.5 7.99999C4.5 7.72385 4.72386 7.49999 5 7.49999H11C11.2761 7.49999 11.5 7.72385 11.5 7.99999C11.5 8.27613 11.2761 8.49999 11 8.49999H5C4.72386 8.49999 4.5 8.27613 4.5 7.99999ZM4.5 10.3333C4.5 10.0572 4.72386 9.83332 5 9.83332H11C11.2761 9.83332 11.5 10.0572 11.5 10.3333C11.5 10.6095 11.2761 10.8333 11 10.8333H5C4.72386 10.8333 4.5 10.6095 4.5 10.3333Z"
        fill="currentColor" />
</svg>