<svg width="16" height="16" viewBox="0 0 16 16" fill="none" xmlns="http://www.w3.org/2000/svg">
    <path fill-rule="evenodd" clip-rule="evenodd"
        d="M4.29863 1.16663H4.36796C4.96694 1.16661 5.46643 1.16659 5.86295 1.2199C6.28148 1.27617 6.65934 1.39995 6.96299 1.7036C7.26664 2.00725 7.39042 2.38511 7.44669 2.80364C7.5 3.20016 7.49998 3.69963 7.49996 4.29861V11.7013C7.49998 12.3003 7.5 12.7998 7.44669 13.1963C7.39042 13.6148 7.26664 13.9927 6.96299 14.2963C6.65934 14.6 6.28148 14.7238 5.86295 14.78C5.46643 14.8333 4.96695 14.8333 4.36796 14.8333H4.29863C3.69964 14.8333 3.20016 14.8333 2.80364 14.78C2.38511 14.7238 2.00725 14.6 1.7036 14.2963C1.39995 13.9927 1.27617 13.6148 1.2199 13.1963C1.16659 12.7998 1.16661 12.3003 1.16663 11.7013V4.29863C1.16661 3.69965 1.16659 3.20016 1.2199 2.80364C1.27617 2.38511 1.39995 2.00725 1.7036 1.7036C2.00725 1.39995 2.38511 1.27617 2.80364 1.2199C3.20016 1.16659 3.69965 1.16661 4.29863 1.16663ZM2.93689 2.21099C2.62925 2.25235 2.49758 2.32383 2.41071 2.41071C2.32383 2.49758 2.25235 2.62925 2.21099 2.93689C2.16769 3.25891 2.16663 3.69062 2.16663 4.33329V11.6666C2.16663 12.3093 2.16769 12.741 2.21099 13.063C2.25235 13.3707 2.32383 13.5023 2.41071 13.5892C2.49758 13.6761 2.62925 13.7476 2.93689 13.7889C3.25891 13.8322 3.69062 13.8333 4.33329 13.8333C4.97597 13.8333 5.40768 13.8322 5.7297 13.7889C6.03734 13.7476 6.16901 13.6761 6.25588 13.5892C6.34276 13.5023 6.41424 13.3707 6.4556 13.063C6.4989 12.741 6.49996 12.3093 6.49996 11.6666V4.33329C6.49996 3.69062 6.4989 3.25891 6.4556 2.93689C6.41424 2.62925 6.34276 2.49758 6.25588 2.41071C6.16901 2.32383 6.03734 2.25235 5.7297 2.21099C5.40768 2.16769 4.97597 2.16663 4.33329 2.16663C3.69062 2.16663 3.25891 2.16769 2.93689 2.21099Z"
        fill="currentColor" />
    <path fill-rule="evenodd" clip-rule="evenodd"
        d="M11.632 7.16663H11.7013C12.3003 7.16661 12.7998 7.16659 13.1963 7.2199C13.6148 7.27617 13.9927 7.39995 14.2963 7.7036C14.6 8.00725 14.7238 8.38511 14.78 8.80364C14.8333 9.20015 14.8333 9.69962 14.8333 10.2986V11.7013C14.8333 12.3003 14.8333 12.7998 14.78 13.1963C14.7238 13.6148 14.6 13.9927 14.2963 14.2963C13.9927 14.6 13.6148 14.7238 13.1963 14.78C12.7998 14.8333 12.3003 14.8333 11.7013 14.8333H11.632C11.033 14.8333 10.5335 14.8333 10.137 14.78C9.71845 14.7238 9.34058 14.6 9.03693 14.2963C8.73329 13.9927 8.60951 13.6148 8.55324 13.1963C8.49992 12.7998 8.49994 12.3003 8.49996 11.7013V10.2986C8.49994 9.69964 8.49992 9.20016 8.55324 8.80364C8.60951 8.38511 8.73329 8.00725 9.03693 7.7036C9.34058 7.39995 9.71845 7.27617 10.137 7.2199C10.5335 7.16659 11.033 7.16661 11.632 7.16663ZM10.2702 8.21098C9.96258 8.25235 9.83092 8.32383 9.74404 8.41071C9.65716 8.49758 9.58568 8.62925 9.54432 8.93689C9.50102 9.25891 9.49996 9.69062 9.49996 10.3333V11.6666C9.49996 12.3093 9.50102 12.741 9.54432 13.063C9.58568 13.3707 9.65716 13.5023 9.74404 13.5892C9.83092 13.6761 9.96258 13.7476 10.2702 13.7889C10.5922 13.8322 11.024 13.8333 11.6666 13.8333C12.3093 13.8333 12.741 13.8322 13.063 13.7889C13.3707 13.7476 13.5023 13.6761 13.5892 13.5892C13.6761 13.5023 13.7476 13.3707 13.7889 13.063C13.8322 12.741 13.8333 12.3093 13.8333 11.6666V10.3333C13.8333 9.69062 13.8322 9.25891 13.7889 8.93689C13.7476 8.62925 13.6761 8.49758 13.5892 8.41071C13.5023 8.32383 13.3707 8.25235 13.063 8.21098C12.741 8.16769 12.3093 8.16663 11.6666 8.16663C11.024 8.16663 10.5922 8.16769 10.2702 8.21098Z"
        fill="currentColor" />
    <path fill-rule="evenodd" clip-rule="evenodd"
        d="M10.9831 1.16663C10.6868 1.16662 10.4394 1.16662 10.2364 1.18047C10.025 1.1949 9.8253 1.22599 9.63171 1.30618C9.18249 1.49225 8.82559 1.84916 8.63952 2.29838C8.55933 2.49197 8.52823 2.69165 8.51381 2.90305C8.49995 3.10613 8.49996 3.35349 8.49996 3.64979V3.68346C8.49996 3.97977 8.49995 4.22713 8.51381 4.4302C8.52823 4.6416 8.55933 4.84129 8.63952 5.03488C8.82559 5.4841 9.18249 5.841 9.63171 6.02707C9.8253 6.10726 10.025 6.13836 10.2364 6.15278C10.4395 6.16664 10.6868 6.16663 10.9831 6.16663H12.3501C12.6464 6.16663 12.8938 6.16664 13.0969 6.15278C13.3083 6.13836 13.508 6.10726 13.7015 6.02707C14.1508 5.841 14.5077 5.4841 14.6937 5.03488C14.7739 4.84129 14.805 4.6416 14.8194 4.4302C14.8333 4.22713 14.8333 3.97977 14.8333 3.68347V3.64979C14.8333 3.35348 14.8333 3.10613 14.8194 2.90305C14.805 2.69165 14.7739 2.49197 14.6937 2.29838C14.5077 1.84916 14.1508 1.49225 13.7015 1.30618C13.508 1.22599 13.3083 1.1949 13.0969 1.18047C12.8938 1.16662 12.6465 1.16662 12.3502 1.16663H10.9831ZM10.0144 2.23006C10.0658 2.20876 10.144 2.1891 10.3045 2.17816C10.4694 2.1669 10.6825 2.16663 11 2.16663H12.3333C12.6508 2.16663 12.8638 2.1669 13.0288 2.17816C13.1893 2.1891 13.2674 2.20876 13.3189 2.23006C13.5231 2.31464 13.6853 2.47687 13.7699 2.68106C13.7912 2.73249 13.8108 2.81064 13.8218 2.97112C13.833 3.1361 13.8333 3.34916 13.8333 3.66663C13.8333 3.9841 13.833 4.19716 13.8218 4.36213C13.8108 4.52262 13.7912 4.60076 13.7699 4.6522C13.6853 4.85639 13.5231 5.01862 13.3189 5.10319C13.2674 5.1245 13.1893 5.14415 13.0288 5.1551C12.8638 5.16636 12.6508 5.16663 12.3333 5.16663H11C10.6825 5.16663 10.4694 5.16636 10.3045 5.1551C10.144 5.14415 10.0658 5.1245 10.0144 5.10319C9.8102 5.01862 9.64797 4.85639 9.5634 4.6522C9.54209 4.60076 9.52244 4.52262 9.51149 4.36213C9.50023 4.19716 9.49996 3.9841 9.49996 3.66663C9.49996 3.34916 9.50023 3.1361 9.51149 2.97112C9.52244 2.81064 9.54209 2.73249 9.5634 2.68106C9.64797 2.47687 9.8102 2.31464 10.0144 2.23006Z"
        fill="currentColor" />
</svg>