<svg width="16" height="16" viewBox="0 0 16 16" fill="none" xmlns="http://www.w3.org/2000/svg">
    <path
        d="M11.9002 11.9L14.0002 14M13.4002 7.7C13.4002 10.848 10.8483 13.4 7.70024 13.4C4.55222 13.4 2.00024 10.848 2.00024 7.7C2.00024 4.55198 4.55222 2 7.70024 2C10.8483 2 13.4002 4.55198 13.4002 7.7Z"
        stroke="currentColor" stroke-width="1.2" stroke-linecap="round" />
    <path
        d="M9.14289 5.52709C9.14289 6.36292 8.48605 7.0405 7.6758 7.0405C6.86555 7.0405 6.20871 6.36292 6.20871 5.52709C6.20871 4.69125 6.86555 4.01367 7.6758 4.01367C8.48605 4.01367 9.14289 4.69125 9.14289 5.52709Z"
        fill="currentColor" />
    <path
        d="M10.2432 9.68898C10.2432 10.5248 9.09374 11.2024 7.6758 11.2024C6.25786 11.2024 5.1084 10.5248 5.1084 9.68898C5.1084 8.85315 6.25786 8.17557 7.6758 8.17557C9.09374 8.17557 10.2432 8.85315 10.2432 9.68898Z"
        fill="currentColor" />
</svg>