<svg width="17" height="16" viewBox="0 0 17 16" fill="none" xmlns="http://www.w3.org/2000/svg">
    <path
        d="M14.9261 7.59148L13.6683 3.19439C13.6449 3.11237 13.6009 3.03767 13.5405 2.97736C13.4801 2.91705 13.4053 2.87311 13.3232 2.84971L8.92007 1.59371C8.66178 1.52002 8.38846 1.51664 8.12842 1.58391C7.86838 1.65119 7.63109 1.78667 7.44112 1.97633L1.23417 8.17475C0.76403 8.64538 0.5 9.28301 0.5 9.94777C0.5 10.6125 0.76403 11.2502 1.23417 11.7208L4.78508 15.2668C5.25636 15.7363 5.89486 16 6.56054 16C7.22622 16 7.86473 15.7363 8.336 15.2668L14.5429 9.06841C14.7329 8.8787 14.8685 8.64172 14.9359 8.38204C15.0033 8.12236 14.9999 7.84942 14.9261 7.59148ZM7.62581 14.5576C7.34329 14.8398 6.9601 14.9983 6.56054 14.9983C6.16099 14.9983 5.7778 14.8398 5.49527 14.5576L1.94436 11.0116C1.66183 10.7294 1.5031 10.3468 1.5031 9.94777C1.5031 9.54877 1.66183 9.1661 1.94436 8.88396L8.1513 2.68553C8.21466 2.62194 8.29394 2.57649 8.38088 2.55391C8.46782 2.53133 8.55923 2.53246 8.64558 2.55717L12.7792 3.73764L13.9617 7.86594C13.9863 7.95216 13.9873 8.0434 13.9646 8.13015C13.942 8.2169 13.8964 8.29599 13.8328 8.3592L7.62581 14.5576Z"
        fill="currentColor" />
    <path
        d="M10.5221 5.99153C10.8163 6.2853 11.2932 6.2853 11.5874 5.99153C11.8816 5.69777 11.8816 5.22148 11.5874 4.92772C11.2932 4.63396 10.8163 4.63396 10.5221 4.92772C10.2279 5.22148 10.2279 5.69777 10.5221 5.99153Z"
        fill="currentColor" />
    <path
        d="M11.0425 5.63669C10.8514 5.84535 10.5236 5.86189 10.3451 5.64245C9.98134 5.19524 9.73334 4.66209 9.62736 4.09024C9.49012 3.34972 9.59854 2.5847 9.93615 1.91129C10.2738 1.23788 10.8221 0.692831 11.4981 0.358868C12.174 0.024904 12.9406 -0.0797459 13.6814 0.0607993C14.4223 0.201344 15.0971 0.579412 15.6033 1.13763C16.1095 1.69584 16.4195 2.40373 16.4864 3.15386C16.5532 3.904 16.3731 4.65542 15.9736 5.29411C15.665 5.78733 15.2385 6.19251 14.7358 6.47536C14.4892 6.61415 14.1903 6.47873 14.0892 6.21465C13.9881 5.95056 14.1247 5.65879 14.3623 5.50496C14.66 5.31215 14.9139 5.05563 15.1041 4.75161C15.3854 4.30189 15.5122 3.77278 15.4652 3.24459C15.4181 2.71639 15.1998 2.21794 14.8433 1.82488C14.4869 1.43182 14.0118 1.16561 13.4901 1.06665C12.9684 0.967688 12.4287 1.04138 11.9527 1.27653C11.4768 1.51169 11.0906 1.89547 10.8529 2.36965C10.6152 2.84382 10.5389 3.38249 10.6355 3.90392C10.7008 4.25642 10.8428 4.58802 11.049 4.87643C11.2135 5.10653 11.2335 5.42802 11.0425 5.63669Z"
        fill="currentColor" />
    <path
        d="M3.60367 10.7867C3.41021 10.5883 3.41448 10.2708 3.61321 10.0776L7.21146 6.57948C7.41019 6.38628 7.72812 6.39055 7.92158 6.589C8.11504 6.78745 8.11077 7.10495 7.91205 7.29814L4.31379 10.7963C4.11506 10.9895 3.79713 10.9852 3.60367 10.7867Z"
        fill="currentColor" />
    <path
        d="M5.61237 12.2912C5.41891 12.0927 5.42318 11.7753 5.6219 11.5821L7.21601 10.0323C7.41473 9.83912 7.73266 9.84339 7.92612 10.0418C8.11959 10.2403 8.11532 10.5578 7.91659 10.751L6.32249 12.3007C6.12376 12.4939 5.80583 12.4897 5.61237 12.2912Z"
        fill="currentColor" />
</svg>