<svg width="16" height="16" viewBox="0 0 16 16" fill="none" xmlns="http://www.w3.org/2000/svg">
    <path
        d="M10.6579 3.22012C10.7988 3.3611 10.878 3.55229 10.878 3.75163C10.878 3.95098 10.7988 4.14217 10.6579 4.28315L6.9365 8.00454L10.6579 11.7259C10.7948 11.8677 10.8706 12.0576 10.8689 12.2547C10.8672 12.4519 10.7881 12.6404 10.6487 12.7798C10.5093 12.9192 10.3208 12.9983 10.1237 13C9.92654 13.0017 9.73664 12.9259 9.59485 12.789L5.34194 8.53606C5.201 8.39508 5.12183 8.20389 5.12183 8.00454C5.12183 7.80519 5.201 7.614 5.34194 7.47302L9.59485 3.22012C9.73583 3.07918 9.92702 3 10.1264 3C10.3257 3 10.5169 3.07918 10.6579 3.22012Z"
        fill="currentColor" />
</svg>