<svg width="16" height="16" viewBox="0 0 16 16" fill="none" xmlns="http://www.w3.org/2000/svg">
    <g clip-path="url(#clip0_23_3538)">
        <path
            d="M3.33325 13.5923H4.83987C5.51378 13.5923 6.19494 13.6625 6.8508 13.7976C8.01096 14.0366 9.23248 14.0656 10.4046 13.8759C10.9825 13.7823 11.5506 13.6393 12.0649 13.3911C12.5292 13.167 13.0979 12.8511 13.4799 12.4973C13.8613 12.144 14.2586 11.5658 14.5405 11.1139C14.7823 10.7263 14.6654 10.2508 14.2829 9.96207C13.8581 9.6413 13.2277 9.64137 12.803 9.96221L11.5982 10.8723C11.1313 11.225 10.6212 11.5497 10.0136 11.6466C9.94059 11.6583 9.86403 11.6689 9.78416 11.6782M9.78416 11.6782C9.76011 11.681 9.73577 11.6836 9.71113 11.6861M9.78416 11.6782C9.88135 11.6573 9.97787 11.5974 10.0684 11.5184C10.4972 11.1441 10.5243 10.5134 10.1523 10.0955C10.066 9.99849 9.96495 9.91763 9.85263 9.85064C7.98774 8.73834 5.0862 9.58551 3.33325 10.8287M9.78416 11.6782C9.75983 11.6834 9.73546 11.6861 9.71113 11.6861M9.71113 11.6861C9.36222 11.722 8.95403 11.7312 8.5011 11.6885"
            stroke="currentColor" stroke-linecap="round" />
        <rect x="1.33325" y="9.33337" width="2" height="5.33333" rx="1" stroke="currentColor" />
        <path
            d="M9.38311 7C9.29884 7 9.22581 6.98596 9.16401 6.95787C9.10783 6.93539 9.06008 6.90169 9.02075 6.85674C8.98705 6.8118 8.95334 6.76405 8.91963 6.71348L7.8157 5.04494C7.72581 4.89888 7.63031 4.78371 7.52918 4.69944C7.43368 4.60955 7.32693 4.54775 7.20896 4.51405C7.09098 4.47472 6.94772 4.45506 6.77918 4.45506H5.85222C5.74547 4.45506 5.6612 4.42697 5.59941 4.37079C5.54323 4.30899 5.51514 4.23034 5.51514 4.13483C5.51514 4.03371 5.54323 3.95506 5.59941 3.89888C5.6612 3.8427 5.74547 3.81461 5.85222 3.81461H7.27637C7.74266 3.81461 8.09098 3.72191 8.32132 3.53652C8.55727 3.35112 8.68368 3.06742 8.70053 2.68539L8.81008 2.86236H5.82693C5.72581 2.86236 5.64716 2.83708 5.59098 2.78652C5.54042 2.73595 5.51514 2.66854 5.51514 2.58427C5.51514 2.49438 5.54042 2.42416 5.59098 2.3736C5.64716 2.32303 5.72581 2.29775 5.82693 2.29775H8.81008L8.68368 2.47472C8.63873 2.17135 8.5039 1.94382 8.27918 1.79214C8.05446 1.64045 7.73986 1.56461 7.33536 1.56461H5.82693C5.72581 1.56461 5.64716 1.53933 5.59098 1.48876C5.54042 1.4382 5.51514 1.36798 5.51514 1.27809C5.51514 1.19382 5.54042 1.1264 5.59098 1.07584C5.64716 1.02528 5.72581 1 5.82693 1H10.0236C10.1247 1 10.2005 1.02528 10.2511 1.07584C10.3073 1.1264 10.3354 1.19382 10.3354 1.27809C10.3354 1.36798 10.3073 1.4382 10.2511 1.48876C10.2005 1.53933 10.1247 1.56461 10.0236 1.56461H8.58255L8.71738 1.38764C8.93087 1.49438 9.0966 1.63764 9.21458 1.81742C9.33817 1.99157 9.41401 2.19944 9.4421 2.44101L9.28199 2.29775H10.0236C10.1247 2.29775 10.2005 2.32303 10.2511 2.3736C10.3073 2.42416 10.3354 2.49438 10.3354 2.58427C10.3354 2.66854 10.3073 2.73595 10.2511 2.78652C10.2005 2.83708 10.1247 2.86236 10.0236 2.86236H9.30727L9.45896 2.66011C9.47019 3.01966 9.39716 3.33146 9.23986 3.59551C9.08255 3.85955 8.85222 4.0618 8.54884 4.20225C8.25109 4.3427 7.88873 4.41292 7.46177 4.41292V4.33708H7.62188C7.8466 4.33708 8.04323 4.38764 8.21177 4.48876C8.38592 4.58989 8.55446 4.76685 8.71738 5.01966L9.6612 6.44382C9.723 6.52809 9.74828 6.61517 9.73705 6.70506C9.73143 6.78933 9.69772 6.85955 9.63592 6.91573C9.57413 6.97191 9.48986 7 9.38311 7Z"
            fill="currentColor" stroke="currentColor" stroke-width="0.3" />
    </g>
    <defs>
        <clipPath id="clip0_23_3538">
            <rect width="16" height="16" fill="white" />
        </clipPath>
    </defs>
</svg>