<svg width="16" height="16" viewBox="0 0 16 16" fill="none" xmlns="http://www.w3.org/2000/svg">
    <g clip-path="url(#clip0_23_3513)">
        <path
            d="M1.33325 10.6666C1.33325 8.78101 1.33325 7.8382 1.91904 7.25241C2.50482 6.66663 3.44763 6.66663 5.33325 6.66663H10.6666C12.5522 6.66663 13.495 6.66663 14.0808 7.25241C14.6666 7.8382 14.6666 8.78101 14.6666 10.6666C14.6666 12.5522 14.6666 13.4951 14.0808 14.0808C13.495 14.6666 12.5522 14.6666 10.6666 14.6666H5.33325C3.44763 14.6666 2.50482 14.6666 1.91904 14.0808C1.33325 13.4951 1.33325 12.5522 1.33325 10.6666Z"
            stroke="currentColor" />
        <path
            d="M3.99976 6.66671V5.33337C3.99976 3.12424 5.79062 1.33337 7.99976 1.33337C10.2089 1.33337 11.9998 3.12424 11.9998 5.33337V6.66671"
            stroke="currentColor" stroke-linecap="round" />
    </g>
    <defs>
        <clipPath id="clip0_23_3513">
            <rect width="16" height="16" fill="white" />
        </clipPath>
    </defs>
</svg>