<svg width="16" height="16" viewBox="0 0 16 16" fill="none" xmlns="http://www.w3.org/2000/svg">
    <path
        d="M2.16669 6H1.66669H2.16669ZM2.16669 10H2.66669H2.16669ZM2.75247 13.4142L2.39892 13.7678H2.39892L2.75247 13.4142ZM2.75247 2.58579L2.39892 2.23223L2.39892 2.23223L2.75247 2.58579ZM5.16669 7.5C4.89055 7.5 4.66669 7.72386 4.66669 8C4.66669 8.27614 4.89055 8.5 5.16669 8.5V7.5ZM13.8334 8L14.1707 8.36901C14.2743 8.27429 14.3334 8.14038 14.3334 8C14.3334 7.85962 14.2743 7.72571 14.1707 7.63099L13.8334 8ZM11.2541 4.96432C11.0503 4.77799 10.734 4.79215 10.5477 4.99595C10.3613 5.19975 10.3755 5.51602 10.5793 5.70235L11.2541 4.96432ZM10.5793 10.2977C10.3755 10.484 10.3613 10.8003 10.5477 11.0041C10.734 11.2079 11.0503 11.222 11.2541 11.0357L10.5793 10.2977ZM1.66669 6V10H2.66669V6H1.66669ZM1.66669 10C1.66669 10.9287 1.66563 11.6755 1.74437 12.2612C1.82505 12.8612 1.99764 13.3665 2.39892 13.7678L3.10603 13.0607C2.92152 12.8762 2.80122 12.6171 2.73545 12.1279C2.66775 11.6244 2.66669 10.9569 2.66669 10H1.66669ZM6.16669 13.5C5.20974 13.5 4.54233 13.4989 4.03877 13.4312C3.54958 13.3655 3.29054 13.2452 3.10603 13.0607L2.39892 13.7678C2.8002 14.169 3.30545 14.3416 3.90552 14.4223C4.49121 14.5011 5.23801 14.5 6.16669 14.5V13.5ZM6.16669 1.5C5.23801 1.5 4.49121 1.49894 3.90552 1.57768C3.30545 1.65836 2.8002 1.83095 2.39892 2.23223L3.10603 2.93934C3.29054 2.75483 3.54958 2.63453 4.03877 2.56876C4.54233 2.50106 5.20974 2.5 6.16669 2.5V1.5ZM2.66669 6C2.66669 5.04306 2.66775 4.37565 2.73545 3.87208C2.80122 3.3829 2.92152 3.12385 3.10603 2.93934L2.39892 2.23223C1.99764 2.63351 1.82505 3.13876 1.74437 3.73883C1.66563 4.32452 1.66669 5.07133 1.66669 6H2.66669ZM5.16669 8.5L13.8334 8.5V7.5L5.16669 7.5V8.5ZM14.1707 7.63099L11.2541 4.96432L10.5793 5.70235L13.496 8.36901L14.1707 7.63099ZM13.496 7.63099L10.5793 10.2977L11.2541 11.0357L14.1707 8.36901L13.496 7.63099Z"
        fill="currentColor" />
</svg>