<svg width="16" height="16" viewBox="0 0 16 16" fill="none" xmlns="http://www.w3.org/2000/svg">
    <rect width="16" height="16" rx="3" fill="currentColor" />
    <path
        d="M3.70337 11.5C3.42723 11.5 3.20337 11.2761 3.20337 11V5C3.20337 4.72386 3.42723 4.5 3.70337 4.5H3.75952C4.03566 4.5 4.25952 4.72386 4.25952 5V10.5908H6.97681C7.22787 10.5908 7.4314 10.7943 7.4314 11.0454C7.4314 11.2965 7.22787 11.5 6.97681 11.5H3.70337Z"
        fill="white" />
    <path
        d="M7.83386 5.40918C7.5828 5.40918 7.37927 5.20565 7.37927 4.95459C7.37927 4.70353 7.5828 4.5 7.83386 4.5H12.3422C12.5932 4.5 12.7968 4.70353 12.7968 4.95459C12.7968 5.20565 12.5932 5.40918 12.3422 5.40918H10.6127V11C10.6127 11.2761 10.3888 11.5 10.1127 11.5H10.0599C9.78379 11.5 9.55994 11.2761 9.55994 11V5.40918H7.83386Z"
        fill="white" />
</svg>