<svg width="16" height="16" viewBox="0 0 16 16" fill="none" xmlns="http://www.w3.org/2000/svg">
    <path
        d="M5.60002 4.60003C5.60002 4.93123 5.86882 5.20003 6.20002 5.20003H13.8C13.9592 5.20003 14.1118 5.13682 14.2243 5.0243C14.3368 4.91178 14.4 4.75916 14.4 4.60003C14.4 4.4409 14.3368 4.28829 14.2243 4.17577C14.1118 4.06325 13.9592 4.00003 13.8 4.00003H6.20002C6.04089 4.00003 5.88828 4.06325 5.77576 4.17577C5.66324 4.28829 5.60002 4.4409 5.60002 4.60003ZM2.80002 2.40003V6.40003H1.60002V2.96003H0.800024V2.16003H2.80002V2.40003ZM0.274424 14.2856L2.34642 11.68H2.33602C2.37803 11.6071 2.4001 11.5243 2.40002 11.4401C2.39994 11.3559 2.37771 11.2732 2.33556 11.2003C2.29341 11.1274 2.23283 11.0669 2.15989 11.0248C2.08695 10.9827 2.00423 10.9606 1.92002 10.9606C1.83582 10.9606 1.7531 10.9827 1.68016 11.0248C1.60722 11.0669 1.54664 11.1274 1.50449 11.2003C1.46234 11.2732 1.44011 11.3559 1.44002 11.4401C1.43994 11.5243 1.46202 11.6071 1.50402 11.68H0.241624C0.230785 11.4635 0.264084 11.2469 0.339498 11.0436C0.414913 10.8403 0.530868 10.6544 0.680323 10.4973C0.829777 10.3402 1.00961 10.2151 1.2089 10.1296C1.40819 10.0441 1.62277 10.0001 1.83962 10.0001C2.05647 10.0001 2.27106 10.0441 2.47035 10.1296C2.66964 10.2151 2.84947 10.3402 2.99893 10.4973C3.14838 10.6544 3.26434 10.8403 3.33975 11.0436C3.41516 11.2469 3.44846 11.4635 3.43762 11.68C3.39922 12.004 3.30882 12.2672 3.17042 12.4704C3.03042 12.6736 2.69842 13.024 2.17522 13.52H3.44002V14.32H0.240024L0.274424 14.2856ZM5.60002 11.8C5.60002 11.6409 5.66324 11.4883 5.77576 11.3758C5.88828 11.2632 6.04089 11.2 6.20002 11.2H13.8C13.9592 11.2 14.1118 11.2632 14.2243 11.3758C14.3368 11.4883 14.4 11.6409 14.4 11.8C14.4 11.9592 14.3368 12.1118 14.2243 12.2243C14.1118 12.3368 13.9592 12.4 13.8 12.4H6.20002C6.04089 12.4 5.88828 12.3368 5.77576 12.2243C5.66324 12.1118 5.60002 11.9592 5.60002 11.8Z"
        fill="currentColor" />
</svg>