<svg width="16" height="16" viewBox="0 0 16 16" fill="none" xmlns="http://www.w3.org/2000/svg">
    <path
        d="M5 12C5.55228 12 6 12.4477 6 13C6 13.5523 5.55228 14 5 14C4.44772 14 4 13.5523 4 13C4 12.4477 4.44772 12 5 12Z"
        stroke="currentColor" />
    <path
        d="M11 12C11.5523 12 12 12.4478 12 13C12 13.5523 11.5523 14 11 14C10.4477 14 10 13.5523 10 13C10 12.4478 10.4477 12 11 12Z"
        stroke="currentColor" />
    <path
        d="M1.50739 2.06122L1.67323 1.58953L1.67323 1.58953L1.50739 2.06122ZM1.49909 1.5283C1.23858 1.43671 0.953146 1.57365 0.861556 1.83416C0.769965 2.09467 0.906902 2.38011 1.16741 2.4717L1.49909 1.5283ZM3.05714 2.88199L3.46996 2.59989V2.59989L3.05714 2.88199ZM3.92506 9.72412L3.56222 10.0681L3.56222 10.0681L3.92506 9.72412ZM13.7718 6.5885L14.2615 6.68944L14.2621 6.68637L13.7718 6.5885ZM13.4386 8.20498L13.9283 8.30591V8.30591L13.4386 8.20498ZM13.8229 4.46472L13.4266 4.76959L13.8229 4.46472ZM12.7557 10.0336L12.4398 9.646L12.4398 9.646L12.7557 10.0336ZM3.80531 6.50667V4.69224H2.80531V6.50667H3.80531ZM1.67323 1.58953L1.49909 1.5283L1.16741 2.4717L1.34155 2.53292L1.67323 1.58953ZM7.29157 10.8333H10.8268V9.83333H7.29157V10.8333ZM3.80531 4.69224C3.80531 4.2208 3.80598 3.8274 3.77138 3.50771C3.73556 3.17679 3.65795 2.87498 3.46996 2.59989L2.64433 3.16409C2.7045 3.25215 2.75097 3.37309 2.77719 3.61533C2.80463 3.8688 2.80531 4.19894 2.80531 4.69224H3.80531ZM1.34155 2.53292C1.78663 2.6894 2.07913 2.7931 2.29436 2.8987C2.49651 2.99789 2.58562 3.07818 2.64433 3.16409L3.46996 2.59989C3.28051 2.32264 3.02861 2.14509 2.73486 2.00095C2.45418 1.86323 2.09589 1.73812 1.67323 1.58953L1.34155 2.53292ZM2.80531 6.50667C2.80531 7.47502 2.81439 8.17326 2.90576 8.70673C3.00331 9.27628 3.19806 9.68404 3.56222 10.0681L4.28791 9.3801C4.07446 9.15498 3.95934 8.93453 3.89141 8.53792C3.8173 8.10523 3.80531 7.49936 3.80531 6.50667H2.80531ZM7.29157 9.83333C6.34705 9.83333 5.69167 9.83216 5.19789 9.76213C4.72135 9.69456 4.4696 9.57174 4.28791 9.3801L3.56222 10.0681C3.95813 10.4857 4.46 10.6675 5.05749 10.7522C5.63775 10.8345 6.37682 10.8333 7.29157 10.8333V9.83333ZM3.30531 4.58H11.3925V3.58H3.30531V4.58ZM13.2821 6.48757L12.9489 8.10404L13.9283 8.30591L14.2615 6.68944L13.2821 6.48757ZM11.3925 4.58C11.9634 4.58 12.4659 4.58067 12.8624 4.625C13.0594 4.64702 13.2069 4.67762 13.3105 4.71403C13.4181 4.75184 13.4353 4.78085 13.4266 4.76959L14.2192 4.15985C14.0626 3.95624 13.8424 3.84097 13.642 3.77058C13.4377 3.69878 13.2067 3.65725 12.9735 3.63119C12.5096 3.57933 11.9449 3.58 11.3925 3.58V4.58ZM14.2621 6.68637C14.3749 6.12111 14.4707 5.64683 14.4942 5.26692C14.5183 4.87612 14.4738 4.49078 14.2192 4.15985L13.4266 4.76959C13.468 4.82339 13.5137 4.92025 13.4961 5.20532C13.4778 5.50127 13.4 5.89652 13.2814 6.49063L14.2621 6.68637ZM10.8268 10.8333C11.3346 10.8333 11.7608 10.8342 12.1043 10.7922C12.4615 10.7485 12.7872 10.6529 13.0715 10.4212L12.4398 9.646C12.3563 9.71403 12.238 9.76835 11.9828 9.79957C11.7141 9.83246 11.3597 9.83333 10.8268 9.83333V10.8333ZM12.9489 8.10404C12.8413 8.62594 12.7689 8.97284 12.6825 9.22944C12.6004 9.47302 12.5233 9.57797 12.4398 9.646L13.0715 10.4212C13.3559 10.1895 13.5152 9.88976 13.6301 9.54878C13.7406 9.22081 13.8258 8.80327 13.9283 8.30591L12.9489 8.10404Z"
        fill="currentColor" />
</svg>