<svg width="16" height="16" viewBox="0 0 16 16" fill="none" xmlns="http://www.w3.org/2000/svg">
<path d="M15.8937 6.74439L14.2987 3.55314C14.24 3.43568 14.1586 3.33094 14.0594 3.24492C13.9602 3.15889 13.845 3.09325 13.7203 3.05176C13.5957 3.01026 13.4642 2.99371 13.3332 3.00307C13.2022 3.01242 13.0743 3.04748 12.9568 3.10626L11.4025 3.88314L8.1281 3.01689C8.04408 2.99502 7.95587 2.99502 7.87185 3.01689L4.59747 3.88314L3.0431 3.10626C2.92565 3.04748 2.79777 3.01242 2.66677 3.00307C2.53577 2.99371 2.40421 3.01026 2.2796 3.05176C2.15499 3.09325 2.03978 3.15889 1.94054 3.24492C1.8413 3.33094 1.75998 3.43568 1.70122 3.55314L0.106223 6.74376C0.0474452 6.86121 0.0123791 6.98909 0.00302689 7.12009C-0.00632531 7.25109 0.0102196 7.38265 0.0517167 7.50726C0.0932138 7.63187 0.15885 7.74708 0.244878 7.84632C0.330906 7.94556 0.435639 8.02688 0.553098 8.08564L2.2406 8.93001L5.70872 11.4069C5.75985 11.4432 5.81729 11.4697 5.8781 11.485L9.8781 12.485C9.96187 12.506 10.0496 12.505 10.1329 12.482C10.2161 12.459 10.292 12.4148 10.3531 12.3538L13.795 8.91126L15.4462 8.08564C15.6833 7.96697 15.8635 7.75903 15.9473 7.50752C16.0311 7.25601 16.0116 6.98152 15.8931 6.74439H15.8937ZM12.4631 8.83001L10.3125 7.10751C10.2161 7.03035 10.0946 6.99156 9.97141 6.9986C9.84818 7.00564 9.73191 7.05801 9.64497 7.14564C8.53185 8.26689 7.29122 8.12501 6.49997 7.62501L9.20247 5.00001H11.1906L12.8912 8.40064L12.4631 8.83001ZM2.5956 4.00001L3.87497 4.63876L2.27685 7.82939L0.999973 7.19126L2.5956 4.00001ZM9.8456 11.4456L6.21372 10.5381L3.13872 8.34189L4.88872 4.84189L7.99997 4.01751L8.61247 4.17939L5.79997 6.90939L5.79497 6.91501C5.6891 7.02088 5.60835 7.14918 5.55869 7.29042C5.50903 7.43167 5.49172 7.58227 5.50803 7.7311C5.52435 7.87993 5.57388 8.0232 5.65297 8.15033C5.73205 8.27747 5.83868 8.38522 5.96497 8.46564C7.24997 9.28626 8.8006 9.15314 10.0218 8.15314L11.75 9.54126L9.8456 11.4456ZM13.7206 7.82876L12.1256 4.64126L13.4043 4.00001L15 7.19126L13.7206 7.82876ZM8.23622 13.6206C8.20921 13.7287 8.14689 13.8247 8.05914 13.8933C7.97139 13.9619 7.86324 13.9992 7.75185 13.9994C7.71076 13.9994 7.66983 13.9944 7.62997 13.9844L5.0256 13.3331C4.96469 13.3181 4.9072 13.2916 4.85622 13.255L3.20935 12.0788C3.10809 11.9993 3.0414 11.8838 3.02316 11.7563C3.00493 11.6289 3.03656 11.4993 3.11147 11.3946C3.18638 11.2899 3.29879 11.2181 3.42529 11.1942C3.5518 11.1703 3.68265 11.1961 3.7906 11.2663L5.35997 12.3875L7.87497 13.015C8.00359 13.0472 8.11417 13.1291 8.18238 13.2428C8.25059 13.3565 8.27086 13.4926 8.23872 13.6213L8.23622 13.6206Z" fill="#333333"/>
</svg>
