<svg width="16" height="16" viewBox="0 0 16 16" fill="none" xmlns="http://www.w3.org/2000/svg">
    <path
        d="M1.33325 7.99996C1.33325 5.4858 1.33325 4.22872 2.1143 3.44767C2.89535 2.66663 4.15243 2.66663 6.66658 2.66663H9.33325C11.8474 2.66663 13.1045 2.66663 13.8855 3.44767C14.6666 4.22872 14.6666 5.4858 14.6666 7.99996C14.6666 10.5141 14.6666 11.7712 13.8855 12.5522C13.1045 13.3333 11.8474 13.3333 9.33325 13.3333H6.66658C4.15243 13.3333 2.89535 13.3333 2.1143 12.5522C1.33325 11.7712 1.33325 10.5141 1.33325 7.99996Z"
        stroke="currentColor" />
    <path d="M8.00008 6.66663V9.33329M6.84513 7.33329L9.15453 8.66663M9.15437 7.33329L6.84497 8.66663"
        stroke="currentColor" stroke-linecap="round" />
    <path d="M4.48836 6.66663V9.33329M3.33341 7.33329L5.64281 8.66663M5.64265 7.33329L3.33325 8.66663"
        stroke="currentColor" stroke-linecap="round" />
    <path d="M11.5121 6.66663V9.33329M10.3572 7.33329L12.6666 8.66663M12.6664 7.33329L10.357 8.66663"
        stroke="currentColor" stroke-linecap="round" />
</svg>