<svg width="16" height="16" viewBox="0 0 16 16" fill="none" xmlns="http://www.w3.org/2000/svg">
    <path
        d="M9.75 5H14V15.25C14 15.6656 13.6656 16 13.25 16H2.75C2.33437 16 2 15.6656 2 15.25V0.75C2 0.334375 2.33437 0 2.75 0H9V4.25C9 4.6625 9.3375 5 9.75 5ZM13.7812 3.28125L10.7188 0.21875C10.5781 0.078125 10.3875 0 10.1875 0H10V4H14V3.80938C14 3.6125 13.9219 3.42188 13.7812 3.28125Z"
        fill="#C35245" />
    <path
        d="M3.9945 13H3.585C3.51133 13 3.4745 12.9632 3.4745 12.8895V8.931C3.4745 8.85733 3.51133 8.8205 3.585 8.8205H5.132C5.44833 8.8205 5.69533 8.90933 5.873 9.087C6.05067 9.26033 6.1395 9.50733 6.1395 9.828V10.504C6.1395 10.8203 6.05067 11.0673 5.873 11.245C5.69533 11.4227 5.44833 11.5115 5.132 11.5115H4.183C4.131 11.5115 4.105 11.5332 4.105 11.5765V12.8895C4.105 12.9632 4.06817 13 3.9945 13ZM4.1765 10.9525H5.041C5.34867 10.9525 5.5025 10.7922 5.5025 10.4715V9.854C5.5025 9.53333 5.34867 9.373 5.041 9.373H4.1765C4.12883 9.373 4.105 9.39467 4.105 9.438V10.8875C4.105 10.9308 4.12883 10.9525 4.1765 10.9525ZM7.61058 12.4475H8.52708C8.83908 12.4475 8.99508 12.2872 8.99508 11.9665V9.854C8.99508 9.53333 8.83908 9.373 8.52708 9.373H7.61058C7.56292 9.373 7.53908 9.39467 7.53908 9.438V12.376C7.53908 12.4237 7.56292 12.4475 7.61058 12.4475ZM6.90858 12.8895V8.931C6.90858 8.85733 6.94542 8.8205 7.01908 8.8205H8.61808C8.93442 8.8205 9.18142 8.90933 9.35908 9.087C9.54108 9.26033 9.63208 9.50733 9.63208 9.828V11.9925C9.63208 12.3088 9.54108 12.5558 9.35908 12.7335C9.18142 12.9112 8.93442 13 8.61808 13H7.01908C6.94542 13 6.90858 12.9632 6.90858 12.8895ZM11.0341 13H10.6246C10.5509 13 10.5141 12.9632 10.5141 12.8895V8.931C10.5141 8.85733 10.5509 8.8205 10.6246 8.8205H12.6656C12.7392 8.8205 12.7761 8.85733 12.7761 8.931V9.2625C12.7761 9.33617 12.7392 9.373 12.6656 9.373H11.2226C11.1706 9.373 11.1446 9.39467 11.1446 9.438V10.6665C11.1446 10.7142 11.1706 10.738 11.2226 10.738H12.4771C12.5551 10.738 12.5941 10.7748 12.5941 10.8485V11.1735C12.5941 11.2515 12.5551 11.2905 12.4771 11.2905H11.2226C11.1706 11.2905 11.1446 11.3122 11.1446 11.3555V12.8895C11.1446 12.9632 11.1077 13 11.0341 13Z"
        fill="white" />
</svg>