<svg width="16" height="16" viewBox="0 0 16 16" fill="none" xmlns="http://www.w3.org/2000/svg">
    <g clip-path="url(#clip0_23_3477)">
        <path
            d="M10.2619 2.70247L9.9274 3.07412L10.2619 2.70247ZM12.9011 5.07774L12.5666 5.44938L12.9011 5.07774ZM14.4359 6.76944L13.9792 6.97286L13.9792 6.97286L14.4359 6.76944ZM2.1143 13.8857L2.46785 13.5321L2.46785 13.5321L2.1143 13.8857ZM13.8855 13.8857L13.532 13.5321L13.532 13.5321L13.8855 13.8857ZM9.33325 14.1667H6.66658V15.1667H9.33325V14.1667ZM1.83325 9.33337V6.66671H0.833252V9.33337H1.83325ZM14.1666 9.04197V9.33337H15.1666V9.04197H14.1666ZM9.9274 3.07412L12.5666 5.44938L13.2355 4.70609L10.5964 2.33082L9.9274 3.07412ZM15.1666 9.04197C15.1666 7.9164 15.1767 7.20372 14.8927 6.56602L13.9792 6.97286C14.1565 7.37101 14.1666 7.82807 14.1666 9.04197H15.1666ZM12.5666 5.44938C13.4689 6.26144 13.8018 6.5747 13.9792 6.97286L14.8927 6.56602C14.6087 5.92831 14.0722 5.45906 13.2355 4.70609L12.5666 5.44938ZM6.68645 1.83337C7.74098 1.83337 8.13892 1.84109 8.4936 1.9772L8.85187 1.04358C8.28397 0.825655 7.66525 0.833374 6.68645 0.833374V1.83337ZM10.5964 2.33082C9.87237 1.67923 9.41969 1.26147 8.85187 1.04358L8.4936 1.9772C8.84835 2.11333 9.14758 2.37228 9.9274 3.07412L10.5964 2.33082ZM6.66658 14.1667C5.39537 14.1667 4.49226 14.1656 3.80715 14.0735C3.13642 13.9834 2.74999 13.8142 2.46785 13.5321L1.76075 14.2392C2.25966 14.7381 2.89229 14.9595 3.6739 15.0646C4.44113 15.1678 5.42364 15.1667 6.66658 15.1667V14.1667ZM0.833252 9.33337C0.833252 10.5763 0.83219 11.5588 0.935342 12.3261C1.04043 13.1077 1.26184 13.7403 1.76075 14.2392L2.46785 13.5321C2.18571 13.25 2.0166 12.8635 1.92642 12.1928C1.83431 11.5077 1.83325 10.6046 1.83325 9.33337H0.833252ZM9.33325 15.1667C10.5762 15.1667 11.5587 15.1678 12.3259 15.0646C13.1075 14.9595 13.7402 14.7381 14.2391 14.2392L13.532 13.5321C13.2498 13.8142 12.8634 13.9834 12.1927 14.0735C11.5076 14.1656 10.6045 14.1667 9.33325 14.1667V15.1667ZM14.1666 9.33337C14.1666 10.6046 14.1655 11.5077 14.0734 12.1928C13.9832 12.8635 13.8141 13.25 13.532 13.5321L14.2391 14.2392C14.738 13.7403 14.9594 13.1077 15.0645 12.3261C15.1676 11.5588 15.1666 10.5763 15.1666 9.33337H14.1666ZM1.83325 6.66671C1.83325 5.39549 1.83431 4.49238 1.92642 3.80727C2.0166 3.13655 2.18571 2.75012 2.46785 2.46798L1.76075 1.76087C1.26184 2.25978 1.04043 2.89241 0.935342 3.67403C0.83219 4.44126 0.833252 5.42376 0.833252 6.66671H1.83325ZM6.68645 0.833374C5.43684 0.833374 4.44953 0.832321 3.67917 0.935424C2.8948 1.0404 2.26005 1.26157 1.76075 1.76087L2.46785 2.46798C2.7496 2.18623 3.13723 2.01687 3.81182 1.92659C4.50042 1.83443 5.40866 1.83337 6.68645 1.83337V0.833374ZM8.16658 1.66671V3.33337H9.16658V1.66671H8.16658ZM11.9999 7.16671H14.6666V6.16671H11.9999V7.16671ZM8.16658 3.33337C8.16658 4.10491 8.16552 4.73387 8.23206 5.22878C8.30054 5.73808 8.44872 6.17964 8.80119 6.5321L9.50829 5.825C9.3726 5.68931 9.27671 5.49395 9.22315 5.09554C9.16765 4.68274 9.16658 4.13318 9.16658 3.33337H8.16658ZM11.9999 6.16671C11.2001 6.16671 10.6506 6.16565 10.2378 6.11015C9.83934 6.05658 9.64399 5.96069 9.50829 5.825L8.80119 6.5321C9.15365 6.88457 9.59521 7.03276 10.1045 7.10123C10.5994 7.16777 11.2284 7.16671 11.9999 7.16671V6.16671Z"
            fill="currentColor" />
        <path
            d="M4.03628 12.3527C3.90595 12.3013 3.80106 12.2007 3.74428 12.0727C3.61428 11.814 3.65761 11.5553 3.79761 11.338C3.92961 11.1333 4.14828 10.9593 4.39561 10.8133C4.70895 10.6357 5.04011 10.4916 5.38361 10.3833C5.64994 9.90348 5.88639 9.40765 6.09161 8.89866C5.96931 8.62046 5.87334 8.33142 5.80495 8.03532C5.74761 7.76866 5.72561 7.50466 5.77428 7.27799C5.82428 7.04199 5.95695 6.82999 6.20761 6.72932C6.33561 6.67799 6.47428 6.64932 6.60895 6.67799C6.67669 6.69241 6.74037 6.72173 6.79537 6.76382C6.85037 6.80591 6.89532 6.85971 6.92695 6.92132C6.98561 7.03066 7.00695 7.15866 7.01161 7.27999C7.01628 7.40466 7.00361 7.54332 6.98028 7.68932C6.92428 8.02932 6.80028 8.44532 6.63361 8.88532C6.81768 9.27859 7.03632 9.65474 7.28695 10.0093C7.58368 9.98617 7.8821 9.99735 8.17628 10.0427C8.41895 10.086 8.66561 10.1727 8.81628 10.3527C8.89628 10.4487 8.94494 10.566 8.94961 10.698C8.95428 10.826 8.91828 10.9527 8.85761 11.0733C8.80506 11.1851 8.72358 11.2809 8.62161 11.3507C8.52074 11.4162 8.40179 11.4484 8.28161 11.4427C8.06095 11.4333 7.84561 11.312 7.65961 11.1647C7.43339 10.9777 7.22959 10.7652 7.05228 10.5313C6.60142 10.5823 6.15592 10.6729 5.72095 10.802C5.52153 11.1553 5.29391 11.492 5.04028 11.8087C4.84695 12.042 4.63495 12.2453 4.42295 12.3333C4.30103 12.388 4.16304 12.3949 4.03628 12.3527ZM4.95561 11.0853C4.8445 11.1364 4.7425 11.1893 4.64961 11.244C4.43095 11.3733 4.28895 11.4993 4.21828 11.6087C4.15561 11.7053 4.15428 11.7753 4.19161 11.8493C4.19872 11.8635 4.2045 11.8733 4.20895 11.8787L4.23228 11.8707C4.32361 11.8333 4.46895 11.714 4.65561 11.4893C4.76191 11.3595 4.86202 11.2246 4.95561 11.0853ZM6.04895 10.1987C6.27161 10.1469 6.49623 10.104 6.72228 10.07C6.60106 9.88412 6.48763 9.69329 6.38228 9.49799C6.27765 9.73436 6.1665 9.96778 6.04895 10.198V10.1987ZM7.67961 10.4987C7.78006 10.6071 7.87672 10.6982 7.96961 10.772C8.12961 10.8987 8.24095 10.9407 8.30161 10.9427C8.31787 10.9452 8.33449 10.9416 8.34828 10.9327C8.37617 10.9109 8.39779 10.8822 8.41095 10.8493C8.43455 10.8087 8.44804 10.7629 8.45028 10.716C8.4496 10.7004 8.44346 10.6855 8.43295 10.674C8.39828 10.6327 8.29961 10.5727 8.08761 10.5347C7.95272 10.5124 7.81632 10.5006 7.67961 10.4993V10.4987ZM6.35295 8.16132C6.40855 7.9802 6.45308 7.79586 6.48628 7.60932C6.50672 7.48399 6.51517 7.38066 6.51161 7.29932C6.51196 7.25444 6.50475 7.20982 6.49028 7.16732C6.4569 7.17129 6.42431 7.18028 6.39361 7.19399C6.33561 7.21732 6.28828 7.26466 6.26295 7.38266C6.23628 7.51066 6.24295 7.69532 6.29361 7.93066C6.30961 8.00488 6.32961 8.08177 6.35361 8.16132H6.35295Z"
            fill="currentColor" stroke="currentColor" stroke-width="0.133333" />
    </g>
    <defs>
        <clipPath id="clip0_23_3477">
            <rect width="16" height="16" fill="white" />
        </clipPath>
    </defs>
</svg>