<svg width="16" height="16" viewBox="0 0 16 16" fill="none" xmlns="http://www.w3.org/2000/svg">
    <path
        d="M8.54477 2.02938C8.54477 1.88549 8.60193 1.74749 8.70368 1.64574C8.80542 1.54399 8.94342 1.48683 9.08732 1.48683C10.5258 1.48841 11.9048 2.06053 12.922 3.07767C13.9391 4.09481 14.5112 5.47389 14.5128 6.91234C14.5128 7.05623 14.4557 7.19423 14.3539 7.29598C14.2522 7.39773 14.1142 7.45489 13.9703 7.45489C13.8264 7.45489 13.6884 7.39773 13.5866 7.29598C13.4849 7.19423 13.4277 7.05623 13.4277 6.91234C13.4264 5.76159 12.9687 4.65834 12.155 3.84463C11.3413 3.03093 10.2381 2.57322 9.08732 2.57193C8.94342 2.57193 8.80542 2.51477 8.70368 2.41302C8.60193 2.31127 8.54477 2.17327 8.54477 2.02938ZM9.08732 4.74213C9.66289 4.74213 10.2149 4.97078 10.6219 5.37777C11.0289 5.78476 11.2575 6.33676 11.2575 6.91234C11.2575 7.05623 11.3147 7.19423 11.4164 7.29598C11.5182 7.39773 11.6562 7.45489 11.8001 7.45489C11.944 7.45489 12.082 7.39773 12.1837 7.29598C12.2855 7.19423 12.3426 7.05623 12.3426 6.91234C12.3418 6.04924 11.9985 5.22174 11.3882 4.61144C10.7779 4.00114 9.95041 3.65789 9.08732 3.65703C8.94342 3.65703 8.80542 3.71419 8.70368 3.81594C8.60193 3.91769 8.54477 4.05569 8.54477 4.19958C8.54477 4.34348 8.60193 4.48148 8.70368 4.58322C8.80542 4.68497 8.94342 4.74213 9.08732 4.74213ZM14.0207 10.5686C14.3351 10.8839 14.5117 11.311 14.5117 11.7562C14.5117 12.2015 14.3351 12.6286 14.0207 12.9439L13.527 13.513C9.08352 17.7671 -1.7295 6.95682 2.45898 2.49923L3.08292 1.95668C3.39855 1.65105 3.82183 1.48197 4.26117 1.48603C4.70052 1.49009 5.1206 1.66697 5.43053 1.97838C5.44735 1.9952 6.45269 3.30112 6.45269 3.30112C6.751 3.61451 6.91707 4.03081 6.91636 4.46348C6.91565 4.89615 6.74823 5.3119 6.4489 5.62432L5.82062 6.41427C6.16832 7.25909 6.67951 8.02687 7.32485 8.67351C7.97018 9.32015 8.73693 9.83289 9.58104 10.1823L10.3759 9.55022C10.6883 9.25112 11.104 9.08389 11.5365 9.08329C11.9691 9.08268 12.3852 9.24874 12.6985 9.54696C12.6985 9.54696 14.0039 10.5518 14.0207 10.5686ZM13.2742 11.3575C13.2742 11.3575 11.9759 10.3586 11.959 10.3418C11.8473 10.231 11.6962 10.1688 11.5388 10.1688C11.3814 10.1688 11.2304 10.231 11.1186 10.3418C11.104 10.357 10.0097 11.2289 10.0097 11.2289C9.93591 11.2876 9.84814 11.326 9.755 11.3405C9.66187 11.355 9.56657 11.3449 9.4785 11.3113C8.38496 10.9042 7.39171 10.2668 6.566 9.44229C5.74029 8.6178 5.10142 7.62548 4.69266 6.53255C4.65642 6.44328 4.6446 6.34596 4.65843 6.25061C4.67226 6.15525 4.71122 6.0653 4.77133 5.99C4.77133 5.99 5.64321 4.89513 5.65786 4.88103C5.76868 4.76925 5.83087 4.61822 5.83087 4.46082C5.83087 4.30342 5.76868 4.15239 5.65786 4.04061C5.64104 4.02434 4.6422 2.72493 4.6422 2.72493C4.52876 2.6232 4.3807 2.56873 4.22837 2.57266C4.07605 2.57659 3.931 2.63864 3.82295 2.74609L3.19902 3.28864C0.137954 6.9693 9.50834 15.8199 12.7338 12.7719L13.2281 12.2022C13.3439 12.0949 13.4135 11.9468 13.4221 11.7892C13.4307 11.6315 13.3776 11.4767 13.2742 11.3575Z"
        fill="currentColor" />
</svg>