<svg width="16" height="16" viewBox="0 0 16 16" fill="none" xmlns="http://www.w3.org/2000/svg">
    <path
        d="M1.14276 14.1666C1.05123 14.2583 0.999878 14.3827 1 14.5122C1.00012 14.6418 1.05171 14.766 1.14342 14.8575C1.23512 14.9491 1.35943 15.0004 1.489 15.0003C1.61857 15.0002 1.74278 14.9486 1.83432 14.8569L1.14276 14.1666ZM4.86425 11.8237C4.95317 11.7315 5.00234 11.6082 5.00117 11.4801C5 11.352 4.94858 11.2296 4.85798 11.1391C4.76739 11.0486 4.64487 10.9973 4.51682 10.9962C4.38876 10.9952 4.26542 11.0444 4.17335 11.1334L4.86425 11.8237ZM10.2521 3.75428L12.259 5.76382L12.9499 5.07357L10.943 3.06403L10.2521 3.75428ZM6.22131 12.4931L3.54041 9.8096L2.85016 10.5005L5.53041 13.1827L6.22131 12.4931ZM11.4529 9.49313L10.2046 9.96197L10.5484 10.8762L11.7967 10.408L11.4529 9.49313ZM6.06959 5.81201L6.52216 4.57803L5.60464 4.24137L5.15273 5.476L6.06959 5.81201ZM4.12126 7.60666C4.5849 7.47903 4.93719 7.38917 5.22566 7.18209L4.65457 6.38896C4.54257 6.47035 4.39606 6.51789 3.86209 6.66505L4.12126 7.60666ZM5.15273 5.476C4.96193 5.99694 4.90202 6.1389 4.81216 6.24439L5.55581 6.87799C5.78567 6.60775 5.90354 6.26328 6.06959 5.81201L5.15273 5.476ZM5.22566 7.18209C5.34764 7.09397 5.45769 6.9926 5.55581 6.87799L4.81216 6.24439C4.76548 6.2986 4.71259 6.34712 4.65457 6.38896L5.22566 7.18209ZM10.2046 9.96197C9.75591 10.1313 9.41404 10.2511 9.14576 10.4829L9.78521 11.2227C9.8894 11.1315 10.0307 11.0703 10.5484 10.8762L10.2046 9.96197ZM9.36976 12.1675C9.51628 11.6342 9.56381 11.4883 9.64456 11.3757L8.85077 10.8066C8.64435 11.095 8.55514 11.4467 8.42751 11.909L9.36976 12.1675ZM9.14576 10.4836C9.03462 10.5791 8.93629 10.6872 8.85077 10.8066L9.64521 11.3757C9.68558 11.3184 9.73225 11.2678 9.78521 11.2227L9.14576 10.4836ZM3.54041 9.80895C3.11974 9.38763 2.83453 9.10112 2.64959 8.86864C2.46336 8.63487 2.44447 8.53394 2.44382 8.48901L1.46705 8.49487C1.46966 8.87385 1.65785 9.19163 1.88511 9.47685C2.11302 9.76336 2.44577 10.0955 2.84951 10.4992L3.54041 9.80895ZM3.86209 6.66505C3.31119 6.81743 2.85797 6.94115 2.51871 7.0779C2.18009 7.21335 1.85906 7.39698 1.67022 7.72517L2.5174 8.21226C2.53954 8.17319 2.60596 8.09504 2.88206 7.98434C3.15816 7.87364 3.54757 7.7649 4.12126 7.60666L3.86209 6.66505ZM2.44382 8.48836C2.44325 8.39149 2.46842 8.29621 2.51675 8.21226L1.67022 7.72517C1.53549 7.9592 1.46538 8.22483 1.46705 8.49487L2.44382 8.48836ZM5.53041 13.1827C5.93675 13.589 6.2708 13.9251 6.55797 14.1536C6.84514 14.3828 7.16487 14.5717 7.54646 14.5723L7.54776 13.5956C7.50218 13.5956 7.40125 13.5767 7.16682 13.3898C6.9324 13.2035 6.64458 12.917 6.22131 12.4931L5.53041 13.1827ZM8.42816 11.9083C8.26862 12.4866 8.15987 12.8786 8.04852 13.1567C7.93652 13.4354 7.85772 13.5018 7.81865 13.5239L8.30248 14.3724C8.63393 14.1836 8.81821 13.8606 8.95496 13.52C9.09171 13.1788 9.21673 12.7223 9.36976 12.1675L8.42816 11.9083ZM7.54646 14.5723C7.81149 14.5723 8.07196 14.5039 8.30248 14.3724L7.81865 13.5239C7.73611 13.5709 7.64275 13.5956 7.54776 13.5956L7.54646 14.5723ZM12.259 5.76382C12.9519 6.45668 13.4312 6.9379 13.7242 7.33512C14.0133 7.72452 14.0465 7.93225 14.0114 8.09504L14.966 8.30147C15.0897 7.72973 14.8618 7.22898 14.5095 6.75362C14.1618 6.28477 13.62 5.74364 12.9499 5.07357L12.259 5.76382ZM11.7967 10.4067C12.683 10.074 13.4006 9.80569 13.9104 9.52243C14.4281 9.23591 14.8423 8.87385 14.966 8.30147L14.0114 8.09504C13.9762 8.25784 13.8603 8.43366 13.4364 8.66808C13.0046 8.90837 12.3697 9.148 11.4529 9.49247L11.7967 10.4067ZM10.943 3.06403C10.2684 2.38876 9.724 1.84242 9.2532 1.49209C8.77524 1.13785 8.27122 0.907981 7.69688 1.03496L7.90786 1.98829C8.07066 1.95247 8.27839 1.98503 8.67039 2.27676C9.06957 2.57305 9.5547 3.05557 10.2521 3.75428L10.943 3.06403ZM6.5215 4.57737C6.86142 3.65075 7.09845 3.00803 7.33613 2.57174C7.57055 2.14196 7.74507 2.02475 7.90786 1.98829L7.69753 1.03496C7.12319 1.16129 6.76309 1.58195 6.47853 2.1042C6.19787 2.61993 5.93349 3.34534 5.60464 4.24137L6.5215 4.57737ZM1.83301 14.8569L4.86425 11.8237L4.17335 11.1334L1.14211 14.1666L1.83301 14.8569Z"
        fill="currentColor" />
</svg>