<svg width="16" height="16" viewBox="0 0 16 16" fill="none" xmlns="http://www.w3.org/2000/svg">
    <g clip-path="url(#clip0_23_3469)">
        <path
            d="M0.979901 14.3133C0.886191 14.4072 0.833615 14.5345 0.83374 14.6671C0.833865 14.7998 0.886681 14.9269 0.980567 15.0206C1.07445 15.1143 1.20172 15.1669 1.33437 15.1668C1.46702 15.1667 1.59419 15.1139 1.6879 15.02L0.979901 14.3133ZM4.7899 11.9146C4.88094 11.8203 4.93127 11.694 4.93007 11.5629C4.92887 11.4318 4.87623 11.3064 4.78348 11.2137C4.69073 11.1211 4.5653 11.0685 4.4342 11.0675C4.3031 11.0664 4.17683 11.1168 4.08257 11.208L4.7899 11.9146ZM10.3059 3.6533L12.3606 5.71063L13.0679 5.00396L11.0132 2.94663L10.3059 3.6533ZM6.17923 12.6L3.43457 9.85263L2.7279 10.56L5.4719 13.306L6.17923 12.6ZM11.5352 9.52863L10.2572 10.0086L10.6092 10.9446L11.8872 10.4653L11.5352 9.52863ZM6.0239 5.75996L6.48723 4.49663L5.5479 4.15196L5.08523 5.41596L6.0239 5.75996ZM4.02923 7.5973C4.5039 7.46663 4.86457 7.37463 5.1599 7.16263L4.57523 6.35063C4.46057 6.43396 4.31057 6.48263 3.7639 6.6333L4.02923 7.5973ZM5.08523 5.41596C4.8899 5.9493 4.82857 6.09463 4.73657 6.20263L5.4979 6.8513C5.73323 6.57463 5.8539 6.22196 6.0239 5.75996L5.08523 5.41596ZM5.1599 7.16263C5.28457 7.07263 5.3979 6.96796 5.4979 6.8513L4.73657 6.20263C4.68894 6.25828 4.63477 6.30797 4.57523 6.35063L5.1599 7.16263ZM10.2572 10.0086C9.7979 10.182 9.4479 10.3046 9.17323 10.542L9.8279 11.2993C9.93457 11.206 10.0792 11.1433 10.6092 10.9446L10.2572 10.0086ZM9.40257 12.2666C9.55257 11.7206 9.60123 11.5713 9.6839 11.456L8.87123 10.8733C8.6599 11.1686 8.56857 11.5286 8.4379 12.002L9.40257 12.2666ZM9.17323 10.5426C9.0599 10.64 8.95857 10.752 8.87123 10.8733L9.68457 11.456C9.7259 11.398 9.7739 11.3453 9.8279 11.2993L9.17323 10.5426ZM3.43457 9.85196C3.0039 9.42063 2.7119 9.1273 2.52257 8.8893C2.3319 8.64996 2.31257 8.54663 2.3119 8.50063L1.3119 8.50663C1.31457 8.89463 1.50723 9.21996 1.7399 9.51196C1.97323 9.8053 2.3139 10.1453 2.72723 10.5586L3.43457 9.85196ZM3.7639 6.6333C3.1999 6.7893 2.7359 6.91596 2.38857 7.05596C2.0419 7.19463 1.71323 7.38263 1.5199 7.71863L2.38723 8.2173C2.4099 8.1773 2.4779 8.0973 2.76057 7.98396C3.04323 7.87063 3.4419 7.7593 4.02923 7.5973L3.7639 6.6333ZM2.3119 8.49996C2.31132 8.40079 2.33709 8.30325 2.38657 8.2173L1.5199 7.71863C1.38197 7.95823 1.31018 8.23017 1.3119 8.50663L2.3119 8.49996ZM5.4719 13.306C5.8879 13.722 6.2299 14.066 6.5239 14.3C6.8179 14.5346 7.14523 14.728 7.5359 14.7286L7.53723 13.7286C7.49057 13.7286 7.38723 13.7093 7.14723 13.518C6.90723 13.3273 6.61257 13.034 6.17923 12.6L5.4719 13.306ZM8.43857 12.0013C8.27523 12.5933 8.1639 12.9946 8.0499 13.2793C7.93523 13.5646 7.85457 13.6326 7.81457 13.6553L8.3099 14.524C8.64923 14.3306 8.8379 14 8.9779 13.6513C9.1179 13.302 9.2459 12.8346 9.40257 12.2666L8.43857 12.0013ZM7.5359 14.7286C7.80723 14.7286 8.0739 14.6586 8.3099 14.524L7.81457 13.6553C7.73012 13.7036 7.6345 13.7288 7.53723 13.7286L7.5359 14.7286ZM12.3606 5.71063C13.0699 6.41996 13.5606 6.91263 13.8606 7.3193C14.1566 7.71796 14.1906 7.93063 14.1546 8.0973L15.1319 8.30863C15.2586 7.7233 15.0252 7.21063 14.6646 6.72396C14.3086 6.24396 13.7539 5.68996 13.0679 5.00396L12.3606 5.71063ZM11.8872 10.464C12.7946 10.1233 13.5292 9.84863 14.0512 9.55863C14.5812 9.2653 15.0052 8.89463 15.1319 8.30863L14.1546 8.0973C14.1186 8.26396 13.9999 8.44396 13.5659 8.68396C13.1239 8.92996 12.4739 9.1753 11.5352 9.52796L11.8872 10.464ZM11.0132 2.94663C10.3226 2.2553 9.76523 1.69596 9.28323 1.3373C8.7939 0.97463 8.2779 0.739297 7.6899 0.869297L7.9059 1.8453C8.07257 1.80863 8.28523 1.84196 8.68657 2.14063C9.09523 2.44396 9.5919 2.93796 10.3059 3.6533L11.0132 2.94663ZM6.48657 4.49596C6.83457 3.5473 7.07723 2.8893 7.32057 2.44263C7.56057 2.00263 7.73923 1.88263 7.9059 1.8453L7.69057 0.869297C7.10257 0.99863 6.7339 1.4293 6.44257 1.96396C6.15523 2.49196 5.88457 3.23463 5.5479 4.15196L6.48657 4.49596ZM1.68657 15.02L4.7899 11.9146L4.08257 11.208L0.979234 14.3133L1.68657 15.02Z"
            fill="currentColor" />
    </g>
    <defs>
        <clipPath id="clip0_23_3469">
            <rect width="16" height="16" fill="white" />
        </clipPath>
    </defs>
</svg>