<svg width="16" height="16" viewBox="0 0 16 16" fill="none" xmlns="http://www.w3.org/2000/svg">
    <path
        d="M10.3314 4.90221C11.9438 6.21752 12.75 6.87518 12.75 8C12.75 9.12482 11.9438 9.78248 10.3314 11.0978C9.88631 11.4609 9.44484 11.8028 9.03917 12.0876C8.68327 12.3375 8.2802 12.5961 7.8629 12.8498C6.2543 13.828 5.44999 14.3171 4.72862 13.7756C4.00725 13.2341 3.94169 12.1005 3.81057 9.83323C3.77349 9.19205 3.75 8.56349 3.75 8C3.75 7.43651 3.77349 6.80795 3.81057 6.16677C3.94169 3.89953 4.00725 2.76591 4.72862 2.2244C5.44999 1.68288 6.2543 2.17198 7.8629 3.15019C8.2802 3.40395 8.68327 3.66246 9.03917 3.91238C9.44484 4.19725 9.88631 4.53911 10.3314 4.90221Z"
        fill="currentColor" />
</svg>