<svg width="16" height="16" viewBox="0 0 16 16" fill="none" xmlns="http://www.w3.org/2000/svg">
<path fill-rule="evenodd" clip-rule="evenodd" d="M8.0335 0.833374H7.96683C7.52416 0.833374 7.14216 0.833374 6.83616 0.874707C6.50883 0.918707 6.19416 1.01804 5.9395 1.27271C5.68483 1.52737 5.5855 1.84204 5.5415 2.16937C5.50016 2.47537 5.50016 2.85737 5.50016 3.30071V4.91871C5.33939 4.8627 5.17041 4.83386 5.00016 4.83337H3.00016C2.80318 4.83337 2.60813 4.87217 2.42614 4.94755C2.24415 5.02294 2.07879 5.13343 1.9395 5.27271C1.80021 5.412 1.68973 5.57736 1.61434 5.75935C1.53896 5.94134 1.50016 6.13639 1.50016 6.33337V14.1667H1.3335C1.20089 14.1667 1.07371 14.2194 0.979943 14.3132C0.886175 14.4069 0.833496 14.5341 0.833496 14.6667C0.833496 14.7993 0.886175 14.9265 0.979943 15.0203C1.07371 15.114 1.20089 15.1667 1.3335 15.1667H14.6668C14.7994 15.1667 14.9266 15.114 15.0204 15.0203C15.1142 14.9265 15.1668 14.7993 15.1668 14.6667C15.1668 14.5341 15.1142 14.4069 15.0204 14.3132C14.9266 14.2194 14.7994 14.1667 14.6668 14.1667H14.5002V9.66671C14.5002 9.26888 14.3421 8.88735 14.0608 8.60605C13.7795 8.32474 13.398 8.16671 13.0002 8.16671H11.0002C10.8242 8.1676 10.6575 8.19604 10.5002 8.25204V3.30071C10.5002 2.85737 10.5002 2.47537 10.4588 2.16937C10.4148 1.84204 10.3155 1.52737 10.0608 1.27271C9.80616 1.01804 9.49216 0.918707 9.16416 0.874707C8.85816 0.833374 8.47616 0.833374 8.03283 0.833374M13.4995 14.1667V9.66671C13.4995 9.5341 13.4468 9.40692 13.353 9.31315C13.2593 9.21939 13.1321 9.16671 12.9995 9.16671H10.9995C10.8669 9.16671 10.7397 9.21939 10.6459 9.31315C10.5522 9.40692 10.4995 9.5341 10.4995 9.66671V14.1667H13.4995ZM9.4995 14.1667V3.33337C9.4995 2.84804 9.49816 2.53337 9.4675 2.30271C9.43816 2.08604 9.39083 2.01804 9.35283 1.98004C9.31483 1.94204 9.24683 1.89471 9.03016 1.86537C8.79883 1.83471 8.48483 1.83337 7.9995 1.83337C7.51416 1.83337 7.1995 1.83471 6.96883 1.86537C6.75216 1.89471 6.68416 1.94204 6.64616 1.98004C6.60816 2.01804 6.56083 2.08604 6.5315 2.30271C6.50083 2.53404 6.4995 2.84804 6.4995 3.33337V14.1667H9.4995ZM5.4995 14.1667V6.33337C5.4995 6.20077 5.44682 6.07359 5.35305 5.97982C5.25928 5.88605 5.1321 5.83337 4.9995 5.83337H2.9995C2.86689 5.83337 2.73971 5.88605 2.64594 5.97982C2.55217 6.07359 2.4995 6.20077 2.4995 6.33337V14.1667H5.4995Z" fill="#333333"/>
</svg>
