<svg width="16" height="16" viewBox="0 0 16 16" fill="none" xmlns="http://www.w3.org/2000/svg">
    <g clip-path="url(#clip0_23_2718)">
        <path
            d="M4.00004 11.9885C2.96441 11.9572 2.3467 11.8417 1.91916 11.4142C1.33337 10.8284 1.33337 9.88562 1.33337 8C1.33337 6.11438 1.33337 5.17157 1.91916 4.58579C2.50495 4 3.44776 4 5.33337 4H10.6667C12.5523 4 13.4951 4 14.0809 4.58579C14.6667 5.17157 14.6667 6.11438 14.6667 8C14.6667 9.88562 14.6667 10.8284 14.0809 11.4142C13.6534 11.8417 13.0357 11.9572 12 11.9885"
            stroke="currentColor" />
        <path
            d="M11.4142 1.91916L11.0607 2.27271V2.27271L11.4142 1.91916ZM4.58579 1.91916L4.93934 2.27271L4.93934 2.27271L4.58579 1.91916ZM4.58579 14.0809L4.93934 13.7274H4.93934L4.58579 14.0809ZM12.5 8.00004C12.5 7.7239 12.2761 7.50004 12 7.50004C11.7239 7.50004 11.5 7.7239 11.5 8.00004H12.5ZM4.5 8.00004C4.5 7.7239 4.27614 7.50004 4 7.50004C3.72386 7.50004 3.5 7.7239 3.5 8.00004H4.5ZM11.5 10.6667C11.5 11.6237 11.4989 12.2911 11.4312 12.7946C11.3655 13.2838 11.2452 13.5429 11.0607 13.7274L11.7678 14.4345C12.169 14.0332 12.3416 13.5279 12.4223 12.9279C12.5011 12.3422 12.5 11.5954 12.5 10.6667H11.5ZM8 15.1667C8.92868 15.1667 9.67548 15.1678 10.2612 15.089C10.8612 15.0083 11.3665 14.8358 11.7678 14.4345L11.0607 13.7274C10.8762 13.9119 10.6171 14.0322 10.1279 14.0979C9.62435 14.1656 8.95694 14.1667 8 14.1667V15.1667ZM8 1.83337C8.95694 1.83337 9.62435 1.83444 10.1279 1.90214C10.6171 1.96791 10.8762 2.08821 11.0607 2.27271L11.7678 1.56561C11.3665 1.16433 10.8612 0.991733 10.2612 0.911056C9.67548 0.832312 8.92867 0.833374 8 0.833374V1.83337ZM8 0.833374C7.07133 0.833374 6.32452 0.832312 5.73883 0.911056C5.13876 0.991734 4.63351 1.16433 4.23223 1.56561L4.93934 2.27271C5.12385 2.08821 5.3829 1.96791 5.87208 1.90214C6.37565 1.83444 7.04306 1.83337 8 1.83337V0.833374ZM3.5 10.6667C3.5 11.5954 3.49894 12.3422 3.57768 12.9279C3.65836 13.5279 3.83096 14.0332 4.23223 14.4345L4.93934 13.7274C4.75483 13.5429 4.63453 13.2838 4.56876 12.7946C4.50106 12.2911 4.5 11.6237 4.5 10.6667H3.5ZM8 14.1667C7.04306 14.1667 6.37565 14.1656 5.87208 14.0979C5.3829 14.0322 5.12385 13.9119 4.93934 13.7274L4.23223 14.4345C4.63351 14.8358 5.13876 15.0083 5.73883 15.089C6.32452 15.1678 7.07133 15.1667 8 15.1667V14.1667ZM12.4882 3.98498C12.4572 2.95685 12.3491 2.14695 11.7678 1.56561L11.0607 2.27271C11.3344 2.54644 11.4572 2.97197 11.4887 4.0151L12.4882 3.98498ZM4.51132 4.0151C4.54275 2.97197 4.66562 2.54644 4.93934 2.27271L4.23223 1.56561C3.65089 2.14695 3.54275 2.95685 3.51178 3.98498L4.51132 4.0151ZM12.5 10.6667V8.00004H11.5V10.6667H12.5ZM4.5 10.6667V8.00004H3.5V10.6667H4.5Z"
            fill="currentColor" />
        <path d="M13 8.29541C11.9153 7.80837 10.2743 7.33335 8 7.33335C5.72569 7.33335 4.08475 7.80837 3 8.29541"
            stroke="currentColor" stroke-linecap="round" />
    </g>
    <defs>
        <clipPath id="clip0_23_2718">
            <rect width="16" height="16" fill="white" />
        </clipPath>
    </defs>
</svg>