<svg width="16" height="16" viewBox="0 0 16 16" fill="none" xmlns="http://www.w3.org/2000/svg">
  <path
    d="M14.5 8C14.5 11.5899 11.5899 14.5 8 14.5C4.41015 14.5 1.5 11.5899 1.5 8C1.5 4.41015 4.41015 1.5 8 1.5C11.5899 1.5 14.5 4.41015 14.5 8ZM2.29775 8C2.29775 11.1493 4.85073 13.7022 8 13.7022C11.1493 13.7022 13.7022 11.1493 13.7022 8C13.7022 4.85073 11.1493 2.29775 8 2.29775C4.85073 2.29775 2.29775 4.85073 2.29775 8Z"
    fill="currentColor" />
  <path
    d="M11.6111 8C11.6111 9.99436 9.99436 11.6111 8 11.6111C6.00564 11.6111 4.38889 9.99436 4.38889 8C4.38889 6.00564 6.00564 4.38889 8 4.38889C9.99436 4.38889 11.6111 6.00564 11.6111 8Z"
    fill="currentColor" />
</svg>