<svg width="75" height="16" viewBox="0 0 75 16" fill="none" xmlns="http://www.w3.org/2000/svg">
<g clip-path="url(#clip0_23_3530)">
<path d="M16.9409 3.06372C18.0626 3.06975 18.8527 3.31702 19.2989 3.81758C19.7452 4.31815 19.8538 5.0298 19.6065 5.96459C19.4437 6.60386 19.112 7.18886 18.6476 7.65324C18.1651 8.13572 17.5741 8.48551 16.9167 8.66643C17.4173 8.78102 17.7249 9.13685 17.8214 9.74597L17.8395 9.87865L18.2013 12.9484H15.9699L15.596 9.64344C15.5899 9.53489 15.5598 9.42633 15.5055 9.32984C15.4512 9.23334 15.3728 9.15494 15.2824 9.09463C15.0954 8.99814 14.8904 8.94989 14.6793 8.94386H14.5526H13.1776L12.1282 12.9423H10.0415L12.6348 3.06372H16.9409ZM74.1078 5.65098L71.4542 9.47458L68.3242 14.0098L68.3001 14.0339L67.6005 15.0471L67.5764 15.0833L67.5462 15.1316L66.9431 16H64.8685L67.2929 12.5805L66.1953 5.89222H68.3483L68.8911 10.2526L71.5206 6.51943L71.5568 6.46515L71.599 6.40484L71.6412 6.35057L71.9669 5.65701H74.1078V5.65098ZM55.7256 6.1817C56.1237 6.51943 56.383 6.98381 56.4735 7.50247C56.582 8.14778 56.5338 8.81721 56.3468 9.44442C56.1719 10.138 55.8764 10.7893 55.4663 11.3683C55.0924 11.899 54.6099 12.3393 54.049 12.6529C53.5183 12.9423 52.9333 13.0931 52.3302 13.0931C51.902 13.1112 51.4799 13.0027 51.112 12.7855C50.8285 12.6167 50.6114 12.3574 50.4908 12.0498L50.4546 11.9292L49.3871 16H47.3185L49.4354 7.9186L49.4475 7.88242L49.4535 7.84623L49.9721 5.88619H51.9925L51.6487 7.02L51.6427 7.06824C51.9382 6.64608 52.3363 6.30232 52.7946 6.07917C53.253 5.83794 53.7596 5.71732 54.2722 5.71732C54.7848 5.68717 55.3035 5.85603 55.7256 6.1817ZM53.2288 7.30345C52.9876 7.29742 52.7464 7.34567 52.5172 7.43613C52.294 7.52659 52.089 7.6653 51.9141 7.83417C51.504 8.25633 51.2205 8.79308 51.0939 9.36602C50.913 10.0355 50.925 10.542 51.106 10.8918C51.2869 11.2416 51.6306 11.4226 52.1433 11.4226C52.6318 11.4346 53.1022 11.2477 53.458 10.9039C53.8561 10.4878 54.1335 9.96911 54.2601 9.40221C54.435 8.74484 54.423 8.22015 54.242 7.85226C54.0611 7.48438 53.7234 7.30345 53.2288 7.30345ZM62.5164 6.0249C62.7939 6.19979 63.011 6.45912 63.1316 6.7667L63.1738 6.88129L63.4392 5.88016H65.4656L63.608 12.9363H61.5756L61.847 11.893C61.5394 12.2609 61.1535 12.5503 60.7192 12.7494C60.2971 12.9423 59.8447 13.0449 59.3864 13.0449C58.8557 13.069 58.325 12.9182 57.8907 12.5986C57.4927 12.285 57.2273 11.8266 57.1429 11.3261C57.0343 10.6868 57.0705 10.0355 57.2575 9.41427C57.4384 8.72071 57.74 8.06334 58.1561 7.47835C58.536 6.94159 59.0245 6.48928 59.5914 6.16361C60.1101 5.86206 60.7011 5.69923 61.2982 5.69923C61.7324 5.68717 62.1546 5.79572 62.5164 6.0249ZM61.4671 7.32154C61.2198 7.32154 60.9725 7.36979 60.7494 7.46628C60.5202 7.56278 60.3152 7.70149 60.1403 7.87639C59.7362 8.30458 59.4467 8.8353 59.3201 9.41427C59.1512 10.0656 59.1512 10.5601 59.3442 10.916C59.5311 11.2718 59.8809 11.4407 60.3996 11.4407C60.6408 11.4467 60.8821 11.3984 61.1112 11.308C61.3404 11.2175 61.5394 11.0788 61.7143 10.9099C62.0701 10.53 62.3295 10.0777 62.4742 9.57107L62.5225 9.38411C62.7034 8.71468 62.6974 8.20205 62.5044 7.85829C62.3174 7.50247 61.9737 7.32154 61.4671 7.32154ZM48.9288 5.80778L49.0615 5.86206L48.5428 7.78592C48.2473 7.62912 47.9216 7.55072 47.596 7.55072C47.1014 7.53262 46.619 7.69546 46.227 8.00304C45.8892 8.29252 45.642 8.6785 45.5153 9.10066L45.4731 9.26349L44.5081 12.9484H42.4456L44.3152 5.89222H46.3476L46.0822 6.92953C46.3355 6.57974 46.6612 6.29629 47.0291 6.08521C47.4392 5.85 47.8975 5.72938 48.3679 5.72938C48.5549 5.71732 48.7479 5.74144 48.9288 5.80778ZM41.3118 6.14551C41.7701 6.435 42.1018 6.89335 42.2285 7.42407C42.3792 8.06334 42.3551 8.73881 42.1621 9.36602C41.9812 10.0777 41.6616 10.7411 41.2092 11.308C40.781 11.8568 40.2383 12.291 39.6171 12.5865C38.9838 12.882 38.2963 13.0328 37.5967 13.0268C36.861 13.0268 36.2579 12.882 35.7875 12.5865C35.3231 12.297 34.9914 11.8387 34.8587 11.308C34.714 10.6687 34.7381 9.99323 34.925 9.36602C35.106 8.6604 35.4256 7.997 35.8779 7.42407C36.3061 6.88129 36.8549 6.44103 37.4821 6.14551C38.1214 5.85 38.821 5.6932 39.5266 5.70526C40.1478 5.6751 40.769 5.83191 41.3118 6.14551ZM39.1044 7.29742C38.6159 7.29139 38.1455 7.47835 37.7897 7.81608C37.4218 8.16587 37.1444 8.6785 36.9695 9.36602C36.6077 10.7471 36.9574 11.4346 38.0189 11.4346C38.5014 11.4467 38.9657 11.2597 39.3155 10.922C39.6774 10.5782 39.9427 10.0596 40.1237 9.36602C40.3046 8.68453 40.3106 8.1719 40.1297 7.81608C39.9548 7.46025 39.611 7.29742 39.1044 7.29742ZM34.913 5.88619L34.5511 7.28536L29.9978 11.308H33.6525L33.2183 12.9544H27.1693L27.5492 11.501L32.0302 7.53866H28.6227L29.057 5.89222H34.913V5.88619ZM24.7026 6.0249C24.9801 6.19979 25.1972 6.45912 25.3178 6.7667L25.36 6.88129L25.6254 5.88016H27.6578L25.8063 12.9363H23.7739L24.0453 11.893C23.7377 12.2548 23.3577 12.5443 22.9296 12.7433C22.5014 12.9423 22.037 13.0449 21.5605 13.0449C21.0298 13.069 20.5112 12.9122 20.083 12.5986C19.6849 12.285 19.4196 11.8266 19.3351 11.3261C19.2266 10.6868 19.2628 10.0355 19.4497 9.41427C19.6246 8.72071 19.9322 8.06334 20.3483 7.47835C20.7283 6.94159 21.2168 6.48928 21.7777 6.16361C22.2963 5.86206 22.8873 5.70526 23.4844 5.70526C23.9186 5.6932 24.3408 5.80175 24.7026 6.0249ZM23.6593 7.32154C23.412 7.32154 23.1708 7.36979 22.9416 7.46628C22.7124 7.56278 22.5074 7.70149 22.3325 7.87639C21.9224 8.30458 21.6389 8.8353 21.5123 9.41427C21.3434 10.0656 21.3495 10.5601 21.5364 10.916C21.7234 11.2718 22.0732 11.4407 22.5918 11.4407C22.8331 11.4467 23.0743 11.3984 23.3035 11.308C23.5266 11.2175 23.7377 11.0788 23.9066 10.9099C24.2624 10.536 24.5277 10.0777 24.6665 9.57107L24.7147 9.38411C24.8896 8.71468 24.8715 8.21412 24.6966 7.85829C24.5097 7.50247 24.1599 7.32154 23.6593 7.32154ZM16.193 4.71016H14.2571L13.5756 7.29139H15.5115C16.1207 7.29139 16.6031 7.18886 16.9288 6.97778C17.2726 6.75464 17.5198 6.40484 17.6103 5.99474C17.7309 5.56052 17.6766 5.22882 17.4475 5.01774C17.2183 4.81871 16.8022 4.71016 16.193 4.71016Z" fill="#072654"/>
<path d="M6.74859 5.44591L4.78854 12.9484H0L0.970976 9.25744L6.74859 5.44591Z" fill="#072654"/>
<path d="M11.0969 0L7.69544 12.9484H5.36148L7.65925 4.17942L4.1372 6.50132L4.76442 4.19148L11.0969 0Z" fill="#3395FF"/>
</g>
<defs>
<clipPath id="clip0_23_3530">
<rect width="74.1078" height="16" fill="white"/>
</clipPath>
</defs>
</svg>
