<svg width="16" height="16" viewBox="0 0 16 16" fill="none" xmlns="http://www.w3.org/2000/svg">
    <path
        d="M13.6666 4.66663V8.66663C13.6666 11.1808 13.6666 12.4379 12.8855 13.2189C12.1045 14 10.8474 14 8.33325 14H7.66658C5.15243 14 3.89535 14 3.1143 13.2189C2.33325 12.4379 2.33325 11.1808 2.33325 8.66663V4.66663"
        stroke="currentColor" stroke-linecap="round" />
    <path
        d="M1.33325 3.33333C1.33325 2.70479 1.33325 2.39052 1.52851 2.19526C1.72378 2 2.03805 2 2.66659 2H13.3333C13.9618 2 14.2761 2 14.4713 2.19526C14.6666 2.39052 14.6666 2.70479 14.6666 3.33333C14.6666 3.96187 14.6666 4.27614 14.4713 4.4714C14.2761 4.66667 13.9618 4.66667 13.3333 4.66667H2.66659C2.03805 4.66667 1.72378 4.66667 1.52851 4.4714C1.33325 4.27614 1.33325 3.96187 1.33325 3.33333Z"
        stroke="currentColor" />
    <path d="M8 4.66663L8 10.6666M8 10.6666L10 8.4444M8 10.6666L6 8.4444" stroke="currentColor" stroke-linecap="round"
        stroke-linejoin="round" />
</svg>