<svg width="16" height="16" viewBox="0 0 16 16" fill="none" xmlns="http://www.w3.org/2000/svg">
    <path
        d="M6.33325 13.1667C6.60939 13.1667 6.83325 12.9428 6.83325 12.6667C6.83325 12.3905 6.60939 12.1667 6.33325 12.1667V13.1667ZM7.33325 3.33333V3.83333C7.53548 3.83333 7.7178 3.71151 7.79519 3.52468C7.87258 3.33784 7.8298 3.12278 7.68681 2.97978L7.33325 3.33333ZM6.35347 1.64645C6.15821 1.45118 5.84163 1.45118 5.64637 1.64645C5.4511 1.84171 5.4511 2.15829 5.64637 2.35355L6.35347 1.64645ZM6.33325 12.1667H6.0001V13.1667H6.33325V12.1667ZM5.99992 3.83333H7.33325V2.83333H5.99992V3.83333ZM7.68681 2.97978L6.35347 1.64645L5.64637 2.35355L6.9797 3.68689L7.68681 2.97978ZM0.833252 8C0.833252 10.8535 3.14666 13.1667 6.0001 13.1667V12.1667C3.69889 12.1667 1.83325 10.3012 1.83325 8H0.833252ZM1.83325 8C1.83325 5.69881 3.69873 3.83333 5.99992 3.83333V2.83333C3.14645 2.83333 0.833252 5.14653 0.833252 8H1.83325Z"
        fill="currentColor" />
    <path
        d="M8.66675 12.6667V12.1667C8.46452 12.1667 8.2822 12.2885 8.20481 12.4754C8.12742 12.6622 8.1702 12.8773 8.31319 13.0203L8.66675 12.6667ZM9.64653 14.3536C9.84179 14.5489 10.1584 14.5489 10.3536 14.3536C10.5489 14.1583 10.5489 13.8418 10.3536 13.6465L9.64653 14.3536ZM9.66675 2.83337C9.39061 2.83337 9.16675 3.05723 9.16675 3.33337C9.16675 3.60952 9.39061 3.83337 9.66675 3.83337V2.83337ZM10.0001 12.1667H8.66675V13.1667H10.0001V12.1667ZM8.31319 13.0203L9.64653 14.3536L10.3536 13.6465L9.0203 12.3132L8.31319 13.0203ZM9.66675 3.83337H10.0001V2.83337H9.66675V3.83337ZM14.1667 8.00004C14.1667 10.3012 12.3013 12.1667 10.0001 12.1667V13.1667C12.8536 13.1667 15.1667 10.8535 15.1667 8.00004H14.1667ZM15.1667 8.00004C15.1667 5.14657 12.8536 2.83337 10.0001 2.83337V3.83337C12.3013 3.83337 14.1667 5.69885 14.1667 8.00004H15.1667Z"
        fill="currentColor" />
</svg>