<svg width="16" height="16" viewBox="0 0 16 16" fill="none" xmlns="http://www.w3.org/2000/svg">
    <path fill-rule="evenodd" clip-rule="evenodd"
        d="M10.9805 3.14623C10.8868 3.23998 10.8343 3.36706 10.8343 3.49956C10.8343 3.63206 10.8868 3.75914 10.9805 3.85289L12.1271 4.99956H6.00048C4.98382 4.99956 4.00879 5.40343 3.2899 6.12232C2.57101 6.84121 2.16715 7.81623 2.16715 8.83289C2.16715 9.84956 2.57101 10.8246 3.2899 11.5435C4.00879 12.2624 4.98382 12.6662 6.00048 12.6662H10.6671C10.7998 12.6662 10.9269 12.6135 11.0207 12.5198C11.1145 12.426 11.1671 12.2988 11.1671 12.1662C11.1671 12.0336 11.1145 11.9064 11.0207 11.8127C10.9269 11.7189 10.7998 11.6662 10.6671 11.6662H6.00048C5.24903 11.6662 4.52836 11.3677 3.99701 10.8364C3.46566 10.305 3.16715 9.58434 3.16715 8.83289C3.16715 8.08145 3.46566 7.36078 3.99701 6.82942C4.52836 6.29807 5.24903 5.99956 6.00048 5.99956H12.1271L10.9805 7.14623C10.9314 7.192 10.892 7.2472 10.8646 7.30853C10.8373 7.36987 10.8226 7.43608 10.8214 7.50321C10.8202 7.57035 10.8326 7.63703 10.8577 7.69929C10.8829 7.76155 10.9203 7.81811 10.9678 7.86559C11.0153 7.91306 11.0718 7.95049 11.1341 7.97564C11.1963 8.00079 11.263 8.01314 11.3302 8.01195C11.3973 8.01077 11.4635 7.99608 11.5248 7.96875C11.5862 7.94142 11.6414 7.90202 11.6871 7.85289L13.6871 5.85289C13.7808 5.75914 13.8334 5.63206 13.8334 5.49956C13.8334 5.36706 13.7808 5.23998 13.6871 5.14623L11.6871 3.14623C11.5934 3.05259 11.4663 3 11.3338 3C11.2013 3 11.0742 3.05259 10.9805 3.14623Z"
        fill="currentColor" />
</svg>