<svg width="16" height="16" viewBox="0 0 16 16" fill="none" xmlns="http://www.w3.org/2000/svg">
    <path fill-rule="evenodd" clip-rule="evenodd"
        d="M9.19429 7.57659C8.61874 7.96117 7.94207 8.16643 7.24985 8.16643C6.32191 8.1655 5.43223 7.79647 4.77607 7.14031C4.11991 6.48415 3.75088 5.59448 3.74995 4.66653C3.74995 3.97431 3.95522 3.29764 4.33979 2.72209C4.72436 2.14653 5.27097 1.69794 5.9105 1.43304C6.55002 1.16814 7.25374 1.09883 7.93265 1.23388C8.61156 1.36892 9.23519 1.70226 9.72466 2.19173C10.2141 2.6812 10.5475 3.30482 10.6825 3.98373C10.8176 4.66265 10.7482 5.36636 10.4833 6.00588C10.2184 6.64541 9.76985 7.19202 9.19429 7.57659ZM8.54615 2.72649C8.16244 2.47011 7.71133 2.33326 7.24985 2.33326C6.63103 2.33326 6.03756 2.57909 5.59998 3.01666C5.16241 3.45423 4.91658 4.04771 4.91658 4.66653C4.91658 5.12801 5.05343 5.57912 5.30981 5.96282C5.56619 6.34653 5.9306 6.64559 6.35695 6.82219C6.7833 6.99879 7.25244 7.04499 7.70505 6.95497C8.15766 6.86494 8.57341 6.64271 8.89972 6.3164C9.22604 5.99009 9.44826 5.57434 9.53829 5.12173C9.62832 4.66912 9.58211 4.19998 9.40551 3.77363C9.22891 3.34728 8.92985 2.98287 8.54615 2.72649ZM3.53935 10.8728C4.52356 9.8886 5.85798 9.335 7.24985 9.33346C7.31368 9.33353 7.37738 9.33476 7.44093 9.33714C7.17483 9.51683 6.99985 9.82123 6.99985 10.1665V10.5077C6.00813 10.5685 5.0692 10.9894 4.36258 11.696C3.59683 12.4618 3.16663 13.5004 3.16663 14.5833C3.16663 14.738 3.10518 14.8864 2.99578 14.9958C2.88639 15.1052 2.73802 15.1666 2.58332 15.1666C2.42861 15.1666 2.28024 15.1052 2.17085 14.9958C2.06146 14.8864 2 14.738 2 14.5833C2.00154 13.1914 2.55515 11.857 3.53935 10.8728ZM11.9035 15.1665C11.9078 15.1666 11.9121 15.1666 11.9164 15.1666C11.9207 15.1666 11.925 15.1666 11.9292 15.1665H11.9035Z"
        fill="currentColor" />
    <path
        d="M14 10.4813H9.88812C8.84534 10.4813 8 11.3266 8 12.3694C8 13.4121 8.84534 14.2575 9.88811 14.2575H12.3636M14 10.4813L12.7727 9.34839M14 10.4813L12.7727 11.6141"
        stroke="currentColor" stroke-linecap="round" stroke-linejoin="round" />
</svg>