<svg width="16" height="16" viewBox="0 0 16 16" fill="none" xmlns="http://www.w3.org/2000/svg">
    <path
        d="M2.45313 7.55556H1.85313V7.55556L2.45313 7.55556ZM2.45313 8.66667L2.03053 9.09259C2.26446 9.32469 2.64179 9.32469 2.87572 9.09259L2.45313 8.66667ZM3.99559 7.98148C4.23083 7.74809 4.23232 7.3682 3.99893 7.13296C3.76554 6.89773 3.38564 6.89624 3.15041 7.12963L3.99559 7.98148ZM1.75585 7.12963C1.52061 6.89624 1.14072 6.89773 0.907325 7.13296C0.673932 7.3682 0.675425 7.74809 0.910658 7.98148L1.75585 7.12963ZM12.3251 4.9809C12.4986 5.26319 12.8682 5.35135 13.1505 5.1778C13.4328 5.00426 13.5209 4.63473 13.3474 4.35243L12.3251 4.9809ZM8.0525 1.4C4.63313 1.4 1.85313 4.1515 1.85313 7.55556H3.05313C3.05313 4.82311 5.28697 2.6 8.0525 2.6V1.4ZM1.85313 7.55556L1.85313 8.66667L3.05313 8.66667L3.05313 7.55556L1.85313 7.55556ZM2.87572 9.09259L3.99559 7.98148L3.15041 7.12963L2.03053 8.24074L2.87572 9.09259ZM2.87572 8.24074L1.75585 7.12963L0.910658 7.98148L2.03053 9.09259L2.87572 8.24074ZM13.3474 4.35243C12.2589 2.5819 10.294 1.4 8.0525 1.4V2.6C9.86292 2.6 11.4474 3.55324 12.3251 4.9809L13.3474 4.35243Z"
        fill="currentColor" />
    <path
        d="M13.5427 7.33337L13.9645 6.90664C13.7307 6.67562 13.3546 6.67562 13.1209 6.90664L13.5427 7.33337ZM11.9967 8.01775C11.7611 8.2507 11.7588 8.63059 11.9918 8.86627C12.2247 9.10194 12.6046 9.10416 12.8403 8.87122L11.9967 8.01775ZM14.2451 8.87122C14.4807 9.10416 14.8606 9.10194 15.0936 8.86627C15.3265 8.63059 15.3243 8.25069 15.0886 8.01775L14.2451 8.87122ZM3.63047 11.0183C3.45644 10.7363 3.08677 10.6488 2.80477 10.8228C2.52277 10.9968 2.43525 11.3665 2.60927 11.6485L3.63047 11.0183ZM7.9219 14.6C11.3509 14.6 14.1427 11.8507 14.1427 8.44449H12.9427C12.9427 11.1748 10.7014 13.4 7.9219 13.4V14.6ZM14.1427 8.44449V7.33337H12.9427V8.44449H14.1427ZM13.1209 6.90664L11.9967 8.01775L12.8403 8.87122L13.9645 7.76011L13.1209 6.90664ZM13.1209 7.76011L14.2451 8.87122L15.0886 8.01775L13.9645 6.90664L13.1209 7.76011ZM2.60927 11.6485C3.702 13.4191 5.67369 14.6 7.9219 14.6V13.4C6.10265 13.4 4.51143 12.4458 3.63047 11.0183L2.60927 11.6485Z"
        fill="currentColor" />
</svg>