<svg width="16" height="16" viewBox="0 0 16 16" fill="none" xmlns="http://www.w3.org/2000/svg">
    <path fill-rule="evenodd" clip-rule="evenodd"
        d="M7.99993 0.833374C6.25102 0.833374 4.83326 2.25114 4.83326 4.00004C4.83326 5.74894 6.25102 7.16671 7.99993 7.16671C9.74883 7.16671 11.1666 5.74894 11.1666 4.00004C11.1666 2.25114 9.74883 0.833374 7.99993 0.833374ZM5.83326 4.00004C5.83326 2.80342 6.80331 1.83337 7.99993 1.83337C9.19654 1.83337 10.1666 2.80342 10.1666 4.00004C10.1666 5.19666 9.19654 6.16671 7.99993 6.16671C6.80331 6.16671 5.83326 5.19666 5.83326 4.00004Z"
        fill="currentColor" />
    <path
        d="M11.3333 10.1667C11.0571 10.1667 10.8333 10.3906 10.8333 10.6667C10.8333 10.9428 11.0571 11.1667 11.3333 11.1667H12.6666C12.9427 11.1667 13.1666 10.9428 13.1666 10.6667C13.1666 10.3906 12.9427 10.1667 12.6666 10.1667H11.3333Z"
        fill="currentColor" />
    <path fill-rule="evenodd" clip-rule="evenodd"
        d="M7.99993 8.16671C8.64556 8.16671 9.26788 8.22807 9.84969 8.34198C10.4144 7.81941 11.1699 7.50004 11.9999 7.50004C13.7488 7.50004 15.1666 8.91781 15.1666 10.6667C15.1666 11.8401 14.5284 12.8644 13.5802 13.4115C13.3314 13.9511 12.8656 14.3798 12.0797 14.6724C11.2065 14.9974 9.91199 15.1667 7.99993 15.1667C6.64941 15.1667 5.61277 15.082 4.8174 14.921C4.02424 14.7605 3.43718 14.5175 3.01753 14.1757C2.16485 13.4814 2.1658 12.5092 2.16655 11.7347L2.16659 11.6667C2.16659 10.5774 2.94625 9.69309 3.98356 9.1096C5.03654 8.5173 6.45756 8.16671 7.99993 8.16671ZM3.16659 11.6667C3.16659 11.0991 3.58085 10.4835 4.47382 9.98117C5.35112 9.48769 6.59678 9.16671 7.99993 9.16671C8.40396 9.16671 8.7959 9.19335 9.1704 9.24337C8.95472 9.67128 8.83326 10.1548 8.83326 10.6667C8.83326 12.2596 10.0093 13.5777 11.5405 13.8003C10.8266 14.0244 9.71858 14.1667 7.99993 14.1667C6.68378 14.1667 5.72042 14.0835 5.01579 13.9409C4.30894 13.7978 3.89601 13.6015 3.64899 13.4003C3.19347 13.0294 3.16659 12.5386 3.16659 11.6667ZM11.9999 8.50004C10.8033 8.50004 9.83326 9.47009 9.83326 10.6667C9.83326 11.8633 10.8033 12.8334 11.9999 12.8334C13.1965 12.8334 14.1666 11.8633 14.1666 10.6667C14.1666 9.47009 13.1965 8.50004 11.9999 8.50004Z"
        fill="currentColor" />
</svg>