<svg width="16" height="16" viewBox="0 0 16 16" fill="none" xmlns="http://www.w3.org/2000/svg">
    <path d="M4.5 9.75H10.1" stroke="currentColor" stroke-width="1.05" stroke-linecap="round" />
    <path d="M4.5 12.2H8.35001" stroke="currentColor" stroke-width="1.05" stroke-linecap="round" />
    <path
        d="M2.31527 14.3849L2.6865 14.0137H2.6865L2.31527 14.3849ZM13.6851 14.3849L13.3139 14.0137L13.6851 14.3849ZM13.6851 3.01508L14.0564 2.64385V2.64385L13.6851 3.01508ZM2.31527 3.01508L1.94404 2.64385L2.31527 3.01508ZM13.7752 6.60001V10.8H14.8252V6.60001H13.7752ZM10.1002 14.475H5.9002V15.525H10.1002V14.475ZM2.2252 10.8V6.60001H1.17519V10.8H2.2252ZM5.9002 14.475C4.89541 14.475 4.19463 14.4739 3.66588 14.4028C3.15224 14.3338 2.88024 14.2074 2.6865 14.0137L1.94404 14.7562C2.36538 15.1775 2.8959 15.3587 3.52597 15.4435C4.14095 15.5261 4.92509 15.525 5.9002 15.525V14.475ZM1.17519 10.8C1.17519 11.7751 1.17408 12.5593 1.25676 13.1742C1.34147 13.8043 1.5227 14.3348 1.94404 14.7562L2.6865 14.0137C2.49277 13.82 2.36646 13.548 2.2974 13.0343C2.22631 12.5056 2.2252 11.8048 2.2252 10.8H1.17519ZM13.7752 10.8C13.7752 11.8048 13.7741 12.5056 13.703 13.0343C13.634 13.548 13.5076 13.82 13.3139 14.0137L14.0564 14.7562C14.4777 14.3348 14.6589 13.8043 14.7436 13.1742C14.8263 12.5593 14.8252 11.7751 14.8252 10.8H13.7752ZM10.1002 15.525C11.0753 15.525 11.8595 15.5261 12.4744 15.4435C13.1045 15.3587 13.635 15.1775 14.0564 14.7562L13.3139 14.0137C13.1202 14.2074 12.8482 14.3338 12.3345 14.4028C11.8058 14.4739 11.105 14.475 10.1002 14.475V15.525ZM14.8252 6.60001C14.8252 5.6249 14.8263 4.84075 14.7436 4.22578C14.6589 3.5957 14.4777 3.06519 14.0564 2.64385L13.3139 3.38631C13.5076 3.58004 13.634 3.85205 13.703 4.36569C13.7741 4.89443 13.7752 5.59521 13.7752 6.60001H14.8252ZM2.2252 6.60001C2.2252 5.59522 2.22631 4.89443 2.2974 4.36569C2.36646 3.85205 2.49277 3.58004 2.6865 3.38631L1.94404 2.64385C1.5227 3.06519 1.34147 3.5957 1.25676 4.22578C1.17408 4.84075 1.17519 5.6249 1.17519 6.60001H2.2252ZM10.7973 2.92621C11.5627 2.93047 12.1053 2.95035 12.5171 3.02599C12.9138 3.09887 13.1435 3.21589 13.3139 3.38631L14.0564 2.64385C13.6889 2.2764 13.2374 2.09073 12.7068 1.99326C12.1912 1.89856 11.5602 1.88044 10.8031 1.87623L10.7973 2.92621ZM5.19728 1.87623C4.44021 1.88044 3.80924 1.89856 3.29364 1.99326C2.76304 2.09073 2.31149 2.2764 1.94404 2.64385L2.6865 3.38631C2.85692 3.21589 3.08657 3.09887 3.48334 3.02599C3.89511 2.95035 4.43767 2.93047 5.20312 2.92621L5.19728 1.87623ZM6.2502 1.525H9.75021V0.474999H6.2502V1.525ZM10.2752 2.05V2.75H11.3252V2.05H10.2752ZM9.75021 3.275H6.2502V4.325H9.75021V3.275ZM5.7252 2.75V2.05H4.6752V2.75H5.7252ZM6.2502 3.275C5.96025 3.275 5.7252 3.03995 5.7252 2.75H4.6752C4.6752 3.61985 5.38035 4.325 6.2502 4.325V3.275ZM10.2752 2.75C10.2752 3.03995 10.0402 3.275 9.75021 3.275V4.325C10.6201 4.325 11.3252 3.61985 11.3252 2.75H10.2752ZM9.75021 1.525C10.0402 1.525 10.2752 1.76005 10.2752 2.05H11.3252C11.3252 1.18015 10.6201 0.474999 9.75021 0.474999V1.525ZM6.2502 0.474999C5.38035 0.474999 4.6752 1.18015 4.6752 2.05H5.7252C5.7252 1.76005 5.96025 1.525 6.2502 1.525V0.474999Z"
        fill="currentColor" />
</svg>