<svg width="16" height="16" viewBox="0 0 16 16" fill="none" xmlns="http://www.w3.org/2000/svg">
    <path
        d="M3.12742 13.4732L2.80904 13.7912L2.80922 13.7914L3.12742 13.4732ZM5.60004 8.75C5.35151 8.75 5.15004 8.95148 5.15004 9.2C5.15004 9.44853 5.35151 9.65 5.60004 9.65V8.75ZM10.4 9.65C10.6486 9.65 10.85 9.44853 10.85 9.2C10.85 8.95148 10.6486 8.75 10.4 8.75V9.65ZM5.00004 6.65C4.75151 6.65 4.55004 6.85148 4.55004 7.1C4.55004 7.34853 4.75151 7.55 5.00004 7.55V6.65ZM11 7.55C11.2486 7.55 11.45 7.34853 11.45 7.1C11.45 6.85148 11.2486 6.65 11 6.65V7.55ZM6.20004 10.85C5.95151 10.85 5.75004 11.0515 5.75004 11.3C5.75004 11.5485 5.95151 11.75 6.20004 11.75V10.85ZM9.80004 11.75C10.0486 11.75 10.25 11.5485 10.25 11.3C10.25 11.0515 10.0486 10.85 9.80004 10.85V11.75ZM5.6 2.9H6.05H5.6ZM10.4 2.9H10.85H10.4ZM10.4 3.5H10.85H10.4ZM5.6 3.5H5.15H5.6ZM10.3975 3.6512C11.0536 3.65482 11.5186 3.67192 11.8715 3.73679C12.2116 3.7993 12.4085 3.89963 12.5544 4.0456L13.1908 3.40921C12.876 3.09438 12.489 2.93521 12.0342 2.85162C11.5923 2.77039 11.0515 2.75479 10.4025 2.75121L10.3975 3.6512ZM12.5544 4.0456C12.7206 4.21179 12.8289 4.44499 12.8881 4.88517C12.9491 5.33832 12.95 5.93888 12.95 6.8H13.85C13.85 5.96433 13.851 5.29229 13.7801 4.76519C13.7074 4.22512 13.552 3.77042 13.1908 3.40921L12.5544 4.0456ZM12.95 6.8V10.4H13.85V6.8H12.95ZM12.95 10.4C12.95 11.2614 12.9491 11.8621 12.8881 12.3154C12.8289 12.7556 12.7206 12.9888 12.5544 13.155L13.1908 13.7914C13.552 13.4302 13.7074 12.9755 13.7801 12.4353C13.851 11.9082 13.85 11.236 13.85 10.4H12.95ZM12.5544 13.155C12.3886 13.3208 12.1556 13.429 11.7152 13.4882C11.2619 13.549 10.6611 13.55 9.80002 13.55V14.45C10.6357 14.45 11.3079 14.451 11.835 14.3801C12.375 14.3076 12.8298 14.1524 13.1908 13.7914L12.5544 13.155ZM9.80002 13.55H6.20002V14.45H9.80002V13.55ZM6.20002 13.55C5.33891 13.55 4.73816 13.549 4.28488 13.4882C3.84446 13.429 3.6114 13.3208 3.44562 13.155L2.80922 13.7914C3.17025 14.1524 3.62508 14.3076 4.16506 14.3801C4.69218 14.451 5.36433 14.45 6.20002 14.45V13.55ZM3.4458 13.1552C3.27941 12.9886 3.17113 12.7552 3.11193 12.3151C3.05098 11.862 3.05002 11.2614 3.05002 10.4H2.15002C2.15002 11.236 2.14906 11.908 2.21996 12.4351C2.29262 12.9753 2.44803 13.4298 2.80904 13.7912L3.4458 13.1552ZM3.05002 10.4V6.8H2.15002V10.4H3.05002ZM3.05002 6.8C3.05002 5.93888 3.05098 5.33832 3.11193 4.88517C3.17114 4.44499 3.27943 4.21179 3.44562 4.0456L2.80922 3.40921C2.44801 3.77042 2.29261 4.22512 2.21996 4.76519C2.14906 5.29229 2.15002 5.96433 2.15002 6.8H3.05002ZM3.44562 4.0456C3.59159 3.89963 3.78841 3.7993 4.1285 3.73679C4.48141 3.67192 4.94648 3.65482 5.6025 3.6512L5.59754 2.75121C4.94857 2.75479 4.40773 2.77039 3.9658 2.85162C3.51104 2.93521 3.12405 3.09438 2.80922 3.40921L3.44562 4.0456ZM5.60004 9.65H10.4V8.75H5.60004V9.65ZM5.00004 7.55H11V6.65H5.00004V7.55ZM6.20004 11.75H9.80004V10.85H6.20004V11.75ZM6.05 2.9C6.05 2.78065 6.09741 2.66619 6.1818 2.5818L5.54541 1.94541C5.29223 2.19858 5.15 2.54196 5.15 2.9H6.05ZM6.1818 2.5818C6.2662 2.49741 6.38066 2.45 6.5 2.45V1.55C6.14196 1.55 5.79858 1.69223 5.54541 1.94541L6.1818 2.5818ZM6.5 2.45H9.5V1.55H6.5V2.45ZM9.5 2.45C9.61935 2.45 9.73381 2.49741 9.8182 2.5818L10.4546 1.94541C10.2014 1.69223 9.85805 1.55 9.5 1.55V2.45ZM9.8182 2.5818C9.90259 2.66619 9.95 2.78065 9.95 2.9H10.85C10.85 2.54196 10.7078 2.19858 10.4546 1.94541L9.8182 2.5818ZM9.95 2.9V3.5H10.85V2.9H9.95ZM9.95 3.5C9.95 3.61935 9.90259 3.73381 9.8182 3.8182L10.4546 4.45459C10.7078 4.20142 10.85 3.85804 10.85 3.5H9.95ZM9.8182 3.8182C9.73381 3.90259 9.61935 3.95 9.5 3.95V4.85C9.85805 4.85 10.2014 4.70777 10.4546 4.45459L9.8182 3.8182ZM9.5 3.95H6.5V4.85H9.5V3.95ZM6.5 3.95C6.38066 3.95 6.2662 3.90259 6.1818 3.8182L5.54541 4.45459C5.79858 4.70777 6.14196 4.85 6.5 4.85V3.95ZM6.1818 3.8182C6.09741 3.73381 6.05 3.61935 6.05 3.5H5.15C5.15 3.85804 5.29223 4.20142 5.54541 4.45459L6.1818 3.8182ZM6.05 3.5V2.9H5.15V3.5H6.05Z"
        fill="currentColor" />
</svg>