<svg width="16" height="16" viewBox="0 0 16 16" fill="none" xmlns="http://www.w3.org/2000/svg">
    <path fill-rule="evenodd" clip-rule="evenodd"
        d="M13.0875 7.99996C13.0875 5.41289 11.0707 2.84407 7.93156 2.84407C5.3965 2.84407 4.14266 4.72026 3.60882 5.71859H5.19392C5.31493 5.71859 5.43098 5.76666 5.51655 5.85223C5.60212 5.9378 5.65019 6.05385 5.65019 6.17486C5.65019 6.29588 5.60212 6.41193 5.51655 6.4975C5.43098 6.58307 5.31493 6.63114 5.19392 6.63114H2.45627C2.33526 6.63114 2.21921 6.58307 2.13364 6.4975C2.04807 6.41193 2 6.29588 2 6.17486V3.43722C2 3.31621 2.04807 3.20016 2.13364 3.11459C2.21921 3.02902 2.33526 2.98095 2.45627 2.98095C2.57729 2.98095 2.69334 3.02902 2.77891 3.11459C2.86448 3.20016 2.91255 3.31621 2.91255 3.43722V5.09167C3.55498 3.95829 5.04243 1.93152 7.93156 1.93152C11.6392 1.93152 14 4.97486 14 7.99996C14 11.0251 11.6392 14.0684 7.93156 14.0684C6.15757 14.0684 4.68107 13.3657 3.62981 12.2962C3.07198 11.7273 2.62948 11.0558 2.32669 10.3187C2.30392 10.2633 2.29229 10.204 2.29247 10.144C2.29264 10.0841 2.30462 10.0248 2.32771 9.96952C2.3508 9.91423 2.38455 9.86403 2.42705 9.82178C2.46954 9.77954 2.51994 9.74607 2.57536 9.72331C2.63079 9.70054 2.69015 9.68891 2.75007 9.68908C2.80999 9.68926 2.86929 9.70123 2.92458 9.72432C2.97987 9.74741 3.03007 9.78117 3.07232 9.82366C3.11457 9.86615 3.14803 9.91655 3.1708 9.97197C3.42866 10.5998 3.80546 11.1718 4.28046 11.6565C5.16654 12.56 6.41217 13.1559 7.93156 13.1559C11.0707 13.1559 13.0875 10.587 13.0875 7.99996Z"
        fill="currentColor" />
</svg>