<svg width="20" height="20" viewBox="0 0 20 20" fill="none" xmlns="http://www.w3.org/2000/svg">
    <path
        d="M13.1862 13.1862C13.6384 12.734 14.3715 12.734 14.8236 13.1862L17.7859 16.1485C18.238 16.6006 18.238 17.3337 17.7859 17.7859C17.3337 18.238 16.6006 18.238 16.1485 17.7859L13.1862 14.8236C12.734 14.3715 12.734 13.6384 13.1862 13.1862ZM13.1862 13.1862L11.3203 11.3203M11.3203 11.3203C13.4811 9.15959 13.4811 5.65633 11.3203 3.49558C9.15957 1.33481 5.65632 1.33481 3.49558 3.49558C1.33483 5.65633 1.33483 9.15958 3.49558 11.3203C5.65632 13.4811 9.15957 13.4811 11.3203 11.3203ZM9.9702 9.56571V7.94729M8.28451 9.56571V6.26161M6.59883 9.56571V6.93588M4.91314 9.56571V5.2502"
        stroke="currentColor" stroke-width="1.25" stroke-miterlimit="10" stroke-linecap="round" />
</svg>