<svg width="18" height="18" viewBox="0 0 18 18" fill="none" xmlns="http://www.w3.org/2000/svg">
    <path
        d="M6.94277 5.99195H11.0573M6.94277 7.89697H11.0573M9.85721 12.8495L6.94277 9.80199H7.9714C10.2577 9.80199 10.2577 5.99195 7.9714 5.99195M7.07398 1.95924C7.56327 1.54237 7.80834 1.33352 8.06436 1.21141C8.35656 1.07199 8.67623 0.999634 8.99999 0.999634C9.32375 0.999634 9.64341 1.07199 9.93562 1.21141C10.1916 1.33352 10.4367 1.54237 10.926 1.95924C11.4304 2.38873 11.9425 2.60601 12.6162 2.65907C13.2571 2.71044 13.5779 2.73654 13.8457 2.83087C14.4639 3.04982 14.9506 3.53575 15.1688 4.15473C15.2631 4.42169 15.2892 4.74255 15.3406 5.38427C15.3936 6.05799 15.61 6.56918 16.0395 7.07363C16.4572 7.56292 16.6661 7.80799 16.7882 8.064C17.0712 8.65604 17.0712 9.34407 16.7882 9.93527C16.6661 10.1913 16.4572 10.4363 16.0404 10.9256C15.623 11.3939 15.3764 11.9896 15.3406 12.6158C15.2892 13.2567 15.2631 13.5776 15.1688 13.8454C15.0606 14.1506 14.8856 14.4278 14.6566 14.6567C14.4275 14.8857 14.1502 15.0605 13.8449 15.1684C13.5779 15.2627 13.2571 15.2888 12.6153 15.3402C11.9416 15.3933 11.4304 15.6097 10.926 16.0392C10.4367 16.4569 10.1916 16.6657 9.93562 16.7879C9.64341 16.9273 9.32375 16.9996 8.99999 16.9996C8.67623 16.9996 8.35656 16.9273 8.06436 16.7879C7.80834 16.6657 7.56327 16.4569 7.07398 16.04C6.60571 15.6227 6.01002 15.376 5.38378 15.3402C4.7429 15.2888 4.42204 15.2627 4.15424 15.1684C3.849 15.0603 3.57178 14.8853 3.34287 14.6562C3.11397 14.4272 2.93915 14.1499 2.83122 13.8445C2.7369 13.5776 2.71079 13.2567 2.65942 12.615C2.62362 11.9892 2.37729 11.3938 1.96043 10.9256C1.54272 10.4363 1.33387 10.1913 1.21092 9.93527C1.07163 9.643 0.99942 9.3233 0.999565 8.99954C0.999711 8.67578 1.07221 8.35614 1.21176 8.064C1.33387 7.80799 1.54272 7.56292 1.95959 7.07363C2.39751 6.55908 2.60721 6.04368 2.65942 5.38343C2.71079 4.74255 2.7369 4.42169 2.83122 4.15389C2.93935 3.84864 3.11434 3.57143 3.34339 3.34252C3.57244 3.11361 3.84977 2.9388 4.15508 2.83087C4.42204 2.73654 4.7429 2.71044 5.38462 2.65907C6.01046 2.62327 6.60581 2.37609 7.07398 1.95924Z"
        stroke="currentColor" stroke-width="1.02863" stroke-linecap="round" stroke-linejoin="round" />
</svg>