<svg width="16" height="16" viewBox="0 0 16 16" fill="none" xmlns="http://www.w3.org/2000/svg">
    <path fill-rule="evenodd" clip-rule="evenodd"
        d="M9.19429 7.57659C8.61874 7.96117 7.94207 8.16643 7.24985 8.16643C6.32191 8.1655 5.43223 7.79647 4.77607 7.14031C4.11991 6.48415 3.75088 5.59448 3.74995 4.66653C3.74995 3.97431 3.95522 3.29764 4.33979 2.72209C4.72436 2.14653 5.27097 1.69794 5.9105 1.43304C6.55002 1.16814 7.25374 1.09883 7.93265 1.23388C8.61156 1.36892 9.23519 1.70226 9.72466 2.19173C10.2141 2.6812 10.5475 3.30482 10.6825 3.98373C10.8176 4.66265 10.7482 5.36636 10.4833 6.00588C10.2184 6.64541 9.76985 7.19202 9.19429 7.57659ZM8.54615 2.72649C8.16244 2.47011 7.71133 2.33326 7.24985 2.33326C6.63103 2.33326 6.03756 2.57909 5.59998 3.01666C5.16241 3.45423 4.91658 4.04771 4.91658 4.66653C4.91658 5.12801 5.05343 5.57912 5.30981 5.96282C5.56619 6.34653 5.9306 6.64559 6.35695 6.82219C6.7833 6.99879 7.25244 7.04499 7.70505 6.95497C8.15766 6.86494 8.57341 6.64271 8.89972 6.3164C9.22604 5.99009 9.44826 5.57434 9.53829 5.12173C9.62832 4.66912 9.58211 4.19998 9.40551 3.77363C9.22891 3.34728 8.92985 2.98287 8.54615 2.72649ZM3.53935 10.8728C4.52356 9.8886 5.85798 9.335 7.24985 9.33346C7.44933 9.33368 7.64763 9.34524 7.84389 9.36778C7.46286 9.63816 7.18061 10.0386 7.06187 10.5044C6.04733 10.5511 5.08391 10.9747 4.36258 11.696C3.59683 12.4618 3.16663 13.5004 3.16663 14.5833C3.16663 14.738 3.10518 14.8864 2.99578 14.9958C2.88639 15.1052 2.73802 15.1666 2.58332 15.1666C2.42861 15.1666 2.28024 15.1052 2.17085 14.9958C2.06146 14.8864 2 14.738 2 14.5833C2.00154 13.1914 2.55515 11.857 3.53935 10.8728Z"
        fill="currentColor" />
    <path
        d="M10.8501 13.1399C10.7436 13.2464 10.5708 13.2464 10.4643 13.1399L9.6928 12.3682C9.58632 12.2617 9.58633 12.089 9.69282 11.9825C9.79932 11.8761 9.97197 11.876 10.0785 11.9825L10.6572 12.561L12.0068 11.2112C12.1133 11.1046 12.2861 11.1046 12.3927 11.2112C12.4993 11.3177 12.4993 11.4905 12.3927 11.5971L10.8501 13.1399Z"
        fill="currentColor" stroke="currentColor" stroke-width="0.2" />
    <path fill-rule="evenodd" clip-rule="evenodd"
        d="M8 12C8 10.3432 9.34318 9 11 9C12.6568 9 14 10.3432 14 12C14 13.6568 12.6568 15 11 15C9.34318 15 8 13.6568 8 12ZM11 14.4545C10.6777 14.4545 10.3585 14.3911 10.0607 14.2677C9.76289 14.1444 9.4923 13.9636 9.26437 13.7356C9.03645 13.5077 8.85565 13.2371 8.7323 12.9393C8.60894 12.6415 8.54545 12.3223 8.54545 12C8.54545 11.6777 8.60894 11.3585 8.7323 11.0607C8.85565 10.7629 9.03645 10.4923 9.26437 10.2644C9.4923 10.0364 9.76289 9.85565 10.0607 9.7323C10.3585 9.60894 10.6777 9.54545 11 9.54545C11.651 9.54545 12.2753 9.80406 12.7356 10.2644C13.1959 10.7247 13.4545 11.349 13.4545 12C13.4545 12.651 13.1959 13.2753 12.7356 13.7356C12.2753 14.1959 11.651 14.4545 11 14.4545Z"
        fill="currentColor" stroke="currentColor" stroke-width="0.2" />
</svg>