<svg width="16" height="16" viewBox="0 0 16 16" fill="none" xmlns="http://www.w3.org/2000/svg">
    <path
        d="M5.34194 3.22012C5.201 3.3611 5.12183 3.55229 5.12183 3.75163C5.12183 3.95098 5.201 4.14217 5.34194 4.28315L9.06333 8.00454L5.34194 11.7259C5.205 11.8677 5.12922 12.0576 5.13093 12.2547C5.13264 12.4519 5.21171 12.6404 5.3511 12.7798C5.49049 12.9192 5.67905 12.9983 5.87617 13C6.07328 13.0017 6.26319 12.9259 6.40498 12.789L10.6579 8.53606C10.7988 8.39508 10.878 8.20389 10.878 8.00454C10.878 7.80519 10.7988 7.614 10.6579 7.47302L6.40498 3.22012C6.264 3.07918 6.07281 3 5.87346 3C5.67411 3 5.48292 3.07918 5.34194 3.22012Z"
        fill="currentColor" />
</svg>