<svg width="16" height="16" viewBox="0 0 16 16" fill="none" xmlns="http://www.w3.org/2000/svg">
<path fill-rule="evenodd" clip-rule="evenodd" d="M8.15114 2.45776C7.873 2.4106 7.49328 2.40697 6.80882 2.40697C5.6497 2.40697 4.82557 2.40818 4.20157 2.49162C3.58967 2.57325 3.23837 2.72744 2.9826 2.9826C2.72683 3.23776 2.57325 3.58906 2.49162 4.19734C2.40818 4.81892 2.40697 5.63761 2.40697 6.79128V9.20988C2.40697 10.3623 2.40818 11.181 2.49162 11.8026C2.57325 12.4109 2.72683 12.7616 2.9826 13.018C3.23837 13.2731 3.58906 13.4267 4.19734 13.5083C4.81892 13.5924 5.63761 13.593 6.79068 13.593H9.20927C10.3623 13.593 11.1816 13.5918 11.8032 13.5083C12.4109 13.4267 12.7616 13.2731 13.0173 13.0174C13.2731 12.7616 13.4267 12.4109 13.5083 11.8026C13.5918 11.1816 13.593 10.3623 13.593 9.20927V8.94504C13.593 8.0163 13.5869 7.57612 13.4878 7.24416H11.5952C10.9101 7.24416 10.3508 7.24416 9.90825 7.18491C9.4469 7.12263 9.04662 6.9884 8.72676 6.66854C8.4069 6.34868 8.27267 5.94901 8.21039 5.48645C8.15114 5.04506 8.15114 4.48515 8.15114 3.79948V2.45776ZM9.05811 2.92697V3.76743C9.05811 4.49301 9.05932 4.99124 9.1095 5.36552C9.15788 5.7271 9.24495 5.90426 9.36829 6.02701C9.49164 6.14975 9.6682 6.23742 10.0298 6.28579C10.4041 6.33598 10.9023 6.33719 11.6279 6.33719H12.8493C12.6172 6.11626 12.3814 5.89936 12.1418 5.68659L9.74801 3.53222C9.52221 3.32578 9.29219 3.12398 9.05811 2.92697ZM6.89649 1.5C7.73393 1.5 8.27509 1.5 8.77272 1.69046C9.27034 1.88153 9.67062 2.2419 10.2904 2.79999L10.3551 2.85804L12.7483 5.0124L12.8239 5.08013C13.5398 5.72408 14.0029 6.14068 14.2514 6.69937C14.4999 7.25807 14.5006 7.88086 14.4999 8.84346V9.24313C14.4999 10.3545 14.4999 11.2348 14.4074 11.9235C14.3119 12.6322 14.1112 13.206 13.6589 13.6589C13.206 14.1112 12.6322 14.3119 11.9235 14.4074C11.2342 14.4999 10.3545 14.4999 9.24313 14.4999H6.75682C5.64547 14.4999 4.7651 14.4999 4.07641 14.4074C3.36776 14.3119 2.79395 14.1112 2.34107 13.6589C1.88879 13.206 1.68805 12.6322 1.59251 11.9235C1.5 11.2342 1.5 10.3545 1.5 9.24313V6.75742C1.5 5.64608 1.5 4.76571 1.59251 4.07701C1.68805 3.36836 1.88879 2.79455 2.34107 2.34167C2.79455 1.88879 3.36957 1.68865 4.08125 1.59312C4.77296 1.5006 5.65756 1.5006 6.77496 1.5006L6.89649 1.5Z" fill="#333333"/>
<path fill-rule="evenodd" clip-rule="evenodd" d="M7.09179 9.47532C7.18159 9.55515 7.23605 9.66735 7.24319 9.7873C7.25033 9.90724 7.20958 10.0251 7.12988 10.115L5.51729 11.929C5.47474 11.9768 5.42254 12.0151 5.36413 12.0414C5.30572 12.0676 5.24241 12.0811 5.17838 12.0811C5.11435 12.0811 5.05104 12.0676 4.99263 12.0414C4.93422 12.0151 4.88202 11.9768 4.83947 11.929L4.03287 11.022C3.99333 10.9775 3.96295 10.9256 3.94346 10.8693C3.92398 10.813 3.91577 10.7534 3.9193 10.694C3.92284 10.6345 3.93806 10.5763 3.96408 10.5227C3.9901 10.4692 4.02642 10.4212 4.07097 10.3817C4.11551 10.3421 4.16741 10.3118 4.2237 10.2923C4.27998 10.2728 4.33956 10.2646 4.39902 10.2681C4.45848 10.2717 4.51666 10.2869 4.57024 10.3129C4.62382 10.3389 4.67175 10.3752 4.71129 10.4198L5.17808 10.9458L6.45147 9.51281C6.49105 9.4682 6.53905 9.43185 6.5927 9.40582C6.64636 9.37979 6.70462 9.3646 6.76416 9.36112C6.82369 9.35764 6.88333 9.36593 6.93965 9.38553C6.99597 9.40512 7.04728 9.43563 7.09179 9.47532Z" fill="#333333"/>
</svg>
