<svg width="16" height="16" viewBox="0 0 16 16" fill="none" xmlns="http://www.w3.org/2000/svg">
    <path
        d="M11.1121 14.406C10.9321 14.406 10.7761 14.376 10.6441 14.316C10.5241 14.268 10.4221 14.196 10.3381 14.1C10.2661 14.004 10.1941 13.902 10.1221 13.794L7.7641 10.23C7.5721 9.91797 7.3681 9.67197 7.1521 9.49197C6.9481 9.29997 6.7201 9.16797 6.4681 9.09597C6.2161 9.01197 5.9101 8.96997 5.5501 8.96997H3.5701C3.3421 8.96997 3.1621 8.90997 3.0301 8.78997C2.9101 8.65797 2.8501 8.48997 2.8501 8.28597C2.8501 8.06997 2.9101 7.90197 3.0301 7.78197C3.1621 7.66197 3.3421 7.60197 3.5701 7.60197H6.6121C7.6081 7.60197 8.3521 7.40397 8.8441 7.00797C9.3481 6.61197 9.6181 6.00597 9.6541 5.18997L9.8881 5.56797H3.5161C3.3001 5.56797 3.1321 5.51397 3.0121 5.40597C2.9041 5.29797 2.8501 5.15397 2.8501 4.97397C2.8501 4.78197 2.9041 4.63197 3.0121 4.52397C3.1321 4.41597 3.3001 4.36197 3.5161 4.36197H9.8881L9.6181 4.73997C9.5221 4.09197 9.2341 3.60597 8.7541 3.28197C8.2741 2.95797 7.6021 2.79597 6.7381 2.79597H3.5161C3.3001 2.79597 3.1321 2.74197 3.0121 2.63397C2.9041 2.52597 2.8501 2.37597 2.8501 2.18397C2.8501 2.00397 2.9041 1.85997 3.0121 1.75197C3.1321 1.64397 3.3001 1.58997 3.5161 1.58997H12.4801C12.6961 1.58997 12.8581 1.64397 12.9661 1.75197C13.0861 1.85997 13.1461 2.00397 13.1461 2.18397C13.1461 2.37597 13.0861 2.52597 12.9661 2.63397C12.8581 2.74197 12.6961 2.79597 12.4801 2.79597H9.4021L9.6901 2.41797C10.1461 2.64597 10.5001 2.95197 10.7521 3.33597C11.0161 3.70797 11.1781 4.15197 11.2381 4.66797L10.8961 4.36197H12.4801C12.6961 4.36197 12.8581 4.41597 12.9661 4.52397C13.0861 4.63197 13.1461 4.78197 13.1461 4.97397C13.1461 5.15397 13.0861 5.29797 12.9661 5.40597C12.8581 5.51397 12.6961 5.56797 12.4801 5.56797H10.9501L11.2741 5.13597C11.2981 5.90397 11.1421 6.56997 10.8061 7.13397C10.4701 7.69797 9.9781 8.12997 9.3301 8.42997C8.6941 8.72997 7.9201 8.87997 7.0081 8.87997V8.71797H7.3501C7.8301 8.71797 8.2501 8.82597 8.6101 9.04197C8.9821 9.25797 9.3421 9.63597 9.6901 10.176L11.7061 13.218C11.8381 13.398 11.8921 13.584 11.8681 13.776C11.8561 13.956 11.7841 14.106 11.6521 14.226C11.5201 14.346 11.3401 14.406 11.1121 14.406Z"
        fill="currentColor" />
</svg>