<svg width="16" height="18" viewBox="0 0 16 18" fill="none" xmlns="http://www.w3.org/2000/svg">
    <path
        d="M14.3117 8.7691C13.535 7.41644 11.8914 5.25872 9.15121 4.76928C9.733 4.32785 10.4835 3.56861 11.2246 2.27121C11.2702 2.19123 11.2838 2.0969 11.2626 2.00727C11.2415 1.91764 11.187 1.83939 11.1104 1.78833C11.0624 1.75633 9.90608 1 7.99998 1C6.09389 1 4.93758 1.75633 4.88958 1.78833C4.81293 1.83939 4.75852 1.91764 4.73733 2.00727C4.71613 2.0969 4.72974 2.19123 4.7754 2.27121C5.51646 3.56861 6.26697 4.32785 6.84877 4.76928C4.10925 5.25872 2.46496 7.41644 1.68755 8.7691C0.786495 10.3356 0.507235 12.0599 0.901399 13.6242C1.50646 16.0219 3.5631 17 7.99998 17C12.4369 17 14.4942 16.0219 15.0986 13.6242C15.4935 12.0613 15.2127 10.3363 14.3117 8.7691ZM5.59646 2.23122C6.01826 2.03413 6.85822 1.72724 7.99926 1.72724C9.1403 1.72724 9.98026 2.03413 10.4021 2.23122C9.32938 3.96714 8.30543 4.49002 7.99926 4.61438C7.69382 4.49002 6.66914 3.96641 5.59646 2.23122ZM14.3931 13.446C13.9648 15.1419 12.7132 16.272 7.99926 16.272C3.28529 16.272 2.03371 15.1419 1.60537 13.446C1.25702 12.0664 1.5101 10.5334 2.31733 9.13054C3.12021 7.73497 4.92449 5.39253 7.99926 5.39253C11.074 5.39253 12.879 7.73424 13.6805 9.13054C14.487 10.5341 14.7408 12.0657 14.3931 13.446Z"
        fill="currentColor" />
    <path
        d="M9.51509 14.0597C9.4253 14.0597 9.34748 14.0448 9.28163 14.0148C9.22177 13.9909 9.17089 13.955 9.12899 13.9071C9.09307 13.8592 9.05716 13.8083 9.02124 13.7544L7.84499 11.9766C7.74921 11.821 7.64745 11.6982 7.5397 11.6085C7.43794 11.5127 7.32421 11.4468 7.1985 11.4109C7.07279 11.369 6.92015 11.3481 6.74057 11.3481H5.75288C5.63914 11.3481 5.54935 11.3181 5.48351 11.2583C5.42365 11.1924 5.39372 11.1086 5.39372 11.0069C5.39372 10.8991 5.42365 10.8153 5.48351 10.7554C5.54935 10.6956 5.63914 10.6657 5.75288 10.6657H7.27033C7.76717 10.6657 8.1383 10.5669 8.38373 10.3694C8.63514 10.1718 8.76983 9.86952 8.78779 9.46247L8.90451 9.65103H5.72594C5.61819 9.65103 5.53439 9.62409 5.47453 9.57022C5.42065 9.51635 5.39372 9.44451 5.39372 9.35472C5.39372 9.25895 5.42065 9.18412 5.47453 9.13025C5.53439 9.07637 5.61819 9.04944 5.72594 9.04944H8.90451L8.76983 9.238C8.72194 8.91475 8.57828 8.67232 8.33884 8.51069C8.0994 8.34907 7.76418 8.26826 7.33319 8.26826H5.72594C5.61819 8.26826 5.53439 8.24132 5.47453 8.18745C5.42065 8.13358 5.39372 8.05875 5.39372 7.96297C5.39372 7.87318 5.42065 7.80135 5.47453 7.74748C5.53439 7.6936 5.61819 7.66667 5.72594 7.66667H10.1975C10.3052 7.66667 10.3861 7.6936 10.4399 7.74748C10.4998 7.80135 10.5297 7.87318 10.5297 7.96297C10.5297 8.05875 10.4998 8.13358 10.4399 8.18745C10.3861 8.24132 10.3052 8.26826 10.1975 8.26826H8.66208L8.80575 8.0797C9.03321 8.19344 9.2098 8.34608 9.33551 8.53763C9.4672 8.7232 9.54801 8.94468 9.57794 9.20208L9.40734 9.04944H10.1975C10.3052 9.04944 10.3861 9.07637 10.4399 9.13025C10.4998 9.18412 10.5297 9.25895 10.5297 9.35472C10.5297 9.44451 10.4998 9.51635 10.4399 9.57022C10.3861 9.62409 10.3052 9.65103 10.1975 9.65103H9.43428L9.5959 9.43553C9.60787 9.81864 9.53005 10.1509 9.36244 10.4322C9.19484 10.7135 8.94941 10.929 8.62616 11.0787C8.30891 11.2283 7.92281 11.3032 7.46787 11.3032V11.2224H7.63847C7.87791 11.2224 8.08742 11.2762 8.267 11.384C8.45257 11.4917 8.63215 11.6803 8.80575 11.9497L9.81139 13.4671C9.87724 13.5569 9.90418 13.6497 9.89221 13.7455C9.88622 13.8353 9.8503 13.9101 9.78446 13.9699C9.71861 14.0298 9.62882 14.0597 9.51509 14.0597Z"
        fill="currentColor" />
    <path
        d="M14.3117 8.7691C13.535 7.41644 11.8914 5.25872 9.15121 4.76928C9.733 4.32785 10.4835 3.56861 11.2246 2.27121C11.2702 2.19123 11.2838 2.0969 11.2626 2.00727C11.2415 1.91764 11.187 1.83939 11.1104 1.78833C11.0624 1.75633 9.90608 1 7.99998 1C6.09389 1 4.93758 1.75633 4.88958 1.78833C4.81293 1.83939 4.75852 1.91764 4.73733 2.00727C4.71613 2.0969 4.72974 2.19123 4.7754 2.27121C5.51646 3.56861 6.26697 4.32785 6.84877 4.76928C4.10925 5.25872 2.46496 7.41644 1.68755 8.7691C0.786495 10.3356 0.507235 12.0599 0.901399 13.6242C1.50646 16.0219 3.5631 17 7.99998 17C12.4369 17 14.4942 16.0219 15.0986 13.6242C15.4935 12.0613 15.2127 10.3363 14.3117 8.7691ZM5.59646 2.23122C6.01826 2.03413 6.85822 1.72724 7.99926 1.72724C9.1403 1.72724 9.98026 2.03413 10.4021 2.23122C9.32938 3.96714 8.30543 4.49002 7.99926 4.61438C7.69382 4.49002 6.66914 3.96641 5.59646 2.23122ZM14.3931 13.446C13.9648 15.1419 12.7132 16.272 7.99926 16.272C3.28529 16.272 2.03371 15.1419 1.60537 13.446C1.25702 12.0664 1.5101 10.5334 2.31733 9.13054C3.12021 7.73497 4.92449 5.39253 7.99926 5.39253C11.074 5.39253 12.879 7.73424 13.6805 9.13054C14.487 10.5341 14.7408 12.0657 14.3931 13.446Z"
        stroke="currentColor" stroke-width="0.3" />
    <path
        d="M9.51509 14.0597C9.4253 14.0597 9.34748 14.0448 9.28163 14.0148C9.22177 13.9909 9.17089 13.955 9.12899 13.9071C9.09307 13.8592 9.05716 13.8083 9.02124 13.7544L7.84499 11.9766C7.74921 11.821 7.64745 11.6982 7.5397 11.6085C7.43794 11.5127 7.32421 11.4468 7.1985 11.4109C7.07279 11.369 6.92015 11.3481 6.74057 11.3481H5.75288C5.63914 11.3481 5.54935 11.3181 5.48351 11.2583C5.42365 11.1924 5.39372 11.1086 5.39372 11.0069C5.39372 10.8991 5.42365 10.8153 5.48351 10.7554C5.54935 10.6956 5.63914 10.6657 5.75288 10.6657H7.27033C7.76717 10.6657 8.1383 10.5669 8.38373 10.3694C8.63514 10.1718 8.76983 9.86952 8.78779 9.46247L8.90451 9.65103H5.72594C5.61819 9.65103 5.53439 9.62409 5.47453 9.57022C5.42065 9.51635 5.39372 9.44451 5.39372 9.35472C5.39372 9.25895 5.42065 9.18412 5.47453 9.13025C5.53439 9.07637 5.61819 9.04944 5.72594 9.04944H8.90451L8.76983 9.238C8.72194 8.91475 8.57828 8.67232 8.33884 8.51069C8.0994 8.34907 7.76418 8.26826 7.33319 8.26826H5.72594C5.61819 8.26826 5.53439 8.24132 5.47453 8.18745C5.42065 8.13358 5.39372 8.05875 5.39372 7.96297C5.39372 7.87318 5.42065 7.80135 5.47453 7.74748C5.53439 7.6936 5.61819 7.66667 5.72594 7.66667H10.1975C10.3052 7.66667 10.3861 7.6936 10.4399 7.74748C10.4998 7.80135 10.5297 7.87318 10.5297 7.96297C10.5297 8.05875 10.4998 8.13358 10.4399 8.18745C10.3861 8.24132 10.3052 8.26826 10.1975 8.26826H8.66208L8.80575 8.0797C9.03321 8.19344 9.2098 8.34608 9.33551 8.53763C9.4672 8.7232 9.54801 8.94468 9.57794 9.20208L9.40734 9.04944H10.1975C10.3052 9.04944 10.3861 9.07637 10.4399 9.13025C10.4998 9.18412 10.5297 9.25895 10.5297 9.35472C10.5297 9.44451 10.4998 9.51635 10.4399 9.57022C10.3861 9.62409 10.3052 9.65103 10.1975 9.65103H9.43428L9.5959 9.43553C9.60787 9.81864 9.53005 10.1509 9.36244 10.4322C9.19484 10.7135 8.94941 10.929 8.62616 11.0787C8.30891 11.2283 7.92281 11.3032 7.46787 11.3032V11.2224H7.63847C7.87791 11.2224 8.08742 11.2762 8.267 11.384C8.45257 11.4917 8.63215 11.6803 8.80575 11.9497L9.81139 13.4671C9.87724 13.5569 9.90418 13.6497 9.89221 13.7455C9.88622 13.8353 9.8503 13.9101 9.78446 13.9699C9.71861 14.0298 9.62882 14.0597 9.51509 14.0597Z"
        stroke="currentColor" stroke-width="0.3" />
</svg>