<svg width="16" height="16" viewBox="0 0 16 16" fill="none" xmlns="http://www.w3.org/2000/svg">
  <g clip-path="url(#clip0_1139_56104)">
    <path d="M4 12L14 2" stroke="currentColor" stroke-linecap="round" />
    <path fill-rule="evenodd" clip-rule="evenodd"
      d="M10.0956 2.72195C11.3602 2.30046 12.2546 2.00371 12.9163 1.886C13.5817 1.76764 13.8394 1.86308 13.9881 2.01179C14.1368 2.16049 14.2322 2.41816 14.1139 3.08348C13.9962 3.74518 13.6994 4.63958 13.2779 5.90405L13.0933 6.45793C13.4053 6.602 13.7001 6.77729 13.9734 6.97979L14.2266 6.22029L14.2408 6.1775C14.6449 4.96543 14.9663 4.00128 15.0984 3.25863C15.2314 2.51088 15.2054 1.81492 14.6952 1.30467L14.3416 1.65823L14.6952 1.30467C14.1849 0.794425 13.4889 0.76844 12.7412 0.901457C11.9985 1.03357 11.0343 1.35496 9.82223 1.75899L9.77942 1.77326L3.5586 3.84679L3.52527 3.8579C2.85968 4.07974 2.3145 4.26145 1.91257 4.45446C1.50151 4.65185 1.13852 4.90688 0.962259 5.3327C0.892232 5.50188 0.849892 5.68122 0.836865 5.86386C0.804074 6.32355 1.01469 6.71399 1.29407 7.07437C1.56725 7.42675 1.97361 7.83308 2.46973 8.32915L2.49456 8.35398L2.68298 8.5424C2.86655 8.72596 2.91045 8.77282 2.94178 8.81894C3.01589 8.92806 3.05795 9.05576 3.06321 9.18757C3.06543 9.24327 3.05797 9.30704 3.01944 9.56376L3.01704 9.57976C2.95384 10.0008 2.90305 10.3392 2.8787 10.6134C2.85392 10.8924 2.85202 11.1456 2.90776 11.3881C3.10325 12.2389 3.76179 12.9068 4.60975 13.1142C4.85153 13.1734 5.10468 13.175 5.38404 13.1542C5.65856 13.1337 5.99758 13.0877 6.41941 13.0304L6.41957 13.0304L6.42889 13.0292C6.29238 12.7221 6.1859 12.3987 6.11318 12.0628C5.76932 12.1091 5.51472 12.1416 5.30963 12.157C5.07017 12.1748 4.93893 12.1653 4.84739 12.1429C4.36658 12.0252 3.9932 11.6466 3.88236 11.1642C3.86126 11.0724 3.85354 10.941 3.87478 10.7018C3.89614 10.4613 3.94221 10.1529 4.00836 9.71219L4.01399 9.67482C4.04425 9.47393 4.0689 9.31033 4.06242 9.14772L3.63195 9.16488L4.06242 9.14771C4.04972 8.82928 3.94808 8.52076 3.76904 8.25712C3.67761 8.12249 3.56055 8.00557 3.41681 7.86199L3.4168 7.86198L3.39008 7.83528L3.20166 7.64686C2.67458 7.11981 2.31411 6.75799 2.0844 6.46168C1.85634 6.1675 1.82793 6.02466 1.83433 5.93501C1.83972 5.85941 1.85725 5.78518 1.88623 5.71516C1.92061 5.6321 2.0099 5.51704 2.34545 5.35591C2.68344 5.1936 3.16767 5.03118 3.87482 4.79548L10.0956 2.72195Z"
      fill="currentColor" />
    <path
      d="M13.4312 10.4629V10.2378C13.4312 9.00192 12.4659 8 11.2751 8C10.0843 8 9.11898 9.00192 9.11898 10.2378V10.4629C9.11898 10.7331 9.04194 10.9972 8.89757 11.2219L8.54378 11.7727C8.22063 12.2758 8.46732 12.9597 9.02937 13.1188C10.4997 13.535 12.0505 13.535 13.5208 13.1188C14.0829 12.9597 14.3296 12.2758 14.0064 11.7727L13.6526 11.2219C13.5082 10.9972 13.4312 10.7331 13.4312 10.4629Z"
      stroke="currentColor" />
    <path d="M9.8374 13.7416C10.0467 14.2999 10.6113 14.7 11.275 14.7C11.9387 14.7 12.5033 14.2999 12.7126 13.7416"
      stroke="currentColor" stroke-width="0.7" stroke-linecap="round" />
  </g>
  <defs>
    <clipPath id="clip0_1139_56104">
      <rect width="16" height="16" fill="white" />
    </clipPath>
  </defs>
</svg>