<svg width="16" height="16" viewBox="0 0 16 16" fill="none" xmlns="http://www.w3.org/2000/svg">
    <path fill-rule="evenodd" clip-rule="evenodd"
        d="M8.00003 5.55814C7.35241 5.55814 6.73131 5.81541 6.27337 6.27334C5.81544 6.73128 5.55817 7.35238 5.55817 8C5.55817 8.64762 5.81544 9.26872 6.27337 9.72666C6.73131 10.1846 7.35241 10.4419 8.00003 10.4419C8.64765 10.4419 9.26875 10.1846 9.72669 9.72666C10.1846 9.26872 10.4419 8.64762 10.4419 8C10.4419 7.35238 10.1846 6.73128 9.72669 6.27334C9.26875 5.81541 8.64765 5.55814 8.00003 5.55814ZM6.53491 8C6.53491 7.61143 6.68927 7.23877 6.96404 6.96401C7.2388 6.68924 7.61146 6.53488 8.00003 6.53488C8.3886 6.53488 8.76126 6.68924 9.03602 6.96401C9.31079 7.23877 9.46515 7.61143 9.46515 8C9.46515 8.38857 9.31079 8.76123 9.03602 9.03599C8.76126 9.31076 8.3886 9.46512 8.00003 9.46512C7.61146 9.46512 7.2388 9.31076 6.96404 9.03599C6.68927 8.76123 6.53491 8.38857 6.53491 8Z"
        fill="currentColor" />
    <path fill-rule="evenodd" clip-rule="evenodd"
        d="M7.98373 1C7.69397 1 7.45238 1 7.25443 1.01302C7.05206 1.02117 6.85246 1.06299 6.66383 1.13674C6.4465 1.22666 6.24902 1.35851 6.08266 1.52476C5.91629 1.69101 5.78431 1.88841 5.69425 2.10567C5.59983 2.33358 5.57443 2.57451 5.56401 2.83628C5.56285 2.93199 5.53745 3.02584 5.4902 3.10908C5.44294 3.19232 5.37537 3.26223 5.29378 3.31228C5.20967 3.35807 5.11532 3.38179 5.01955 3.38122C4.92378 3.38065 4.82972 3.35581 4.74615 3.30902C4.51434 3.1866 4.29294 3.08828 4.04811 3.05572C3.81495 3.02505 3.57804 3.04061 3.3509 3.1015C3.12376 3.16239 2.91084 3.26742 2.72429 3.4106C2.56632 3.53724 2.43053 3.68931 2.32252 3.86056C2.21183 4.02595 2.09071 4.23498 1.94615 4.48567L1.92987 4.51433C1.78466 4.76502 1.6642 4.97405 1.57694 5.15246C1.48578 5.3387 1.41415 5.52233 1.38811 5.72549C1.32599 6.19627 1.4534 6.67245 1.74234 7.0493C1.89276 7.2453 2.08876 7.38791 2.31015 7.52726C2.39261 7.57615 2.46131 7.64516 2.50983 7.72785C2.55835 7.81053 2.58509 7.90417 2.58755 8C2.58509 8.09583 2.55835 8.18947 2.50983 8.27215C2.46131 8.35484 2.39261 8.42385 2.31015 8.47274C2.08876 8.61209 1.89341 8.7547 1.74234 8.9507C1.59916 9.13725 1.49412 9.35017 1.43323 9.57731C1.37234 9.80445 1.35679 10.0414 1.38745 10.2745C1.41415 10.4777 1.48513 10.6613 1.57629 10.8475C1.6642 11.026 1.78466 11.235 1.92987 11.4857L1.94615 11.5143C2.09071 11.765 2.21183 11.974 2.32252 12.1394C2.43778 12.3107 2.5615 12.465 2.72429 12.5887C2.91079 12.732 3.12369 12.8372 3.35083 12.8982C3.57798 12.9592 3.81491 12.9749 4.04811 12.9443C4.29294 12.9117 4.51434 12.814 4.74615 12.691C4.82964 12.6443 4.92358 12.6195 5.01922 12.619C5.11486 12.6184 5.2091 12.642 5.29313 12.6877C5.37538 12.7371 5.44355 12.8069 5.4911 12.8902C5.53865 12.9736 5.56398 13.0678 5.56466 13.1637C5.57443 13.4255 5.59983 13.6664 5.6949 13.8943C5.78482 14.1117 5.91667 14.3091 6.08292 14.4755C6.24917 14.6419 6.44656 14.7738 6.66383 14.8639C6.85266 14.942 7.04801 14.9727 7.25443 14.9863C7.45238 15 7.69397 15 7.98373 15H8.01629C8.30606 15 8.54764 15 8.74559 14.987C8.95266 14.9727 9.14736 14.942 9.3362 14.8633C9.55352 14.7733 9.75101 14.6415 9.91737 14.4752C10.0837 14.309 10.2157 14.1116 10.3058 13.8943C10.4002 13.6664 10.4256 13.4255 10.436 13.1637C10.4371 13.0679 10.4624 12.9739 10.5097 12.8906C10.5569 12.8072 10.6246 12.7372 10.7062 12.6871C10.7904 12.6414 10.8848 12.6178 10.9806 12.6185C11.0763 12.6191 11.1704 12.6441 11.2539 12.691C11.4857 12.8134 11.7071 12.9117 11.9519 12.9436C12.4227 13.0057 12.8989 12.8783 13.2757 12.5894C13.4385 12.4644 13.5622 12.3107 13.6775 12.1394C13.7882 11.974 13.9093 11.765 14.0539 11.5143L14.0702 11.4857C14.2154 11.235 14.3358 11.026 14.4231 10.8475C14.5142 10.6613 14.5859 10.477 14.6119 10.2745C14.674 9.80373 14.5466 9.32755 14.2577 8.9507C14.1073 8.7547 13.9113 8.61209 13.6899 8.47274C13.6074 8.42385 13.5387 8.35484 13.4902 8.27215C13.4417 8.18947 13.4149 8.09583 13.4125 8C13.4125 7.81898 13.5115 7.63926 13.6899 7.52726C13.9113 7.38791 14.1066 7.2453 14.2577 7.0493C14.4009 6.86275 14.5059 6.64983 14.5668 6.42269C14.6277 6.19555 14.6432 5.95864 14.6126 5.72549C14.5819 5.52532 14.5181 5.33166 14.4237 5.15246C14.3125 4.93613 14.1946 4.72332 14.0702 4.51433L14.0539 4.48567C13.9349 4.27345 13.8094 4.06497 13.6775 3.86056C13.5694 3.68954 13.4337 3.5377 13.2757 3.41126C13.0892 3.26796 12.8763 3.16281 12.6492 3.10181C12.422 3.0408 12.1851 3.02514 11.9519 3.05572C11.7071 3.08828 11.4857 3.18595 11.2539 3.30902C11.1704 3.3557 11.0764 3.38047 10.9808 3.38104C10.8852 3.38161 10.7909 3.35795 10.7069 3.31228C10.6251 3.26238 10.5572 3.19254 10.5097 3.1093C10.4623 3.02605 10.4367 2.93211 10.4354 2.83628C10.4256 2.57451 10.4002 2.33358 10.3051 2.10567C10.2152 1.88835 10.0834 1.69087 9.91711 1.5245C9.75086 1.35814 9.55346 1.22616 9.3362 1.13609C9.14736 1.05795 8.95201 1.02735 8.74559 1.01367C8.54764 1 8.30606 1 8.01629 1H7.98373ZM7.03759 2.0386C7.08773 2.01777 7.16392 1.99888 7.32085 1.98781C7.48169 1.97674 7.69006 1.97674 8.00001 1.97674C8.30997 1.97674 8.51834 1.97674 8.67918 1.98781C8.83611 1.99888 8.91229 2.01777 8.96243 2.0386C9.16234 2.1213 9.32057 2.27953 9.40327 2.47944C9.42931 2.54195 9.4508 2.64028 9.45927 2.87274C9.4788 3.38847 9.74513 3.8853 10.2179 4.15814C10.6906 4.43098 11.2539 4.4134 11.7103 4.17247C11.9161 4.06372 12.0118 4.03312 12.0795 4.02465C12.2935 3.99638 12.5099 4.05423 12.6812 4.18549C12.7242 4.2187 12.7789 4.27535 12.8668 4.40558C12.9573 4.53972 13.0615 4.72009 13.2165 4.98837C13.3715 5.25665 13.475 5.43767 13.546 5.58223C13.6156 5.72353 13.6371 5.79907 13.6436 5.85312C13.6719 6.06707 13.6141 6.28348 13.4828 6.45479C13.4411 6.50884 13.3669 6.57656 13.1702 6.70028C12.7327 6.97507 12.4357 7.45433 12.4357 8C12.4357 8.54567 12.7327 9.02493 13.1702 9.29972C13.3669 9.42344 13.4411 9.49116 13.4828 9.54521C13.6143 9.71646 13.6716 9.93265 13.6436 10.1469C13.6371 10.2009 13.615 10.2771 13.546 10.4178C13.475 10.563 13.3715 10.7433 13.2165 11.0116C13.0615 11.2799 12.9567 11.4603 12.8668 11.5944C12.7789 11.7247 12.7242 11.7813 12.6812 11.8145C12.5099 11.9458 12.2935 12.0036 12.0795 11.9753C12.0118 11.9669 11.9168 11.9363 11.7103 11.8275C11.2545 11.5866 10.6906 11.5684 10.2179 11.8412C9.74513 12.114 9.4788 12.6115 9.45927 13.1273C9.4508 13.3597 9.42931 13.458 9.40327 13.5206C9.36236 13.6194 9.30237 13.7092 9.22673 13.7849C9.15109 13.8605 9.06128 13.9205 8.96243 13.9614C8.91229 13.9822 8.83611 14.0011 8.67918 14.0122C8.51834 14.0233 8.30997 14.0233 8.00001 14.0233C7.69006 14.0233 7.48169 14.0233 7.32085 14.0122C7.16392 14.0011 7.08773 13.9822 7.03759 13.9614C6.93875 13.9205 6.84894 13.8605 6.7733 13.7849C6.69765 13.7092 6.63766 13.6194 6.59676 13.5206C6.57071 13.458 6.54922 13.3597 6.54076 13.1273C6.52122 12.6115 6.2549 12.1147 5.78215 11.8419C5.30941 11.569 4.74615 11.5866 4.28969 11.8275C4.08392 11.9363 3.9882 11.9669 3.92048 11.9753C3.70653 12.0036 3.49011 11.9458 3.3188 11.8145C3.27583 11.7813 3.22113 11.7247 3.13322 11.5944C3.01073 11.4038 2.89411 11.2094 2.78355 11.0116C2.62857 10.7433 2.52504 10.5623 2.45406 10.4178C2.38439 10.2765 2.3629 10.2009 2.35639 10.1469C2.32811 9.93293 2.38597 9.71652 2.51722 9.54521C2.5589 9.49116 2.63313 9.42344 2.82978 9.29972C3.26736 9.02493 3.56429 8.54567 3.56429 8C3.56429 7.45433 3.26736 6.97507 2.82978 6.70028C2.63313 6.57656 2.5589 6.50884 2.51722 6.45479C2.38597 6.28348 2.32811 6.06707 2.35639 5.85312C2.3629 5.79907 2.38504 5.72288 2.45406 5.58223C2.52504 5.43702 2.62857 5.25665 2.78355 4.98837C2.93852 4.72009 3.04336 4.53972 3.13322 4.40558C3.22113 4.27535 3.27583 4.2187 3.3188 4.18549C3.49011 4.05423 3.70653 3.99638 3.92048 4.02465C3.9882 4.03312 4.08327 4.06372 4.28969 4.17247C4.7455 4.4134 5.30941 4.43163 5.78215 4.15814C6.2549 3.8853 6.52122 3.38847 6.54076 2.87274C6.54922 2.64028 6.57071 2.54195 6.59676 2.47944C6.67945 2.27953 6.83769 2.1213 7.03759 2.0386Z"
        fill="currentColor" />
</svg>