<svg width="16" height="16" viewBox="0 0 16 16" fill="none" xmlns="http://www.w3.org/2000/svg">
    <path
        d="M12.3636 14H3.63636C3.20237 14 2.78616 13.8276 2.47928 13.5207C2.1724 13.2138 2 12.7976 2 12.3636V3.63636C2 3.20237 2.1724 2.78616 2.47928 2.47928C2.78616 2.1724 3.20237 2 3.63636 2H5.90909C6.05375 2 6.19249 2.05747 6.29479 2.15976C6.39708 2.26205 6.45455 2.40079 6.45455 2.54545C6.45455 2.69012 6.39708 2.82886 6.29479 2.93115C6.19249 3.03344 6.05375 3.09091 5.90909 3.09091H3.63636C3.4917 3.09091 3.35296 3.14838 3.25067 3.25067C3.14838 3.35296 3.09091 3.4917 3.09091 3.63636V12.3636C3.09091 12.5083 3.14838 12.647 3.25067 12.7493C3.35296 12.8516 3.4917 12.9091 3.63636 12.9091H12.3636C12.5083 12.9091 12.647 12.8516 12.7493 12.7493C12.8516 12.647 12.9091 12.5083 12.9091 12.3636V10.0909C12.9091 9.94625 12.9666 9.80751 13.0689 9.70521C13.1711 9.60292 13.3099 9.54545 13.4545 9.54545C13.5992 9.54545 13.7379 9.60292 13.8402 9.70521C13.9425 9.80751 14 9.94625 14 10.0909V12.3636C14 12.7976 13.8276 13.2138 13.5207 13.5207C13.2138 13.8276 12.7976 14 12.3636 14ZM7.90909 8.63636C7.83731 8.63678 7.76614 8.62302 7.69969 8.59588C7.63323 8.56873 7.57279 8.52874 7.52182 8.47818C7.47069 8.42747 7.43011 8.36715 7.40242 8.30068C7.37473 8.23421 7.36047 8.16292 7.36047 8.09091C7.36047 8.0189 7.37473 7.94761 7.40242 7.88114C7.43011 7.81467 7.47069 7.75434 7.52182 7.70364L12.14 3.09091H10.1818C10.0372 3.09091 9.89842 3.03344 9.79612 2.93115C9.69383 2.82886 9.63636 2.69012 9.63636 2.54545C9.63636 2.40079 9.69383 2.26205 9.79612 2.15976C9.89842 2.05747 10.0372 2 10.1818 2H13.4545C13.5992 2 13.7379 2.05747 13.8402 2.15976C13.9425 2.26205 14 2.40079 14 2.54545V5.81818C14 5.96285 13.9425 6.10158 13.8402 6.20388C13.7379 6.30617 13.5992 6.36364 13.4545 6.36364C13.3099 6.36364 13.1711 6.30617 13.0689 6.20388C12.9666 6.10158 12.9091 5.96285 12.9091 5.81818V3.86L8.29636 8.47818C8.2454 8.52874 8.18495 8.56873 8.11849 8.59588C8.05204 8.62302 7.98088 8.63678 7.90909 8.63636Z"
        fill="currentColor" />
</svg>