<svg width="16" height="16" viewBox="0 0 16 16" fill="none" xmlns="http://www.w3.org/2000/svg">
    <path
        d="M10.9953 5.00375H7.01693C6.6171 5.00375 6.24226 4.84881 5.95737 4.56393L5.07274 3.6793C4.97278 3.57934 4.97278 3.42441 5.07274 3.32445L5.95737 2.43982C6.24226 2.15494 6.6171 2 7.01693 2H10.9953C11.8199 2 12.4946 2.67472 12.4946 3.49938C12.4946 4.32403 11.8199 4.99875 10.9953 4.99875V5.00375ZM5.60252 3.50437L6.30723 4.20908C6.49715 4.399 6.74704 4.50396 7.01193 4.50396H10.9903C11.54 4.50396 11.9899 4.05414 11.9899 3.50437C11.9899 2.9546 11.54 2.50479 10.9903 2.50479H7.01193C6.74704 2.50479 6.49215 2.60975 6.30723 2.79967L5.60252 3.50437ZM9.99569 14H7.01693C6.6171 14 6.24226 13.8451 5.95737 13.5602L5.07274 12.6756C4.97278 12.5756 4.97278 12.4207 5.07274 12.3207L5.95737 11.4361C6.24226 11.1512 6.6171 10.9963 7.01693 10.9963H9.99569C10.8203 10.9963 11.4951 11.671 11.4951 12.4956C11.4951 13.3203 10.8203 13.995 9.99569 13.995V14ZM5.60252 12.5006L6.30723 13.2053C6.49715 13.3953 6.74704 13.5002 7.01193 13.5002H9.99069C10.5405 13.5002 10.9903 13.0504 10.9903 12.5006C10.9903 11.9509 10.5405 11.501 9.99069 11.501H7.01193C6.74704 11.501 6.49215 11.606 6.30723 11.7959L5.60252 12.5006ZM12.4946 9.50187H7.01693C6.6171 9.50187 6.24226 9.34694 5.95737 9.06206L5.07274 8.17743C4.97278 8.07747 4.97278 7.92253 5.07274 7.82257L5.95737 6.93794C6.24226 6.65306 6.6171 6.49813 7.01693 6.49813H12.4946C13.3193 6.49813 13.994 7.17284 13.994 7.9975C13.994 8.82216 13.3193 9.49688 12.4946 9.49688V9.50187ZM5.60252 8.0025L6.30723 8.70721C6.49715 8.89713 6.74704 9.00208 7.01193 9.00208H12.4897C13.0394 9.00208 13.4892 8.55227 13.4892 8.0025C13.4892 7.45273 13.0394 7.00292 12.4897 7.00292H7.01693C6.75204 7.00292 6.49715 7.10787 6.31223 7.29779L5.60752 8.0025H5.60252ZM2.99861 13.5002C2.44884 13.5002 1.99902 13.0504 1.99902 12.5006C1.99902 11.9509 2.44884 11.501 2.99861 11.501C3.54838 11.501 3.99819 11.9509 3.99819 12.5006C3.99819 13.0504 3.54838 13.5002 2.99861 13.5002ZM2.99861 12.0008C2.72372 12.0008 2.49882 12.2257 2.49882 12.5006C2.49882 12.7755 2.72372 13.0004 2.99861 13.0004C3.27349 13.0004 3.4984 12.7755 3.4984 12.5006C3.4984 12.2257 3.27349 12.0008 2.99861 12.0008ZM2.99861 9.00208C2.44884 9.00208 1.99902 8.55227 1.99902 8.0025C1.99902 7.45273 2.44884 7.00292 2.99861 7.00292C3.54838 7.00292 3.99819 7.45273 3.99819 8.0025C3.99819 8.55227 3.54838 9.00208 2.99861 9.00208ZM2.99861 7.50271C2.72372 7.50271 2.49882 7.72761 2.49882 8.0025C2.49882 8.27738 2.72372 8.50229 2.99861 8.50229C3.27349 8.50229 3.4984 8.27738 3.4984 8.0025C3.4984 7.72761 3.27349 7.50271 2.99861 7.50271ZM2.99861 4.50396C2.44884 4.50396 1.99902 4.05414 1.99902 3.50437C1.99902 2.9546 2.44884 2.50479 2.99861 2.50479C3.54838 2.50479 3.99819 2.9546 3.99819 3.50437C3.99819 4.05414 3.54838 4.50396 2.99861 4.50396ZM2.99861 3.00458C2.72372 3.00458 2.49882 3.22949 2.49882 3.50437C2.49882 3.77926 2.72372 4.00417 2.99861 4.00417C3.27349 4.00417 3.4984 3.77926 3.4984 3.50437C3.4984 3.22949 3.27349 3.00458 2.99861 3.00458Z"
        fill="currentColor" stroke="currentColor" stroke-width="0.499792" />
</svg>