<svg width="16" height="16" viewBox="0 0 16 16" fill="none" xmlns="http://www.w3.org/2000/svg">
    <path
        d="M2.27258 1.63708C1.93507 1.63708 1.61138 1.77116 1.37273 2.00981C1.13407 2.24847 1 2.57215 1 2.90966V6.30319C1 6.6407 1.13407 6.96439 1.37273 7.20304C1.61138 7.4417 1.93507 7.57577 2.27258 7.57577H9.90803C10.2455 7.57577 10.5692 7.4417 10.8079 7.20304C11.0465 6.96439 11.1806 6.6407 11.1806 6.30319V2.90966C11.1806 2.57215 11.0465 2.24847 10.8079 2.00981C10.5692 1.77116 10.2455 1.63708 9.90803 1.63708H2.27258ZM1.84838 2.90966C1.84838 2.79716 1.89307 2.68926 1.97263 2.60971C2.05218 2.53016 2.16007 2.48547 2.27258 2.48547H9.90803C10.0205 2.48547 10.1284 2.53016 10.208 2.60971C10.2875 2.68926 10.3322 2.79716 10.3322 2.90966V6.30319C10.3322 6.4157 10.2875 6.52359 10.208 6.60314C10.1284 6.68269 10.0205 6.72739 9.90803 6.72739H2.27258C2.16007 6.72739 2.05218 6.68269 1.97263 6.60314C1.89307 6.52359 1.84838 6.4157 1.84838 6.30319V2.90966ZM2.27258 8.42415C1.93507 8.42415 1.61138 8.55823 1.37273 8.79688C1.13407 9.03554 1 9.35922 1 9.69673V13.0903C1 13.4278 1.13407 13.7515 1.37273 13.9901C1.61138 14.2288 1.93507 14.3628 2.27258 14.3628H9.90803C10.2455 14.3628 10.5692 14.2288 10.8079 13.9901C11.0465 13.7515 11.1806 13.4278 11.1806 13.0903V9.69673C11.1806 9.35922 11.0465 9.03554 10.8079 8.79688C10.5692 8.55823 10.2455 8.42415 9.90803 8.42415H2.27258ZM1.84838 9.69673C1.84838 9.58423 1.89307 9.47633 1.97263 9.39678C2.05218 9.31723 2.16007 9.27254 2.27258 9.27254H9.90803C10.0205 9.27254 10.1284 9.31723 10.208 9.39678C10.2875 9.47633 10.3322 9.58423 10.3322 9.69673V13.0903C10.3322 13.2028 10.2875 13.3107 10.208 13.3902C10.1284 13.4698 10.0205 13.5145 9.90803 13.5145H2.27258C2.16007 13.5145 2.05218 13.4698 1.97263 13.3902C1.89307 13.3107 1.84838 13.2028 1.84838 13.0903V9.69673ZM13.7258 9.64328C13.475 9.7075 13.2129 9.7136 12.9595 9.66111C12.706 9.60862 12.4679 9.49893 12.2633 9.3404C12.0587 9.18188 11.893 8.97871 11.7789 8.7464C11.6648 8.5141 11.6052 8.25879 11.6048 7.99996C11.6047 7.62372 11.7297 7.25812 11.96 6.96065C12.1904 6.66317 12.5131 6.4507 12.8774 6.35664C13.1556 6.2848 13.4475 6.2848 13.7258 6.35664C14.0904 6.45039 14.4134 6.66272 14.6441 6.96023C14.8748 7.25773 15 7.6235 15 7.99996C15 8.37642 14.8748 8.7422 14.6441 9.0397C14.4134 9.3372 14.0904 9.54954 13.7258 9.64328ZM13.3016 1.63708C13.4141 1.63708 13.522 1.68178 13.6015 1.76133C13.6811 1.84088 13.7258 1.94877 13.7258 2.06128V5.48959C13.4449 5.44213 13.1582 5.44213 12.8774 5.48959V2.06128C12.8774 1.94877 12.9221 1.84088 13.0016 1.76133C13.0812 1.68178 13.1891 1.63708 13.3016 1.63708ZM13.3016 10.5451C13.1573 10.5451 13.0159 10.5335 12.8774 10.5103V13.9386C12.8774 14.0511 12.9221 14.159 13.0016 14.2386C13.0812 14.3181 13.1891 14.3628 13.3016 14.3628C13.4141 14.3628 13.522 14.3181 13.6015 14.2386C13.6811 14.159 13.7258 14.0511 13.7258 13.9386V10.5103C13.5872 10.533 13.4458 10.5445 13.3016 10.5451Z"
        fill="currentColor" />
</svg>