<svg width="16" height="16" viewBox="0 0 16 16" fill="none" xmlns="http://www.w3.org/2000/svg">
    <g clip-path="url(#clip0_42_12092)">
        <path
            d="M10.6973 10.6666H12.396C12.4049 10.7733 12.4093 10.8844 12.4093 11C12.4122 11.4924 12.3084 11.9796 12.1052 12.4282C11.902 12.8768 11.6041 13.276 11.232 13.5986C10.8533 13.932 10.3956 14.1933 9.85867 14.3826C9.27201 14.5797 8.65614 14.6757 8.03733 14.6666C7.19568 14.6746 6.36132 14.51 5.58575 14.183C4.81018 13.856 4.10986 13.3735 3.528 12.7653C3.27022 12.4204 3.27022 12.0986 3.528 11.8C3.78578 11.5031 4.11244 11.4453 4.508 11.6266C4.96578 12.1102 5.50489 12.4995 6.12533 12.7946C6.74667 13.088 7.39067 13.2346 8.05733 13.2346C8.90711 13.2346 9.56711 13.0422 10.0373 12.6573C10.5084 12.2706 10.744 11.764 10.744 11.1373C10.7453 10.9793 10.7301 10.8215 10.6987 10.6666M4.78133 6.66663C4.62461 6.45744 4.49304 6.23055 4.38933 5.99063C4.2248 5.59648 4.14442 5.17231 4.15333 4.7453C4.15333 4.26174 4.25467 3.81063 4.45733 3.39196C4.66 2.9733 4.94133 2.61063 5.30133 2.30396C5.66133 1.9973 6.08578 1.75863 6.57467 1.58796C7.09625 1.41343 7.64335 1.32736 8.19333 1.3333C8.964 1.3333 9.67645 1.47996 10.3307 1.7733C10.984 2.06841 11.5396 2.45107 11.9973 2.9213C12.2107 3.2973 12.2107 3.60485 11.9973 3.84396C11.784 4.08396 11.4898 4.1293 11.1147 3.97996C10.7356 3.60859 10.2942 3.30668 9.81067 3.08796C9.30103 2.86535 8.74938 2.75529 8.19333 2.7653C7.47333 2.7653 6.89467 2.93196 6.45733 3.2653C6.02 3.59863 5.80133 4.05907 5.80133 4.64663C5.80133 4.9613 5.86356 5.22618 5.988 5.4413C6.11067 5.6573 6.27689 5.84663 6.48667 6.0093C6.69644 6.17285 6.92533 6.31685 7.17333 6.4413C7.33244 6.5213 7.49333 6.59641 7.656 6.66663H4.78133ZM0.666667 7.99996H15.3333C15.5101 7.99996 15.6797 8.0702 15.8047 8.19522C15.9298 8.32025 16 8.48982 16 8.66663C16 8.84344 15.9298 9.01301 15.8047 9.13803C15.6797 9.26306 15.5101 9.3333 15.3333 9.3333H0.666667C0.489856 9.3333 0.320287 9.26306 0.195262 9.13803C0.070238 9.01301 0 8.84344 0 8.66663C0 8.48982 0.070238 8.32025 0.195262 8.19522C0.320287 8.0702 0.489856 7.99996 0.666667 7.99996Z"
            fill="currentColor" />
    </g>
    <defs>
        <clipPath id="clip0_42_12092">
            <rect width="16" height="16" fill="white" />
        </clipPath>
    </defs>
</svg>