<svg width="16" height="16" viewBox="0 0 16 16" fill="none" xmlns="http://www.w3.org/2000/svg">
    <path fill-rule="evenodd" clip-rule="evenodd"
        d="M1.41542 8.54407C1.60675 9.21274 2.12208 9.72741 3.15208 10.7574L4.37208 11.9774C6.16542 13.7714 7.06142 14.6667 8.17475 14.6667C9.28875 14.6667 10.1847 13.7707 11.9774 11.9781C13.7707 10.1847 14.6667 9.28874 14.6667 8.17474C14.6667 7.06141 13.7707 6.16474 11.9781 4.37207L10.7581 3.15207C9.72742 2.12207 9.21275 1.60674 8.54408 1.41541C7.87542 1.22341 7.16542 1.38741 5.74608 1.71541L4.92742 1.90407C3.73275 2.17941 3.13542 2.31741 2.72608 2.72607C2.31675 3.13474 2.18008 3.73341 1.90408 4.92741L1.71475 5.74607C1.38742 7.16607 1.22408 7.87541 1.41542 8.54407ZM6.74808 4.84741C6.87667 4.97141 6.97925 5.11979 7.04985 5.28389C7.12045 5.44798 7.15764 5.62449 7.15926 5.80312C7.16088 5.98175 7.12689 6.15891 7.05928 6.32426C6.99167 6.4896 6.89179 6.63982 6.76548 6.76613C6.63916 6.89245 6.48894 6.99233 6.3236 7.05994C6.15825 7.12755 5.98109 7.16154 5.80246 7.15992C5.62384 7.1583 5.44732 7.12111 5.28323 7.05051C5.11913 6.97991 4.97075 6.87732 4.84675 6.74874C4.60212 6.49508 4.46685 6.15551 4.47004 5.80312C4.47324 5.45073 4.61464 5.11368 4.86383 4.86449C5.11302 4.6153 5.45007 4.47389 5.80246 4.4707C6.15486 4.4675 6.49442 4.60278 6.74808 4.84741ZM12.7001 8.03407L8.04742 12.6874C7.95307 12.7784 7.82675 12.8288 7.69565 12.8276C7.56455 12.8264 7.43917 12.7737 7.34651 12.681C7.25385 12.5882 7.20132 12.4628 7.20024 12.3317C7.19917 12.2006 7.24962 12.0743 7.34075 11.9801L11.9927 7.32674C12.0865 7.23294 12.2138 7.18025 12.3464 7.18025C12.4791 7.18025 12.6063 7.23294 12.7001 7.32674C12.7939 7.42054 12.8466 7.54776 12.8466 7.68041C12.8466 7.81306 12.7939 7.94028 12.7001 8.03407Z"
        fill="currentColor" />
</svg>