<svg width="16" height="16" viewBox="0 0 16 16" fill="none" xmlns="http://www.w3.org/2000/svg">
    <path
        d="M7.89444 13C7.89444 13.3038 8.14069 13.55 8.44444 13.55C8.7482 13.55 8.99444 13.3038 8.99444 13H7.89444ZM12.3389 5.75C12.3389 6.05376 12.5851 6.3 12.8889 6.3C13.1926 6.3 13.4389 6.05376 13.4389 5.75H12.3389ZM3.45 5.75C3.45 6.05376 3.69624 6.3 4 6.3C4.30376 6.3 4.55 6.05376 4.55 5.75H3.45ZM12.5635 3.32544L12.9524 2.93653L12.9524 2.93653L12.5635 3.32544ZM5.66667 12.45C5.36291 12.45 5.11667 12.6962 5.11667 13C5.11667 13.3038 5.36291 13.55 5.66667 13.55V12.45ZM11.2222 13.55C11.526 13.55 11.7722 13.3038 11.7722 13C11.7722 12.6962 11.526 12.45 11.2222 12.45V13.55ZM6.22222 3.55H8.44444V2.45H6.22222V3.55ZM8.44444 3.55H10.6667V2.45H8.44444V3.55ZM8.99444 13V3H7.89444V13H8.99444ZM12.3389 5.22222V5.75H13.4389V5.22222H12.3389ZM3.45 5.22222V5.75H4.55V5.22222H3.45ZM10.6667 3.55C11.206 3.55 11.5552 3.55117 11.8126 3.58578C12.0542 3.61826 12.131 3.67085 12.1745 3.71435L12.9524 2.93653C12.6704 2.65459 12.3227 2.54446 11.9591 2.49558C11.6114 2.44883 11.1749 2.45 10.6667 2.45V3.55ZM13.4389 5.22222C13.4389 4.71399 13.4401 4.27748 13.3933 3.92975C13.3444 3.56619 13.2343 3.21847 12.9524 2.93653L12.1745 3.71435C12.218 3.75784 12.2706 3.83474 12.3031 4.07632C12.3377 4.33372 12.3389 4.68289 12.3389 5.22222H13.4389ZM6.22222 2.45C5.71399 2.45 5.27748 2.44883 4.92975 2.49558C4.56619 2.54446 4.21847 2.65459 3.93653 2.93653L4.71435 3.71435C4.75784 3.67085 4.83474 3.61826 5.07632 3.58578C5.33372 3.55117 5.68289 3.55 6.22222 3.55V2.45ZM4.55 5.22222C4.55 4.68289 4.55117 4.33372 4.58578 4.07632C4.61826 3.83474 4.67085 3.75784 4.71435 3.71435L3.93653 2.93653C3.65459 3.21847 3.54446 3.56619 3.49558 3.92975C3.44883 4.27748 3.45 4.71399 3.45 5.22222H4.55ZM5.66667 13.55H11.2222V12.45H5.66667V13.55Z"
        fill="currentColor" />
</svg>