<svg width="16" height="16" viewBox="0 0 16 16" fill="none" xmlns="http://www.w3.org/2000/svg">
    <g clip-path="url(#clip0_23_3514)">
        <path fill-rule="evenodd" clip-rule="evenodd"
            d="M7.96167 0.833252H8.03817C9.5771 0.833244 10.7831 0.833237 11.7241 0.95975C12.6873 1.08924 13.4473 1.35947 14.0438 1.95601C14.6404 2.55255 14.9106 3.31257 15.0401 4.27572C15.1666 5.21671 15.1666 6.42274 15.1666 7.96167V8.03817C15.1666 9.5771 15.1666 10.7831 15.0401 11.7241C14.9106 12.6873 14.6404 13.4473 14.0438 14.0438C13.4473 14.6404 12.6873 14.9106 11.7241 15.0401C10.7831 15.1666 9.5771 15.1666 8.03817 15.1666H7.96167C6.42274 15.1666 5.21671 15.1666 4.27572 15.0401C3.31257 14.9106 2.55255 14.6404 1.95601 14.0438C1.35947 13.4473 1.08924 12.6873 0.95975 11.7241C0.833237 10.7831 0.833244 9.5771 0.833252 8.03817V7.96167C0.833244 6.42274 0.833237 5.21671 0.95975 4.27572C1.08924 3.31257 1.35947 2.55255 1.95601 1.95601C2.55255 1.35947 3.31257 1.08924 4.27572 0.95975C5.21671 0.833237 6.42274 0.833244 7.96167 0.833252ZM4.40897 1.95083C3.5567 2.06542 3.04289 2.28335 2.66312 2.66312C2.28335 3.04289 2.06542 3.5567 1.95083 4.40897C1.83431 5.27562 1.83325 6.41444 1.83325 7.99992C1.83325 9.5854 1.83431 10.7242 1.95083 11.5909C2.06542 12.4431 2.28335 12.957 2.66312 13.3367C3.04289 13.7165 3.5567 13.9344 4.40897 14.049C5.27562 14.1655 6.41444 14.1666 7.99992 14.1666C9.5854 14.1666 10.7242 14.1655 11.5909 14.049C12.4431 13.9344 12.957 13.7165 13.3367 13.3367C13.7165 12.957 13.9344 12.4431 14.049 11.5909C14.1655 10.7242 14.1666 9.5854 14.1666 7.99992C14.1666 6.41444 14.1655 5.27562 14.049 4.40897C13.9344 3.5567 13.7165 3.04289 13.3367 2.66312C12.957 2.28335 12.4431 2.06542 11.5909 1.95083C10.7242 1.83431 9.5854 1.83325 7.99992 1.83325C6.41444 1.83325 5.27562 1.83431 4.40897 1.95083ZM7.01141 4.30452C7.21138 4.49496 7.2191 4.81145 7.02865 5.01141L5.12389 7.01141C5.02952 7.1105 4.89866 7.16659 4.76182 7.16659C4.62499 7.16659 4.49413 7.1105 4.39976 7.01141L3.63785 6.21141C3.44741 6.01145 3.45513 5.69496 3.65509 5.50452C3.85506 5.31407 4.17154 5.32179 4.36199 5.52176L4.76182 5.94159L6.30452 4.32176C6.49496 4.12179 6.81145 4.11407 7.01141 4.30452ZM8.16659 5.99992C8.16659 5.72378 8.39044 5.49992 8.66659 5.49992H11.9999C12.2761 5.49992 12.4999 5.72378 12.4999 5.99992C12.4999 6.27606 12.2761 6.49992 11.9999 6.49992H8.66659C8.39044 6.49992 8.16659 6.27606 8.16659 5.99992ZM7.01141 8.97118C7.21138 9.16163 7.2191 9.47812 7.02865 9.67808L5.12389 11.6781C5.02952 11.7772 4.89866 11.8333 4.76182 11.8333C4.62499 11.8333 4.49413 11.7772 4.39976 11.6781L3.63785 10.8781C3.44741 10.6781 3.45513 10.3616 3.65509 10.1712C3.85506 9.98074 4.17154 9.98846 4.36199 10.1884L4.76182 10.6083L6.30452 8.98842C6.49496 8.78846 6.81145 8.78074 7.01141 8.97118ZM8.16659 10.6666C8.16659 10.3904 8.39044 10.1666 8.66659 10.1666H11.9999C12.2761 10.1666 12.4999 10.3904 12.4999 10.6666C12.4999 10.9427 12.2761 11.1666 11.9999 11.1666H8.66659C8.39044 11.1666 8.16659 10.9427 8.16659 10.6666Z"
            fill="currentColor" />
    </g>
    <defs>
        <clipPath id="clip0_23_3514">
            <rect width="16" height="16" fill="white" />
        </clipPath>
    </defs>
</svg>