<svg width="16" height="16" viewBox="0 0 16 16" fill="none" xmlns="http://www.w3.org/2000/svg">
    <path fill-rule="evenodd" clip-rule="evenodd"
        d="M6.67129 2.29805C6.87485 2.48465 6.8886 2.80093 6.702 3.00449L3.80338 6.16663H13.3334C13.6096 6.16663 13.8334 6.39049 13.8334 6.66663C13.8334 6.94277 13.6096 7.16663 13.3334 7.16663H2.66676C2.46847 7.16663 2.28893 7.04946 2.20908 6.86796C2.12924 6.68646 2.1642 6.47493 2.29818 6.32877L5.96485 2.32877C6.15144 2.12521 6.46773 2.11146 6.67129 2.29805Z"
        fill="currentColor" />
    <path fill-rule="evenodd" clip-rule="evenodd"
        d="M13.7911 9.13196C13.7113 8.95047 13.5317 8.8333 13.3334 8.8333L2.66676 8.8333C2.39062 8.8333 2.16676 9.05716 2.16676 9.3333C2.16676 9.60944 2.39062 9.8333 2.66676 9.8333L12.1968 9.8333L9.29818 12.9954C9.11159 13.199 9.12534 13.5153 9.3289 13.7019C9.53246 13.8885 9.84874 13.8747 10.0353 13.6712L13.702 9.67116C13.836 9.52499 13.8709 9.31346 13.7911 9.13196Z"
        fill="currentColor" />
</svg>