<svg width="16" height="16" viewBox="0 0 16 16" fill="none" xmlns="http://www.w3.org/2000/svg">
    <path d="M13.6666 4H2.33325" stroke="currentColor" stroke-linecap="round" />
    <path
        d="M12.5554 5.66663L12.2488 10.266C12.1308 12.036 12.0718 12.9209 11.4952 13.4605C10.9185 14 10.0315 14 8.25768 14H7.7421C5.96824 14 5.0813 14 4.50463 13.4605C3.92796 12.9209 3.86896 12.036 3.75096 10.266L3.44434 5.66663"
        stroke="currentColor" stroke-linecap="round" />
    <path
        d="M4.33325 4C4.37051 4 4.38913 4 4.40602 3.99957C4.95498 3.98566 5.43927 3.63661 5.62606 3.12021C5.63181 3.10433 5.6377 3.08666 5.64948 3.05132L5.7142 2.85714C5.76946 2.69139 5.79708 2.6085 5.83373 2.53813C5.97993 2.25738 6.25041 2.06242 6.56299 2.01251C6.64134 2 6.7287 2 6.90343 2H9.09641C9.27114 2 9.3585 2 9.43685 2.01251C9.74942 2.06242 10.0199 2.25738 10.1661 2.53813C10.2028 2.6085 10.2304 2.69138 10.2856 2.85714L10.3504 3.05132C10.3621 3.08661 10.368 3.10434 10.3738 3.12021C10.5606 3.63661 11.0449 3.98566 11.5938 3.99957C11.6107 4 11.6293 4 11.6666 4"
        stroke="currentColor" />
</svg>