<svg width="16" height="16" viewBox="0 0 16 16" fill="none" xmlns="http://www.w3.org/2000/svg">
    <path
        d="M3.79998 2.6C3.79998 2.44087 3.73676 2.28826 3.62424 2.17574C3.51172 2.06321 3.35911 2 3.19998 2C3.04085 2 2.88823 2.06321 2.77571 2.17574C2.66319 2.28826 2.59998 2.44087 2.59998 2.6V6.2C2.59998 6.90914 2.73965 7.61133 3.01103 8.26649C3.2824 8.92165 3.68016 9.51694 4.1816 10.0184C4.68304 10.5198 5.27833 10.9176 5.93348 11.189C6.58864 11.4603 7.29084 11.6 7.99998 11.6C8.70911 11.6 9.41131 11.4603 10.0665 11.189C10.7216 10.9176 11.3169 10.5198 11.8184 10.0184C12.3198 9.51694 12.7175 8.92165 12.9889 8.26649C13.2603 7.61133 13.4 6.90914 13.4 6.2V2.6C13.4 2.44087 13.3368 2.28826 13.2242 2.17574C13.1117 2.06321 12.9591 2 12.8 2C12.6408 2 12.4882 2.06321 12.3757 2.17574C12.2632 2.28826 12.2 2.44087 12.2 2.6V6.2C12.2 6.75155 12.0913 7.2977 11.8803 7.80727C11.6692 8.31684 11.3598 8.77984 10.9698 9.16985C10.5798 9.55985 10.1168 9.86922 9.60725 10.0803C9.09768 10.2914 8.55153 10.4 7.99998 10.4C7.44842 10.4 6.90227 10.2914 6.3927 10.0803C5.88314 9.86922 5.42013 9.55985 5.03013 9.16985C4.64012 8.77984 4.33075 8.31684 4.11968 7.80727C3.90861 7.2977 3.79998 6.75155 3.79998 6.2V2.6ZM3.19998 12.8C3.04085 12.8 2.88823 12.8632 2.77571 12.9757C2.66319 13.0883 2.59998 13.2409 2.59998 13.4C2.59998 13.5591 2.66319 13.7117 2.77571 13.8243C2.88823 13.9368 3.04085 14 3.19998 14H12.8C12.9591 14 13.1117 13.9368 13.2242 13.8243C13.3368 13.7117 13.4 13.5591 13.4 13.4C13.4 13.2409 13.3368 13.0883 13.2242 12.9757C13.1117 12.8632 12.9591 12.8 12.8 12.8H3.19998Z"
        fill="currentColor" />
</svg>