<svg width="16" height="16" viewBox="0 0 16 16" fill="none" xmlns="http://www.w3.org/2000/svg">
    <path fill-rule="evenodd" clip-rule="evenodd"
        d="M5.02001 3.14623C5.11364 3.23998 5.16623 3.36706 5.16623 3.49956C5.16623 3.63206 5.11364 3.75914 5.02001 3.85289L3.87334 4.99956H10C11.0167 4.99956 11.9917 5.40343 12.7106 6.12232C13.4295 6.84121 13.8333 7.81623 13.8333 8.83289C13.8333 9.84956 13.4295 10.8246 12.7106 11.5435C11.9917 12.2624 11.0167 12.6662 10 12.6662H5.33334C5.20073 12.6662 5.07356 12.6135 4.97979 12.5198C4.88602 12.426 4.83334 12.2988 4.83334 12.1662C4.83334 12.0336 4.88602 11.9064 4.97979 11.8127C5.07356 11.7189 5.20073 11.6662 5.33334 11.6662H10C10.7515 11.6662 11.4721 11.3677 12.0035 10.8364C12.5348 10.305 12.8333 9.58434 12.8333 8.83289C12.8333 8.08145 12.5348 7.36078 12.0035 6.82942C11.4721 6.29807 10.7515 5.99956 10 5.99956H3.87334L5.02001 7.14623C5.06913 7.192 5.10853 7.2472 5.13586 7.30853C5.16319 7.36987 5.17788 7.43608 5.17907 7.50321C5.18025 7.57035 5.1679 7.63703 5.14276 7.69929C5.11761 7.76155 5.08018 7.81811 5.0327 7.86559C4.98522 7.91306 4.92866 7.95049 4.86641 7.97564C4.80415 8.00079 4.73746 8.01314 4.67033 8.01195C4.60319 8.01077 4.53698 7.99608 4.47565 7.96875C4.41432 7.94142 4.35912 7.90202 4.31334 7.85289L2.31334 5.85289C2.21971 5.75914 2.16711 5.63206 2.16711 5.49956C2.16711 5.36706 2.21971 5.23998 2.31334 5.14623L4.31334 3.14623C4.40709 3.05259 4.53417 3 4.66667 3C4.79917 3 4.92626 3.05259 5.02001 3.14623Z"
        fill="currentColor" />
</svg>