<svg width="16" height="16" viewBox="0 0 16 16" fill="none" xmlns="http://www.w3.org/2000/svg">
    <g clip-path="url(#clip0_23_3545)">
        <path
            d="M1.3335 10.6666C1.3335 8.78101 1.3335 7.8382 1.91928 7.25241C2.50507 6.66663 3.44788 6.66663 5.3335 6.66663H10.6668C12.5524 6.66663 13.4953 6.66663 14.081 7.25241C14.6668 7.8382 14.6668 8.78101 14.6668 10.6666C14.6668 12.5522 14.6668 13.4951 14.081 14.0808C13.4953 14.6666 12.5524 14.6666 10.6668 14.6666H5.3335C3.44788 14.6666 2.50507 14.6666 1.91928 14.0808C1.3335 13.4951 1.3335 12.5522 1.3335 10.6666Z"
            stroke="currentColor" />
        <path
            d="M4.00024 6.66671V5.33337C4.00024 3.12424 5.79111 1.33337 8.00024 1.33337C9.86408 1.33337 11.4302 2.60815 11.8742 4.33337"
            stroke="currentColor" stroke-linecap="round" />
    </g>
    <defs>
        <clipPath id="clip0_23_3545">
            <rect width="16" height="16" fill="white" />
        </clipPath>
    </defs>
</svg>