<svg width="16" height="16" viewBox="0 0 16 16" fill="none" xmlns="http://www.w3.org/2000/svg">
    <path
        d="M5.08414 10.9174L2.1275 13.8741M14.6072 14.9986L10.0045 10.3945L5.60633 5.99776C5.43012 6.08746 5.24532 6.15916 5.05472 6.21178L3.21601 6.7178C3.02993 6.76907 2.86055 6.86826 2.7248 7.00547C2.58905 7.14268 2.49167 7.31311 2.44239 7.49973C2.39311 7.68635 2.39366 7.88263 2.44397 8.06897C2.49429 8.25532 2.59261 8.4252 2.72912 8.56165L7.43916 13.2739C7.57566 13.4104 7.7456 13.5087 7.93199 13.559C8.11838 13.6092 8.31469 13.6097 8.50133 13.5604C8.68796 13.511 8.85837 13.4135 8.99554 13.2777C9.13271 13.1419 9.23184 12.9724 9.28302 12.7863L9.78903 10.9476C9.84247 10.7549 9.91406 10.571 10.0038 10.396M1 1.3929L5.60633 5.99849M6.90446 4.69154C6.94712 4.60573 6.98586 4.51748 7.02067 4.42677L7.97018 1.94671C8.0578 1.71761 8.20133 1.51405 8.3877 1.35457C8.57407 1.19509 8.79736 1.08474 9.03725 1.03358C9.27715 0.982412 9.52603 0.99205 9.76125 1.06161C9.99647 1.13118 10.2106 1.25846 10.384 1.43188L14.5689 5.61751C14.7424 5.79089 14.8697 6.00488 14.9394 6.24002C15.0091 6.47516 15.0188 6.72399 14.9678 6.96386C14.9168 7.20374 14.8066 7.42706 14.6473 7.6135C14.488 7.79994 14.2846 7.94359 14.0556 8.03137L11.5748 8.98088C11.4846 9.0152 11.3963 9.05418 11.31 9.09782"
        stroke="currentColor" stroke-linecap="round" stroke-linejoin="round" />
</svg>