<svg width="16" height="16" viewBox="0 0 16 16" fill="none" xmlns="http://www.w3.org/2000/svg">
    <path
        d="M3.22012 10.658C3.3611 10.7989 3.55229 10.8781 3.75163 10.8781C3.95098 10.8781 4.14217 10.7989 4.28315 10.658L8.00454 6.93662L11.7259 10.658C11.8677 10.795 12.0576 10.8707 12.2547 10.869C12.4519 10.8673 12.6404 10.7882 12.7798 10.6488C12.9192 10.5095 12.9983 10.3209 13 10.1238C13.0017 9.92666 12.9259 9.73676 12.789 9.59497L8.53606 5.34206C8.39508 5.20112 8.20389 5.12195 8.00454 5.12195C7.80519 5.12195 7.614 5.20112 7.47302 5.34206L3.22012 9.59497C3.07918 9.73595 3 9.92714 3 10.1265C3 10.3258 3.07918 10.517 3.22012 10.658Z"
        fill="currentColor" />
</svg>