<svg width="16" height="16" viewBox="0 0 16 16" fill="none" xmlns="http://www.w3.org/2000/svg">
<path d="M11.9802 13.3334C11.8735 11.4054 11.2835 10 8.00016 10C4.71683 10 4.12683 11.4054 4.02016 13.3334M10.0002 6.00004C10.0002 7.10461 9.10473 8.00004 8.00016 8.00004C6.89559 8.00004 6.00016 7.10461 6.00016 6.00004C6.00016 4.89547 6.89559 4.00004 8.00016 4.00004C9.10473 4.00004 10.0002 4.89547 10.0002 6.00004ZM14.6668 8.00004C14.6668 11.6819 11.6821 14.6667 8.00016 14.6667C4.31826 14.6667 1.3335 11.6819 1.3335 8.00004C1.3335 4.31814 4.31826 1.33337 8.00016 1.33337C11.6821 1.33337 14.6668 4.31814 14.6668 8.00004Z" stroke="#333333" stroke-linecap="round"/>
</svg>
