<svg width="16" height="16" viewBox="0 0 16 16" fill="none" xmlns="http://www.w3.org/2000/svg">
    <path
        d="M8.24998 7.99993C8.94219 7.99993 9.61886 7.79466 10.1944 7.41009C10.77 7.02551 11.2186 6.4789 11.4835 5.83938C11.7484 5.19986 11.8177 4.49614 11.6826 3.81723C11.5476 3.13831 11.2143 2.51469 10.7248 2.02522C10.2353 1.53575 9.61169 1.20242 8.93277 1.06737C8.25386 0.932329 7.55014 1.00164 6.91062 1.26654C6.2711 1.53144 5.72449 1.98003 5.33991 2.55558C4.95534 3.13114 4.75007 3.80781 4.75007 4.50003C4.751 5.42797 5.12004 6.31765 5.77619 6.97381C6.43235 7.62997 7.32203 7.999 8.24998 7.99993ZM8.24998 2.16676C8.71145 2.16676 9.16257 2.3036 9.54627 2.55998C9.92997 2.81637 10.229 3.18077 10.4056 3.60712C10.5822 4.03347 10.6284 4.50261 10.5384 4.95522C10.4484 5.40783 10.2262 5.82358 9.89985 6.1499C9.57353 6.47621 9.15778 6.69843 8.70517 6.78846C8.25256 6.87849 7.78342 6.83228 7.35707 6.65568C6.93072 6.47909 6.56632 6.18002 6.30993 5.79632C6.05355 5.41262 5.91671 4.9615 5.91671 4.50003C5.91671 3.8812 6.16253 3.28773 6.60011 2.85016C7.03768 2.41258 7.63115 2.16676 8.24998 2.16676Z"
        fill="currentColor" />
    <path
        d="M8.24998 9.16695C6.8581 9.1685 5.52368 9.7221 4.53947 10.7063C3.55527 11.6905 3.00167 13.0249 3.00012 14.4168C3.00012 14.5715 3.06158 14.7199 3.17097 14.8293C3.28036 14.9387 3.42873 15.0001 3.58344 15.0001C3.73814 15.0001 3.88651 14.9387 3.99591 14.8293C4.1053 14.7199 4.16676 14.5715 4.16676 14.4168C4.16676 13.3339 4.59695 12.2953 5.3627 11.5295C6.12846 10.7638 7.16704 10.3336 8.24998 10.3336C9.33291 10.3336 10.3715 10.7638 11.1372 11.5295C11.903 12.2953 12.3332 13.3339 12.3332 14.4168C12.3332 14.5715 12.3947 14.7199 12.504 14.8293C12.6134 14.9387 12.7618 15.0001 12.9165 15.0001C13.0712 15.0001 13.2196 14.9387 13.329 14.8293C13.4384 14.7199 13.4998 14.5715 13.4998 14.4168C13.4983 13.0249 12.9447 11.6905 11.9605 10.7063C10.9763 9.7221 9.64185 9.1685 8.24998 9.16695Z"
        fill="currentColor" />
</svg>