<svg width="16" height="16" viewBox="0 0 16 16" fill="none" xmlns="http://www.w3.org/2000/svg">
  <path
    d="M10.251 11.88C10.0742 11.6678 9.75896 11.6391 9.54679 11.8158C9.33461 11.9926 9.30589 12.3078 9.48263 12.52L10.251 11.88ZM10.4499 12.9L10.0657 13.22C10.1565 13.329 10.2892 13.3943 10.431 13.3996C10.5727 13.405 10.71 13.35 10.8087 13.2482L10.4499 12.9ZM12.0918 11.9259C12.2841 11.7277 12.2794 11.4112 12.0812 11.2189C11.883 11.0266 11.5665 11.0313 11.3742 11.2295L12.0918 11.9259ZM10.0999 3.8H9.5999C9.5999 5.07025 8.57016 6.1 7.2999 6.1V6.6V7.1C9.12244 7.1 10.5999 5.62254 10.5999 3.8H10.0999ZM7.2999 6.6V6.1C6.02965 6.1 4.9999 5.07025 4.9999 3.8H4.4999H3.9999C3.9999 5.62254 5.47736 7.1 7.2999 7.1V6.6ZM4.4999 3.8H4.9999C4.9999 2.52974 6.02965 1.5 7.2999 1.5V1V0.5C5.47736 0.5 3.9999 1.97746 3.9999 3.8H4.4999ZM7.2999 1V1.5C8.57016 1.5 9.5999 2.52974 9.5999 3.8H10.0999H10.5999C10.5999 1.97746 9.12244 0.5 7.2999 0.5V1ZM13.5999 12.2H13.0999C13.0999 13.4703 12.0702 14.5 10.7999 14.5V15V15.5C12.6224 15.5 14.0999 14.0225 14.0999 12.2H13.5999ZM10.7999 15V14.5C9.52965 14.5 8.4999 13.4703 8.4999 12.2H7.9999H7.4999C7.4999 14.0225 8.97736 15.5 10.7999 15.5V15ZM7.9999 12.2H8.4999C8.4999 10.9297 9.52965 9.9 10.7999 9.9V9.4V8.9C8.97736 8.9 7.4999 10.3775 7.4999 12.2H7.9999ZM10.7999 9.4V9.9C12.0702 9.9 13.0999 10.9297 13.0999 12.2H13.5999H14.0999C14.0999 10.3775 12.6224 8.9 10.7999 8.9V9.4ZM9.8668 12.2L9.48263 12.52L10.0657 13.22L10.4499 12.9L10.8341 12.58L10.251 11.88L9.8668 12.2ZM10.4499 12.9L10.8087 13.2482L12.0918 11.9259L11.733 11.5777L11.3742 11.2295L10.0911 12.5518L10.4499 12.9ZM8.6999 14.1838L8.61594 13.6909C8.20033 13.7617 7.75873 13.8 7.2999 13.8V14.3V14.8C7.81407 14.8 8.31187 14.7571 8.78387 14.6767L8.6999 14.1838ZM7.2999 14.3V13.8C6.01765 13.8 4.88141 13.5021 4.08312 13.046C3.27073 12.5818 2.8999 12.0167 2.8999 11.5H2.3999H1.8999C1.8999 12.5303 2.62597 13.3652 3.58704 13.9143C4.56219 14.4714 5.87595 14.8 7.2999 14.8V14.3ZM2.3999 11.5H2.8999C2.8999 10.9833 3.27073 10.4182 4.08312 9.95401C4.88141 9.49791 6.01765 9.2 7.2999 9.2V8.7V8.2C5.87595 8.2 4.56219 8.52859 3.58704 9.08574C2.62597 9.63483 1.8999 10.4697 1.8999 11.5H2.3999ZM7.2999 8.7V9.2C8.43444 9.2 9.45792 9.43377 10.2336 9.80598L10.4499 9.3552L10.6662 8.90442C9.73809 8.45903 8.56357 8.2 7.2999 8.2V8.7Z"
    fill="currentColor" />
</svg>