<svg xmlns="http://www.w3.org/2000/svg" width="18" height="18" viewBox="0 0 18 18" fill="none">
  <path
    d="M7.31431 10.296C6.19714 10.296 5.29149 11.2016 5.29149 12.3188C5.29149 14.787 7.29237 17.125 9.76058 17.125H11.36C12.4772 17.125 13.4886 16.6722 14.2206 15.94C14.9528 15.2077 15.4056 13.8592 15.4056 12.7422V10.5561C15.4056 10.0035 14.9708 9.53743 14.4183 9.52455C14.1296 9.51781 13.8674 9.63226 13.6791 9.82059C13.4961 10.0037 13.3828 10.2565 13.3828 10.5357V9.52425C13.3828 9.2451 13.2695 8.99224 13.0864 8.80918C12.9034 8.62611 12.6505 8.51283 12.3714 8.51283C12.0922 8.51283 11.8394 8.62611 11.6563 8.80918C11.4732 8.99224 11.36 9.2451 11.36 9.52425M7.31431 10.296V5.4786C7.31431 5.19945 7.42759 4.9466 7.61066 4.76353C7.79898 4.57521 8.06117 4.46075 8.34986 4.46749C8.90236 4.48037 9.33714 4.9464 9.33714 5.49907V9.06911C9.33714 8.78996 9.45041 7.98083 9.63348 7.79777C9.81654 7.6147 10.0694 7.50142 10.3485 7.50142C10.6277 7.50142 10.8805 7.6147 11.0636 7.79777C11.2467 7.98083 11.36 8.23369 11.36 8.51283V9.52425M7.31431 10.296V12.0714M11.36 9.52425V11.2099M9.05462 4.78512C9.81182 4.49282 10.3485 3.7582 10.3485 2.89782M10.3485 2.89782C10.3485 1.78055 9.443 0.875 8.32573 0.875C7.20845 0.875 6.3029 1.78055 6.3029 2.89782M10.3485 2.89782L17.125 2.89782M6.3029 2.89782C6.3029 3.75617 6.83727 4.48945 7.59178 4.78343M6.3029 2.89782L0.875 2.89782M0.875 2.89782L2.08869 1.68413M0.875 2.89782L2.08869 4.11151M17.125 2.89782L15.9113 1.68413M17.125 2.89782L15.9113 4.11151"
    stroke="currentColor" stroke-miterlimit="10" stroke-linecap="round" stroke-linejoin="round" />
</svg>