<svg width="16" height="16" viewBox="0 0 16 16" fill="none" xmlns="http://www.w3.org/2000/svg">
  <path fill-rule="evenodd" clip-rule="evenodd"
    d="M6.31436 1.83994C6.20387 1.9391 6.08821 2.03233 5.96785 2.11924C5.75924 2.25925 5.52474 2.35585 5.27833 2.40485C5.17123 2.42585 5.05923 2.43495 4.83592 2.45245C4.27521 2.49725 3.9945 2.51965 3.76069 2.60226C3.49328 2.69651 3.2504 2.84951 3.04991 3.05C2.84942 3.25049 2.69642 3.49337 2.60216 3.76079C2.51956 3.99459 2.49716 4.2753 2.45236 4.83601C2.44432 4.98422 2.42843 5.1319 2.40476 5.27842C2.35576 5.52483 2.25916 5.75934 2.11915 5.96794C2.05825 6.05894 1.98545 6.14435 1.83985 6.31445C1.47514 6.74286 1.29243 6.95707 1.18533 7.18107C0.938223 7.69908 0.938223 8.3011 1.18533 8.81911C1.29243 9.04312 1.47514 9.25732 1.83985 9.68573C1.98545 9.85584 2.05825 9.94124 2.11915 10.0322C2.25916 10.2408 2.35576 10.4754 2.40476 10.7218C2.42576 10.8289 2.43486 10.9409 2.45236 11.1642C2.49716 11.7249 2.51956 12.0056 2.60216 12.2394C2.69642 12.5068 2.84942 12.7497 3.04991 12.9502C3.2504 13.1507 3.49328 13.3037 3.76069 13.3979C3.9945 13.4805 4.27521 13.5029 4.83592 13.5477C5.05923 13.5652 5.17123 13.5743 5.27833 13.5953C5.52474 13.6443 5.75924 13.7416 5.96785 13.8809C6.05885 13.9418 6.14425 14.0146 6.31436 14.1602C6.74277 14.525 6.95697 14.7077 7.18098 14.8148C7.69899 15.0619 8.30101 15.0619 8.81902 14.8148C9.04303 14.7077 9.25723 14.525 9.68564 14.1602C9.85575 14.0146 9.94115 13.9418 10.0322 13.8809C10.2408 13.7409 10.4753 13.6443 10.7217 13.5953C10.8288 13.5743 10.9408 13.5652 11.1641 13.5477C11.7248 13.5029 12.0055 13.4805 12.2393 13.3979C12.5067 13.3037 12.7496 13.1507 12.9501 12.9502C13.1506 12.7497 13.3036 12.5068 13.3978 12.2394C13.4804 12.0056 13.5028 11.7249 13.5476 11.1642C13.5651 10.9409 13.5742 10.8289 13.5952 10.7218C13.6442 10.4754 13.7415 10.2408 13.8808 10.0322C13.9417 9.94124 14.0145 9.85584 14.1602 9.68573C14.5249 9.25732 14.7076 9.04312 14.8147 8.81911C15.0618 8.3011 15.0618 7.69908 14.8147 7.18107C14.7076 6.95707 14.5249 6.74286 14.1602 6.31445C14.061 6.20396 13.9678 6.0883 13.8808 5.96794C13.7408 5.75937 13.6437 5.52496 13.5952 5.27842C13.5716 5.1319 13.5557 4.98422 13.5476 4.83601C13.5028 4.2753 13.4804 3.99459 13.3978 3.76079C13.3036 3.49337 13.1506 3.25049 12.9501 3.05C12.7496 2.84951 12.5067 2.69651 12.2393 2.60226C12.0055 2.51965 11.7248 2.49725 11.1641 2.45245C11.0159 2.44441 10.8682 2.42852 10.7217 2.40485C10.4751 2.35643 10.2407 2.25933 10.0322 2.11924C9.91179 2.03233 9.79613 1.9391 9.68564 1.83994C9.25723 1.47523 9.04303 1.29252 8.81902 1.18542C8.56333 1.06304 8.28347 0.999512 8 0.999512C7.71653 0.999512 7.43667 1.06304 7.18098 1.18542C6.95697 1.29252 6.74277 1.47523 6.31436 1.83994ZM11.0612 6.50415C11.1601 6.39587 11.2135 6.2536 11.2102 6.10696C11.2069 5.96032 11.1471 5.8206 11.0434 5.71688C10.9397 5.61317 10.8 5.55344 10.6534 5.55013C10.5067 5.54683 10.3644 5.6002 10.2562 5.69913L6.86107 9.09422L5.74384 7.97769C5.63556 7.87875 5.49329 7.82539 5.34665 7.82869C5.20001 7.832 5.06029 7.89172 4.95657 7.99544C4.85286 8.09916 4.79313 8.23888 4.78982 8.38552C4.78652 8.53216 4.83989 8.67442 4.93882 8.78271L6.45786 10.3017C6.56469 10.4084 6.70945 10.4682 6.86037 10.4682C7.01129 10.4682 7.15605 10.4084 7.26288 10.3017L11.0612 6.50415Z"
    fill="currentColor" />
</svg>