<svg width="16" height="16" viewBox="0 0 16 16" fill="none" xmlns="http://www.w3.org/2000/svg">
  <g clip-path="url(#clip0_2107_67101)">
    <path
      d="M6.43439 2.27993L6.04552 1.823L6.04392 1.82438L6.43439 2.27993ZM7.23846 1.67264L6.97962 1.13135L6.97901 1.13164L7.23846 1.67264ZM7.99916 1.50012V0.900122V1.50012ZM8.75985 1.67264L8.50101 2.21394L8.50261 2.2147L8.75985 1.67264ZM9.56392 2.27993L9.17418 2.73611L9.17445 2.73634L9.56392 2.27993ZM9.88626 2.53878L10.2203 2.04037L10.2191 2.03955L9.88626 2.53878ZM10.5267 2.80399L10.6436 2.21548L10.6428 2.21533L10.5267 2.80399ZM10.9372 2.84913L10.8884 3.44714L10.8902 3.44729L10.9372 2.84913ZM11.9359 2.98808L11.7358 3.5537L11.7363 3.55388L11.9359 2.98808ZM13.0116 4.06299L13.5774 3.8634L13.5772 3.86295L13.0116 4.06299ZM13.1505 5.06173L13.7487 5.01494L13.7486 5.01392L13.1505 5.06173ZM13.1949 5.47294L12.6063 5.58901L12.6063 5.58921L13.1949 5.47294ZM13.4601 6.11267L13.9594 5.77985L13.9583 5.77817L13.4601 6.11267ZM13.719 6.435L13.2616 6.8233L13.2621 6.82388L13.719 6.435ZM14.327 7.23908L14.8683 6.98023L14.868 6.97962L14.327 7.23908ZM14.4995 7.99977L13.8995 7.99977L14.4995 7.99977ZM14.327 8.76046L13.7857 8.50162L13.7853 8.5025L14.327 8.76046ZM13.719 9.56454L14.164 9.967L14.1699 9.96052L14.1755 9.95388L13.719 9.56454ZM13.4601 9.88687L12.9711 9.53925L12.9664 9.54593L12.9618 9.55273L13.4601 9.88687ZM13.1949 10.5266L12.6064 10.4101L12.6063 10.4105L13.1949 10.5266ZM13.1505 10.9378L13.7486 10.9856L13.7487 10.9846L13.1505 10.9378ZM13.0116 11.9365L12.4459 11.7364L12.4459 11.7365L13.0116 11.9365ZM11.9359 13.0115L11.7363 12.4457L11.7341 12.4464L11.9359 13.0115ZM10.9372 13.1504L10.8902 12.5522L10.8884 12.5524L10.9372 13.1504ZM10.5267 13.1956L10.4106 12.6069L10.4106 12.6069L10.5267 13.1956ZM9.88626 13.4608L9.55222 12.9623L9.54508 12.9671L9.53807 12.9721L9.88626 13.4608ZM9.56463 13.7196L9.9535 14.1765L9.96061 14.1705L9.96754 14.1642L9.56463 13.7196ZM8.76056 14.3269L9.0194 14.8682L9.02002 14.8679L8.76056 14.3269ZM7.23917 14.3269L7.49801 13.7856L7.49642 13.7848L7.23917 14.3269ZM6.4351 13.7196L6.03263 14.1646L6.03892 14.1703L6.04536 14.1758L6.4351 13.7196ZM6.11276 13.4608L6.46039 12.9717L6.45366 12.9669L6.4468 12.9623L6.11276 13.4608ZM5.47233 13.1956L5.58845 12.6069L5.5806 12.6053L5.57272 12.604L5.47233 13.1956ZM5.06183 13.1504L5.01488 13.7486L5.02307 13.7492L5.03128 13.7496L5.06183 13.1504ZM4.06309 13.0115L4.26326 12.4458L4.26276 12.4457L4.06309 13.0115ZM2.98747 11.9365L3.55314 11.7365L3.55309 11.7364L2.98747 11.9365ZM2.84852 10.9378L2.24924 10.9672L2.24969 10.9764L2.25042 10.9856L2.84852 10.9378ZM2.80408 10.5266L3.3958 10.4273L3.39436 10.4187L3.39267 10.4101L2.80408 10.5266ZM2.53888 9.88687L2.03965 10.2197L2.04053 10.221L2.53888 9.88687ZM2.28002 9.56454L2.73744 9.17624L2.73695 9.17566L2.28002 9.56454ZM1.67203 8.76046L1.13074 9.0193L1.13103 9.01992L1.67203 8.76046ZM1.49951 7.99977L2.09951 7.99977L1.49951 7.99977ZM1.67203 7.23908L1.13103 6.97962L1.13074 6.98024L1.67203 7.23908ZM2.28002 6.435L2.73655 6.82435L2.73744 6.8233L2.28002 6.435ZM2.53888 6.11267L2.04053 5.77853L2.03965 5.77985L2.53888 6.11267ZM2.80408 5.47294L3.39267 5.5894L3.39275 5.58901L2.80408 5.47294ZM2.84852 5.06173L2.25042 5.01392L2.25034 5.01494L2.84852 5.06173ZM2.98747 4.06299L2.42183 3.86285L2.42164 3.8634L2.98747 4.06299ZM4.06379 2.98808L4.26319 3.55398L4.26397 3.5537L4.06379 2.98808ZM5.06253 2.84913L5.10948 3.44729L5.11135 3.44714L5.06253 2.84913ZM5.47303 2.80399L5.58911 3.39265L5.58915 3.39264L5.47303 2.80399ZM6.11347 2.53878L5.78065 2.03955L5.77943 2.04037L6.11347 2.53878ZM5.95544 7.92841C5.72113 7.69409 5.34123 7.69409 5.10692 7.92841C4.8726 8.16272 4.8726 8.54262 5.10692 8.77694L5.95544 7.92841ZM6.94183 9.76332L6.51757 10.1876C6.75188 10.4219 7.13178 10.4219 7.3661 10.1876L6.94183 9.76332ZM10.8927 6.66096C11.127 6.42664 11.127 6.04674 10.8927 5.81243C10.6584 5.57811 10.2785 5.57811 10.0442 5.81243L10.8927 6.66096ZM6.43439 2.27993L6.82327 2.73685C7.24867 2.37481 7.37805 2.27113 7.49792 2.21364L7.23846 1.67264L6.97901 1.13164C6.68415 1.27305 6.41573 1.50794 6.04552 1.82301L6.43439 2.27993ZM7.23846 1.67264L7.4973 2.21394C7.654 2.13901 7.82548 2.10012 7.99916 2.10012V1.50012V0.900122C7.64631 0.900122 7.29795 0.97913 6.97962 1.13135L7.23846 1.67264ZM7.99916 1.50012L7.99916 2.10012C8.17284 2.10012 8.34432 2.13901 8.50101 2.21394L8.75985 1.67264L9.01869 1.13135C8.70037 0.97913 8.352 0.900122 7.99916 0.900122L7.99916 1.50012ZM8.75985 1.67264L8.50261 2.2147C8.62118 2.27097 8.74971 2.37346 9.17418 2.73611L9.56392 2.27993L9.95367 1.82375C9.58395 1.50788 9.31467 1.27181 9.0171 1.13059L8.75985 1.67264ZM9.56392 2.27993L9.17445 2.73634C9.32377 2.86375 9.43271 2.95752 9.55344 3.03801L9.88626 2.53878L10.2191 2.03955C10.1705 2.00719 10.1215 1.96695 9.9534 1.82352L9.56392 2.27993ZM9.88626 2.53878L9.55222 3.0372C9.81201 3.21131 10.1038 3.33212 10.4106 3.39264L10.5267 2.80399L10.6428 2.21533C10.4918 2.18554 10.3482 2.12607 10.2203 2.04037L9.88626 2.53878ZM10.5267 2.80399L10.4098 3.39249C10.5508 3.4205 10.6945 3.43131 10.8884 3.44714L10.9372 2.84913L10.986 2.25112C10.7652 2.23309 10.7015 2.22698 10.6436 2.21548L10.5267 2.80399ZM10.9372 2.84913L10.8902 3.44729C11.4466 3.49095 11.6111 3.50957 11.7358 3.5537L11.9359 2.98808L12.1361 2.42245C11.8263 2.31282 11.4703 2.28912 10.9841 2.25097L10.9372 2.84913ZM11.9359 2.98808L11.7363 3.55388C11.9 3.61165 12.0487 3.70532 12.1714 3.82803L12.5956 3.40363L13.0197 2.97922C12.7702 2.72993 12.4682 2.53963 12.1356 2.42227L11.9359 2.98808ZM12.5956 3.40363L12.1714 3.82803C12.2942 3.95074 12.388 4.09937 12.4459 4.26303L13.0116 4.06299L13.5772 3.86295C13.4596 3.53047 13.2692 3.22851 13.0197 2.97922L12.5956 3.40363ZM13.0116 4.06299L12.4457 4.26259C12.4901 4.38842 12.5079 4.55222 12.5524 5.10955L13.1505 5.06173L13.7486 5.01392C13.7099 4.53019 13.6868 4.17346 13.5774 3.8634L13.0116 4.06299ZM13.1505 5.06173L12.5523 5.10853C12.5676 5.30409 12.5783 5.44703 12.6063 5.58901L13.1949 5.47294L13.7836 5.35686C13.7721 5.29854 13.7658 5.23411 13.7487 5.01494L13.1505 5.06173ZM13.1949 5.47294L12.6063 5.58921C12.6668 5.89554 12.7878 6.1877 12.962 6.44717L13.4601 6.11267L13.9583 5.77817C13.8729 5.65112 13.8133 5.50739 13.7836 5.35667L13.1949 5.47294ZM13.4601 6.11267L12.9609 6.44549C13.0414 6.56623 13.1373 6.67685 13.2616 6.8233L13.719 6.435L14.1764 6.04671C14.0313 5.87576 13.9917 5.82838 13.9594 5.77985L13.4601 6.11267ZM13.719 6.435L13.2621 6.82388C13.6249 7.25017 13.7286 7.37889 13.786 7.49853L14.327 7.23908L14.868 6.97962C14.7265 6.68453 14.4902 6.41545 14.1759 6.04613L13.719 6.435ZM14.327 7.23908L13.7857 7.49792C13.8606 7.6546 13.8995 7.82608 13.8995 7.99977L14.4995 7.99977L15.0995 7.99977C15.0995 7.64693 15.0205 7.29856 14.8683 6.98024L14.327 7.23908ZM14.4995 7.99977L13.8995 7.99977C13.8995 8.17346 13.8606 8.34494 13.7857 8.50162L14.327 8.76046L14.8683 9.0193C15.0205 8.70098 15.0995 8.35261 15.0995 7.99977L14.4995 7.99977ZM14.327 8.76046L13.7853 8.5025C13.7289 8.62082 13.6261 8.74886 13.2625 9.17519L13.719 9.56454L14.1755 9.95388C14.4905 9.5846 14.7276 9.31484 14.8687 9.01842L14.327 8.76046ZM13.719 9.56454L13.274 9.16207C13.1657 9.28177 13.0646 9.40771 12.9711 9.53925L13.4601 9.88687L13.9492 10.2345C14.0155 10.1412 14.0872 10.0519 14.164 9.967L13.719 9.56454ZM13.4601 9.88687L12.9618 9.55273C12.7878 9.81223 12.667 10.1036 12.6064 10.4101L13.1949 10.5266L13.7835 10.6431C13.8134 10.4922 13.8728 10.3487 13.9585 10.221L13.4601 9.88687ZM13.1949 10.5266L12.6063 10.4105C12.5783 10.5525 12.5676 10.6955 12.5523 10.891L13.1505 10.9378L13.7487 10.9846C13.7658 10.7654 13.7721 10.701 13.7836 10.6427L13.1949 10.5266ZM13.1505 10.9378L12.5524 10.89C12.5078 11.4478 12.4901 11.6116 12.4459 11.7364L13.0116 11.9365L13.5772 12.1367C13.6868 11.827 13.71 11.4689 13.7486 10.9856L13.1505 10.9378ZM13.0116 11.9365L12.4459 11.7365C12.388 11.9002 12.2942 12.0488 12.1714 12.1715L12.5956 12.5959L13.0197 13.0203C13.2692 12.771 13.4596 12.4691 13.5772 12.1366L13.0116 11.9365ZM12.5956 12.5959L12.1714 12.1715C12.0487 12.2942 11.9 12.3879 11.7363 12.4457L11.9359 13.0115L12.1356 13.5773C12.4682 13.4599 12.7702 13.2696 13.0197 13.0203L12.5956 12.5959ZM11.9359 13.0115L11.7341 12.4464C11.6107 12.4905 11.4484 12.5084 10.8902 12.5523L10.9372 13.1504L10.9841 13.7486C11.4685 13.7106 11.8267 13.6876 12.1377 13.5765L11.9359 13.0115ZM10.9372 13.1504L10.8884 12.5524C10.6938 12.5683 10.5517 12.5791 10.4106 12.6069L10.5267 13.1956L10.6428 13.7842C10.702 13.7725 10.7659 13.7664 10.986 13.7484L10.9372 13.1504ZM10.5267 13.1956L10.4106 12.6069C10.1038 12.6674 9.812 12.7882 9.55222 12.9623L9.88626 13.4608L10.2203 13.9592C10.3482 13.8735 10.4918 13.814 10.6428 13.7842L10.5267 13.1956ZM9.88626 13.4608L9.53807 12.9721C9.40682 13.0656 9.28116 13.1668 9.16172 13.275L9.56463 13.7196L9.96754 14.1642C10.0522 14.0875 10.1414 14.0157 10.2344 13.9494L9.88626 13.4608ZM9.56463 13.7196L9.17576 13.2627C8.75035 13.6247 8.62097 13.7284 8.5011 13.7859L8.76056 14.3269L9.02002 14.8679C9.31488 14.7265 9.5833 14.4916 9.9535 14.1765L9.56463 13.7196ZM8.76056 14.3269L8.50172 13.7856C8.34503 13.8605 8.17355 13.8994 7.99986 13.8994V14.4994V15.0994C8.35271 15.0994 8.70107 15.0204 9.0194 14.8682L8.76056 14.3269ZM7.99986 14.4994V13.8994C7.82618 13.8994 7.6547 13.8605 7.49801 13.7856L7.23917 14.3269L6.98033 14.8682C7.29865 15.0204 7.64702 15.0994 7.99986 15.0994V14.4994ZM7.23917 14.3269L7.49642 13.7848C7.37785 13.7286 7.24932 13.6261 6.82484 13.2634L6.4351 13.7196L6.04536 14.1758C6.41508 14.4917 6.68435 14.7277 6.98192 14.869L7.23917 14.3269ZM6.4351 13.7196L6.83756 13.2746C6.71787 13.1664 6.59192 13.0652 6.46039 12.9717L6.11276 13.4608L5.76514 13.9498C5.85843 14.0161 5.94775 14.0878 6.03263 14.1646L6.4351 13.7196ZM6.11276 13.4608L6.4468 12.9623C6.18702 12.7882 5.89527 12.6674 5.58845 12.6069L5.47233 13.1956L5.35621 13.7842C5.50724 13.814 5.65085 13.8735 5.77873 13.9592L6.11276 13.4608ZM5.47233 13.1956L5.57272 12.604C5.41377 12.577 5.25339 12.5594 5.09238 12.5512L5.06183 13.1504L5.03128 13.7496C5.14547 13.7555 5.25922 13.768 5.37194 13.7871L5.47233 13.1956ZM5.06183 13.1504L5.10878 12.5523C4.55243 12.5086 4.38796 12.49 4.26326 12.4458L4.06309 13.0115L3.86292 13.5771C4.17269 13.6867 4.52876 13.7104 5.01488 13.7486L5.06183 13.1504ZM4.06309 13.0115L4.26276 12.4457C4.09906 12.3879 3.95036 12.2942 3.82757 12.1715L3.40345 12.5959L2.97932 13.0203C3.22877 13.2696 3.53085 13.4599 3.86342 13.5773L4.06309 13.0115ZM3.40345 12.5959L3.82757 12.1715C3.70478 12.0488 3.61101 11.9002 3.55314 11.7365L2.98747 11.9365L2.4218 12.1366C2.53937 12.4691 2.72987 12.771 2.97932 13.0203L3.40345 12.5959ZM2.98747 11.9365L3.55309 11.7364C3.50895 11.6116 3.4912 11.4478 3.44661 10.89L2.84852 10.9378L2.25042 10.9856C2.28906 11.4689 2.31222 11.827 2.42184 12.1367L2.98747 11.9365ZM2.84852 10.9378L3.4478 10.9084C3.43989 10.7472 3.42253 10.5865 3.3958 10.4273L2.80408 10.5266L2.21236 10.6259C2.23132 10.7389 2.24363 10.8528 2.24924 10.9672L2.84852 10.9378ZM2.80408 10.5266L3.39267 10.4101C3.33203 10.1037 3.21122 9.81223 3.03723 9.55273L2.53888 9.88687L2.04053 10.221C2.12617 10.3487 2.18564 10.4922 2.21549 10.6431L2.80408 10.5266ZM2.53888 9.88687L3.03811 9.55405C2.95761 9.4333 2.86175 9.32268 2.73744 9.17624L2.28002 9.56454L1.82261 9.95283C1.96773 10.1238 2.00729 10.1712 2.03965 10.2197L2.53888 9.88687ZM2.28002 9.56454L2.73695 9.17566C2.37415 8.74938 2.27041 8.62065 2.21303 8.501L1.67203 8.76046L1.13103 9.01992C1.27255 9.31501 1.50878 9.58408 1.8231 9.95341L2.28002 9.56454ZM1.67203 8.76046L2.21333 8.50162C2.1384 8.34493 2.09951 8.17345 2.09951 7.99977L1.49951 7.99977L0.899512 7.99977C0.899512 8.35261 0.97852 8.70098 1.13074 9.0193L1.67203 8.76046ZM1.49951 7.99977L2.09951 7.99977C2.09951 7.82609 2.1384 7.65461 2.21333 7.49792L1.67203 7.23908L1.13074 6.98024C0.978519 7.29856 0.899512 7.64693 0.899512 7.99977L1.49951 7.99977ZM1.67203 7.23908L2.21303 7.49853C2.27041 7.37891 2.37402 7.24943 2.73655 6.82434L2.28002 6.435L1.8235 6.04566C1.50751 6.41618 1.27256 6.68451 1.13103 6.97962L1.67203 7.23908ZM2.28002 6.435L2.73744 6.8233C2.86175 6.67686 2.95761 6.56624 3.03811 6.44549L2.53888 6.11267L2.03965 5.77985C2.00729 5.82838 1.96773 5.87575 1.82261 6.04671L2.28002 6.435ZM2.53888 6.11267L3.03723 6.44681C3.21122 6.18731 3.33203 5.89588 3.39267 5.5894L2.80408 5.47294L2.21549 5.35648C2.18564 5.50735 2.12617 5.6508 2.04053 5.77853L2.53888 6.11267ZM2.80408 5.47294L3.39275 5.58901C3.42074 5.44703 3.43139 5.30409 3.44669 5.10853L2.84852 5.06173L2.25034 5.01494C2.2332 5.23411 2.22692 5.29854 2.21542 5.35686L2.80408 5.47294ZM2.84852 5.06173L3.44661 5.10955C3.49116 4.55222 3.50891 4.38842 3.55329 4.26259L2.98747 4.06299L2.42164 3.8634C2.31226 4.17346 2.2891 4.53018 2.25042 5.01392L2.84852 5.06173ZM2.98747 4.06299L3.5531 4.26313C3.61103 4.09942 3.70487 3.95076 3.82774 3.82804L3.40376 3.4035L2.97977 2.97896C2.73015 3.22826 2.53951 3.53027 2.42183 3.86285L2.98747 4.06299ZM3.40376 3.4035L3.82774 3.82804C3.95062 3.70533 4.0994 3.61169 4.26319 3.55397L4.06379 2.98808L3.8644 2.42218C3.53166 2.53942 3.22939 2.72967 2.97977 2.97896L3.40376 3.4035ZM4.06379 2.98808L4.26397 3.5537C4.38867 3.50957 4.55314 3.49095 5.10948 3.44729L5.06253 2.84913L5.01559 2.25097C4.52946 2.28912 4.1734 2.31282 3.86362 2.42245L4.06379 2.98808ZM5.06253 2.84913L5.11135 3.44714C5.30594 3.43125 5.44801 3.42047 5.58911 3.39265L5.47303 2.80399L5.35696 2.21532C5.29775 2.227 5.23386 2.23315 5.01372 2.25112L5.06253 2.84913ZM5.47303 2.80399L5.58915 3.39264C5.89597 3.33212 6.18772 3.21131 6.44751 3.0372L6.11347 2.53878L5.77943 2.04037C5.65156 2.12607 5.50795 2.18554 5.35692 2.21533L5.47303 2.80399ZM6.11347 2.53878L6.44629 3.03801C6.56792 2.95692 6.67724 2.86203 6.82487 2.73548L6.43439 2.27993L6.04392 1.82438C5.87557 1.96868 5.82829 2.00779 5.78065 2.03955L6.11347 2.53878ZM5.53118 8.35267L5.10692 8.77694L6.51757 10.1876L6.94183 9.76332L7.3661 9.33906L5.95544 7.92841L5.53118 8.35267ZM6.94183 9.76332L7.3661 10.1876L10.8927 6.66096L10.4685 6.23669L10.0442 5.81243L6.51757 9.33906L6.94183 9.76332Z"
      fill="currentColor" />
  </g>
  <defs>
    <clipPath id="clip0_2107_67101">
      <rect width="16" height="16" fill="white" />
    </clipPath>
  </defs>
</svg>