<svg width="16" height="16" viewBox="0 0 16 16" fill="none" xmlns="http://www.w3.org/2000/svg">
    <path d="M4 6.66663H6.66667" stroke="currentColor" stroke-linecap="round" stroke-linejoin="round" />
    <path
        d="M13.8889 7.33337H12.1538C10.9643 7.33337 10 8.2288 10 9.33337C10 10.4379 10.9643 11.3334 12.1538 11.3334H13.8889C13.9444 11.3334 13.9722 11.3334 13.9957 11.3319C14.3552 11.3101 14.6416 11.0441 14.6651 10.7103C14.6667 10.6885 14.6667 10.6627 14.6667 10.6112V8.0556C14.6667 8.00401 14.6667 7.97822 14.6651 7.95644C14.6416 7.6226 14.3552 7.35668 13.9957 7.3348C13.9722 7.33337 13.9444 7.33337 13.8889 7.33337Z"
        stroke="currentColor" />
    <path
        d="M13.9766 7.33333C13.9248 6.08513 13.7577 5.31983 13.2189 4.78105C12.4378 4 11.1807 4 8.66658 4H6.66658C4.15243 4 2.89535 4 2.1143 4.78105C1.33325 5.5621 1.33325 6.81918 1.33325 9.33333C1.33325 11.8475 1.33325 13.1046 2.1143 13.8856C2.89535 14.6667 4.15243 14.6667 6.66658 14.6667H8.66658C11.1807 14.6667 12.4378 14.6667 13.2189 13.8856C13.7577 13.3468 13.9248 12.5815 13.9766 11.3333"
        stroke="currentColor" />
    <path d="M4 4L6.49032 2.34876C7.19162 1.88375 8.14171 1.88375 8.84301 2.34876L11.3333 4" stroke="currentColor"
        stroke-linecap="round" />
    <path d="M11.9942 9.33337H12.0002" stroke="currentColor" stroke-width="1.33333" stroke-linecap="round"
        stroke-linejoin="round" />
</svg>