<svg width="16" height="16" viewBox="0 0 16 16" fill="none" xmlns="http://www.w3.org/2000/svg">
    <g clip-path="url(#clip0_23_3509)">
        <path
            d="M14.6666 8.00004C14.6666 8.87552 14.4941 9.74243 14.1591 10.5513C13.8241 11.3601 13.333 12.095 12.714 12.7141C12.0949 13.3331 11.36 13.8242 10.5511 14.1592C9.7423 14.4943 8.8754 14.6667 7.99992 14.6667C7.12444 14.6667 6.25753 14.4943 5.4487 14.1592C4.63986 13.8242 3.90493 13.3331 3.28587 12.7141C2.66682 12.095 2.17575 11.3601 1.84072 10.5513C1.50569 9.74243 1.33325 8.87552 1.33325 8.00004C1.33325 7.12456 1.50569 6.25765 1.84072 5.44882C2.17575 4.63998 2.66682 3.90505 3.28587 3.28599C3.90493 2.66694 4.63986 2.17587 5.4487 1.84084C6.25753 1.50581 7.12444 1.33337 7.99992 1.33337C8.8754 1.33337 9.7423 1.50581 10.5511 1.84084C11.36 2.17588 12.0949 2.66694 12.714 3.286C13.333 3.90505 13.8241 4.63998 14.1591 5.44882C14.4941 6.25766 14.6666 7.12456 14.6666 8.00004L14.6666 8.00004Z"
            stroke="currentColor" />
        <path
            d="M10.6666 8.00004C10.6666 8.87552 10.5976 9.74243 10.4636 10.5513C10.3296 11.3601 10.1332 12.095 9.88554 12.7141C9.63791 13.3331 9.34394 13.8242 9.02041 14.1592C8.69687 14.4943 8.35011 14.6667 7.99992 14.6667C7.64973 14.6667 7.30296 14.4943 6.97943 14.1592C6.65589 13.8242 6.36192 13.3331 6.1143 12.7141C5.86668 12.095 5.67025 11.3601 5.53624 10.5513C5.40223 9.74243 5.33325 8.87552 5.33325 8.00004C5.33325 7.12456 5.40223 6.25765 5.53624 5.44882C5.67025 4.63998 5.86668 3.90505 6.1143 3.28599C6.36192 2.66694 6.65589 2.17587 6.97943 1.84084C7.30296 1.50581 7.64973 1.33337 7.99992 1.33337C8.35011 1.33337 8.69687 1.50581 9.02041 1.84084C9.34394 2.17588 9.63791 2.66694 9.88554 3.286C10.1332 3.90505 10.3296 4.63998 10.4636 5.44882C10.5976 6.25766 10.6666 7.12456 10.6666 8.00004L10.6666 8.00004Z"
            stroke="currentColor" />
        <path d="M1.33325 8H14.6666" stroke="currentColor" stroke-linecap="round" />
    </g>
    <defs>
        <clipPath id="clip0_23_3509">
            <rect width="16" height="16" fill="white" />
        </clipPath>
    </defs>
</svg>