<svg width="20" height="20" viewBox="0 0 20 20" fill="none" xmlns="http://www.w3.org/2000/svg">
    <mask id="path-1-inside-1_387_16748" fill="white">
        <path
            d="M9.38101 1.25C9.21575 1.25 9.05725 1.31568 8.94039 1.4326C8.82353 1.54952 8.75787 1.70809 8.75787 1.87343V9.3765C8.75787 9.87399 8.95541 10.3511 9.30702 10.7029C9.65863 11.0546 10.1355 11.2523 10.6328 11.2523H18.1268C18.2091 11.2523 18.2906 11.236 18.3666 11.2043C18.4425 11.1726 18.5115 11.1262 18.5694 11.0677C18.6273 11.0093 18.6731 10.9399 18.7041 10.8636C18.7351 10.7874 18.7507 10.7057 18.75 10.6234C18.7471 8.13828 17.7591 5.75581 16.0027 3.99859C14.2463 2.24137 11.8649 1.25289 9.38101 1.25ZM10.6328 9.99993C10.5505 10.0007 10.4689 9.98506 10.3926 9.95406C10.3164 9.92305 10.247 9.87724 10.1886 9.81928C10.1302 9.76132 10.0838 9.69235 10.0521 9.61635C10.0204 9.54035 10.0042 9.45883 10.0042 9.3765V2.52421C11.9354 2.67587 13.7492 3.51219 15.119 4.88266C16.4889 6.25313 17.3248 8.06774 17.4764 9.99993H10.6328Z" />
        <path
            d="M16.651 12.5374C16.5735 12.5098 16.4913 12.4977 16.4091 12.502C16.3269 12.5063 16.2464 12.5269 16.1722 12.5625C16.098 12.598 16.0316 12.648 15.9768 12.7094C15.922 12.7708 15.8799 12.8425 15.8529 12.9202C15.3652 14.3271 14.4306 15.5356 13.1919 16.3611C11.9532 17.1866 10.4785 17.5838 8.99292 17.4921C7.29502 17.3867 5.69541 16.6592 4.49958 15.4487C3.30375 14.2382 2.5955 12.6294 2.51008 10.9296C2.43969 9.45683 2.84716 8.00075 3.6717 6.77864C4.49624 5.55653 5.69364 4.6339 7.08524 4.14842C7.16276 4.12113 7.23415 4.07883 7.29534 4.02393C7.35652 3.96904 7.4063 3.90262 7.44183 3.82848C7.47736 3.75434 7.49795 3.67392 7.50242 3.59182C7.50688 3.50972 7.49514 3.42755 7.46787 3.34998C7.44059 3.27242 7.39831 3.201 7.34344 3.13978C7.28857 3.07857 7.22219 3.02877 7.14808 2.99322C7.07398 2.95767 6.9936 2.93708 6.91154 2.93261C6.82947 2.92814 6.74733 2.93988 6.66981 2.96717C5.02744 3.53903 3.61353 4.62615 2.63848 6.06675C1.66343 7.50734 1.17937 9.22441 1.25833 10.9624C1.356 12.974 2.18988 14.8793 3.60111 16.3154C5.01233 17.7514 6.90229 18.618 8.91093 18.7499H9.37008C11.0509 18.7595 12.6926 18.2426 14.0649 17.2717C15.4373 16.3008 16.4716 14.9245 17.0227 13.3358C17.079 13.1806 17.0716 13.0094 17.0019 12.8597C16.9322 12.71 16.806 12.5941 16.651 12.5374Z" />
    </mask>
    <path
        d="M9.38101 1.25C9.21575 1.25 9.05725 1.31568 8.94039 1.4326C8.82353 1.54952 8.75787 1.70809 8.75787 1.87343V9.3765C8.75787 9.87399 8.95541 10.3511 9.30702 10.7029C9.65863 11.0546 10.1355 11.2523 10.6328 11.2523H18.1268C18.2091 11.2523 18.2906 11.236 18.3666 11.2043C18.4425 11.1726 18.5115 11.1262 18.5694 11.0677C18.6273 11.0093 18.6731 10.9399 18.7041 10.8636C18.7351 10.7874 18.7507 10.7057 18.75 10.6234C18.7471 8.13828 17.7591 5.75581 16.0027 3.99859C14.2463 2.24137 11.8649 1.25289 9.38101 1.25ZM10.6328 9.99993C10.5505 10.0007 10.4689 9.98506 10.3926 9.95406C10.3164 9.92305 10.247 9.87724 10.1886 9.81928C10.1302 9.76132 10.0838 9.69235 10.0521 9.61635C10.0204 9.54035 10.0042 9.45883 10.0042 9.3765V2.52421C11.9354 2.67587 13.7492 3.51219 15.119 4.88266C16.4889 6.25313 17.3248 8.06774 17.4764 9.99993H10.6328Z"
        fill="#513E31" />
    <path
        d="M16.651 12.5374C16.5735 12.5098 16.4913 12.4977 16.4091 12.502C16.3269 12.5063 16.2464 12.5269 16.1722 12.5625C16.098 12.598 16.0316 12.648 15.9768 12.7094C15.922 12.7708 15.8799 12.8425 15.8529 12.9202C15.3652 14.3271 14.4306 15.5356 13.1919 16.3611C11.9532 17.1866 10.4785 17.5838 8.99292 17.4921C7.29502 17.3867 5.69541 16.6592 4.49958 15.4487C3.30375 14.2382 2.5955 12.6294 2.51008 10.9296C2.43969 9.45683 2.84716 8.00075 3.6717 6.77864C4.49624 5.55653 5.69364 4.6339 7.08524 4.14842C7.16276 4.12113 7.23415 4.07883 7.29534 4.02393C7.35652 3.96904 7.4063 3.90262 7.44183 3.82848C7.47736 3.75434 7.49795 3.67392 7.50242 3.59182C7.50688 3.50972 7.49514 3.42755 7.46787 3.34998C7.44059 3.27242 7.39831 3.201 7.34344 3.13978C7.28857 3.07857 7.22219 3.02877 7.14808 2.99322C7.07398 2.95767 6.9936 2.93708 6.91154 2.93261C6.82947 2.92814 6.74733 2.93988 6.66981 2.96717C5.02744 3.53903 3.61353 4.62615 2.63848 6.06675C1.66343 7.50734 1.17937 9.22441 1.25833 10.9624C1.356 12.974 2.18988 14.8793 3.60111 16.3154C5.01233 17.7514 6.90229 18.618 8.91093 18.7499H9.37008C11.0509 18.7595 12.6926 18.2426 14.0649 17.2717C15.4373 16.3008 16.4716 14.9245 17.0227 13.3358C17.079 13.1806 17.0716 13.0094 17.0019 12.8597C16.9322 12.71 16.806 12.5941 16.651 12.5374Z"
        fill="#513E31" />
    <path
        d="M9.38101 1.25L9.38515 -2.2943H9.38101V1.25ZM18.1268 11.2523L18.127 7.70797H18.1268V11.2523ZM18.75 10.6234L15.2057 10.6275L15.2057 10.641L15.2058 10.6544L18.75 10.6234ZM10.6328 9.99993V6.45563H10.6172L10.6017 6.45577L10.6328 9.99993ZM10.0042 9.3765L13.5485 9.37664V9.3765H10.0042ZM10.0042 2.52421L10.2816 -1.00922L6.45985 -1.30933V2.52421H10.0042ZM17.4764 9.99993V13.5442H21.3096L21.0098 9.72272L17.4764 9.99993ZM16.651 12.5374L17.8686 9.20881L17.8554 9.20401L17.8422 9.19931L16.651 12.5374ZM15.8529 12.9202L12.5043 11.7588L12.5041 11.7593L15.8529 12.9202ZM8.99292 17.4921L8.77332 21.0296L8.77438 21.0296L8.99292 17.4921ZM2.51008 10.9296L-1.0302 11.0988L-1.02976 11.1075L2.51008 10.9296ZM7.08524 4.14842L8.25272 7.49493L8.2621 7.49163L7.08524 4.14842ZM6.66981 2.96717L7.83528 6.3144L7.84668 6.31039L6.66981 2.96717ZM1.25833 10.9624L-2.28234 11.1233L-2.2818 11.1343L1.25833 10.9624ZM8.91093 18.7499L8.67871 22.2866L8.79469 22.2942H8.91093V18.7499ZM9.37008 18.7499L9.39038 15.2056L9.38023 15.2056H9.37008V18.7499ZM17.0227 13.3358L13.6913 12.1259L13.6825 12.15L13.6741 12.1742L17.0227 13.3358ZM9.38101 -2.2943C8.2752 -2.2943 7.21502 -1.8548 6.4336 -1.07301L11.4472 3.93821C10.8995 4.48617 10.1563 4.7943 9.38101 4.7943V-2.2943ZM6.4336 -1.07301C5.65223 -0.291279 5.21357 0.768623 5.21357 1.87343H12.3022C12.3022 2.64755 11.9948 3.39031 11.4472 3.93821L6.4336 -1.07301ZM5.21357 1.87343V9.3765H12.3022V1.87343H5.21357ZM5.21357 9.3765C5.21357 10.8135 5.78412 12.1919 6.80023 13.2085L11.8138 8.19726C12.1267 8.5103 12.3022 8.93452 12.3022 9.3765H5.21357ZM6.80023 13.2085C7.81639 14.2251 9.19496 14.7966 10.6328 14.7966V7.70797C11.0761 7.70797 11.5009 7.88417 11.8138 8.19726L6.80023 13.2085ZM10.6328 14.7966H18.1268V7.70797H10.6328V14.7966ZM18.1267 14.7966C18.6773 14.7966 19.2224 14.6875 19.7305 14.4756L17.0026 7.93296C17.3588 7.78444 17.741 7.70795 18.127 7.70797L18.1267 14.7966ZM19.7305 14.4756C20.2387 14.2638 20.6997 13.9533 21.0871 13.5624L16.0517 8.5731C16.3232 8.29909 16.6464 8.08149 17.0026 7.93296L19.7305 14.4756ZM21.0871 13.5624C21.4745 13.1714 21.7806 12.7077 21.9877 12.1979L15.4206 9.52936C15.5657 9.17213 15.7802 8.84712 16.0517 8.5731L21.0871 13.5624ZM21.9877 12.1979C22.1948 11.6881 22.299 11.1424 22.2941 10.5923L15.2058 10.6544C15.2024 10.269 15.2754 9.88659 15.4206 9.52936L21.9877 12.1979ZM22.2943 10.6192C22.2903 7.19612 20.9294 3.914 18.5095 1.49298L13.4959 6.5042C14.5888 7.59762 15.2039 9.08045 15.2057 10.6275L22.2943 10.6192ZM18.5095 1.49298C16.0895 -0.928098 12.8082 -2.29031 9.38515 -2.2943L9.37688 4.7943C10.9217 4.7961 12.403 5.41084 13.4959 6.5042L18.5095 1.49298ZM10.6017 6.45577C10.9876 6.45238 11.3705 6.52552 11.728 6.67093L9.05727 13.2372C9.56725 13.4446 10.1133 13.5489 10.6639 13.5441L10.6017 6.45577ZM11.728 6.67093C12.0855 6.81633 12.4105 7.0311 12.6844 7.30274L7.69277 12.3358C8.08356 12.7234 8.5473 13.0298 9.05727 13.2372L11.728 6.67093ZM12.6844 7.30274C12.9583 7.5744 13.1756 7.89755 13.3239 8.25346L6.78031 10.9792C6.99189 11.4871 7.30197 11.9482 7.69277 12.3358L12.6844 7.30274ZM13.3239 8.25346C13.4722 8.60939 13.5485 8.99112 13.5485 9.37664L6.45985 9.37636C6.45983 9.92655 6.56874 10.4713 6.78031 10.9792L13.3239 8.25346ZM13.5485 9.3765V2.52421H6.45985V9.3765H13.5485ZM9.72668 6.05763C10.8159 6.14317 11.8392 6.61488 12.6122 7.38827L17.6258 2.37705C15.6592 0.409505 13.0549 -0.791432 10.2816 -1.00922L9.72668 6.05763ZM12.6122 7.38827C13.3853 8.1617 13.8573 9.18608 13.9429 10.2771L21.0098 9.72272C20.7922 6.94941 19.5924 4.34455 17.6258 2.37705L12.6122 7.38827ZM17.4764 6.45563H10.6328V13.5442H17.4764V6.45563ZM17.8422 9.19931C17.3238 9.01428 16.7738 8.93381 16.224 8.96256L16.5942 16.0415C16.2088 16.0616 15.8232 16.0052 15.4597 15.8755L17.8422 9.19931ZM16.224 8.96256C15.6742 8.99131 15.1357 9.1287 14.6393 9.36678L17.7051 15.7581C17.3572 15.925 16.9796 16.0213 16.5942 16.0415L16.224 8.96256ZM14.6393 9.36678C14.143 9.60484 13.6989 9.93883 13.3325 10.3494L18.6212 15.0694C18.3643 15.3571 18.053 15.5912 17.7051 15.7581L14.6393 9.36678ZM13.3325 10.3494C12.966 10.76 12.6846 11.239 12.5043 11.7588L19.2015 14.0817C19.0752 14.4459 18.878 14.7816 18.6212 15.0694L13.3325 10.3494ZM12.5041 11.7593C12.2698 12.4352 11.8209 13.0155 11.2263 13.4118L15.1575 19.3104C17.0403 18.0556 18.4606 16.219 19.2017 14.0812L12.5041 11.7593ZM11.2263 13.4118C10.6318 13.808 9.92414 13.9985 9.21146 13.9545L8.77438 21.0296C11.0328 21.1691 13.2746 20.5653 15.1575 19.3104L11.2263 13.4118ZM9.21252 13.9546C8.38471 13.9032 7.60452 13.5485 7.02103 12.9579L1.97813 17.9396C3.7863 19.77 6.20532 20.8701 8.77332 21.0296L9.21252 13.9546ZM7.02103 12.9579C6.4375 12.3672 6.09163 11.5818 6.04991 10.7517L-1.02976 11.1075C-0.900633 13.677 0.170003 16.1093 1.97813 17.9396L7.02103 12.9579ZM6.05034 10.7604C6.01643 10.0508 6.21276 9.34945 6.60982 8.76094L0.733577 4.79634C-0.518438 6.65205 -1.13705 8.86282 -1.03019 11.0988L6.05034 10.7604ZM6.60982 8.76094C7.00687 8.17245 7.58324 7.72848 8.25272 7.49492L5.91775 0.801914C3.80404 1.53932 1.98561 2.9406 0.733577 4.79634L6.60982 8.76094ZM8.2621 7.49163C8.77884 7.30973 9.25459 7.02782 9.66224 6.66208L4.92843 1.38578C5.21372 1.12983 5.54669 0.932522 5.90837 0.805204L8.2621 7.49163ZM9.66224 6.66208C10.0699 6.29635 10.4015 5.85395 10.6381 5.3602L4.2456 2.29676C4.41116 1.95129 4.64316 1.64173 4.92843 1.38578L9.66224 6.66208ZM10.6381 5.3602C10.8747 4.86645 11.0117 4.33098 11.0415 3.78436L3.96335 3.39929C3.98415 3.01687 4.08004 2.64223 4.2456 2.29676L10.6381 5.3602ZM11.0415 3.78436C11.0712 3.23773 10.9931 2.69057 10.8114 2.1741L4.12431 4.52587C3.99723 4.16452 3.94254 3.78171 3.96335 3.39929L11.0415 3.78436ZM10.8114 2.1741C10.6298 1.65762 10.3482 1.1819 9.9827 0.77411L4.70418 5.50545C4.4484 5.2201 4.25139 4.88722 4.12431 4.52587L10.8114 2.1741ZM9.9827 0.77411C9.61718 0.366322 9.17487 0.0344573 8.68097 -0.202454L5.61519 6.18889C5.26951 6.02307 4.95996 5.79081 4.70418 5.50545L9.9827 0.77411ZM8.68097 -0.202454C8.18708 -0.439366 7.6513 -0.576663 7.10425 -0.606453L6.71882 6.47167C6.33589 6.45082 5.96088 6.35471 5.61519 6.18889L8.68097 -0.202454ZM7.10425 -0.606453C6.5572 -0.636242 6.00967 -0.557936 5.49294 -0.376038L7.84668 6.31039C7.485 6.43771 7.10174 6.49252 6.71882 6.47167L7.10425 -0.606453ZM5.50434 -0.380028C3.14071 0.44297 1.10617 2.0074 -0.296711 4.08011L5.57367 8.05339C6.12088 7.24491 6.91418 6.6351 7.83528 6.31438L5.50434 -0.380028ZM-0.296711 4.08011C-1.69958 6.15279 -2.39591 8.62305 -2.28232 11.1233L4.79898 10.8016C4.75465 9.82578 5.02644 8.8619 5.57367 8.05339L-0.296711 4.08011ZM-2.2818 11.1343C-2.14196 14.0145 -0.94798 16.7429 1.07311 18.7996L6.1291 13.8311C5.32773 13.0156 4.85396 11.9334 4.79846 10.7905L-2.2818 11.1343ZM1.07311 18.7996C3.09425 20.8563 5.80131 22.0976 8.67871 22.2866L9.14315 15.2132C8.00327 15.1383 6.93042 14.6466 6.1291 13.8311L1.07311 18.7996ZM8.91093 22.2942H9.37008V15.2056H8.91093V22.2942ZM9.34979 22.2941C11.7709 22.308 14.1354 21.5634 16.1119 20.1651L12.0179 14.3783C11.2497 14.9218 10.3309 15.211 9.39038 15.2056L9.34979 22.2941ZM16.1119 20.1651C18.0884 18.7668 19.5777 16.7849 20.3712 14.4975L13.6741 12.1742C13.3654 13.0641 12.7862 13.8348 12.0179 14.3783L16.1119 20.1651ZM20.3541 14.5458C20.7308 13.5086 20.6808 12.3643 20.2151 11.3639L13.7887 14.3556C13.4623 13.6545 13.4273 12.8527 13.6913 12.1259L20.3541 14.5458ZM20.2151 11.3639C19.7493 10.3634 18.9056 9.58815 17.8686 9.20881L15.4334 15.866C14.7064 15.6001 14.1151 15.0567 13.7887 14.3556L20.2151 11.3639Z"
        fill="currentColor" mask="url(#path-1-inside-1_387_16748)" />
</svg>