<svg width="16" height="16" viewBox="0 0 16 16" fill="none" xmlns="http://www.w3.org/2000/svg">
    <path
        d="M4.59992 13.7334C5.59992 14.3334 6.79992 14.6667 7.99992 14.6667C11.6666 14.6667 14.6666 11.6667 14.6666 8.00004C14.6666 4.33337 11.6666 1.33337 7.99992 1.33337C4.33325 1.33337 1.33325 4.33337 1.33325 8.00004C1.33325 9.20004 1.66659 10.3334 2.19992 11.3334L1.62688 13.5374C1.49706 14.0367 1.9592 14.4879 2.45524 14.3461L4.59992 13.7334Z"
        stroke="currentColor" stroke-miterlimit="10" stroke-linecap="round" stroke-linejoin="round" />
    <path
        d="M11 9.899C11 10.007 10.976 10.118 10.9249 10.226C10.8738 10.334 10.8077 10.436 10.7206 10.532C10.5734 10.694 10.4111 10.811 10.2278 10.886C10.0476 10.961 9.85228 11 9.64196 11C9.3355 11 9.00801 10.928 8.66249 10.781C8.31698 10.634 7.97146 10.436 7.62894 10.187C7.28343 9.935 6.95593 9.656 6.64347 9.347C6.334 9.035 6.05458 8.708 5.80521 8.366C5.55884 8.024 5.36054 7.682 5.21632 7.343C5.07211 7.001 5 6.674 5 6.362C5 6.158 5.03605 5.963 5.10816 5.783C5.18027 5.6 5.29444 5.432 5.45368 5.282C5.64597 5.093 5.85628 5 6.07862 5C6.16274 5 6.24687 5.018 6.32198 5.054C6.4001 5.09 6.4692 5.144 6.52329 5.222L7.22033 6.203C7.27441 6.278 7.31347 6.347 7.34051 6.413C7.36755 6.476 7.38257 6.539 7.38257 6.596C7.38257 6.668 7.36154 6.74 7.31948 6.809C7.28042 6.878 7.22334 6.95 7.15123 7.022L6.92288 7.259C6.88983 7.292 6.87481 7.331 6.87481 7.379C6.87481 7.403 6.87782 7.424 6.88383 7.448C6.89284 7.472 6.90185 7.49 6.90786 7.508C6.96194 7.607 7.05508 7.736 7.18728 7.892C7.32248 8.048 7.4667 8.207 7.62293 8.366C7.78518 8.525 7.94141 8.672 8.10065 8.807C8.25689 8.939 8.38608 9.029 8.48823 9.083C8.50325 9.089 8.52128 9.098 8.54231 9.107C8.56635 9.116 8.59039 9.119 8.61743 9.119C8.6685 9.119 8.70756 9.101 8.74061 9.068L8.96895 8.843C9.04407 8.768 9.11617 8.711 9.18528 8.675C9.25438 8.633 9.32349 8.612 9.3986 8.612C9.45568 8.612 9.51577 8.624 9.58187 8.651C9.64797 8.678 9.71708 8.717 9.79219 8.768L10.7867 9.473C10.8648 9.527 10.9189 9.59 10.9519 9.665C10.982 9.74 11 9.815 11 9.899Z"
        stroke="currentColor" stroke-miterlimit="10" />
</svg>