<svg width="16" height="16" viewBox="0 0 16 16" fill="none" xmlns="http://www.w3.org/2000/svg">
  <path
    d="M4.60016 13.7334L4.85741 13.3046L4.67139 13.193L4.4628 13.2526L4.60016 13.7334ZM2.20016 11.3334L2.68407 11.4592L2.73319 11.2703L2.64134 11.0981L2.20016 11.3334ZM1.3335 14.6667L0.849585 14.5409C0.804431 14.7146 0.855804 14.8991 0.984198 15.0245C1.11259 15.1498 1.29832 15.1968 1.47086 15.1475L1.3335 14.6667ZM4.60016 13.7334L4.34292 14.1621C5.42151 14.8093 6.71059 15.1667 8.00016 15.1667V14.6667V14.1667C6.88974 14.1667 5.77881 13.8575 4.85741 13.3046L4.60016 13.7334ZM8.00016 14.6667V15.1667C11.943 15.1667 15.1668 11.9429 15.1668 8.00004H14.6668H14.1668C14.1668 11.3906 11.3907 14.1667 8.00016 14.1667V14.6667ZM14.6668 8.00004H15.1668C15.1668 4.05723 11.943 0.833374 8.00016 0.833374V1.33337V1.83337C11.3907 1.83337 14.1668 4.60952 14.1668 8.00004H14.6668ZM8.00016 1.33337V0.833374C4.05735 0.833374 0.833496 4.05723 0.833496 8.00004H1.3335H1.8335C1.8335 4.60952 4.60964 1.83337 8.00016 1.83337V1.33337ZM1.3335 8.00004H0.833496C0.833496 9.2937 1.19288 10.5072 1.75899 11.5687L2.20016 11.3334L2.64134 11.0981C2.14078 10.1595 1.8335 9.10638 1.8335 8.00004H1.3335ZM2.20016 11.3334L1.71625 11.2076L0.849585 14.5409L1.3335 14.6667L1.81741 14.7925L2.68407 11.4592L2.20016 11.3334ZM1.3335 14.6667L1.47086 15.1475L4.73752 14.2141L4.60016 13.7334L4.4628 13.2526L1.19614 14.1859L1.3335 14.6667Z"
    fill="currentColor" />
  <path
    d="M10.2021 9.97852C10.1908 9.99474 10.1801 10.0118 10.166 10.0273C10.1254 10.072 10.0866 10.1064 10.0498 10.1328L9.94336 10.1914L9.93945 10.1934C9.854 10.2289 9.75677 10.25 9.6416 10.25C9.45363 10.2499 9.22615 10.2057 8.95605 10.0908C8.806 10.027 8.65414 9.94984 8.5 9.86035C8.54379 9.86542 8.58313 9.86913 8.61719 9.86914C8.87542 9.86914 9.10087 9.76613 9.2666 9.60254L9.43555 9.43457L10.2021 9.97852ZM6.55371 6.56055L6.38281 6.73828C6.22699 6.89861 6.14681 7.09521 6.12891 7.29297L6.125 7.37891L6.13184 7.49512C6.08596 7.41632 6.04349 7.33858 6.00488 7.26172L5.90625 7.0498C5.79434 6.78383 5.75005 6.55658 5.75 6.3623C5.75 6.30491 5.75536 6.25108 5.76465 6.20117L5.80469 6.06152L5.80566 6.05762C5.83479 5.98378 5.88401 5.90708 5.96777 5.82812L5.97949 5.81641C5.98967 5.80642 5.99929 5.79821 6.00781 5.79102L6.55371 6.56055Z"
    stroke="currentColor" stroke-width="1.5" stroke-miterlimit="10" />
</svg>