<svg width="16" height="16" viewBox="0 0 16 16" fill="none" xmlns="http://www.w3.org/2000/svg">
    <g clip-path="url(#clip0_23_2243)">
        <path d="M6.66669 9.33333H8.00002M8.00002 9.33333H9.33335M8.00002 9.33333V10.6667M8.00002 9.33333V8"
            stroke="currentColor" stroke-linecap="round" />
        <path
            d="M1.33331 4.63321C1.33331 4.04485 1.33331 3.75067 1.37955 3.50563C1.58307 2.42691 2.42685 1.58313 3.50557 1.37961C3.75061 1.33337 4.04479 1.33337 4.63314 1.33337C4.89093 1.33337 5.01982 1.33337 5.14369 1.34496C5.67775 1.3949 6.18433 1.60473 6.59727 1.94705C6.69306 2.02645 6.7842 2.11759 6.96648 2.29987L7.33331 2.66671C7.87717 3.21056 8.14909 3.48249 8.47472 3.66366C8.65361 3.76318 8.84335 3.84178 9.04021 3.89789C9.39858 4.00004 9.78314 4.00004 10.5523 4.00004H10.8014C12.5563 4.00004 13.4337 4.00004 14.0041 4.51302C14.0566 4.5602 14.1065 4.61013 14.1537 4.66259C14.6666 5.23294 14.6666 6.1104 14.6666 7.86531V9.33337C14.6666 11.8475 14.6666 13.1046 13.8856 13.8857C13.1045 14.6667 11.8475 14.6667 9.33331 14.6667H6.66665C4.15249 14.6667 2.89541 14.6667 2.11436 13.8857C1.33331 13.1046 1.33331 11.8475 1.33331 9.33337V4.63321Z"
            stroke="currentColor" />
    </g>
    <defs>
        <clipPath id="clip0_23_2243">
            <rect width="16" height="16" fill="white" />
        </clipPath>
    </defs>
</svg>