<svg width="16" height="16" viewBox="0 0 16 16" fill="none" xmlns="http://www.w3.org/2000/svg">
    <rect width="15.9999" height="16" fill="white" />
    <path
        d="M15.5789 0H0.42105C0.309381 0 0.202285 0.0443606 0.123323 0.123323C0.0443606 0.202285 0 0.309381 0 0.42105V8.84205C0 8.95372 0.0443606 9.06082 0.123323 9.13978C0.202285 9.21874 0.309381 9.2631 0.42105 9.2631H15.5789C15.6905 9.2631 15.7976 9.21874 15.8766 9.13978C15.9555 9.06082 15.9999 8.95372 15.9999 8.84205V0.42105C15.9999 0.309381 15.9555 0.202285 15.8766 0.123323C15.7976 0.0443606 15.6905 0 15.5789 0ZM15.1578 7.421C15.1578 7.97329 14.7101 8.421 14.1578 8.421H1.8421C1.28982 8.421 0.8421 7.97329 0.8421 7.421V1.8421C0.8421 1.28981 1.28982 0.8421 1.8421 0.8421H14.1578C14.7101 0.8421 15.1578 1.28982 15.1578 1.8421V7.421ZM7.99995 6.7368C8.41633 6.7368 8.82336 6.61333 9.16957 6.382C9.51577 6.15067 9.78561 5.82188 9.94495 5.4372C10.1043 5.05251 10.146 4.62921 10.0647 4.22084C9.98352 3.81246 9.78301 3.43734 9.48859 3.14291C9.19416 2.84849 8.81904 2.64798 8.41067 2.56675C8.00229 2.48552 7.57899 2.52721 7.19431 2.68655C6.80962 2.84589 6.48083 3.11573 6.2495 3.46194C6.01817 3.80814 5.8947 4.21517 5.8947 4.63155C5.8947 5.1899 6.1165 5.72538 6.51131 6.12019C6.90613 6.515 7.4416 6.7368 7.99995 6.7368ZM7.99995 3.3684C8.24978 3.3684 8.494 3.44248 8.70172 3.58128C8.90944 3.72008 9.07135 3.91735 9.16695 4.14816C9.26256 4.37897 9.28757 4.63295 9.23883 4.87798C9.19009 5.12301 9.06979 5.34808 8.89313 5.52473C8.71648 5.70139 8.49141 5.82169 8.24638 5.87043C8.00135 5.91917 7.74738 5.89415 7.51656 5.79855C7.28575 5.70294 7.08848 5.54104 6.94968 5.33332C6.81088 5.12559 6.7368 4.88138 6.7368 4.63155C6.7368 4.29654 6.86988 3.97525 7.10677 3.73837C7.34366 3.50148 7.66494 3.3684 7.99995 3.3684ZM11.7894 4.63155C11.7894 4.51988 11.8338 4.41279 11.9127 4.33382C11.9917 4.25486 12.0988 4.2105 12.2105 4.2105H13.0526C13.1642 4.2105 13.2713 4.25486 13.3503 4.33382C13.4292 4.41279 13.4736 4.51988 13.4736 4.63155C13.4736 4.74322 13.4292 4.85032 13.3503 4.92928C13.2713 5.00824 13.1642 5.0526 13.0526 5.0526H12.2105C12.0988 5.0526 11.9917 5.00824 11.9127 4.92928C11.8338 4.85032 11.7894 4.74322 11.7894 4.63155ZM2.5263 4.63155C2.5263 4.51988 2.57066 4.41279 2.64962 4.33382C2.72859 4.25486 2.83568 4.2105 2.94735 4.2105H3.78945C3.90112 4.2105 4.00822 4.25486 4.08718 4.33382C4.16614 4.41279 4.2105 4.51988 4.2105 4.63155C4.2105 4.74322 4.16614 4.85032 4.08718 4.92928C4.00822 5.00824 3.90112 5.0526 3.78945 5.0526H2.94735C2.83568 5.0526 2.72859 5.00824 2.64962 4.92928C2.57066 4.85032 2.5263 4.74322 2.5263 4.63155ZM9.97889 13.5999C10.0192 13.6377 10.0513 13.6834 10.0732 13.7341C10.0952 13.7848 10.1065 13.8394 10.1065 13.8947C10.1065 13.9499 10.0952 14.0045 10.0732 14.0552C10.0513 14.1059 10.0192 14.1516 9.97889 14.1894L8.29469 15.8736C8.25911 15.9162 8.2125 15.9483 8.15995 15.9662C8.10955 15.9885 8.05505 16 7.99995 16C7.94485 16 7.89035 15.9885 7.83995 15.9662C7.7874 15.9483 7.7408 15.9162 7.70522 15.8736L6.02102 14.1894C5.98231 14.1507 5.95161 14.1047 5.93066 14.0542C5.90971 14.0036 5.89893 13.9494 5.89893 13.8947C5.89893 13.8399 5.90971 13.7857 5.93066 13.7351C5.95161 13.6846 5.98231 13.6386 6.02102 13.5999C6.05972 13.5612 6.10567 13.5305 6.15624 13.5096C6.20681 13.4886 6.26101 13.4778 6.31575 13.4778C6.37049 13.4778 6.42469 13.4886 6.47526 13.5096C6.52583 13.5305 6.57178 13.5612 6.61049 13.5999L7.5789 14.5599V10.5263C7.5789 10.4146 7.62326 10.3075 7.70222 10.2285C7.78119 10.1496 7.88828 10.1052 7.99995 10.1052C8.11162 10.1052 8.21872 10.1496 8.29768 10.2285C8.37664 10.3075 8.421 10.4146 8.421 10.5263V14.5599L9.38942 13.5999C9.42722 13.5596 9.47287 13.5275 9.52357 13.5056C9.57426 13.4836 9.62891 13.4723 9.68415 13.4723C9.73939 13.4723 9.79404 13.4836 9.84474 13.5056C9.89543 13.5275 9.94108 13.5596 9.97889 13.5999Z"
        fill="currentColor" />
</svg>