<svg width="16" height="16" viewBox="0 0 16 16" fill="none" xmlns="http://www.w3.org/2000/svg">
    <path
        d="M16 7.94991C16 7.91062 16 7.86598 15.9982 7.81419C15.9964 7.66955 15.9929 7.50705 15.9893 7.33383C15.975 6.83562 15.95 6.33919 15.9107 5.87133C15.8571 5.22669 15.7786 4.68919 15.6714 4.28562C15.5584 3.86446 15.3367 3.48035 15.0287 3.17169C14.7207 2.86302 14.337 2.64061 13.9161 2.52669C13.4107 2.39098 12.4214 2.30705 11.0286 2.25526C10.3661 2.23026 9.65714 2.21419 8.94821 2.20526C8.7 2.20169 8.46964 2.19991 8.2625 2.19812H7.7375C7.53036 2.19991 7.3 2.20169 7.05179 2.20526C6.34286 2.21419 5.63393 2.23026 4.97143 2.25526C3.57857 2.30883 2.5875 2.39276 2.08393 2.52669C1.66286 2.64033 1.27905 2.86265 0.970972 3.17136C0.662891 3.48006 0.441357 3.86432 0.328571 4.28562C0.219643 4.68919 0.142857 5.22669 0.0892857 5.87133C0.05 6.33919 0.025 6.83562 0.0107143 7.33383C0.00535712 7.50705 0.0035714 7.66955 0.00178569 7.81419C0.00178569 7.86598 0 7.91062 0 7.94991V8.04991C0 8.08919 -2.72744e-08 8.13383 0.00178569 8.18562C0.0035714 8.33026 0.00714283 8.49276 0.0107143 8.66598C0.025 9.16419 0.05 9.66062 0.0892857 10.1285C0.142857 10.7731 0.221429 11.3106 0.328571 11.7142C0.557143 12.5695 1.22857 13.2445 2.08393 13.4731C2.5875 13.6088 3.57857 13.6928 4.97143 13.7445C5.63393 13.7695 6.34286 13.7856 7.05179 13.7945C7.3 13.7981 7.53036 13.7999 7.7375 13.8017H8.2625C8.46964 13.7999 8.7 13.7981 8.94821 13.7945C9.65714 13.7856 10.3661 13.7695 11.0286 13.7445C12.4214 13.691 13.4125 13.607 13.9161 13.4731C14.7714 13.2445 15.4429 12.5713 15.6714 11.7142C15.7804 11.3106 15.8571 10.7731 15.9107 10.1285C15.95 9.66062 15.975 9.16419 15.9893 8.66598C15.9946 8.49276 15.9964 8.33026 15.9982 8.18562C15.9982 8.13383 16 8.08919 16 8.04991V7.94991ZM14.7143 8.04276C14.7143 8.08026 14.7143 8.12133 14.7125 8.16955C14.7107 8.30883 14.7071 8.46241 14.7036 8.62848C14.6911 9.10348 14.6661 9.57848 14.6286 10.0195C14.5804 10.5945 14.5125 11.066 14.4286 11.382C14.3179 11.7945 13.9929 12.1213 13.5821 12.2303C13.2071 12.3303 12.2625 12.4106 10.9786 12.4588C10.3286 12.4838 9.62857 12.4999 8.93036 12.5088C8.68571 12.5124 8.45893 12.5142 8.25536 12.5142H7.74464L7.06964 12.5088C6.37143 12.4999 5.67321 12.4838 5.02143 12.4588C3.7375 12.4088 2.79107 12.3303 2.41786 12.2303C2.00714 12.1195 1.68214 11.7945 1.57143 11.382C1.4875 11.066 1.41964 10.5945 1.37143 10.0195C1.33393 9.57848 1.31071 9.10348 1.29643 8.62848C1.29107 8.46241 1.28929 8.30705 1.2875 8.16955C1.2875 8.12133 1.28571 8.07848 1.28571 8.04276V7.95705C1.28571 7.91955 1.28571 7.87848 1.2875 7.83026C1.28929 7.69098 1.29286 7.53741 1.29643 7.37133C1.30893 6.89633 1.33393 6.42133 1.37143 5.98026C1.41964 5.40526 1.4875 4.93383 1.57143 4.61776C1.68214 4.20526 2.00714 3.87848 2.41786 3.76955C2.79286 3.66955 3.7375 3.58919 5.02143 3.54098C5.67143 3.51598 6.37143 3.49991 7.06964 3.49098C7.31429 3.48741 7.54107 3.48562 7.74464 3.48562H8.25536L8.93036 3.49098C9.62857 3.49991 10.3268 3.51598 10.9786 3.54098C12.2625 3.59098 13.2089 3.66955 13.5821 3.76955C13.9929 3.88026 14.3179 4.20526 14.4286 4.61776C14.5125 4.93383 14.5804 5.40526 14.6286 5.98026C14.6661 6.42133 14.6893 6.89633 14.7036 7.37133C14.7089 7.53741 14.7107 7.69276 14.7125 7.83026C14.7125 7.87848 14.7143 7.92133 14.7143 7.95705V8.04276ZM6.41071 9.99531C6.41071 10.1716 6.60186 10.2815 6.75424 10.1929L10.2115 8.18108C10.3636 8.09261 10.3629 7.87272 10.2102 7.78523L6.75296 5.80325C6.60059 5.7159 6.41071 5.82591 6.41071 6.00155V9.99531Z"
        fill="currentColor" />
</svg>