<svg width="16" height="16" viewBox="0 0 16 16" fill="none" xmlns="http://www.w3.org/2000/svg">
    <circle cx="8" cy="8" r="7.5" stroke="currentColor" />
    <path
        d="M7.09322 9.45712L9.44602 7.99998L7.09322 6.54283V9.45712ZM12.3338 5.65398C12.3927 5.88226 12.4335 6.18826 12.4607 6.57683C12.4924 6.9654 12.506 7.30055 12.506 7.59198L12.5332 7.99998C12.5332 9.06369 12.4607 9.84569 12.3338 10.346C12.2204 10.7831 11.9575 11.0648 11.5495 11.1863C11.3364 11.2494 10.9466 11.2931 10.3482 11.3223C9.75882 11.3563 9.21935 11.3708 8.72069 11.3708L7.99989 11.4C6.10042 11.4 4.91722 11.3223 4.45029 11.1863C4.04229 11.0648 3.77935 10.7831 3.66602 10.346C3.60709 10.1177 3.56629 9.81169 3.53909 9.42312C3.50735 9.03455 3.49375 8.6994 3.49375 8.40798L3.46655 7.99998C3.46655 6.93626 3.53909 6.15426 3.66602 5.65398C3.77935 5.21683 4.04229 4.93512 4.45029 4.81369C4.66335 4.75055 5.05322 4.70683 5.65162 4.67769C6.24095 4.64369 6.78042 4.62912 7.27909 4.62912L7.99989 4.59998C9.89935 4.59998 11.0826 4.67769 11.5495 4.81369C11.9575 4.93512 12.2204 5.21683 12.3338 5.65398Z"
        fill="currentColor" />
</svg>